<?xml version="1.0" encoding="UTF-8"?>
<svg width="194px" height="194px" viewBox="0 0 194 194" version="1.1" xmlns="http://www.w3.org/2000/svg" xmlns:xlink="http://www.w3.org/1999/xlink">
    <!-- Generator: Sketch 48.2 (47327) - http://www.bohemiancoding.com/sketch -->
    <title>Shape</title>
    <desc>Created with Sketch.</desc>
    <defs></defs>
    <g id="Page-1" stroke="none" stroke-width="1" fill="none" fill-rule="evenodd">
        <g id="icon-bitcoin" fill="#FFFFFF" fill-rule="nonzero">
            <path d="M97,0.2 C43.6,0.2 0.3,43.6 0.3,97 C0.3,150.4 43.6,193.8 97,193.8 C150.4,193.8 193.7,150.4 193.7,97 C193.7,43.6 150.4,0.2 97,0.2 Z M62.3,64.3 L100.6,64.5 L100.6,73.3 L73.7,73.5 L73.5,86.5 L92.7,86.5 C92.7,86.5 98.5,86.4 105.5,84.9 C106.8,84.6 105.9,93.9 105.9,93.9 C105.9,93.9 103.3,95.1 97.1,95.9 C91.5,96.6 85.1,96.5 84,96.5 C83.9,96.5 83.9,96.5 83.8,96.5 C83.8,96.5 62,96.3 62,96.3 L62.3,64.3 Z M123,132.9 L68.3,133.1 L68.1,114.1 L111.2,113.9 L111.2,110.3 L67.9,110.5 L67.7,102.9 L122,102.9 L122,121.5 L79,121.3 L79,125.5 L123.3,125.7 L123,132.9 Z M131.7,88.2 L122.3,88.2 L122.1,98.4 L111.3,98.2 L110.8,61 L123,61.2 C121.9,66.5 121.8,72.4 121.8,78.2 C121.8,78.2 129.5,78.2 131.2,78.2 C132,78.2 131.6,88.2 131.7,88.2 Z" id="Shape"></path>
        </g>
    </g>
</svg>