<?xml version="1.0" encoding="utf-8"?>
<!-- Generator: Adobe Illustrator 21.1.0, SVG Export Plug-In . SVG Version: 6.00 Build 0)  -->
<svg version="1.1" id="Layer_1" xmlns="http://www.w3.org/2000/svg" xmlns:xlink="http://www.w3.org/1999/xlink" x="0px" y="0px"
	 viewBox="0 0 12 16" style="enable-background:new 0 0 12 16;" xml:space="preserve">
<style type="text/css">
	.st0{fill:#7F7F7F;}
</style>
<title>Bitcoin_Symbol</title>
<desc>Created with Sketch.</desc>
<path class="st0" d="M0.8,3.1l5.7,0v1.3l-4,0l0,1.9h2.9c0,0,0.9,0,1.9-0.2c0.2,0,0.1,1.3,0.1,1.3S7,7.7,6,7.8
	C5.2,7.9,4.3,7.9,4.1,7.9c0,0,0,0,0,0c0,0-3.3,0-3.3,0L0.8,3.1z M9.9,13.3l-8.2,0l0-2.8l6.4,0V10l-6.5,0l0-1.1h8.1v2.8l-6.4,0v0.6
	l6.6,0L9.9,13.3z M11.2,6.7H9.8l0,1.5l-1.6,0L8.1,2.6l1.8,0C9.7,3.4,9.7,4.3,9.7,5.2c0,0,1.1,0,1.4,0C11.2,5.2,11.2,6.7,11.2,6.7z"
	/>
</svg>
