<?xml version="1.0" encoding="UTF-8" standalone="no"?><!DOCTYPE svg PUBLIC "-//W3C//DTD SVG 1.1//EN" "http://www.w3.org/Graphics/SVG/1.1/DTD/svg11.dtd"><svg width="100%" height="100%" viewBox="0 0 642 642" version="1.1" xmlns="http://www.w3.org/2000/svg" xmlns:xlink="http://www.w3.org/1999/xlink" xml:space="preserve" xmlns:serif="http://www.serif.com/" style="fill-rule:evenodd;clip-rule:evenodd;stroke-linejoin:round;stroke-miterlimit:1.41421;"><g id="push-notifications" serif:id="push notifications"><ellipse cx="321" cy="321.406" rx="317.889" ry="320.594" style="fill:#5c393e;fill-opacity:0.380392;"/><g id="Phone"><g><path d="M420.808,91.572c0,-14.185 -11.517,-25.702 -25.702,-25.702l-205.613,0c-14.185,0 -25.702,11.517 -25.702,25.702l0,424.753c0,14.186 11.517,25.702 25.702,25.702l205.613,0c14.185,0 25.702,-11.516 25.702,-25.702l0,-424.753Z" style="fill:#412b2e;fill-opacity:0.517647;"/><path d="M395.123,58.87l0.182,0.001l0.023,0l0.188,0.002l0.022,0l0.188,0.003l0.022,0.001l0.187,0.004l0.023,0l0.187,0.006l0.022,0l0.187,0.007l0.022,0.001l0.187,0.007l0.022,0.001l0.186,0.009l0.023,0.001l0.186,0.01l0.022,0.002l0.186,0.011l0.022,0.001l0.185,0.013l0.023,0.001l0.185,0.014l0.022,0.001l0.185,0.015l0.022,0.002l0.185,0.016l0.022,0.002l0.184,0.017l0.022,0.002l0.184,0.018l0.022,0.002l0.184,0.019l0.022,0.003l0.184,0.02l0.022,0.003l0.183,0.021l0.022,0.003l0.182,0.023l0.022,0.002l0.183,0.024l0.021,0.003l0.183,0.025l0.021,0.003l0.182,0.026l0.022,0.003l0.181,0.028l0.022,0.003l0.181,0.028l0.022,0.004l0.181,0.029l0.021,0.004l0.181,0.03l0.021,0.004l0.18,0.031l0.022,0.004l0.18,0.033l0.021,0.004l0.179,0.034l0.022,0.004l0.179,0.035l0.022,0.004l0.178,0.036l0.021,0.005l0.178,0.037l0.022,0.004l0.178,0.038l0.021,0.005l0.177,0.039l0.022,0.005l0.177,0.04l0.021,0.005l0.176,0.041l0.022,0.006l0.176,0.042l0.021,0.005l0.176,0.044l0.021,0.005l0.175,0.045l0.022,0.005l0.174,0.046l0.021,0.005l0.175,0.047l0.021,0.006l0.174,0.047l0.021,0.006l0.173,0.049l0.021,0.006l0.173,0.05l0.021,0.006l0.173,0.051l0.021,0.006l0.172,0.052l0.021,0.006l0.172,0.053l0.02,0.006l0.172,0.054l0.02,0.007l0.171,0.055l0.021,0.007l0.171,0.056l0.02,0.006l0.17,0.057l0.02,0.007l0.17,0.058l0.02,0.007l0.169,0.059l0.02,0.007l0.169,0.06l0.021,0.008l0.168,0.061l0.02,0.007l0.167,0.062l0.021,0.008l0.167,0.063l0.019,0.007l0.167,0.064l0.021,0.008l0.166,0.065l0.02,0.008l0.165,0.066l0.02,0.008l0.165,0.067l0.02,0.008l0.165,0.068l0.02,0.008l0.164,0.069l0.02,0.008l0.163,0.07l0.019,0.008l0.164,0.071l0.02,0.009l0.162,0.072l0.02,0.009l0.162,0.072l0.019,0.009l0.161,0.074l0.02,0.009l0.161,0.074l0.019,0.009l0.161,0.076l0.019,0.009l0.16,0.076l0.019,0.01l0.16,0.077l0.019,0.009l0.158,0.079l0.02,0.01l0.158,0.079l0.019,0.009l0.157,0.08l0.019,0.01l0.158,0.081l0.019,0.01l0.156,0.082l0.019,0.01l0.156,0.083l0.019,0.01l0.155,0.084l0.019,0.01l0.155,0.085l0.018,0.01l0.155,0.086l0.018,0.01l0.153,0.087l0.019,0.01l0.153,0.088l0.019,0.01l0.152,0.089l0.018,0.01l0.152,0.09l0.019,0.01l0.151,0.091l0.018,0.011l0.151,0.091l0.018,0.01l0.15,0.092l0.018,0.011l0.15,0.093l0.018,0.011l0.149,0.094l0.017,0.011l0.149,0.095l0.017,0.011l0.148,0.096l0.018,0.011l0.147,0.096l0.018,0.012l0.146,0.097l0.018,0.012l0.146,0.098l0.017,0.011l0.145,0.099l0.017,0.012l0.145,0.1l0.018,0.012l0.144,0.1l0.017,0.013l0.143,0.101l0.017,0.012l0.143,0.102l0.017,0.012l0.142,0.103l0.017,0.013l0.142,0.104l0.017,0.012l0.14,0.105l0.017,0.012l0.14,0.106l0.017,0.012l0.139,0.107l0.017,0.012l0.138,0.107l0.017,0.013l0.138,0.108l0.017,0.013l0.137,0.109l0.017,0.013l0.136,0.109l0.017,0.014l0.136,0.11l0.016,0.013l0.135,0.111l0.016,0.013l0.135,0.112l0.017,0.014l0.134,0.113l0.015,0.013l0.134,0.114l0.016,0.013l0.132,0.114l0.016,0.014l0.132,0.115l0.016,0.014l0.132,0.116l0.015,0.013l0.13,0.117l0.016,0.014l0.13,0.118l0.016,0.014l0.129,0.118l0.015,0.014l0.128,0.119l0.015,0.014l0.128,0.119l0.016,0.015l0.127,0.121l0.015,0.014l0.126,0.121l0.015,0.014l0.126,0.122l0.014,0.015l0.125,0.123l0.016,0.015l0.124,0.123l0.014,0.015l0.124,0.124l0.014,0.014l0.123,0.125l0.014,0.015l0.122,0.125l0.015,0.016l0.121,0.126l0.015,0.015l0.12,0.127l0.014,0.016l0.12,0.127l0.014,0.015l0.119,0.129l0.014,0.015l0.118,0.13l0.014,0.015l0.118,0.13l0.014,0.016l0.116,0.13l0.014,0.015l0.116,0.132l0.013,0.015l0.115,0.132l0.014,0.016l0.115,0.133l0.013,0.016l0.114,0.134l0.014,0.016l0.112,0.134l0.013,0.015l0.112,0.135l0.013,0.016l0.112,0.136l0.013,0.016l0.111,0.136l0.012,0.016l0.11,0.137l0.013,0.017l0.109,0.137l0.013,0.017l0.107,0.138l0.013,0.016l0.107,0.139l0.013,0.017l0.107,0.139l0.012,0.017l0.106,0.14l0.013,0.017l0.104,0.141l0.012,0.016l0.104,0.142l0.012,0.017l0.104,0.142l0.012,0.017l0.102,0.143l0.012,0.016l0.101,0.144l0.013,0.017l0.1,0.144l0.012,0.017l0.1,0.145l0.012,0.018l0.098,0.145l0.012,0.017l0.098,0.146l0.012,0.018l0.097,0.146l0.012,0.018l0.096,0.147l0.011,0.018l0.096,0.148l0.011,0.017l0.095,0.149l0.011,0.017l0.094,0.149l0.011,0.018l0.092,0.15l0.011,0.017l0.092,0.151l0.011,0.018l0.092,0.151l0.01,0.018l0.09,0.151l0.011,0.018l0.09,0.153l0.01,0.018l0.089,0.153l0.01,0.018l0.088,0.153l0.01,0.018l0.087,0.154l0.01,0.019l0.086,0.154l0.01,0.019l0.085,0.154l0.01,0.019l0.084,0.155l0.01,0.019l0.083,0.156l0.01,0.019l0.082,0.156l0.009,0.019l0.082,0.157l0.009,0.019l0.081,0.158l0.009,0.019l0.08,0.158l0.009,0.02l0.078,0.158l0.01,0.019l0.077,0.159l0.009,0.02l0.077,0.16l0.009,0.019l0.076,0.161l0.009,0.019l0.074,0.161l0.009,0.019l0.074,0.162l0.009,0.019l0.072,0.162l0.009,0.02l0.072,0.163l0.008,0.019l0.071,0.163l0.009,0.019l0.069,0.164l0.009,0.02l0.069,0.164l0.008,0.021l0.068,0.164l0.008,0.02l0.067,0.164l0.008,0.02l0.066,0.166l0.008,0.02l0.065,0.167l0.008,0.02l0.064,0.166l0.007,0.02l0.063,0.167l0.008,0.021l0.062,0.168l0.007,0.019l0.061,0.168l0.007,0.021l0.061,0.168l0.007,0.021l0.059,0.169l0.007,0.02l0.058,0.17l0.007,0.02l0.057,0.17l0.007,0.021l0.056,0.171l0.006,0.02l0.055,0.171l0.007,0.02l0.054,0.171l0.006,0.021l0.053,0.172l0.006,0.02l0.052,0.173l0.007,0.021l0.05,0.173l0.006,0.021l0.05,0.172l0.006,0.021l0.049,0.174l0.005,0.021l0.048,0.174l0.006,0.022l0.047,0.174l0.005,0.021l0.046,0.175l0.005,0.021l0.045,0.175l0.005,0.02l0.044,0.176l0.005,0.022l0.042,0.177l0.005,0.021l0.042,0.176l0.005,0.021l0.04,0.177l0.005,0.021l0.039,0.177l0.005,0.022l0.038,0.178l0.004,0.021l0.037,0.178l0.005,0.022l0.036,0.178l0.004,0.022l0.035,0.179l0.004,0.022l0.034,0.179l0.004,0.021l0.032,0.179l0.004,0.022l0.032,0.18l0.004,0.022l0.03,0.181l0.004,0.022l0.029,0.18l0.004,0.021l0.028,0.181l0.003,0.023l0.028,0.181l0.003,0.022l0.026,0.182l0.003,0.021l0.025,0.182l0.003,0.023l0.024,0.182l0.002,0.022l0.023,0.182l0.003,0.022l0.021,0.183l0.003,0.022l0.02,0.184l0.003,0.023l0.019,0.183l0.002,0.021l0.018,0.184l0.002,0.022l0.017,0.185l0.002,0.022l0.016,0.185l0.002,0.023l0.014,0.184l0.002,0.022l0.014,0.185l0.001,0.022l0.013,0.186l0.001,0.023l0.011,0.185l0.001,0.022l0.01,0.186l0.002,0.022l0.008,0.186l0.001,0.023l0.008,0.187l0.001,0.023l0.007,0.186l0,0.022l0.006,0.187l0,0.023l0.004,0.187l0.001,0.022l0.003,0.188l0,0.022l0.002,0.188l0,0.023l0.001,0.183l0,0.011l0,424.764l0,0.011l-0.001,0.183l0,0.022l-0.002,0.188l0,0.022l-0.003,0.188l-0.001,0.022l-0.004,0.188l0,0.022l-0.006,0.188l0,0.021l-0.007,0.187l-0.001,0.022l-0.008,0.187l-0.001,0.023l-0.008,0.187l-0.002,0.021l-0.01,0.186l-0.001,0.022l-0.011,0.186l-0.001,0.022l-0.013,0.186l-0.001,0.023l-0.014,0.185l-0.002,0.021l-0.014,0.185l-0.002,0.022l-0.016,0.185l-0.002,0.022l-0.017,0.185l-0.002,0.023l-0.018,0.183l-0.002,0.021l-0.019,0.184l-0.003,0.022l-0.02,0.184l-0.003,0.022l-0.021,0.184l-0.003,0.021l-0.023,0.183l-0.002,0.021l-0.024,0.183l-0.003,0.022l-0.025,0.182l-0.003,0.022l-0.026,0.181l-0.003,0.022l-0.028,0.182l-0.003,0.022l-0.028,0.181l-0.004,0.022l-0.029,0.18l-0.004,0.022l-0.03,0.18l-0.004,0.022l-0.032,0.18l-0.004,0.022l-0.032,0.18l-0.004,0.021l-0.034,0.179l-0.004,0.021l-0.035,0.179l-0.004,0.022l-0.036,0.178l-0.005,0.022l-0.037,0.178l-0.004,0.021l-0.038,0.178l-0.005,0.022l-0.039,0.177l-0.005,0.021l-0.04,0.177l-0.005,0.021l-0.042,0.177l-0.005,0.021l-0.042,0.176l-0.005,0.022l-0.044,0.176l-0.005,0.021l-0.045,0.175l-0.005,0.021l-0.046,0.175l-0.005,0.02l-0.047,0.175l-0.006,0.021l-0.047,0.174l-0.006,0.022l-0.049,0.173l-0.006,0.021l-0.05,0.173l-0.006,0.02l-0.05,0.173l-0.007,0.022l-0.052,0.172l-0.006,0.02l-0.053,0.172l-0.006,0.021l-0.054,0.171l-0.007,0.021l-0.055,0.17l-0.006,0.021l-0.056,0.171l-0.007,0.021l-0.057,0.17l-0.007,0.02l-0.058,0.169l-0.007,0.02l-0.059,0.169l-0.008,0.021l-0.06,0.169l-0.007,0.02l-0.061,0.168l-0.007,0.02l-0.062,0.168l-0.008,0.021l-0.063,0.166l-0.007,0.02l-0.064,0.166l-0.008,0.021l-0.065,0.166l-0.008,0.02l-0.066,0.166l-0.008,0.02l-0.067,0.165l-0.008,0.019l-0.068,0.165l-0.008,0.02l-0.069,0.164l-0.009,0.021l-0.069,0.163l-0.009,0.019l-0.07,0.163l-0.009,0.02l-0.072,0.163l-0.009,0.019l-0.072,0.162l-0.009,0.019l-0.074,0.162l-0.009,0.02l-0.074,0.161l-0.009,0.018l-0.076,0.161l-0.009,0.019l-0.076,0.16l-0.01,0.02l-0.078,0.16l-0.009,0.018l-0.078,0.159l-0.01,0.019l-0.079,0.158l-0.009,0.019l-0.08,0.158l-0.01,0.019l-0.081,0.157l-0.01,0.019l-0.082,0.157l-0.01,0.018l-0.083,0.156l-0.01,0.019l-0.084,0.156l-0.01,0.018l-0.085,0.154l-0.01,0.019l-0.086,0.155l-0.01,0.019l-0.087,0.154l-0.011,0.018l-0.087,0.153l-0.01,0.018l-0.089,0.153l-0.01,0.018l-0.09,0.152l-0.01,0.018l-0.091,0.151l-0.011,0.019l-0.091,0.151l-0.01,0.017l-0.092,0.151l-0.012,0.018l-0.093,0.15l-0.011,0.017l-0.093,0.149l-0.011,0.017l-0.094,0.149l-0.012,0.018l-0.096,0.148l-0.011,0.017l-0.096,0.147l-0.012,0.019l-0.098,0.147l-0.011,0.017l-0.098,0.145l-0.011,0.017l-0.099,0.146l-0.012,0.017l-0.1,0.145l-0.012,0.017l-0.1,0.144l-0.013,0.018l-0.101,0.143l-0.012,0.016l-0.102,0.143l-0.012,0.018l-0.104,0.142l-0.012,0.017l-0.104,0.141l-0.012,0.017l-0.105,0.14l-0.012,0.016l-0.105,0.141l-0.014,0.018l-0.106,0.139l-0.012,0.016l-0.107,0.139l-0.014,0.017l-0.108,0.138l-0.012,0.016l-0.109,0.138l-0.013,0.016l-0.109,0.137l-0.014,0.016l-0.11,0.137l-0.013,0.016l-0.111,0.135l-0.013,0.015l-0.112,0.135l-0.014,0.017l-0.113,0.134l-0.013,0.016l-0.114,0.133l-0.013,0.016l-0.114,0.133l-0.015,0.016l-0.115,0.133l-0.014,0.015l-0.115,0.131l-0.014,0.016l-0.116,0.13l-0.013,0.014l-0.118,0.13l-0.015,0.017l-0.118,0.13l-0.014,0.014l-0.119,0.129l-0.014,0.015l-0.12,0.128l-0.014,0.015l-0.12,0.127l-0.015,0.016l-0.122,0.126l-0.014,0.015l-0.121,0.125l-0.015,0.015l-0.122,0.125l-0.016,0.015l-0.123,0.125l-0.015,0.014l-0.123,0.123l-0.015,0.014l-0.125,0.123l-0.015,0.015l-0.126,0.122l-0.015,0.014l-0.126,0.122l-0.015,0.014l-0.127,0.12l-0.016,0.015l-0.128,0.12l-0.015,0.014l-0.128,0.119l-0.015,0.014l-0.13,0.118l-0.015,0.014l-0.13,0.117l-0.016,0.014l-0.13,0.117l-0.015,0.013l-0.131,0.116l-0.016,0.014l-0.133,0.115l-0.016,0.014l-0.133,0.114l-0.014,0.013l-0.134,0.114l-0.017,0.014l-0.134,0.113l-0.015,0.013l-0.135,0.111l-0.016,0.014l-0.136,0.111l-0.016,0.014l-0.136,0.11l-0.016,0.013l-0.137,0.109l-0.017,0.014l-0.137,0.108l-0.017,0.014l-0.138,0.107l-0.016,0.013l-0.139,0.107l-0.017,0.013l-0.139,0.106l-0.017,0.013l-0.141,0.106l-0.016,0.012l-0.141,0.104l-0.015,0.012l-0.142,0.104l-0.018,0.013l-0.143,0.104l-0.017,0.012l-0.142,0.102l-0.016,0.011l-0.143,0.101l-0.018,0.013l-0.144,0.1l-0.018,0.013l-0.145,0.099l-0.018,0.013l-0.145,0.098l-0.016,0.011l-0.146,0.098l-0.019,0.013l-0.146,0.097l-0.016,0.011l-0.147,0.096l-0.019,0.012l-0.148,0.095l-0.017,0.011l-0.148,0.095l-0.018,0.011l-0.15,0.094l-0.018,0.012l-0.149,0.092l-0.018,0.011l-0.15,0.092l-0.018,0.011l-0.151,0.091l-0.018,0.011l-0.152,0.09l-0.017,0.011l-0.152,0.089l-0.018,0.01l-0.153,0.089l-0.019,0.011l-0.154,0.088l-0.017,0.01l-0.154,0.086l-0.018,0.01l-0.155,0.086l-0.019,0.011l-0.155,0.085l-0.018,0.009l-0.155,0.084l-0.019,0.01l-0.157,0.084l-0.018,0.009l-0.156,0.082l-0.019,0.01l-0.157,0.081l-0.019,0.01l-0.158,0.08l-0.019,0.01l-0.159,0.079l-0.02,0.01l-0.158,0.078l-0.017,0.009l-0.16,0.077l-0.021,0.01l-0.16,0.077l-0.019,0.009l-0.159,0.075l-0.019,0.009l-0.161,0.075l-0.021,0.009l-0.162,0.074l-0.019,0.008l-0.161,0.073l-0.02,0.009l-0.162,0.071l-0.019,0.009l-0.163,0.07l-0.021,0.009l-0.164,0.07l-0.02,0.009l-0.164,0.068l-0.019,0.008l-0.164,0.068l-0.021,0.009l-0.165,0.066l-0.019,0.008l-0.165,0.066l-0.021,0.008l-0.167,0.066l-0.021,0.008l-0.167,0.064l-0.018,0.007l-0.167,0.062l-0.021,0.008l-0.168,0.062l-0.019,0.008l-0.168,0.061l-0.02,0.007l-0.169,0.06l-0.021,0.007l-0.169,0.059l-0.021,0.008l-0.169,0.057l-0.02,0.007l-0.17,0.057l-0.021,0.007l-0.17,0.056l-0.02,0.006l-0.171,0.055l-0.021,0.007l-0.172,0.054l-0.021,0.007l-0.171,0.053l-0.021,0.006l-0.173,0.052l-0.021,0.006l-0.172,0.051l-0.02,0.005l-0.173,0.05l-0.022,0.007l-0.174,0.048l-0.019,0.006l-0.174,0.048l-0.022,0.006l-0.175,0.046l-0.021,0.006l-0.175,0.045l-0.021,0.006l-0.175,0.044l-0.022,0.006l-0.176,0.043l-0.019,0.005l-0.176,0.043l-0.022,0.005l-0.177,0.041l-0.023,0.005l-0.176,0.041l-0.019,0.004l-0.178,0.039l-0.023,0.005l-0.178,0.039l-0.021,0.004l-0.177,0.037l-0.021,0.004l-0.179,0.036l-0.023,0.005l-0.179,0.035l-0.021,0.004l-0.178,0.033l-0.021,0.004l-0.18,0.033l-0.023,0.004l-0.18,0.032l-0.021,0.003l-0.18,0.031l-0.023,0.004l-0.181,0.029l-0.021,0.003l-0.18,0.028l-0.022,0.004l-0.182,0.027l-0.023,0.003l-0.181,0.026l-0.021,0.003l-0.182,0.025l-0.022,0.003l-0.183,0.024l-0.022,0.003l-0.182,0.022l-0.022,0.003l-0.183,0.022l-0.023,0.002l-0.184,0.021l-0.021,0.002l-0.184,0.019l-0.023,0.003l-0.183,0.018l-0.02,0.001l-0.185,0.018l-0.024,0.002l-0.185,0.016l-0.021,0.001l-0.185,0.015l-0.022,0.002l-0.186,0.013l-0.021,0.002l-0.186,0.012l-0.023,0.002l-0.187,0.011l-0.021,0.001l-0.185,0.01l-0.023,0.001l-0.186,0.009l-0.021,0.001l-0.186,0.008l-0.024,0.001l-0.188,0.006l-0.022,0.001l-0.187,0.005l-0.022,0.001l-0.188,0.004l-0.022,0l-0.187,0.003l-0.022,0l-0.188,0.002l-0.022,0l-0.183,0.001l-0.011,0l-205.625,0l-0.012,0l-0.182,-0.001l-0.022,0l-0.188,-0.002l-0.022,0l-0.188,-0.003l-0.022,0l-0.187,-0.004l-0.022,-0.001l-0.188,-0.005l-0.022,-0.001l-0.187,-0.006l-0.024,-0.001l-0.187,-0.008l-0.021,-0.001l-0.186,-0.009l-0.022,-0.001l-0.186,-0.01l-0.021,-0.001l-0.186,-0.011l-0.024,-0.002l-0.186,-0.012l-0.021,-0.002l-0.185,-0.013l-0.022,-0.002l-0.185,-0.015l-0.022,-0.001l-0.185,-0.016l-0.024,-0.002l-0.184,-0.018l-0.02,-0.001l-0.184,-0.018l-0.022,-0.003l-0.184,-0.019l-0.022,-0.002l-0.183,-0.021l-0.023,-0.002l-0.183,-0.022l-0.022,-0.003l-0.182,-0.022l-0.022,-0.003l-0.183,-0.024l-0.023,-0.003l-0.182,-0.025l-0.02,-0.003l-0.182,-0.026l-0.023,-0.003l-0.182,-0.027l-0.021,-0.004l-0.181,-0.028l-0.02,-0.003l-0.181,-0.029l-0.023,-0.004l-0.181,-0.031l-0.02,-0.003l-0.18,-0.032l-0.024,-0.004l-0.179,-0.033l-0.021,-0.004l-0.178,-0.033l-0.021,-0.004l-0.179,-0.035l-0.023,-0.005l-0.179,-0.036l-0.021,-0.004l-0.177,-0.037l-0.021,-0.004l-0.178,-0.039l-0.024,-0.005l-0.177,-0.039l-0.02,-0.004l-0.176,-0.041l-0.022,-0.005l-0.177,-0.041l-0.022,-0.005l-0.176,-0.043l-0.02,-0.005l-0.175,-0.043l-0.022,-0.006l-0.176,-0.044l-0.02,-0.006l-0.175,-0.045l-0.021,-0.006l-0.175,-0.046l-0.022,-0.006l-0.174,-0.048l-0.02,-0.006l-0.173,-0.048l-0.022,-0.007l-0.174,-0.05l-0.019,-0.005l-0.172,-0.051l-0.022,-0.006l-0.172,-0.052l-0.021,-0.006l-0.172,-0.053l-0.021,-0.007l-0.171,-0.054l-0.022,-0.007l-0.17,-0.055l-0.02,-0.006l-0.17,-0.056l-0.021,-0.007l-0.17,-0.057l-0.02,-0.006l-0.169,-0.058l-0.021,-0.008l-0.17,-0.059l-0.021,-0.007l-0.168,-0.06l-0.02,-0.007l-0.168,-0.061l-0.02,-0.008l-0.167,-0.062l-0.022,-0.008l-0.166,-0.062l-0.019,-0.007l-0.166,-0.064l-0.021,-0.008l-0.167,-0.066l-0.021,-0.008l-0.166,-0.066l-0.018,-0.007l-0.165,-0.067l-0.021,-0.009l-0.165,-0.068l-0.019,-0.008l-0.163,-0.068l-0.02,-0.009l-0.164,-0.07l-0.021,-0.009l-0.163,-0.071l-0.019,-0.008l-0.162,-0.071l-0.02,-0.009l-0.162,-0.073l-0.018,-0.008l-0.162,-0.074l-0.021,-0.01l-0.161,-0.074l-0.019,-0.009l-0.16,-0.075l-0.018,-0.009l-0.161,-0.077l-0.02,-0.01l-0.16,-0.077l-0.017,-0.009l-0.159,-0.078l-0.019,-0.01l-0.159,-0.079l-0.02,-0.01l-0.158,-0.081l-0.018,-0.009l-0.157,-0.081l-0.019,-0.01l-0.156,-0.082l-0.019,-0.009l-0.156,-0.084l-0.02,-0.01l-0.155,-0.084l-0.017,-0.009l-0.155,-0.085l-0.02,-0.011l-0.154,-0.086l-0.019,-0.01l-0.153,-0.086l-0.017,-0.01l-0.154,-0.088l-0.019,-0.011l-0.153,-0.089l-0.019,-0.01l-0.151,-0.09l-0.018,-0.01l-0.151,-0.09l-0.018,-0.011l-0.151,-0.091l-0.019,-0.011l-0.15,-0.092l-0.017,-0.011l-0.149,-0.092l-0.019,-0.012l-0.149,-0.094l-0.018,-0.011l-0.149,-0.095l-0.017,-0.011l-0.148,-0.095l-0.018,-0.012l-0.147,-0.096l-0.016,-0.011l-0.146,-0.097l-0.019,-0.013l-0.147,-0.098l-0.016,-0.011l-0.145,-0.098l-0.018,-0.013l-0.145,-0.099l-0.017,-0.012l-0.144,-0.101l-0.018,-0.013l-0.144,-0.101l-0.015,-0.011l-0.143,-0.102l-0.017,-0.012l-0.142,-0.104l-0.018,-0.013l-0.142,-0.104l-0.015,-0.011l-0.141,-0.105l-0.017,-0.013l-0.14,-0.105l-0.017,-0.013l-0.14,-0.106l-0.016,-0.013l-0.139,-0.107l-0.016,-0.012l-0.138,-0.108l-0.017,-0.014l-0.138,-0.108l-0.016,-0.014l-0.137,-0.109l-0.016,-0.013l-0.136,-0.11l-0.017,-0.014l-0.135,-0.111l-0.017,-0.014l-0.134,-0.111l-0.015,-0.013l-0.134,-0.113l-0.017,-0.014l-0.134,-0.114l-0.015,-0.013l-0.133,-0.114l-0.016,-0.014l-0.132,-0.115l-0.016,-0.014l-0.131,-0.116l-0.015,-0.013l-0.131,-0.117l-0.015,-0.014l-0.13,-0.117l-0.015,-0.014l-0.13,-0.118l-0.015,-0.014l-0.128,-0.119l-0.016,-0.014l-0.128,-0.12l-0.015,-0.014l-0.127,-0.121l-0.015,-0.014l-0.127,-0.122l-0.015,-0.014l-0.126,-0.123l-0.015,-0.014l-0.124,-0.123l-0.015,-0.014l-0.123,-0.123l-0.015,-0.014l-0.123,-0.124l-0.016,-0.016l-0.123,-0.126l-0.014,-0.014l-0.122,-0.125l-0.014,-0.015l-0.121,-0.126l-0.015,-0.016l-0.12,-0.127l-0.014,-0.015l-0.12,-0.128l-0.015,-0.015l-0.118,-0.129l-0.014,-0.014l-0.118,-0.13l-0.015,-0.016l-0.118,-0.131l-0.013,-0.014l-0.116,-0.13l-0.014,-0.016l-0.116,-0.131l-0.014,-0.016l-0.115,-0.132l-0.014,-0.016l-0.114,-0.133l-0.014,-0.016l-0.113,-0.133l-0.013,-0.016l-0.113,-0.134l-0.014,-0.017l-0.112,-0.135l-0.013,-0.015l-0.111,-0.135l-0.013,-0.016l-0.11,-0.136l-0.014,-0.017l-0.11,-0.137l-0.012,-0.016l-0.109,-0.138l-0.012,-0.016l-0.109,-0.138l-0.013,-0.017l-0.107,-0.139l-0.012,-0.016l-0.106,-0.139l-0.014,-0.018l-0.105,-0.14l-0.012,-0.016l-0.105,-0.141l-0.013,-0.017l-0.104,-0.142l-0.012,-0.016l-0.103,-0.143l-0.013,-0.017l-0.102,-0.143l-0.011,-0.016l-0.101,-0.143l-0.013,-0.018l-0.1,-0.144l-0.013,-0.017l-0.099,-0.145l-0.012,-0.017l-0.099,-0.146l-0.012,-0.017l-0.097,-0.146l-0.012,-0.017l-0.097,-0.146l-0.012,-0.019l-0.096,-0.147l-0.011,-0.017l-0.096,-0.148l-0.012,-0.018l-0.094,-0.149l-0.011,-0.017l-0.094,-0.149l-0.011,-0.017l-0.093,-0.15l-0.011,-0.019l-0.092,-0.15l-0.01,-0.017l-0.091,-0.151l-0.012,-0.019l-0.09,-0.152l-0.011,-0.017l-0.089,-0.152l-0.011,-0.018l-0.088,-0.153l-0.01,-0.018l-0.088,-0.153l-0.01,-0.019l-0.087,-0.154l-0.01,-0.018l-0.086,-0.154l-0.011,-0.02l-0.084,-0.154l-0.01,-0.018l-0.084,-0.155l-0.01,-0.02l-0.083,-0.156l-0.01,-0.018l-0.082,-0.157l-0.01,-0.019l-0.081,-0.157l-0.01,-0.02l-0.08,-0.157l-0.009,-0.018l-0.08,-0.158l-0.009,-0.02l-0.079,-0.159l-0.009,-0.019l-0.077,-0.159l-0.01,-0.019l-0.076,-0.16l-0.01,-0.02l-0.075,-0.161l-0.009,-0.019l-0.075,-0.161l-0.009,-0.019l-0.073,-0.161l-0.009,-0.02l-0.073,-0.162l-0.008,-0.019l-0.072,-0.163l-0.009,-0.02l-0.071,-0.163l-0.008,-0.019l-0.07,-0.164l-0.008,-0.02l-0.069,-0.164l-0.008,-0.02l-0.068,-0.164l-0.008,-0.02l-0.067,-0.165l-0.008,-0.02l-0.066,-0.166l-0.008,-0.02l-0.065,-0.166l-0.008,-0.02l-0.064,-0.167l-0.008,-0.02l-0.063,-0.167l-0.007,-0.02l-0.062,-0.167l-0.008,-0.021l-0.061,-0.168l-0.007,-0.02l-0.06,-0.169l-0.007,-0.021l-0.059,-0.169l-0.007,-0.02l-0.058,-0.169l-0.007,-0.021l-0.057,-0.17l-0.007,-0.02l-0.056,-0.17l-0.006,-0.021l-0.055,-0.171l-0.007,-0.021l-0.054,-0.172l-0.006,-0.02l-0.053,-0.172l-0.007,-0.02l-0.051,-0.173l-0.007,-0.021l-0.051,-0.173l-0.006,-0.02l-0.049,-0.173l-0.006,-0.021l-0.049,-0.174l-0.006,-0.021l-0.048,-0.174l-0.005,-0.021l-0.047,-0.174l-0.006,-0.021l-0.045,-0.175l-0.006,-0.021l-0.044,-0.175l-0.005,-0.021l-0.044,-0.176l-0.005,-0.022l-0.043,-0.176l-0.005,-0.021l-0.041,-0.177l-0.005,-0.021l-0.04,-0.177l-0.005,-0.021l-0.039,-0.177l-0.005,-0.022l-0.038,-0.177l-0.005,-0.022l-0.037,-0.178l-0.004,-0.022l-0.036,-0.178l-0.004,-0.022l-0.035,-0.178l-0.004,-0.022l-0.034,-0.179l-0.004,-0.022l-0.033,-0.179l-0.004,-0.022l-0.031,-0.18l-0.004,-0.022l-0.031,-0.18l-0.003,-0.022l-0.03,-0.181l-0.003,-0.021l-0.028,-0.181l-0.004,-0.022l-0.027,-0.181l-0.003,-0.022l-0.026,-0.182l-0.003,-0.022l-0.025,-0.182l-0.003,-0.022l-0.024,-0.183l-0.003,-0.021l-0.022,-0.183l-0.003,-0.022l-0.021,-0.183l-0.003,-0.022l-0.02,-0.183l-0.003,-0.022l-0.019,-0.184l-0.002,-0.022l-0.018,-0.184l-0.002,-0.022l-0.017,-0.185l-0.002,-0.022l-0.016,-0.185l-0.002,-0.022l-0.015,-0.185l-0.001,-0.022l-0.014,-0.185l-0.002,-0.022l-0.012,-0.186l-0.001,-0.022l-0.011,-0.186l-0.002,-0.022l-0.01,-0.186l-0.001,-0.022l-0.009,-0.186l-0.001,-0.023l-0.007,-0.187l-0.001,-0.022l-0.007,-0.186l-0.001,-0.023l-0.005,-0.187l0,-0.022l-0.005,-0.188l0,-0.022l-0.003,-0.188l0,-0.022l-0.002,-0.188l0,-0.022l-0.001,-0.183l0,-0.011l0,-424.765l0,-0.011l0.001,-0.183l0,-0.021l0.002,-0.188l0,-0.023l0.003,-0.188l0,-0.022l0.005,-0.188l0,-0.022l0.005,-0.187l0.001,-0.022l0.007,-0.187l0.001,-0.022l0.007,-0.187l0.001,-0.022l0.009,-0.187l0.001,-0.022l0.01,-0.186l0.002,-0.022l0.011,-0.186l0.001,-0.022l0.012,-0.186l0.002,-0.022l0.014,-0.185l0.001,-0.022l0.015,-0.185l0.002,-0.022l0.016,-0.185l0.002,-0.022l0.017,-0.184l0.002,-0.022l0.018,-0.184l0.002,-0.022l0.019,-0.184l0.003,-0.022l0.02,-0.184l0.003,-0.022l0.021,-0.183l0.003,-0.022l0.022,-0.182l0.003,-0.022l0.024,-0.182l0.003,-0.023l0.025,-0.182l0.003,-0.021l0.026,-0.182l0.003,-0.022l0.027,-0.182l0.004,-0.022l0.028,-0.18l0.003,-0.022l0.03,-0.181l0.003,-0.022l0.031,-0.18l0.004,-0.021l0.031,-0.18l0.004,-0.022l0.033,-0.18l0.004,-0.022l0.034,-0.179l0.004,-0.021l0.035,-0.179l0.004,-0.021l0.036,-0.179l0.004,-0.022l0.037,-0.178l0.005,-0.021l0.038,-0.178l0.005,-0.021l0.039,-0.178l0.005,-0.021l0.04,-0.177l0.005,-0.021l0.041,-0.177l0.005,-0.021l0.043,-0.176l0.005,-0.021l0.044,-0.176l0.005,-0.021l0.044,-0.175l0.006,-0.021l0.045,-0.175l0.006,-0.021l0.047,-0.175l0.005,-0.021l0.048,-0.174l0.006,-0.021l0.049,-0.174l0.006,-0.021l0.049,-0.173l0.006,-0.02l0.051,-0.173l0.007,-0.021l0.051,-0.172l0.007,-0.021l0.053,-0.172l0.006,-0.02l0.054,-0.172l0.007,-0.021l0.055,-0.171l0.006,-0.02l0.056,-0.17l0.007,-0.021l0.057,-0.17l0.007,-0.02l0.058,-0.17l0.007,-0.02l0.059,-0.169l0.007,-0.021l0.06,-0.168l0.008,-0.021l0.061,-0.168l0.007,-0.02l0.062,-0.167l0.007,-0.02l0.063,-0.168l0.008,-0.02l0.064,-0.167l0.008,-0.02l0.065,-0.166l0.008,-0.02l0.066,-0.165l0.008,-0.021l0.067,-0.165l0.008,-0.019l0.068,-0.165l0.008,-0.02l0.069,-0.164l0.008,-0.019l0.07,-0.164l0.009,-0.02l0.07,-0.163l0.009,-0.019l0.071,-0.163l0.009,-0.02l0.073,-0.162l0.009,-0.019l0.074,-0.162l0.008,-0.019l0.075,-0.161l0.009,-0.019l0.076,-0.161l0.009,-0.019l0.076,-0.16l0.01,-0.019l0.077,-0.16l0.009,-0.019l0.079,-0.158l0.009,-0.02l0.08,-0.158l0.009,-0.019l0.08,-0.157l0.01,-0.02l0.081,-0.157l0.01,-0.019l0.082,-0.156l0.01,-0.019l0.083,-0.156l0.01,-0.019l0.084,-0.156l0.01,-0.018l0.085,-0.154l0.01,-0.019l0.086,-0.155l0.01,-0.018l0.087,-0.154l0.01,-0.018l0.088,-0.153l0.01,-0.019l0.088,-0.152l0.011,-0.018l0.089,-0.153l0.011,-0.018l0.09,-0.151l0.011,-0.018l0.091,-0.151l0.011,-0.018l0.092,-0.15l0.011,-0.018l0.093,-0.15l0.011,-0.018l0.094,-0.149l0.011,-0.017l0.095,-0.149l0.011,-0.018l0.096,-0.148l0.011,-0.017l0.096,-0.147l0.012,-0.018l0.097,-0.146l0.011,-0.018l0.098,-0.146l0.012,-0.017l0.099,-0.146l0.012,-0.017l0.1,-0.144l0.012,-0.018l0.1,-0.144l0.012,-0.017l0.102,-0.143l0.012,-0.017l0.102,-0.143l0.012,-0.017l0.103,-0.142l0.012,-0.017l0.104,-0.141l0.013,-0.017l0.104,-0.141l0.013,-0.017l0.106,-0.14l0.012,-0.017l0.106,-0.139l0.013,-0.017l0.107,-0.139l0.013,-0.016l0.108,-0.138l0.013,-0.017l0.109,-0.137l0.013,-0.017l0.109,-0.137l0.013,-0.016l0.111,-0.136l0.013,-0.016l0.111,-0.136l0.013,-0.016l0.112,-0.135l0.014,-0.016l0.112,-0.134l0.014,-0.015l0.113,-0.134l0.014,-0.016l0.114,-0.133l0.014,-0.015l0.115,-0.132l0.014,-0.016l0.116,-0.131l0.014,-0.016l0.116,-0.131l0.014,-0.015l0.117,-0.13l0.014,-0.016l0.119,-0.129l0.014,-0.015l0.119,-0.129l0.014,-0.015l0.12,-0.128l0.014,-0.015l0.12,-0.127l0.015,-0.015l0.121,-0.126l0.014,-0.015l0.122,-0.126l0.015,-0.015l0.122,-0.124l0.015,-0.016l0.124,-0.124l0.014,-0.014l0.124,-0.124l0.015,-0.015l0.125,-0.122l0.015,-0.014l0.125,-0.122l0.016,-0.015l0.126,-0.121l0.015,-0.015l0.127,-0.12l0.015,-0.014l0.128,-0.12l0.015,-0.014l0.129,-0.119l0.015,-0.014l0.129,-0.118l0.016,-0.014l0.13,-0.118l0.015,-0.014l0.131,-0.116l0.015,-0.014l0.132,-0.116l0.016,-0.014l0.132,-0.115l0.015,-0.013l0.133,-0.115l0.016,-0.013l0.133,-0.114l0.016,-0.013l0.134,-0.113l0.016,-0.014l0.135,-0.112l0.016,-0.013l0.135,-0.111l0.017,-0.013l0.136,-0.11l0.016,-0.014l0.137,-0.109l0.016,-0.013l0.138,-0.109l0.016,-0.013l0.139,-0.108l0.016,-0.013l0.139,-0.107l0.016,-0.012l0.14,-0.107l0.016,-0.012l0.141,-0.106l0.017,-0.012l0.14,-0.105l0.017,-0.012l0.141,-0.104l0.018,-0.013l0.142,-0.103l0.017,-0.012l0.143,-0.102l0.016,-0.012l0.144,-0.102l0.017,-0.012l0.144,-0.1l0.018,-0.012l0.144,-0.1l0.017,-0.012l0.146,-0.098l0.017,-0.012l0.146,-0.098l0.017,-0.012l0.147,-0.097l0.018,-0.012l0.147,-0.096l0.017,-0.011l0.148,-0.096l0.018,-0.011l0.148,-0.095l0.018,-0.011l0.149,-0.094l0.018,-0.011l0.15,-0.093l0.017,-0.011l0.151,-0.091l0.018,-0.012l0.151,-0.091l0.017,-0.01l0.152,-0.091l0.018,-0.01l0.152,-0.09l0.018,-0.01l0.153,-0.089l0.018,-0.01l0.154,-0.088l0.018,-0.01l0.154,-0.087l0.018,-0.01l0.155,-0.086l0.018,-0.01l0.155,-0.085l0.019,-0.01l0.155,-0.084l0.019,-0.01l0.156,-0.083l0.019,-0.01l0.156,-0.082l0.019,-0.01l0.157,-0.081l0.019,-0.009l0.158,-0.081l0.019,-0.009l0.158,-0.08l0.019,-0.009l0.159,-0.078l0.019,-0.01l0.159,-0.077l0.02,-0.01l0.16,-0.076l0.019,-0.009l0.16,-0.076l0.02,-0.009l0.161,-0.074l0.019,-0.009l0.162,-0.074l0.019,-0.009l0.162,-0.072l0.02,-0.009l0.162,-0.072l0.02,-0.009l0.163,-0.07l0.02,-0.009l0.163,-0.07l0.02,-0.008l0.164,-0.069l0.02,-0.008l0.165,-0.068l0.019,-0.008l0.165,-0.067l0.02,-0.008l0.166,-0.066l0.02,-0.008l0.166,-0.065l0.02,-0.008l0.167,-0.064l0.02,-0.007l0.167,-0.063l0.02,-0.008l0.168,-0.062l0.02,-0.007l0.168,-0.061l0.021,-0.008l0.168,-0.06l0.02,-0.007l0.169,-0.059l0.021,-0.007l0.169,-0.058l0.021,-0.007l0.17,-0.057l0.02,-0.007l0.171,-0.056l0.02,-0.006l0.171,-0.055l0.021,-0.007l0.171,-0.054l0.021,-0.006l0.172,-0.053l0.021,-0.006l0.172,-0.052l0.021,-0.006l0.172,-0.051l0.021,-0.006l0.174,-0.05l0.02,-0.006l0.174,-0.049l0.021,-0.006l0.174,-0.047l0.021,-0.006l0.174,-0.047l0.021,-0.005l0.175,-0.046l0.021,-0.005l0.176,-0.045l0.021,-0.005l0.176,-0.044l0.021,-0.005l0.176,-0.042l0.021,-0.006l0.177,-0.041l0.021,-0.005l0.177,-0.04l0.021,-0.005l0.178,-0.039l0.021,-0.005l0.178,-0.038l0.021,-0.004l0.178,-0.037l0.022,-0.005l0.178,-0.036l0.022,-0.004l0.179,-0.035l0.021,-0.004l0.179,-0.034l0.022,-0.004l0.179,-0.033l0.022,-0.004l0.18,-0.031l0.022,-0.004l0.18,-0.03l0.022,-0.004l0.181,-0.029l0.022,-0.004l0.181,-0.028l0.021,-0.003l0.182,-0.028l0.021,-0.003l0.182,-0.026l0.022,-0.003l0.182,-0.025l0.022,-0.003l0.182,-0.024l0.022,-0.002l0.183,-0.023l0.022,-0.003l0.183,-0.021l0.022,-0.003l0.184,-0.02l0.022,-0.003l0.183,-0.019l0.022,-0.002l0.185,-0.018l0.022,-0.002l0.184,-0.017l0.022,-0.002l0.185,-0.016l0.022,-0.002l0.185,-0.015l0.022,-0.001l0.185,-0.014l0.022,-0.001l0.186,-0.013l0.022,-0.001l0.186,-0.011l0.022,-0.002l0.186,-0.01l0.022,-0.001l0.187,-0.009l0.022,-0.001l0.187,-0.007l0.022,-0.001l0.187,-0.007l0.022,0l0.187,-0.006l0.022,0l0.188,-0.004l0.022,-0.001l0.188,-0.003l0.022,0l0.188,-0.002l0.022,0l0.183,-0.001l0.011,0l205.624,0l0.012,0Zm-205.63,7l-0.166,0.001l-0.166,0.001l-0.166,0.003l-0.165,0.004l-0.165,0.004l-0.165,0.006l-0.165,0.007l-0.164,0.008l-0.164,0.009l-0.164,0.01l-0.163,0.01l-0.163,0.012l-0.163,0.013l-0.163,0.014l-0.162,0.015l-0.162,0.016l-0.162,0.017l-0.162,0.018l-0.161,0.019l-0.161,0.02l-0.16,0.021l-0.161,0.022l-0.16,0.023l-0.159,0.024l-0.159,0.025l-0.159,0.025l-0.159,0.027l-0.158,0.028l-0.158,0.029l-0.158,0.03l-0.157,0.03l-0.157,0.032l-0.157,0.033l-0.156,0.033l-0.156,0.035l-0.156,0.035l-0.155,0.036l-0.155,0.038l-0.154,0.038l-0.154,0.039l-0.154,0.04l-0.153,0.041l-0.153,0.042l-0.153,0.043l-0.152,0.044l-0.152,0.045l-0.152,0.045l-0.151,0.047l-0.15,0.047l-0.15,0.048l-0.15,0.05l-0.15,0.05l-0.149,0.051l-0.148,0.052l-0.149,0.052l-0.147,0.054l-0.148,0.055l-0.147,0.055l-0.146,0.056l-0.146,0.057l-0.146,0.058l-0.145,0.059l-0.145,0.06l-0.144,0.06l-0.144,0.062l-0.144,0.062l-0.143,0.063l-0.142,0.064l-0.142,0.065l-0.142,0.066l-0.141,0.066l-0.141,0.067l-0.14,0.069l-0.14,0.069l-0.139,0.069l-0.139,0.071l-0.138,0.071l-0.138,0.072l-0.137,0.074l-0.137,0.073l-0.136,0.075l-0.136,0.075l-0.135,0.077l-0.135,0.077l-0.134,0.077l-0.134,0.079l-0.133,0.079l-0.133,0.081l-0.132,0.08l-0.132,0.082l-0.131,0.083l-0.131,0.083l-0.13,0.084l-0.13,0.085l-0.129,0.085l-0.128,0.086l-0.128,0.087l-0.127,0.088l-0.127,0.089l-0.126,0.089l-0.126,0.09l-0.125,0.091l-0.125,0.091l-0.124,0.092l-0.123,0.093l-0.123,0.094l-0.122,0.094l-0.122,0.095l-0.121,0.096l-0.121,0.096l-0.12,0.098l-0.119,0.097l-0.119,0.099l-0.118,0.099l-0.117,0.1l-0.117,0.101l-0.116,0.101l-0.116,0.102l-0.115,0.103l-0.115,0.104l-0.113,0.104l-0.114,0.104l-0.112,0.106l-0.112,0.106l-0.111,0.107l-0.111,0.107l-0.11,0.108l-0.109,0.109l-0.109,0.109l-0.108,0.11l-0.108,0.111l-0.106,0.111l-0.106,0.112l-0.106,0.113l-0.105,0.113l-0.104,0.114l-0.103,0.114l-0.103,0.115l-0.102,0.116l-0.101,0.116l-0.101,0.117l-0.1,0.117l-0.099,0.119l-0.099,0.118l-0.098,0.12l-0.097,0.12l-0.096,0.12l-0.096,0.121l-0.095,0.122l-0.095,0.122l-0.093,0.123l-0.093,0.123l-0.092,0.124l-0.092,0.125l-0.09,0.125l-0.09,0.126l-0.09,0.126l-0.088,0.127l-0.088,0.127l-0.087,0.128l-0.086,0.129l-0.086,0.129l-0.084,0.129l-0.084,0.13l-0.084,0.131l-0.082,0.131l-0.082,0.132l-0.081,0.132l-0.08,0.133l-0.079,0.133l-0.079,0.134l-0.078,0.134l-0.077,0.135l-0.076,0.135l-0.075,0.136l-0.075,0.136l-0.074,0.137l-0.073,0.137l-0.072,0.138l-0.071,0.138l-0.071,0.139l-0.07,0.14l-0.069,0.139l-0.068,0.14l-0.067,0.141l-0.067,0.141l-0.065,0.142l-0.065,0.142l-0.064,0.142l-0.063,0.143l-0.062,0.144l-0.062,0.144l-0.06,0.144l-0.06,0.145l-0.059,0.145l-0.058,0.146l-0.057,0.146l-0.056,0.146l-0.056,0.147l-0.054,0.148l-0.054,0.148l-0.053,0.148l-0.051,0.148l-0.051,0.149l-0.051,0.15l-0.049,0.15l-0.048,0.15l-0.048,0.151l-0.046,0.151l-0.046,0.151l-0.044,0.152l-0.044,0.152l-0.043,0.153l-0.042,0.153l-0.041,0.153l-0.04,0.154l-0.039,0.154l-0.039,0.155l-0.037,0.154l-0.036,0.156l-0.036,0.155l-0.034,0.156l-0.034,0.156l-0.032,0.157l-0.032,0.157l-0.031,0.157l-0.029,0.158l-0.029,0.158l-0.028,0.158l-0.027,0.159l-0.026,0.159l-0.024,0.159l-0.024,0.16l-0.023,0.16l-0.022,0.16l-0.021,0.16l-0.02,0.161l-0.019,0.161l-0.018,0.162l-0.017,0.162l-0.016,0.162l-0.015,0.162l-0.014,0.163l-0.013,0.163l-0.012,0.163l-0.011,0.163l-0.01,0.164l-0.008,0.164l-0.008,0.165l-0.007,0.164l-0.006,0.165l-0.004,0.165l-0.004,0.165l-0.003,0.166l-0.001,0.166l-0.001,0.166l0,424.753l0.001,0.166l0.001,0.166l0.003,0.166l0.004,0.165l0.004,0.165l0.006,0.165l0.007,0.165l0.008,0.164l0.008,0.164l0.01,0.164l0.011,0.163l0.012,0.164l0.013,0.163l0.014,0.162l0.015,0.163l0.016,0.162l0.017,0.161l0.018,0.162l0.019,0.161l0.02,0.161l0.021,0.16l0.022,0.161l0.023,0.16l0.024,0.159l0.024,0.16l0.026,0.159l0.027,0.158l0.028,0.159l0.029,0.158l0.029,0.157l0.031,0.157l0.032,0.157l0.032,0.157l0.034,0.156l0.034,0.156l0.036,0.156l0.036,0.155l0.037,0.155l0.039,0.154l0.039,0.154l0.04,0.154l0.041,0.154l0.042,0.153l0.043,0.152l0.044,0.152l0.044,0.152l0.046,0.152l0.046,0.151l0.048,0.15l0.048,0.151l0.049,0.15l0.051,0.149l0.051,0.149l0.051,0.149l0.053,0.148l0.054,0.148l0.054,0.147l0.056,0.147l0.056,0.147l0.057,0.146l0.058,0.145l0.059,0.145l0.06,0.145l0.06,0.145l0.062,0.144l0.062,0.143l0.063,0.143l0.064,0.142l0.065,0.143l0.065,0.141l0.067,0.141l0.067,0.141l0.068,0.14l0.069,0.14l0.07,0.139l0.071,0.139l0.071,0.138l0.072,0.138l0.073,0.137l0.074,0.137l0.075,0.136l0.075,0.136l0.076,0.136l0.077,0.134l0.078,0.135l0.079,0.133l0.079,0.134l0.08,0.132l0.081,0.133l0.082,0.131l0.082,0.131l0.084,0.131l0.084,0.13l0.084,0.13l0.086,0.129l0.086,0.128l0.087,0.128l0.088,0.128l0.088,0.126l0.09,0.127l0.09,0.125l0.09,0.125l0.092,0.125l0.092,0.124l0.093,0.123l0.093,0.123l0.095,0.123l0.095,0.121l0.096,0.121l0.096,0.121l0.097,0.12l0.098,0.119l0.099,0.119l0.099,0.118l0.1,0.117l0.101,0.117l0.101,0.117l0.102,0.115l0.103,0.115l0.103,0.115l0.104,0.114l0.105,0.113l0.106,0.112l0.106,0.112l0.106,0.112l0.108,0.11l0.108,0.11l0.109,0.11l0.109,0.108l0.11,0.108l0.111,0.108l0.111,0.107l0.112,0.106l0.112,0.105l0.114,0.105l0.113,0.104l0.115,0.103l0.115,0.103l0.116,0.102l0.116,0.101l0.117,0.101l0.117,0.1l0.118,0.099l0.119,0.099l0.119,0.098l0.12,0.097l0.121,0.097l0.121,0.095l0.122,0.095l0.122,0.095l0.123,0.093l0.123,0.093l0.124,0.092l0.125,0.092l0.125,0.091l0.126,0.09l0.126,0.089l0.127,0.088l0.127,0.088l0.128,0.087l0.128,0.086l0.129,0.086l0.13,0.085l0.13,0.084l0.131,0.083l0.131,0.082l0.132,0.082l0.132,0.081l0.133,0.08l0.133,0.079l0.134,0.079l0.134,0.078l0.135,0.077l0.135,0.076l0.136,0.075l0.136,0.075l0.137,0.074l0.137,0.073l0.138,0.072l0.138,0.072l0.139,0.07l0.139,0.07l0.14,0.069l0.14,0.068l0.141,0.067l0.141,0.067l0.142,0.065l0.142,0.065l0.142,0.064l0.143,0.063l0.144,0.063l0.144,0.061l0.144,0.06l0.145,0.06l0.145,0.059l0.146,0.058l0.146,0.057l0.146,0.056l0.147,0.056l0.148,0.054l0.147,0.054l0.149,0.053l0.148,0.052l0.149,0.051l0.15,0.05l0.15,0.049l0.15,0.048l0.15,0.048l0.151,0.046l0.152,0.046l0.152,0.045l0.152,0.043l0.153,0.043l0.153,0.042l0.153,0.041l0.154,0.04l0.154,0.039l0.154,0.039l0.155,0.037l0.155,0.036l0.156,0.036l0.156,0.034l0.156,0.034l0.157,0.032l0.157,0.032l0.157,0.031l0.158,0.03l0.158,0.028l0.158,0.028l0.159,0.027l0.159,0.026l0.159,0.025l0.159,0.024l0.16,0.022l0.161,0.022l0.16,0.021l0.161,0.02l0.161,0.019l0.162,0.018l0.162,0.017l0.162,0.016l0.162,0.015l0.163,0.014l0.163,0.013l0.163,0.012l0.163,0.011l0.164,0.01l0.164,0.009l0.164,0.007l0.165,0.007l0.165,0.006l0.165,0.005l0.165,0.003l0.166,0.003l0.166,0.001l0.166,0.001l205.613,0l0.166,-0.001l0.166,-0.001l0.165,-0.003l0.166,-0.003l0.165,-0.005l0.165,-0.006l0.164,-0.007l0.165,-0.007l0.164,-0.009l0.163,-0.01l0.164,-0.011l0.163,-0.012l0.163,-0.013l0.163,-0.014l0.162,-0.015l0.162,-0.016l0.162,-0.017l0.161,-0.018l0.162,-0.019l0.16,-0.02l0.161,-0.021l0.16,-0.022l0.16,-0.022l0.16,-0.024l0.159,-0.025l0.159,-0.026l0.159,-0.027l0.158,-0.028l0.158,-0.028l0.158,-0.03l0.157,-0.031l0.157,-0.032l0.157,-0.032l0.156,-0.034l0.156,-0.034l0.155,-0.036l0.156,-0.036l0.154,-0.037l0.155,-0.039l0.154,-0.039l0.154,-0.04l0.153,-0.041l0.153,-0.042l0.153,-0.043l0.152,-0.043l0.152,-0.045l0.151,-0.046l0.151,-0.046l0.151,-0.048l0.15,-0.048l0.15,-0.049l0.149,-0.05l0.15,-0.051l0.148,-0.052l0.148,-0.053l0.148,-0.054l0.148,-0.054l0.146,-0.056l0.147,-0.056l0.146,-0.057l0.146,-0.058l0.145,-0.059l0.145,-0.06l0.144,-0.06l0.144,-0.061l0.143,-0.063l0.143,-0.063l0.143,-0.064l0.142,-0.065l0.142,-0.065l0.141,-0.067l0.14,-0.067l0.141,-0.068l0.139,-0.069l0.14,-0.07l0.138,-0.07l0.139,-0.072l0.137,-0.072l0.138,-0.073l0.137,-0.074l0.136,-0.075l0.136,-0.075l0.135,-0.076l0.135,-0.077l0.134,-0.078l0.134,-0.079l0.133,-0.079l0.133,-0.08l0.132,-0.081l0.132,-0.082l0.131,-0.082l0.131,-0.083l0.13,-0.084l0.129,-0.085l0.129,-0.086l0.129,-0.086l0.128,-0.087l0.127,-0.088l0.127,-0.088l0.126,-0.089l0.126,-0.09l0.125,-0.091l0.125,-0.092l0.124,-0.092l0.123,-0.093l0.123,-0.093l0.122,-0.095l0.122,-0.095l0.121,-0.095l0.12,-0.097l0.12,-0.097l0.12,-0.098l0.118,-0.099l0.118,-0.099l0.118,-0.1l0.117,-0.101l0.116,-0.101l0.116,-0.102l0.115,-0.103l0.114,-0.103l0.114,-0.104l0.113,-0.105l0.113,-0.105l0.112,-0.106l0.111,-0.107l0.111,-0.108l0.11,-0.108l0.109,-0.108l0.109,-0.11l0.108,-0.11l0.107,-0.11l0.107,-0.112l0.106,-0.112l0.106,-0.112l0.104,-0.113l0.104,-0.114l0.104,-0.115l0.103,-0.115l0.102,-0.115l0.101,-0.117l0.101,-0.117l0.1,-0.117l0.099,-0.118l0.098,-0.119l0.098,-0.119l0.098,-0.12l0.096,-0.121l0.096,-0.121l0.095,-0.121l0.094,-0.123l0.094,-0.123l0.093,-0.123l0.092,-0.124l0.091,-0.125l0.091,-0.125l0.09,-0.125l0.089,-0.127l0.089,-0.126l0.088,-0.128l0.087,-0.128l0.086,-0.128l0.085,-0.129l0.085,-0.13l0.084,-0.13l0.083,-0.131l0.083,-0.131l0.081,-0.131l0.081,-0.133l0.081,-0.132l0.079,-0.134l0.078,-0.133l0.078,-0.135l0.077,-0.134l0.077,-0.136l0.075,-0.136l0.075,-0.136l0.073,-0.137l0.073,-0.137l0.073,-0.138l0.071,-0.138l0.071,-0.139l0.069,-0.139l0.069,-0.14l0.068,-0.14l0.068,-0.141l0.066,-0.141l0.066,-0.141l0.065,-0.143l0.064,-0.142l0.063,-0.143l0.062,-0.143l0.061,-0.144l0.061,-0.145l0.06,-0.145l0.059,-0.145l0.058,-0.145l0.057,-0.146l0.056,-0.147l0.055,-0.147l0.055,-0.147l0.054,-0.148l0.052,-0.148l0.052,-0.149l0.051,-0.149l0.05,-0.149l0.049,-0.15l0.049,-0.151l0.047,-0.15l0.047,-0.151l0.045,-0.152l0.045,-0.152l0.044,-0.152l0.043,-0.152l0.042,-0.153l0.041,-0.154l0.04,-0.154l0.039,-0.154l0.038,-0.154l0.038,-0.155l0.036,-0.155l0.035,-0.156l0.035,-0.156l0.033,-0.156l0.033,-0.157l0.032,-0.157l0.03,-0.157l0.03,-0.157l0.029,-0.158l0.028,-0.159l0.026,-0.158l0.026,-0.159l0.025,-0.16l0.024,-0.159l0.023,-0.16l0.022,-0.161l0.021,-0.16l0.02,-0.161l0.019,-0.161l0.018,-0.162l0.017,-0.161l0.016,-0.162l0.015,-0.163l0.014,-0.162l0.013,-0.163l0.011,-0.164l0.011,-0.163l0.01,-0.164l0.009,-0.164l0.008,-0.164l0.007,-0.165l0.005,-0.165l0.005,-0.165l0.004,-0.165l0.002,-0.166l0.002,-0.166l0.001,-0.166l0,-424.753l-0.001,-0.166l-0.002,-0.166l-0.002,-0.166l-0.004,-0.165l-0.005,-0.165l-0.005,-0.165l-0.007,-0.164l-0.008,-0.165l-0.009,-0.164l-0.01,-0.164l-0.011,-0.163l-0.011,-0.163l-0.013,-0.163l-0.014,-0.163l-0.015,-0.162l-0.016,-0.162l-0.017,-0.162l-0.018,-0.162l-0.019,-0.161l-0.02,-0.161l-0.021,-0.16l-0.022,-0.16l-0.023,-0.16l-0.024,-0.16l-0.025,-0.159l-0.026,-0.159l-0.026,-0.159l-0.028,-0.158l-0.029,-0.158l-0.03,-0.158l-0.03,-0.157l-0.032,-0.157l-0.033,-0.157l-0.033,-0.156l-0.035,-0.156l-0.035,-0.155l-0.036,-0.156l-0.038,-0.154l-0.038,-0.155l-0.039,-0.154l-0.04,-0.154l-0.041,-0.153l-0.042,-0.153l-0.043,-0.153l-0.044,-0.152l-0.045,-0.152l-0.045,-0.151l-0.047,-0.151l-0.047,-0.151l-0.049,-0.15l-0.049,-0.15l-0.05,-0.15l-0.051,-0.149l-0.052,-0.148l-0.052,-0.148l-0.054,-0.148l-0.055,-0.148l-0.055,-0.147l-0.056,-0.146l-0.057,-0.146l-0.058,-0.146l-0.059,-0.145l-0.06,-0.145l-0.061,-0.144l-0.061,-0.144l-0.062,-0.144l-0.063,-0.143l-0.064,-0.142l-0.065,-0.142l-0.066,-0.142l-0.066,-0.141l-0.068,-0.141l-0.068,-0.14l-0.069,-0.139l-0.069,-0.14l-0.071,-0.139l-0.071,-0.138l-0.073,-0.138l-0.073,-0.137l-0.073,-0.137l-0.075,-0.136l-0.075,-0.136l-0.077,-0.135l-0.077,-0.135l-0.078,-0.134l-0.078,-0.134l-0.079,-0.133l-0.081,-0.133l-0.081,-0.132l-0.081,-0.132l-0.083,-0.131l-0.083,-0.131l-0.084,-0.13l-0.085,-0.129l-0.085,-0.129l-0.086,-0.129l-0.087,-0.128l-0.088,-0.127l-0.089,-0.127l-0.089,-0.126l-0.09,-0.126l-0.091,-0.125l-0.091,-0.125l-0.092,-0.124l-0.093,-0.123l-0.094,-0.123l-0.094,-0.122l-0.095,-0.122l-0.096,-0.121l-0.096,-0.12l-0.098,-0.12l-0.098,-0.12l-0.098,-0.118l-0.099,-0.119l-0.1,-0.117l-0.101,-0.117l-0.101,-0.116l-0.102,-0.116l-0.103,-0.115l-0.104,-0.114l-0.104,-0.114l-0.104,-0.113l-0.106,-0.113l-0.106,-0.112l-0.107,-0.111l-0.107,-0.111l-0.108,-0.11l-0.109,-0.109l-0.109,-0.109l-0.11,-0.108l-0.111,-0.107l-0.111,-0.107l-0.112,-0.106l-0.113,-0.106l-0.113,-0.104l-0.114,-0.104l-0.114,-0.104l-0.115,-0.103l-0.116,-0.102l-0.116,-0.101l-0.117,-0.101l-0.118,-0.1l-0.118,-0.099l-0.118,-0.099l-0.12,-0.097l-0.12,-0.098l-0.12,-0.096l-0.121,-0.096l-0.122,-0.095l-0.122,-0.094l-0.123,-0.094l-0.123,-0.093l-0.124,-0.092l-0.125,-0.091l-0.125,-0.091l-0.126,-0.09l-0.126,-0.089l-0.127,-0.089l-0.127,-0.088l-0.128,-0.087l-0.129,-0.086l-0.129,-0.085l-0.129,-0.085l-0.13,-0.084l-0.131,-0.083l-0.131,-0.083l-0.132,-0.082l-0.132,-0.08l-0.133,-0.081l-0.133,-0.079l-0.134,-0.079l-0.134,-0.077l-0.135,-0.077l-0.135,-0.077l-0.136,-0.075l-0.136,-0.075l-0.137,-0.073l-0.138,-0.074l-0.137,-0.072l-0.139,-0.071l-0.138,-0.071l-0.14,-0.069l-0.139,-0.069l-0.141,-0.069l-0.14,-0.067l-0.141,-0.066l-0.142,-0.066l-0.142,-0.065l-0.143,-0.064l-0.143,-0.063l-0.143,-0.062l-0.144,-0.062l-0.144,-0.06l-0.145,-0.06l-0.145,-0.059l-0.146,-0.058l-0.146,-0.057l-0.147,-0.056l-0.146,-0.055l-0.148,-0.055l-0.148,-0.054l-0.148,-0.052l-0.148,-0.052l-0.15,-0.051l-0.149,-0.05l-0.15,-0.05l-0.15,-0.048l-0.151,-0.047l-0.151,-0.047l-0.151,-0.045l-0.152,-0.045l-0.152,-0.044l-0.153,-0.043l-0.153,-0.042l-0.153,-0.041l-0.154,-0.04l-0.154,-0.039l-0.155,-0.038l-0.154,-0.038l-0.156,-0.036l-0.155,-0.035l-0.156,-0.035l-0.156,-0.033l-0.157,-0.033l-0.157,-0.032l-0.157,-0.03l-0.158,-0.03l-0.158,-0.029l-0.158,-0.028l-0.159,-0.027l-0.159,-0.025l-0.159,-0.025l-0.16,-0.024l-0.16,-0.023l-0.16,-0.022l-0.161,-0.021l-0.16,-0.02l-0.162,-0.019l-0.161,-0.018l-0.162,-0.017l-0.162,-0.016l-0.162,-0.015l-0.163,-0.014l-0.163,-0.013l-0.163,-0.012l-0.164,-0.01l-0.163,-0.01l-0.164,-0.009l-0.165,-0.008l-0.164,-0.007l-0.165,-0.006l-0.165,-0.004l-0.166,-0.004l-0.165,-0.003l-0.166,-0.001l-0.166,-0.001l-205.613,0Z" style="fill:#845057;"/></g><path d="M329.084,500.661l0.26,0.029l0.258,0.049l0.252,0.067l0.247,0.087l0.24,0.105l0.232,0.122l0.221,0.139l0.211,0.156l0.198,0.17l0.185,0.185l0.171,0.199l0.156,0.21l0.139,0.222l0.122,0.231l0.105,0.24l0.086,0.247l0.068,0.253l0.049,0.257l0.029,0.26l0.01,0.262l-0.01,0.261l-0.029,0.261l-0.049,0.257l-0.068,0.253l-0.086,0.247l-0.105,0.24l-0.122,0.231l-0.139,0.222l-0.156,0.21l-0.171,0.199l-0.185,0.185l-0.198,0.17l-0.211,0.156l-0.221,0.139l-0.232,0.122l-0.24,0.105l-0.247,0.086l-0.252,0.068l-0.258,0.049l-0.26,0.029l-0.261,0.01l-51.404,0l-0.261,-0.01l-0.26,-0.029l-0.257,-0.049l-0.253,-0.068l-0.247,-0.086l-0.24,-0.105l-0.232,-0.122l-0.221,-0.139l-0.211,-0.156l-0.198,-0.17l-0.185,-0.185l-0.171,-0.199l-0.155,-0.21l-0.14,-0.222l-0.122,-0.231l-0.105,-0.24l-0.086,-0.247l-0.068,-0.253l-0.048,-0.257l-0.03,-0.261l-0.01,-0.261l0.01,-0.262l0.03,-0.26l0.048,-0.257l0.068,-0.253l0.086,-0.247l0.105,-0.24l0.122,-0.231l0.14,-0.222l0.155,-0.21l0.171,-0.199l0.185,-0.185l0.198,-0.17l0.211,-0.156l0.221,-0.139l0.232,-0.122l0.24,-0.105l0.247,-0.087l0.253,-0.067l0.257,-0.049l0.26,-0.029l0.261,-0.01l51.404,0l0.261,0.01Z" style="fill:#845057;"/><path d="M264.206,94.85l0.311,0.042l0.306,0.07l0.299,0.097l0.289,0.123l0.276,0.149l0.263,0.173l0.245,0.196l0.227,0.217l0.207,0.236l0.184,0.254l0.161,0.27l0.137,0.283l0.11,0.294l0.084,0.303l0.056,0.309l0.028,0.313l0,0.314l-0.028,0.312l-0.056,0.309l-0.084,0.303l-0.11,0.294l-0.137,0.283l-0.161,0.27l-0.184,0.254l-0.207,0.236l-0.227,0.217l-0.245,0.196l-0.263,0.173l-0.276,0.149l-0.289,0.123l-0.299,0.097l-0.306,0.07l-0.311,0.043l-0.314,0.014l-73.046,0l-0.314,-0.014l-0.311,-0.043l-0.307,-0.07l-0.298,-0.097l-0.289,-0.123l-0.277,-0.149l-0.262,-0.173l-0.245,-0.196l-0.227,-0.217l-0.207,-0.236l-0.184,-0.254l-0.162,-0.27l-0.136,-0.283l-0.11,-0.294l-0.084,-0.303l-0.056,-0.309l-0.028,-0.312l0,-0.314l0.028,-0.313l0.056,-0.309l0.084,-0.303l0.11,-0.294l0.136,-0.283l0.162,-0.27l0.184,-0.254l0.207,-0.236l0.227,-0.217l0.245,-0.196l0.262,-0.173l0.277,-0.149l0.289,-0.123l0.298,-0.097l0.307,-0.07l0.311,-0.042l0.314,-0.014l73.046,0l0.314,0.014Z" style="fill:#845057;"/><path d="M292.691,116.501l0.387,0.066l0.377,0.108l0.363,0.151l0.343,0.19l0.321,0.227l0.292,0.261l0.262,0.293l0.227,0.32l0.19,0.343l0.15,0.363l0.109,0.377l0.065,0.387l0.022,0.392l-0.022,0.392l-0.065,0.387l-0.109,0.377l-0.15,0.363l-0.19,0.343l-0.227,0.32l-0.262,0.293l-0.292,0.261l-0.321,0.228l-0.343,0.189l-0.363,0.151l-0.377,0.108l-0.387,0.066l-0.392,0.022l-114.981,0l-0.392,-0.022l-0.386,-0.066l-0.378,-0.108l-0.362,-0.151l-0.344,-0.189l-0.32,-0.228l-0.293,-0.261l-0.261,-0.293l-0.227,-0.32l-0.19,-0.343l-0.15,-0.363l-0.109,-0.377l-0.066,-0.387l-0.022,-0.392l0.022,-0.392l0.066,-0.387l0.109,-0.377l0.15,-0.363l0.19,-0.343l0.227,-0.32l0.261,-0.293l0.293,-0.261l0.32,-0.227l0.344,-0.19l0.362,-0.151l0.378,-0.108l0.386,-0.066l0.392,-0.022l114.981,0l0.392,0.022Z" style="fill:#845057;"/><path d="M422.147,468.452l1.135,0.759l0.759,1.135l0.267,1.34l-0.267,1.339l-0.759,1.136l-1.135,0.758l-1.339,0.267l-257.017,0l-1.339,-0.267l-1.136,-0.758l-0.758,-1.136l-0.267,-1.339l0.267,-1.34l0.758,-1.135l1.136,-0.759l1.339,-0.266l257.017,0l1.339,0.266Z" style="fill:#845057;"/></g><g id="Bag"><rect x="327.926" y="416.845" width="189.814" height="169.685" style="fill:#5c393e;"/><path d="M522.74,414.773l0,173.827l-2.929,2.929l-193.956,0l-2.929,-2.929l0,-173.827l2.929,-2.928l193.956,0l2.929,2.928Zm-194.814,2.072l0,169.684l189.814,0l0,-169.684l-189.814,0Z" style="fill:#9b5e66;"/><path d="M419.532,486.07l0.161,0.012l0.161,0.018l0.159,0.026l0.158,0.034l0.157,0.04l0.154,0.048l0.152,0.055l0.15,0.062l0.146,0.069l0.143,0.075l0.139,0.082l0.136,0.088l0.131,0.095l0.127,0.1l0.122,0.106l0.117,0.112l0.111,0.117l0.107,0.122l0.1,0.126l0.094,0.132l0.089,0.135l0.082,0.139l0.075,0.144l0.069,0.146l0.062,0.149l0.055,0.152l0.047,0.155l0.041,0.156l0.033,0.158l0.026,0.16l0.019,0.161l0.011,0.161l0.004,0.162l0,19.046l-0.004,0.161l-0.011,0.162l-0.019,0.16l-0.026,0.16l-0.033,0.158l-0.041,0.157l-0.047,0.154l-0.055,0.152l-0.062,0.15l-0.069,0.146l-0.075,0.143l-0.082,0.139l-0.089,0.136l-0.094,0.131l-0.1,0.127l-0.107,0.122l-0.111,0.117l-0.117,0.111l-0.122,0.107l-0.127,0.1l-0.131,0.094l-0.136,0.089l-0.139,0.082l-0.143,0.075l-0.146,0.069l-0.15,0.061l-0.152,0.055l-0.154,0.048l-0.157,0.041l-0.158,0.033l-0.159,0.026l-0.161,0.019l-0.161,0.011l-0.162,0.004l-0.162,-0.004l-0.161,-0.011l-0.161,-0.019l-0.159,-0.026l-0.158,-0.033l-0.157,-0.041l-0.154,-0.048l-0.152,-0.055l-0.15,-0.061l-0.146,-0.069l-0.143,-0.075l-0.14,-0.082l-0.135,-0.089l-0.131,-0.094l-0.127,-0.1l-0.122,-0.107l-0.117,-0.111l-0.112,-0.117l-0.106,-0.122l-0.1,-0.127l-0.095,-0.131l-0.088,-0.136l-0.082,-0.139l-0.075,-0.143l-0.069,-0.146l-0.062,-0.15l-0.055,-0.152l-0.047,-0.154l-0.041,-0.157l-0.033,-0.158l-0.026,-0.16l-0.019,-0.16l-0.011,-0.162l-0.004,-0.161l0,-19.046l0.004,-0.162l0.011,-0.161l0.019,-0.161l0.026,-0.16l0.033,-0.158l0.041,-0.156l0.047,-0.155l0.055,-0.152l0.062,-0.149l0.069,-0.146l0.075,-0.144l0.082,-0.139l0.088,-0.135l0.095,-0.132l0.1,-0.126l0.106,-0.122l0.112,-0.117l0.117,-0.112l0.122,-0.106l0.127,-0.1l0.131,-0.095l0.135,-0.088l0.14,-0.082l0.143,-0.075l0.146,-0.069l0.15,-0.062l0.152,-0.055l0.154,-0.048l0.157,-0.04l0.158,-0.034l0.159,-0.026l0.161,-0.018l0.161,-0.012l0.162,-0.003l0.162,0.003Z" style="fill:#9b5e66;"/><path d="M428.734,316.161l0.206,0.001l0.01,0l0.208,0.002l0.01,0l0.209,0.003l0.01,0l0.211,0.005l0.01,0l0.213,0.005l0.01,0.001l0.213,0.006l0.011,0.001l0.215,0.008l0.011,0l0.216,0.01l0.011,0l0.218,0.011l0.01,0.001l0.22,0.012l0.011,0.001l0.221,0.013l0.01,0.001l0.223,0.015l0.01,0.001l0.224,0.016l0.011,0.001l0.225,0.018l0.011,0.001l0.227,0.02l0.01,0.001l0.228,0.021l0.011,0.001l0.23,0.023l0.011,0.001l0.23,0.024l0.011,0.001l0.232,0.026l0.011,0.002l0.233,0.027l0.011,0.001l0.234,0.03l0.012,0.001l0.235,0.031l0.011,0.002l0.237,0.032l0.011,0.002l0.238,0.035l0.012,0.001l0.239,0.037l0.011,0.001l0.24,0.038l0.012,0.002l0.241,0.04l0.011,0.002l0.243,0.042l0.012,0.002l0.243,0.044l0.012,0.002l0.244,0.046l0.012,0.002l0.245,0.047l0.012,0.003l0.247,0.049l0.012,0.003l0.247,0.051l0.012,0.003l0.248,0.053l0.013,0.003l0.249,0.056l0.012,0.002l0.25,0.058l0.012,0.003l0.252,0.06l0.012,0.003l0.252,0.062l0.012,0.003l0.253,0.064l0.013,0.003l0.253,0.066l0.013,0.004l0.254,0.068l0.013,0.004l0.255,0.07l0.013,0.004l0.256,0.073l0.013,0.003l0.257,0.076l0.012,0.004l0.258,0.077l0.013,0.004l0.258,0.08l0.013,0.004l0.259,0.082l0.013,0.004l0.26,0.085l0.012,0.004l0.261,0.088l0.013,0.004l0.261,0.089l0.013,0.005l0.262,0.092l0.013,0.005l0.262,0.094l0.013,0.005l0.263,0.097l0.013,0.005l0.264,0.1l0.013,0.004l0.264,0.103l0.013,0.005l0.265,0.105l0.013,0.005l0.265,0.107l0.013,0.005l0.266,0.111l0.013,0.005l0.266,0.113l0.013,0.005l0.267,0.116l0.013,0.006l0.267,0.118l0.013,0.006l0.267,0.121l0.013,0.006l0.268,0.123l0.013,0.006l0.268,0.127l0.013,0.006l0.269,0.13l0.013,0.006l0.269,0.132l0.013,0.007l0.269,0.135l0.013,0.006l0.27,0.139l0.013,0.006l0.27,0.141l0.013,0.007l0.27,0.144l0.012,0.007l0.271,0.147l0.013,0.007l0.27,0.15l0.013,0.007l0.271,0.153l0.012,0.007l0.272,0.156l0.012,0.007l0.272,0.16l0.012,0.007l0.271,0.162l0.013,0.008l0.271,0.165l0.013,0.008l0.271,0.169l0.013,0.007l0.271,0.172l0.013,0.008l0.271,0.175l0.013,0.008l0.271,0.178l0.013,0.008l0.271,0.182l0.012,0.008l0.272,0.184l0.012,0.009l0.272,0.188l0.012,0.008l0.272,0.191l0.012,0.009l0.271,0.195l0.012,0.008l0.271,0.198l0.012,0.009l0.272,0.201l0.011,0.009l0.272,0.205l0.011,0.009l0.271,0.208l0.012,0.009l0.271,0.212l0.011,0.009l0.271,0.215l0.011,0.009l0.271,0.219l0.011,0.009l0.27,0.223l0.011,0.009l0.271,0.226l0.011,0.009l0.269,0.229l0.011,0.01l0.27,0.233l0.011,0.009l0.269,0.237l0.011,0.01l0.269,0.24l0.01,0.009l0.269,0.245l0.01,0.009l0.269,0.248l0.01,0.01l0.268,0.251l0.01,0.01l0.267,0.255l0.011,0.01l0.267,0.259l0.01,0.01l0.266,0.263l0.01,0.01l0.266,0.266l0.01,0.01l0.266,0.271l0.009,0.009l0.266,0.275l0.009,0.01l0.265,0.278l0.009,0.01l0.264,0.282l0.01,0.01l0.263,0.286l0.01,0.011l0.263,0.289l0.009,0.011l0.261,0.292l0.007,0.008l0.132,0.15l0.004,0.005l0.131,0.149l0.005,0.006l0.13,0.15l0.005,0.005l0.13,0.151l0.005,0.006l0.13,0.152l0.004,0.005l0.13,0.153l0.005,0.006l0.13,0.154l0.004,0.006l0.13,0.155l0.004,0.005l0.13,0.157l0.004,0.005l0.129,0.158l0.004,0.005l0.13,0.158l0.004,0.006l0.129,0.16l0.004,0.004l0.129,0.161l0.004,0.005l0.129,0.162l0.004,0.005l0.129,0.163l0.004,0.005l0.128,0.164l0.004,0.005l0.128,0.165l0.004,0.005l0.129,0.166l0.004,0.006l0.128,0.166l0.003,0.005l0.128,0.168l0.004,0.005l0.127,0.169l0.004,0.006l0.127,0.17l0.004,0.005l0.127,0.171l0.004,0.005l0.127,0.172l0.004,0.006l0.126,0.173l0.004,0.005l0.126,0.174l0.004,0.006l0.126,0.175l0.004,0.005l0.126,0.177l0.004,0.005l0.125,0.178l0.004,0.005l0.125,0.179l0.004,0.005l0.125,0.179l0.004,0.006l0.125,0.181l0.004,0.005l0.125,0.182l0.003,0.005l0.125,0.183l0.003,0.005l0.125,0.184l0.003,0.006l0.124,0.185l0.004,0.005l0.123,0.186l0.004,0.005l0.124,0.188l0.003,0.005l0.124,0.189l0.003,0.005l0.123,0.189l0.004,0.006l0.123,0.191l0.003,0.005l0.122,0.191l0.004,0.006l0.122,0.193l0.004,0.005l0.122,0.194l0.003,0.005l0.122,0.195l0.003,0.005l0.122,0.197l0.003,0.005l0.122,0.198l0.003,0.005l0.121,0.198l0.003,0.006l0.121,0.199l0.003,0.005l0.121,0.201l0.003,0.006l0.12,0.202l0.003,0.005l0.121,0.203l0.003,0.005l0.119,0.204l0.003,0.005l0.12,0.206l0.003,0.005l0.119,0.207l0.003,0.005l0.119,0.208l0.003,0.005l0.119,0.209l0.003,0.005l0.119,0.21l0.003,0.005l0.118,0.212l0.002,0.004l0.118,0.213l0.003,0.005l0.121,0.219l0.117,0.214l0.003,0.006l0.117,0.216l0.002,0.005l0.117,0.217l0.003,0.005l0.117,0.218l0.002,0.005l0.116,0.22l0.003,0.005l0.116,0.221l0.003,0.005l0.115,0.222l0.003,0.005l0.115,0.223l0.003,0.005l0.115,0.224l0.002,0.005l0.115,0.226l0.003,0.005l0.114,0.227l0.003,0.005l0.114,0.228l0.002,0.005l0.114,0.229l0.002,0.004l0.114,0.231l0.002,0.005l0.113,0.232l0.003,0.005l0.112,0.232l0.003,0.005l0.112,0.234l0.003,0.005l0.112,0.235l0.002,0.006l0.112,0.236l0.002,0.005l0.112,0.237l0.002,0.006l0.111,0.238l0.003,0.005l0.11,0.24l0.003,0.005l0.11,0.242l0.002,0.005l0.111,0.242l0.002,0.005l0.11,0.244l0.002,0.005l0.109,0.245l0.003,0.005l0.109,0.246l0.002,0.006l0.111,0.252l0.108,0.249l0.002,0.005l0.11,0.254l0.108,0.252l0.002,0.005l0.108,0.253l0.002,0.005l0.107,0.254l0.002,0.004l0.107,0.255l0.002,0.005l0.106,0.257l0.002,0.005l0.106,0.258l0.002,0.004l0.107,0.264l0.108,0.265l0.105,0.262l0.002,0.005l0.106,0.267l0.104,0.265l0.002,0.004l0.105,0.271l0.104,0.266l0.002,0.005l0.103,0.268l0.002,0.005l0.104,0.274l0.102,0.271l0.002,0.004l0.102,0.273l0.002,0.004l0.103,0.278l0.103,0.28l0.102,0.28l0.1,0.278l0.002,0.004l0.1,0.279l0.002,0.005l0.1,0.283l0.004,0.01l0.073,0.211l0.006,0.016l0.073,0.216l0.005,0.015l0.072,0.219l0.004,0.014l0.071,0.221l0.004,0.014l0.069,0.222l0.004,0.015l0.067,0.224l0.005,0.014l0.065,0.227l0.004,0.013l0.065,0.228l0.003,0.014l0.064,0.23l0.003,0.013l0.062,0.233l0.003,0.012l0.06,0.234l0.003,0.013l0.059,0.236l0.003,0.012l0.058,0.238l0.003,0.012l0.056,0.24l0.003,0.011l0.055,0.242l0.003,0.012l0.054,0.244l0.002,0.01l0.053,0.246l0.002,0.011l0.051,0.248l0.003,0.01l0.05,0.249l0.002,0.01l0.049,0.251l0.002,0.01l0.047,0.253l0.002,0.01l0.047,0.254l0.002,0.01l0.045,0.256l0.002,0.01l0.044,0.257l0.001,0.009l0.043,0.26l0.002,0.01l0.042,0.261l0.001,0.008l0.041,0.263l0.001,0.009l0.04,0.264l0.001,0.008l0.039,0.266l0.001,0.009l0.038,0.267l0.001,0.009l0.036,0.269l0.001,0.008l0.036,0.27l0.001,0.008l0.034,0.272l0.001,0.008l0.033,0.273l0.001,0.008l0.032,0.275l0.001,0.007l0.031,0.277l0.001,0.007l0.03,0.278l0.001,0.007l0.029,0.279l0.001,0.007l0.028,0.281l0,0.006l0.028,0.282l0,0.007l0.026,0.283l0.001,0.007l0.025,0.284l0.001,0.007l0.024,0.286l0,0.006l0.024,0.287l0,0.007l0.022,0.288l0.001,0.006l0.021,0.289l0.001,0.006l0.02,0.291l0.001,0.006l0.019,0.292l0,0.006l0.019,0.293l0,0.006l0.018,0.294l0,0.005l0.017,0.296l0,0.006l0.016,0.296l0.001,0.005l0.015,0.297l0,0.006l0.014,0.299l0,0.005l0.014,0.299l0,0.005l0.012,0.3l0.001,0.006l0.011,0.301l0,0.005l0.011,0.302l0,0.005l0.01,0.303l0,0.005l0.01,0.309l0.008,0.31l0.008,0.31l0.007,0.312l0.006,0.311l0.005,0.313l0.004,0.31l0,0.006l0.007,0.619l0,0.009l0.004,0.623l0,0.008l0,0.625l0,0.008l-0.002,0.628l0,0.008l-0.005,0.629l0,0.008l-0.007,0.631l0,0.008l-0.011,0.633l0,0.007l-0.013,0.635l0,0.007l-0.015,0.637l0,0.006l-0.018,0.638l0,0.007l-0.021,0.638l0,0.006l-0.022,0.64l0,0.006l-0.025,0.64l-0.001,0.006l-0.027,0.64l0,0.006l-0.029,0.641l0,0.005l-0.032,0.641l0,0.005l-0.033,0.641l0,0.005l-0.036,0.64l0,0.005l-0.037,0.64l0,0.005l-0.039,0.638l-0.001,0.005l-0.04,0.638l-0.001,0.005l-0.042,0.636l0,0.005l-0.044,0.635l-0.001,0.005l-0.045,0.633l-0.001,0.005l-0.047,0.632l0,0.004l-0.049,0.63l0,0.004l-0.05,0.628l-0.001,0.004l-0.051,0.625l0,0.004l-0.053,0.623l0,0.004l-0.054,0.619l-0.001,0.005l-0.055,0.616l0,0.004l-0.056,0.614l0,0.004l-0.058,0.61l0,0.004l-0.058,0.607l0,0.003l-0.059,0.603l-0.001,0.004l-0.06,0.599l0,0.003l-0.061,0.595l0,0.003l-0.061,0.591l-0.001,0.003l-0.062,0.586l0,0.003l-0.063,0.582l0,0.003l-0.063,0.576l-0.001,0.003l-0.063,0.571l-0.001,0.003l-0.064,0.566l0,0.003l-0.065,0.56l0,0.003l-0.065,0.554l0,0.003l-0.065,0.549l0,0.002l-0.066,0.542l0,0.003l-0.065,0.536l-0.001,0.003l-0.065,0.529l0,0.003l-0.066,0.522l0,0.003l-0.065,0.515l0,0.003l-0.066,0.508l0,0.003l-0.065,0.501l0,0.004l-0.129,0.978l-0.001,0.005l-0.128,0.947l0,0.005l-0.126,0.913l0,0.005l-0.123,0.878l-0.001,0.004l-0.12,0.842l-0.001,0.004l-0.116,0.803l-0.001,0.004l-0.112,0.764l-0.001,0.004l-0.108,0.721l-0.001,0.004l-0.103,0.679l-0.001,0.003l-0.098,0.634l0,0.004l-0.092,0.587l-0.001,0.003l-0.085,0.54l-0.001,0.003l-0.079,0.49l0,0.003l-0.071,0.438l-0.001,0.004l-0.063,0.386l-0.001,0.004l-0.101,0.606l-0.001,0.005l-0.064,0.375l-0.001,0.005l-0.023,0.129l-0.081,0.357l-0.119,0.347l-0.154,0.332l-0.187,0.314l-0.22,0.294l-0.249,0.268l-0.276,0.241l-0.3,0.211l-0.32,0.178l-0.337,0.144l-0.35,0.108l-0.359,0.071l-0.365,0.033l-0.366,-0.005l-0.364,-0.044l-0.357,-0.082l-0.347,-0.118l-0.332,-0.154l-0.315,-0.188l-0.293,-0.22l-0.269,-0.249l-0.241,-0.276l-0.21,-0.299l-0.179,-0.32l-0.144,-0.337l-0.108,-0.35l-0.071,-0.36l-0.032,-0.365l0.005,-0.366l0.044,-0.364l0.021,-0.12l0.061,-0.359l0.099,-0.59l0.061,-0.374l0.07,-0.429l0.077,-0.479l0.084,-0.529l0.09,-0.577l0.096,-0.622l0.102,-0.668l0.106,-0.709l0.111,-0.751l0.115,-0.791l0.118,-0.829l0.121,-0.865l0.124,-0.899l0.126,-0.933l0.127,-0.965l0.064,-0.492l0.064,-0.501l0.064,-0.507l0.064,-0.515l0.065,-0.521l0.064,-0.527l0.064,-0.534l0.064,-0.54l0.064,-0.545l0.063,-0.551l0.063,-0.556l0.063,-0.562l0.062,-0.567l0.062,-0.571l0.061,-0.576l0.06,-0.58l0.06,-0.585l0.058,-0.588l0.058,-0.592l0.057,-0.596l0.057,-0.599l0.055,-0.602l0.054,-0.605l0.052,-0.608l0.052,-0.611l0.05,-0.612l0.049,-0.615l0.048,-0.616l0.046,-0.619l0.045,-0.619l0.043,-0.621l0.041,-0.622l0.04,-0.623l0.038,-0.624l0.036,-0.623l0.035,-0.624l0.032,-0.624l0.031,-0.624l0.028,-0.624l0.026,-0.622l0.024,-0.622l0.022,-0.621l0.02,-0.619l0.017,-0.618l0.015,-0.616l0.012,-0.615l0.01,-0.612l0.008,-0.609l0.004,-0.607l0.002,-0.605l0,-0.601l-0.004,-0.598l-0.006,-0.596l-0.004,-0.294l-0.005,-0.295l-0.006,-0.294l-0.006,-0.293l-0.008,-0.292l-0.007,-0.29l-0.009,-0.29l-0.01,-0.288l-0.01,-0.288l-0.011,-0.286l-0.012,-0.285l-0.012,-0.284l-0.014,-0.282l-0.014,-0.281l-0.015,-0.28l-0.016,-0.278l-0.017,-0.277l-0.017,-0.276l-0.018,-0.274l-0.02,-0.273l-0.02,-0.271l-0.02,-0.27l-0.022,-0.267l-0.023,-0.267l-0.023,-0.265l-0.024,-0.263l-0.025,-0.261l-0.026,-0.26l-0.027,-0.258l-0.028,-0.256l-0.029,-0.254l-0.029,-0.252l-0.031,-0.25l-0.031,-0.249l-0.032,-0.247l-0.033,-0.244l-0.034,-0.243l-0.035,-0.24l-0.036,-0.239l-0.037,-0.236l-0.037,-0.234l-0.039,-0.232l-0.039,-0.23l-0.04,-0.227l-0.042,-0.225l-0.042,-0.222l-0.043,-0.221l-0.044,-0.218l-0.044,-0.215l-0.046,-0.213l-0.046,-0.21l-0.048,-0.208l-0.048,-0.205l-0.049,-0.203l-0.05,-0.199l-0.051,-0.198l-0.051,-0.194l-0.053,-0.191l-0.053,-0.189l-0.054,-0.186l-0.055,-0.182l-0.055,-0.18l-0.057,-0.177l-0.057,-0.174l-0.057,-0.171l-0.061,-0.173l-0.093,-0.261l-0.095,-0.265l-0.095,-0.264l-0.096,-0.262l-0.096,-0.261l-0.096,-0.26l-0.097,-0.258l-0.097,-0.257l-0.097,-0.255l-0.098,-0.254l-0.098,-0.253l-0.098,-0.252l-0.099,-0.25l-0.099,-0.249l-0.099,-0.247l-0.099,-0.246l-0.1,-0.245l-0.1,-0.244l-0.101,-0.242l-0.1,-0.241l-0.101,-0.239l-0.102,-0.238l-0.101,-0.237l-0.102,-0.236l-0.102,-0.235l-0.103,-0.233l-0.102,-0.231l-0.103,-0.231l-0.103,-0.229l-0.104,-0.228l-0.104,-0.226l-0.104,-0.226l-0.104,-0.224l-0.105,-0.223l-0.104,-0.221l-0.105,-0.22l-0.106,-0.22l-0.105,-0.218l-0.106,-0.216l-0.106,-0.215l-0.106,-0.214l-0.107,-0.213l-0.106,-0.212l-0.107,-0.21l-0.108,-0.209l-0.107,-0.208l-0.108,-0.207l-0.107,-0.205l-0.109,-0.204l-0.108,-0.203l-0.108,-0.202l-0.109,-0.201l-0.109,-0.199l-0.109,-0.198l-0.11,-0.197l-0.109,-0.196l-0.11,-0.195l-0.11,-0.193l-0.11,-0.193l-0.11,-0.19l-0.111,-0.19l-0.111,-0.189l-0.111,-0.188l-0.111,-0.186l-0.111,-0.185l-0.111,-0.184l-0.112,-0.184l-0.112,-0.181l-0.112,-0.181l-0.112,-0.179l-0.112,-0.179l-0.113,-0.177l-0.112,-0.176l-0.113,-0.175l-0.113,-0.174l-0.113,-0.173l-0.113,-0.171l-0.114,-0.171l-0.113,-0.169l-0.114,-0.168l-0.114,-0.168l-0.114,-0.166l-0.114,-0.165l-0.114,-0.164l-0.115,-0.163l-0.114,-0.161l-0.115,-0.161l-0.114,-0.159l-0.115,-0.159l-0.115,-0.157l-0.115,-0.157l-0.116,-0.155l-0.115,-0.154l-0.115,-0.154l-0.116,-0.152l-0.116,-0.151l-0.115,-0.15l-0.116,-0.149l-0.116,-0.148l-0.117,-0.147l-0.116,-0.146l-0.116,-0.145l-0.117,-0.144l-0.116,-0.143l-0.117,-0.142l-0.116,-0.141l-0.117,-0.139l-0.117,-0.139l-0.117,-0.138l-0.117,-0.137l-0.117,-0.136l-0.117,-0.135l-0.117,-0.134l-0.115,-0.13l-0.237,-0.266l-0.235,-0.259l-0.235,-0.255l-0.236,-0.252l-0.235,-0.248l-0.236,-0.244l-0.236,-0.24l-0.236,-0.236l-0.237,-0.233l-0.236,-0.23l-0.236,-0.225l-0.237,-0.223l-0.237,-0.218l-0.237,-0.215l-0.236,-0.212l-0.237,-0.208l-0.237,-0.205l-0.237,-0.202l-0.237,-0.198l-0.237,-0.195l-0.237,-0.191l-0.236,-0.188l-0.237,-0.185l-0.237,-0.182l-0.236,-0.179l-0.237,-0.175l-0.236,-0.173l-0.236,-0.169l-0.236,-0.166l-0.236,-0.164l-0.236,-0.16l-0.236,-0.157l-0.235,-0.155l-0.235,-0.151l-0.235,-0.149l-0.235,-0.145l-0.234,-0.143l-0.234,-0.14l-0.234,-0.137l-0.234,-0.135l-0.233,-0.132l-0.233,-0.129l-0.233,-0.127l-0.233,-0.123l-0.232,-0.122l-0.231,-0.118l-0.232,-0.116l-0.231,-0.114l-0.23,-0.111l-0.23,-0.109l-0.23,-0.106l-0.23,-0.104l-0.229,-0.101l-0.228,-0.099l-0.228,-0.096l-0.228,-0.095l-0.227,-0.092l-0.226,-0.089l-0.226,-0.088l-0.226,-0.085l-0.225,-0.083l-0.224,-0.081l-0.224,-0.079l-0.223,-0.076l-0.223,-0.075l-0.222,-0.072l-0.221,-0.071l-0.221,-0.068l-0.22,-0.066l-0.22,-0.064l-0.219,-0.063l-0.218,-0.06l-0.217,-0.059l-0.217,-0.056l-0.216,-0.055l-0.216,-0.053l-0.214,-0.051l-0.214,-0.049l-0.213,-0.048l-0.212,-0.046l-0.211,-0.044l-0.211,-0.042l-0.209,-0.041l-0.209,-0.039l-0.208,-0.037l-0.207,-0.036l-0.206,-0.034l-0.206,-0.032l-0.204,-0.031l-0.203,-0.03l-0.203,-0.028l-0.201,-0.026l-0.2,-0.025l-0.2,-0.024l-0.198,-0.022l-0.197,-0.021l-0.196,-0.019l-0.196,-0.019l-0.194,-0.016l-0.192,-0.016l-0.192,-0.014l-0.191,-0.013l-0.189,-0.012l-0.188,-0.01l-0.188,-0.009l-0.186,-0.009l-0.184,-0.007l-0.183,-0.005l-0.182,-0.005l-0.181,-0.004l-0.18,-0.003l-0.178,-0.001l-0.177,-0.001l-0.175,0.001l-0.174,0.001l-0.173,0.002l-0.171,0.003l-0.17,0.004l-0.169,0.005l-0.166,0.006l-0.166,0.007l-0.164,0.007l-0.162,0.008l-0.161,0.009l-0.16,0.01l-0.157,0.01l-0.157,0.011l-0.154,0.012l-0.153,0.012l-0.151,0.013l-0.15,0.014l-0.148,0.014l-0.146,0.015l-0.145,0.015l-0.139,0.015l-0.284,0.034l-0.273,0.034l-0.266,0.036l-0.258,0.037l-0.25,0.039l-0.243,0.039l-0.235,0.04l-0.227,0.041l-0.219,0.041l-0.21,0.041l-0.201,0.042l-0.193,0.041l-0.185,0.04l-0.175,0.04l-0.166,0.04l-0.156,0.038l-0.148,0.037l-0.137,0.036l-0.128,0.034l-0.118,0.032l-0.108,0.031l-0.093,0.026l-0.17,0.051l-0.123,0.038l-0.078,0.026l-0.035,0.012l-0.619,0.217l-1.297,-0.039l-0.593,-0.248l-0.005,-0.002l-0.034,-0.013l-0.064,-0.023l-0.101,-0.035l-0.052,-0.018l-0.066,-0.021l-0.073,-0.023l-0.08,-0.024l-0.087,-0.026l-0.094,-0.027l-0.101,-0.028l-0.108,-0.028l-0.115,-0.029l-0.121,-0.03l-0.129,-0.03l-0.134,-0.03l-0.142,-0.03l-0.147,-0.03l-0.154,-0.029l-0.161,-0.029l-0.166,-0.028l-0.173,-0.027l-0.178,-0.026l-0.185,-0.025l-0.191,-0.024l-0.196,-0.021l-0.202,-0.021l-0.213,-0.018l-0.101,-0.008l-0.108,-0.008l-0.109,-0.008l-0.11,-0.006l-0.111,-0.006l-0.113,-0.006l-0.115,-0.005l-0.116,-0.004l-0.116,-0.004l-0.119,-0.003l-0.12,-0.002l-0.121,-0.001l-0.122,-0.001l-0.124,0l-0.124,0.001l-0.127,0.002l-0.127,0.003l-0.129,0.003l-0.13,0.005l-0.132,0.005l-0.132,0.006l-0.134,0.007l-0.135,0.008l-0.137,0.009l-0.137,0.011l-0.139,0.011l-0.14,0.012l-0.141,0.013l-0.143,0.014l-0.143,0.016l-0.145,0.017l-0.146,0.017l-0.148,0.019l-0.148,0.021l-0.15,0.021l-0.15,0.023l-0.152,0.023l-0.153,0.026l-0.155,0.026l-0.155,0.028l-0.156,0.029l-0.158,0.031l-0.159,0.032l-0.16,0.033l-0.161,0.035l-0.162,0.036l-0.163,0.038l-0.164,0.039l-0.166,0.041l-0.166,0.042l-0.168,0.044l-0.168,0.046l-0.17,0.047l-0.171,0.049l-0.172,0.05l-0.173,0.053l-0.174,0.054l-0.175,0.055l-0.176,0.058l-0.177,0.059l-0.178,0.061l-0.179,0.063l-0.18,0.064l-0.182,0.067l-0.182,0.069l-0.183,0.07l-0.184,0.072l-0.186,0.075l-0.186,0.076l-0.187,0.079l-0.188,0.08l-0.189,0.083l-0.191,0.084l-0.191,0.087l-0.192,0.089l-0.193,0.091l-0.194,0.093l-0.195,0.096l-0.196,0.098l-0.197,0.1l-0.197,0.102l-0.199,0.105l-0.2,0.107l-0.2,0.109l-0.202,0.112l-0.202,0.115l-0.203,0.116l-0.204,0.12l-0.205,0.121l-0.206,0.125l-0.207,0.126l-0.207,0.13l-0.209,0.132l-0.209,0.135l-0.21,0.137l-0.211,0.14l-0.212,0.143l-0.212,0.145l-0.213,0.149l-0.215,0.151l-0.214,0.154l-0.216,0.156l-0.217,0.16l-0.217,0.163l-0.218,0.165l-0.219,0.169l-0.22,0.171l-0.22,0.174l-0.221,0.178l-0.222,0.18l-0.222,0.184l-0.223,0.187l-0.224,0.189l-0.225,0.193l-0.225,0.197l-0.226,0.199l-0.226,0.203l-0.228,0.206l-0.228,0.209l-0.228,0.212l-0.229,0.216l-0.23,0.219l-0.23,0.223l-0.231,0.226l-0.232,0.23l-0.232,0.233l-0.232,0.236l-0.234,0.24l-0.234,0.244l-0.234,0.247l-0.235,0.25l-0.235,0.255l-0.236,0.258l-0.236,0.262l-0.237,0.265l-0.238,0.269l-0.237,0.273l-0.239,0.277l-0.238,0.28l-0.24,0.284l-0.239,0.288l-0.24,0.292l-0.241,0.296l-0.24,0.3l-0.242,0.304l-0.241,0.308l-0.242,0.311l-0.243,0.316l-0.242,0.32l-0.243,0.324l-0.244,0.328l-0.243,0.332l-0.244,0.336l-0.244,0.341l-0.245,0.344l-0.245,0.349l-0.245,0.353l-0.245,0.358l-0.246,0.361l-0.245,0.366l-0.246,0.371l-0.246,0.374l-0.247,0.379l-0.247,0.384l-0.246,0.388l-0.247,0.392l-0.247,0.397l-0.248,0.401l-0.247,0.406l-0.247,0.411l-0.248,0.415l-0.248,0.419l-0.248,0.425l-0.247,0.428l-0.248,0.434l-0.248,0.438l-0.248,0.443l-0.248,0.448l-0.249,0.453l-0.248,0.457l-0.248,0.462l-0.248,0.467l-0.248,0.472l-0.248,0.476l-0.248,0.482l-0.248,0.487l-0.248,0.491l-0.245,0.491l-0.078,0.158l-0.074,0.156l-0.074,0.16l-0.073,0.162l-0.073,0.167l-0.072,0.169l-0.071,0.173l-0.071,0.176l-0.071,0.18l-0.069,0.183l-0.069,0.185l-0.069,0.189l-0.067,0.192l-0.067,0.195l-0.066,0.198l-0.065,0.201l-0.065,0.203l-0.063,0.207l-0.063,0.209l-0.062,0.212l-0.061,0.215l-0.061,0.218l-0.059,0.22l-0.059,0.223l-0.058,0.226l-0.057,0.228l-0.056,0.23l-0.055,0.233l-0.055,0.236l-0.053,0.238l-0.053,0.24l-0.051,0.242l-0.051,0.245l-0.05,0.247l-0.05,0.249l-0.048,0.252l-0.047,0.253l-0.047,0.256l-0.045,0.258l-0.045,0.259l-0.044,0.262l-0.043,0.264l-0.042,0.265l-0.041,0.268l-0.04,0.269l-0.04,0.271l-0.039,0.273l-0.037,0.275l-0.037,0.276l-0.036,0.278l-0.036,0.279l-0.034,0.282l-0.033,0.283l-0.033,0.284l-0.032,0.286l-0.031,0.288l-0.03,0.288l-0.03,0.291l-0.028,0.291l-0.028,0.293l-0.027,0.295l-0.026,0.295l-0.025,0.297l-0.025,0.298l-0.024,0.3l-0.023,0.3l-0.022,0.302l-0.021,0.303l-0.021,0.303l-0.02,0.305l-0.019,0.306l-0.019,0.307l-0.018,0.308l-0.017,0.308l-0.016,0.31l-0.015,0.31l-0.015,0.312l-0.014,0.31l-0.026,0.628l-0.024,0.629l-0.021,0.632l-0.018,0.634l-0.015,0.637l-0.013,0.638l-0.011,0.64l-0.008,0.641l-0.005,0.642l-0.003,0.644l-0.001,0.644l0.001,0.644l0.003,0.645l0.006,0.645l0.007,0.644l0.01,0.645l0.011,0.643l0.014,0.642l0.015,0.642l0.017,0.64l0.019,0.638l0.02,0.637l0.022,0.635l0.023,0.632l0.025,0.63l0.027,0.627l0.028,0.624l0.029,0.621l0.03,0.617l0.032,0.614l0.033,0.61l0.034,0.606l0.035,0.602l0.035,0.597l0.037,0.593l0.038,0.587l0.038,0.582l0.04,0.577l0.04,0.571l0.04,0.565l0.041,0.56l0.042,0.552l0.042,0.547l0.043,0.539l0.042,0.533l0.044,0.525l0.043,0.518l0.044,0.51l0.043,0.503l0.044,0.494l0.044,0.485l0.087,0.947l0.086,0.91l0.086,0.873l0.084,0.833l0.081,0.791l0.079,0.749l0.076,0.704l0.073,0.657l0.069,0.609l0.064,0.558l0.059,0.507l0.054,0.453l0.048,0.396l0.078,0.624l0.048,0.379l0.017,0.128l0.029,0.365l-0.01,0.367l-0.048,0.363l-0.086,0.356l-0.122,0.345l-0.158,0.331l-0.192,0.312l-0.223,0.291l-0.252,0.265l-0.279,0.238l-0.302,0.208l-0.322,0.174l-0.338,0.14l-0.352,0.104l-0.36,0.067l-0.365,0.028l-0.366,-0.009l-0.363,-0.048l-0.357,-0.086l-0.345,-0.122l-0.331,-0.158l-0.312,-0.192l-0.29,-0.223l-0.266,-0.252l-0.238,-0.279l-0.207,-0.302l-0.175,-0.322l-0.14,-0.339l-0.104,-0.351l-0.066,-0.36l-0.018,-0.137l-0.001,-0.005l-0.051,-0.398l-0.001,-0.006l-0.079,-0.641l-0.001,-0.004l-0.049,-0.409l-0.001,-0.004l-0.055,-0.463l-0.001,-0.004l-0.06,-0.518l-0.001,-0.003l-0.065,-0.57l-0.001,-0.004l-0.07,-0.621l0,-0.004l-0.074,-0.669l0,-0.004l-0.078,-0.716l0,-0.004l-0.081,-0.762l0,-0.004l-0.083,-0.805l-0.001,-0.004l-0.085,-0.847l0,-0.004l-0.087,-0.887l0,-0.005l-0.088,-0.925l-0.001,-0.005l-0.088,-0.96l-0.001,-0.004l-0.044,-0.494l0,-0.003l-0.045,-0.502l0,-0.003l-0.044,-0.51l-0.001,-0.003l-0.044,-0.519l0,-0.002l-0.044,-0.527l-0.001,-0.002l-0.043,-0.534l-0.001,-0.003l-0.043,-0.542l0,-0.002l-0.044,-0.549l0,-0.003l-0.043,-0.555l0,-0.003l-0.042,-0.562l0,-0.003l-0.042,-0.569l-0.001,-0.003l-0.041,-0.575l0,-0.003l-0.041,-0.581l0,-0.003l-0.04,-0.587l0,-0.003l-0.039,-0.592l0,-0.004l-0.039,-0.598l0,-0.003l-0.037,-0.603l-0.001,-0.004l-0.036,-0.607l0,-0.004l-0.036,-0.613l0,-0.003l-0.035,-0.618l0,-0.003l-0.033,-0.622l0,-0.004l-0.033,-0.625l0,-0.004l-0.031,-0.63l0,-0.004l-0.03,-0.633l0,-0.004l-0.028,-0.637l-0.001,-0.004l-0.027,-0.64l0,-0.004l-0.025,-0.643l0,-0.004l-0.024,-0.646l-0.001,-0.004l-0.022,-0.649l0,-0.004l-0.021,-0.651l0,-0.005l-0.019,-0.652l0,-0.005l-0.018,-0.655l0,-0.005l-0.016,-0.656l0,-0.005l-0.013,-0.658l0,-0.005l-0.012,-0.66l0,-0.005l-0.01,-0.66l0,-0.006l-0.008,-0.661l0,-0.005l-0.006,-0.662l0,-0.006l-0.003,-0.662l0,-0.006l-0.001,-0.662l0,-0.006l0.001,-0.662l0,-0.007l0.003,-0.662l0,-0.006l0.006,-0.662l0,-0.006l0.008,-0.662l0,-0.006l0.011,-0.661l0,-0.006l0.014,-0.66l0,-0.007l0.016,-0.658l0,-0.007l0.019,-0.656l0,-0.008l0.021,-0.655l0.001,-0.007l0.024,-0.653l0,-0.008l0.027,-0.65l0,-0.006l0.015,-0.325l0,-0.004l0.016,-0.324l0,-0.004l0.016,-0.324l0,-0.004l0.017,-0.323l0.001,-0.004l0.017,-0.322l0.001,-0.004l0.018,-0.321l0,-0.005l0.02,-0.32l0,-0.005l0.02,-0.32l0,-0.004l0.021,-0.319l0.001,-0.005l0.021,-0.318l0.001,-0.005l0.022,-0.317l0,-0.005l0.024,-0.316l0,-0.005l0.024,-0.315l0.001,-0.005l0.025,-0.315l0,-0.005l0.026,-0.314l0,-0.005l0.027,-0.312l0,-0.006l0.028,-0.311l0.001,-0.006l0.028,-0.31l0,-0.006l0.03,-0.309l0,-0.006l0.031,-0.308l0,-0.006l0.031,-0.307l0.001,-0.006l0.032,-0.306l0,-0.006l0.033,-0.305l0.001,-0.006l0.034,-0.304l0.001,-0.006l0.034,-0.303l0.001,-0.006l0.036,-0.301l0.001,-0.007l0.036,-0.3l0.001,-0.006l0.038,-0.299l0.001,-0.007l0.038,-0.297l0.001,-0.007l0.04,-0.297l0.001,-0.006l0.04,-0.295l0.001,-0.007l0.042,-0.293l0.001,-0.007l0.042,-0.293l0.001,-0.007l0.044,-0.291l0.001,-0.007l0.045,-0.29l0.001,-0.007l0.045,-0.288l0.002,-0.007l0.046,-0.287l0.001,-0.007l0.048,-0.285l0.002,-0.008l0.048,-0.283l0.002,-0.009l0.05,-0.281l0.001,-0.008l0.051,-0.281l0.002,-0.008l0.052,-0.278l0.001,-0.009l0.053,-0.277l0.002,-0.008l0.054,-0.276l0.002,-0.009l0.056,-0.273l0.001,-0.009l0.057,-0.272l0.002,-0.009l0.057,-0.27l0.002,-0.01l0.059,-0.269l0.002,-0.009l0.06,-0.267l0.003,-0.009l0.061,-0.265l0.002,-0.01l0.063,-0.263l0.002,-0.01l0.064,-0.262l0.002,-0.01l0.065,-0.259l0.003,-0.011l0.066,-0.257l0.002,-0.011l0.068,-0.255l0.003,-0.012l0.068,-0.254l0.004,-0.011l0.069,-0.252l0.004,-0.011l0.071,-0.25l0.003,-0.012l0.073,-0.247l0.003,-0.012l0.074,-0.246l0.004,-0.012l0.075,-0.244l0.004,-0.013l0.076,-0.241l0.004,-0.013l0.078,-0.24l0.004,-0.013l0.08,-0.237l0.004,-0.013l0.081,-0.236l0.004,-0.014l0.083,-0.233l0.004,-0.014l0.084,-0.231l0.005,-0.014l0.085,-0.229l0.006,-0.015l0.086,-0.227l0.006,-0.014l0.088,-0.225l0.006,-0.015l0.089,-0.223l0.007,-0.015l0.091,-0.22l0.006,-0.016l0.093,-0.218l0.007,-0.016l0.094,-0.215l0.008,-0.017l0.095,-0.213l0.008,-0.017l0.098,-0.211l0.008,-0.017l0.099,-0.208l0.008,-0.018l0.1,-0.203l0.006,-0.012l0.259,-0.519l0.003,-0.006l0.258,-0.511l0.003,-0.007l0.258,-0.506l0.004,-0.007l0.258,-0.501l0.003,-0.007l0.259,-0.496l0.003,-0.006l0.259,-0.492l0.003,-0.007l0.259,-0.487l0.004,-0.007l0.259,-0.482l0.003,-0.007l0.259,-0.477l0.004,-0.007l0.259,-0.473l0.004,-0.006l0.259,-0.468l0.004,-0.007l0.26,-0.464l0.004,-0.007l0.259,-0.459l0.004,-0.006l0.26,-0.455l0.004,-0.007l0.26,-0.45l0.004,-0.006l0.26,-0.446l0.004,-0.007l0.26,-0.44l0.004,-0.007l0.26,-0.436l0.005,-0.007l0.26,-0.432l0.004,-0.007l0.26,-0.427l0.005,-0.007l0.26,-0.423l0.005,-0.007l0.26,-0.419l0.005,-0.007l0.26,-0.414l0.005,-0.007l0.26,-0.409l0.005,-0.007l0.26,-0.406l0.005,-0.007l0.26,-0.401l0.005,-0.007l0.261,-0.397l0.005,-0.007l0.26,-0.392l0.005,-0.007l0.261,-0.388l0.005,-0.008l0.26,-0.384l0.005,-0.007l0.261,-0.379l0.005,-0.008l0.26,-0.375l0.006,-0.008l0.26,-0.371l0.005,-0.007l0.261,-0.367l0.005,-0.008l0.26,-0.362l0.006,-0.008l0.26,-0.359l0.005,-0.007l0.261,-0.355l0.005,-0.008l0.26,-0.35l0.006,-0.008l0.26,-0.346l0.006,-0.008l0.26,-0.343l0.005,-0.007l0.26,-0.339l0.006,-0.007l0.26,-0.335l0.006,-0.008l0.259,-0.33l0.006,-0.008l0.26,-0.326l0.006,-0.008l0.259,-0.323l0.006,-0.008l0.26,-0.319l0.006,-0.007l0.259,-0.315l0.006,-0.008l0.259,-0.311l0.006,-0.008l0.259,-0.307l0.007,-0.008l0.258,-0.304l0.007,-0.007l0.258,-0.3l0.007,-0.008l0.258,-0.296l0.006,-0.008l0.258,-0.292l0.007,-0.008l0.258,-0.288l0.007,-0.008l0.257,-0.285l0.007,-0.008l0.257,-0.281l0.008,-0.008l0.256,-0.278l0.008,-0.007l0.256,-0.274l0.008,-0.008l0.256,-0.271l0.007,-0.007l0.257,-0.267l0.007,-0.008l0.256,-0.263l0.007,-0.008l0.256,-0.26l0.008,-0.007l0.255,-0.257l0.008,-0.007l0.255,-0.253l0.008,-0.008l0.254,-0.249l0.008,-0.008l0.254,-0.245l0.008,-0.008l0.254,-0.243l0.008,-0.007l0.254,-0.239l0.008,-0.008l0.254,-0.235l0.008,-0.008l0.253,-0.232l0.008,-0.008l0.253,-0.229l0.008,-0.007l0.252,-0.226l0.009,-0.008l0.252,-0.222l0.008,-0.007l0.252,-0.219l0.008,-0.008l0.251,-0.216l0.009,-0.007l0.251,-0.213l0.009,-0.007l0.25,-0.209l0.009,-0.008l0.249,-0.206l0.01,-0.007l0.249,-0.203l0.009,-0.008l0.249,-0.199l0.009,-0.008l0.248,-0.196l0.01,-0.008l0.248,-0.193l0.009,-0.008l0.247,-0.19l0.01,-0.007l0.247,-0.188l0.009,-0.007l0.247,-0.184l0.01,-0.007l0.245,-0.182l0.01,-0.007l0.245,-0.178l0.01,-0.007l0.245,-0.175l0.01,-0.008l0.244,-0.172l0.01,-0.007l0.244,-0.169l0.01,-0.007l0.243,-0.167l0.011,-0.007l0.242,-0.163l0.01,-0.007l0.242,-0.161l0.011,-0.006l0.241,-0.158l0.01,-0.007l0.241,-0.155l0.011,-0.007l0.24,-0.152l0.011,-0.007l0.239,-0.149l0.011,-0.007l0.238,-0.146l0.011,-0.007l0.239,-0.144l0.01,-0.006l0.238,-0.141l0.011,-0.007l0.237,-0.138l0.011,-0.006l0.236,-0.136l0.011,-0.007l0.236,-0.133l0.011,-0.006l0.235,-0.13l0.011,-0.006l0.234,-0.128l0.011,-0.006l0.234,-0.126l0.011,-0.006l0.233,-0.122l0.011,-0.006l0.232,-0.12l0.011,-0.006l0.232,-0.118l0.011,-0.005l0.23,-0.116l0.012,-0.005l0.23,-0.113l0.011,-0.005l0.229,-0.111l0.012,-0.005l0.228,-0.108l0.012,-0.005l0.227,-0.105l0.012,-0.006l0.226,-0.103l0.012,-0.005l0.225,-0.1l0.012,-0.006l0.225,-0.098l0.012,-0.005l0.224,-0.096l0.012,-0.005l0.223,-0.093l0.012,-0.005l0.222,-0.091l0.012,-0.005l0.221,-0.089l0.013,-0.005l0.22,-0.086l0.012,-0.005l0.22,-0.084l0.012,-0.005l0.218,-0.082l0.013,-0.005l0.217,-0.08l0.012,-0.004l0.217,-0.078l0.012,-0.004l0.216,-0.076l0.012,-0.004l0.215,-0.074l0.012,-0.004l0.214,-0.071l0.013,-0.004l0.213,-0.07l0.012,-0.004l0.212,-0.067l0.012,-0.004l0.211,-0.065l0.012,-0.004l0.21,-0.063l0.012,-0.004l0.209,-0.062l0.012,-0.003l0.208,-0.06l0.013,-0.003l0.206,-0.057l0.013,-0.004l0.205,-0.055l0.013,-0.004l0.204,-0.053l0.013,-0.004l0.203,-0.051l0.012,-0.003l0.203,-0.05l0.012,-0.003l0.202,-0.049l0.012,-0.002l0.2,-0.047l0.013,-0.003l0.199,-0.044l0.012,-0.003l0.198,-0.043l0.012,-0.002l0.197,-0.041l0.012,-0.003l0.196,-0.039l0.012,-0.003l0.195,-0.037l0.012,-0.003l0.193,-0.036l0.012,-0.002l0.192,-0.034l0.013,-0.003l0.19,-0.032l0.013,-0.002l0.189,-0.032l0.013,-0.002l0.188,-0.029l0.012,-0.002l0.187,-0.028l0.012,-0.002l0.186,-0.027l0.013,-0.001l0.184,-0.025l0.012,-0.002l0.183,-0.024l0.013,-0.001l0.182,-0.022l0.012,-0.002l0.18,-0.02l0.012,-0.002l0.18,-0.019l0.012,-0.001l0.178,-0.018l0.012,-0.001l0.177,-0.017l0.012,-0.001l0.175,-0.015l0.012,-0.001l0.174,-0.014l0.012,-0.001l0.173,-0.013l0.011,-0.001l0.172,-0.011l0.011,-0.001l0.171,-0.01l0.012,-0.001l0.168,-0.009l0.012,-0.001l0.167,-0.007l0.011,-0.001l0.166,-0.006l0.012,-0.001l0.164,-0.005l0.012,-0.001l0.163,-0.004l0.011,0l0.162,-0.004l0.011,0l0.16,-0.002l0.011,0l0.159,-0.002l0.011,0l0.158,0l0.011,0l0.155,0.001l0.011,0l0.155,0.002l0.011,0l0.153,0.003l0.01,0l0.152,0.004l0.011,0l0.15,0.005l0.011,0l0.148,0.005l0.01,0.001l0.147,0.006l0.01,0.001l0.146,0.007l0.01,0l0.144,0.008l0.01,0.001l0.143,0.008l0.01,0.001l0.141,0.01l0.01,0l0.139,0.01l0.01,0.001l0.14,0.011l0.015,0.002l0.267,0.023l0.021,0.002l0.263,0.026l0.02,0.002l0.256,0.029l0.02,0.002l0.25,0.031l0.02,0.003l0.243,0.033l0.019,0.002l0.236,0.035l0.019,0.003l0.23,0.036l0.018,0.003l0.223,0.037l0.018,0.004l0.216,0.038l0.018,0.004l0.208,0.039l0.018,0.004l0.201,0.04l0.018,0.004l0.194,0.041l0.017,0.004l0.187,0.041l0.017,0.004l0.179,0.042l0.016,0.004l0.172,0.042l0.016,0.004l0.165,0.042l0.016,0.004l0.156,0.041l0.017,0.005l0.148,0.041l0.016,0.004l0.141,0.04l0.027,0.008l0.008,-0.002l0.163,-0.044l0.011,-0.003l0.173,-0.045l0.012,-0.003l0.184,-0.046l0.012,-0.003l0.194,-0.047l0.012,-0.003l0.204,-0.048l0.012,-0.003l0.214,-0.049l0.012,-0.003l0.224,-0.049l0.013,-0.003l0.232,-0.049l0.013,-0.003l0.242,-0.05l0.014,-0.002l0.251,-0.05l0.014,-0.002l0.26,-0.049l0.014,-0.003l0.27,-0.048l0.014,-0.003l0.279,-0.047l0.014,-0.003l0.287,-0.046l0.015,-0.003l0.296,-0.045l0.015,-0.002l0.304,-0.044l0.015,-0.002l0.313,-0.043l0.015,-0.002l0.321,-0.04l0.016,-0.002l0.326,-0.038l0.012,-0.002l0.17,-0.018l0.008,-0.001l0.169,-0.018l0.008,-0.001l0.172,-0.017l0.008,-0.001l0.173,-0.017l0.008,0l0.175,-0.016l0.009,-0.001l0.177,-0.015l0.008,-0.001l0.179,-0.014l0.009,-0.001l0.18,-0.014l0.009,0l0.182,-0.013l0.009,-0.001l0.184,-0.012l0.009,0l0.186,-0.012l0.009,0l0.188,-0.011l0.009,0l0.189,-0.01l0.009,0l0.192,-0.009l0.009,0l0.193,-0.008l0.009,0l0.195,-0.007l0.009,0l0.197,-0.006l0.009,0l0.198,-0.005l0.009,0l0.2,-0.004l0.01,0l0.201,-0.003l0.01,0l0.203,-0.001l0.01,0l0.204,-0.001l0.01,0Z" style="fill:#9b5e66;"/></g><path id="Dallar" d="M297.299,203.686c40.866,0 74.044,33.192 74.044,74.076c0,40.884 -33.178,74.076 -74.044,74.076c-40.865,0 -74.043,-33.192 -74.043,-74.076c0,-40.884 33.178,-74.076 74.043,-74.076Zm-22.398,78.565l41.57,0l0,14.266l-32.98,-0.154l0,3.222l33.9,0.153l-0.153,5.522l-41.877,0.154l-0.154,-14.573l32.98,-0.153l0,-2.761l-33.133,0.153l-0.153,-5.829Zm32.98,-32.06l0.306,28.532l8.284,0.153l0.153,-7.823l7.21,0c-0.025,0.006 0.246,-7.682 -0.307,-7.67c-1.324,0.031 -7.21,0 -7.21,0c0.015,-4.457 0.115,-8.947 0.921,-13.038l-9.357,-0.154Zm-13.806,19.558l-14.726,0l0.153,-9.971l20.555,-0.153l0,-6.749l-29.298,-0.154l-0.153,24.544c0,0 16.708,0.153 16.72,0.153c0.042,0.001 0.084,0.001 0.126,0.003c0.836,0.019 5.679,0.098 9.998,-0.463c4.765,-0.62 6.749,-1.534 6.749,-1.534c0,0 0.702,-7.119 -0.307,-6.903c-5.353,1.147 -9.791,1.227 -9.817,1.227Z" style="fill:#fff;"/></g></svg>