<?xml version="1.0" encoding="UTF-8"?>
<svg width="648px" height="271px" viewBox="0 0 648 271" version="1.1" xmlns="http://www.w3.org/2000/svg" xmlns:xlink="http://www.w3.org/1999/xlink">
    <!-- Generator: Sketch 48.2 (47327) - http://www.bohemiancoding.com/sketch -->
    <title>tour-currency</title>
    <desc>Created with Sketch.</desc>
    <defs></defs>
    <g id="Page-1" stroke="none" stroke-width="1" fill="none" fill-rule="evenodd">
        <g id="tour-currency">
            <polygon id="Shape" fill-opacity="0.415686" fill="#5C393E" points="172.713 94.817 245.943 142.685 324 81.43 381.884 77.99 430.703 24.692 488.33 56.717 609.534 15.594 645.071 2.86 645 263.636 3 261.472 3 157.15 97.996 154.293"></polygon>
            <polygon id="Shape" fill="#9B5E66" points="646.172 0.615 646.947 1.208 647.437 2.052 647.566 3.018 647.315 3.961 646.723 4.736 645.879 5.226 559.687 34.669 559.637 34.685 482.908 57.355 481.837 57.205 431.214 25.144 382.072 79.37 381.147 79.797 325.013 81.517 246.453 147.309 244.736 147.37 172.874 95.371 99.612 155.066 98.899 155.35 3.186 162.493 2.218 162.374 1.369 161.894 0.768 161.126 0.507 160.186 0.626 159.218 1.106 158.369 1.874 157.768 2.814 157.507 97.36 150.451 171.863 89.745 173.561 89.697 245.394 141.674 322.788 76.858 323.574 76.559 379.422 74.847 429.534 19.551 431.341 19.306 483.098 52.085 558.145 29.912 644.263 0.494 645.23 0.365 646.172 0.615"></polygon>
            <ellipse id="Oval" fill-opacity="0.686275" fill="#5C393E" cx="324.071" cy="85.105" rx="7.716" ry="7.115"></ellipse>
            <path d="M324.08,74.99 L324.197,74.991 L324.214,74.991 L324.331,74.993 L324.349,74.993 L324.465,74.997 L324.483,74.997 L324.599,75.002 L324.617,75.003 L324.733,75.009 L324.75,75.01 L324.866,75.018 L324.883,75.019 L324.998,75.028 L325.016,75.029 L325.131,75.039 L325.148,75.041 L325.263,75.052 L325.28,75.054 L325.394,75.067 L325.412,75.069 L325.525,75.083 L325.542,75.085 L325.656,75.1 L325.673,75.103 L325.786,75.119 L325.803,75.122 L325.915,75.14 L325.932,75.143 L326.045,75.162 L326.062,75.165 L326.174,75.185 L326.19,75.188 L326.301,75.21 L326.319,75.214 L326.429,75.236 L326.446,75.24 L326.557,75.264 L326.574,75.268 L326.683,75.293 L326.7,75.297 L326.809,75.324 L326.826,75.328 L326.935,75.356 L326.951,75.36 L327.059,75.389 L327.076,75.394 L327.184,75.424 L327.2,75.429 L327.308,75.46 L327.325,75.466 L327.431,75.498 L327.447,75.503 L327.553,75.537 L327.569,75.542 L327.675,75.577 L327.691,75.583 L327.796,75.619 L327.813,75.625 L327.917,75.662 L327.933,75.668 L328.036,75.706 L328.053,75.712 L328.156,75.752 L328.172,75.758 L328.275,75.799 L328.29,75.805 L328.392,75.847 L328.408,75.854 L328.51,75.897 L328.526,75.904 L328.626,75.947 L328.641,75.954 L328.741,75.999 L328.757,76.007 L328.857,76.053 L328.872,76.06 L328.97,76.107 L328.986,76.115 L329.084,76.163 L329.1,76.171 L329.197,76.221 L329.212,76.229 L329.308,76.279 L329.324,76.287 L329.419,76.339 L329.435,76.347 L329.53,76.399 L329.545,76.408 L329.64,76.462 L329.655,76.47 L329.748,76.525 L329.763,76.534 L329.856,76.589 L329.871,76.598 L329.963,76.655 L329.978,76.665 L330.07,76.722 L330.084,76.731 L330.174,76.79 L330.189,76.8 L330.279,76.86 L330.293,76.869 L330.382,76.93 L330.397,76.94 L330.485,77.001 L330.5,77.012 L330.587,77.074 L330.601,77.084 L330.688,77.148 L330.702,77.159 L330.788,77.223 L330.802,77.234 L330.887,77.299 L330.901,77.31 L330.985,77.377 L330.999,77.388 L331.082,77.455 L331.095,77.466 L331.178,77.534 L331.192,77.546 L331.274,77.615 L331.287,77.627 L331.368,77.697 L331.381,77.708 L331.461,77.779 L331.474,77.791 L331.553,77.863 L331.566,77.876 L331.644,77.948 L331.657,77.96 L331.734,78.034 L331.748,78.047 L331.824,78.122 L331.836,78.134 L331.912,78.21 L331.924,78.222 L331.999,78.299 L332.011,78.312 L332.085,78.389 L332.097,78.402 L332.17,78.48 L332.182,78.494 L332.253,78.573 L332.265,78.586 L332.336,78.666 L332.348,78.68 L332.418,78.76 L332.43,78.774 L332.498,78.856 L332.51,78.87 L332.577,78.952 L332.589,78.966 L332.655,79.049 L332.667,79.064 L332.733,79.148 L332.744,79.162 L332.808,79.247 L332.819,79.261 L332.883,79.347 L332.894,79.362 L332.956,79.449 L332.967,79.464 L333.028,79.551 L333.039,79.566 L333.099,79.654 L333.109,79.669 L333.169,79.757 L333.179,79.773 L333.237,79.863 L333.248,79.879 L333.305,79.969 L333.315,79.985 L333.37,80.076 L333.38,80.092 L333.435,80.183 L333.444,80.199 L333.498,80.292 L333.508,80.308 L333.56,80.402 L333.57,80.418 L333.621,80.512 L333.63,80.528 L333.68,80.623 L333.689,80.64 L333.738,80.735 L333.746,80.752 L333.794,80.848 L333.803,80.865 L333.849,80.962 L333.858,80.979 L333.903,81.076 L333.911,81.094 L333.955,81.191 L333.963,81.209 L334.006,81.308 L334.014,81.326 L334.055,81.425 L334.063,81.443 L334.103,81.542 L334.11,81.561 L334.149,81.661 L334.156,81.679 L334.194,81.78 L334.201,81.799 L334.238,81.901 L334.244,81.919 L334.279,82.021 L334.286,82.04 L334.319,82.143 L334.326,82.161 L334.358,82.265 L334.364,82.284 L334.395,82.388 L334.401,82.407 L334.431,82.511 L334.436,82.53 L334.465,82.635 L334.47,82.655 L334.497,82.76 L334.502,82.779 L334.528,82.885 L334.532,82.905 L334.557,83.011 L334.561,83.031 L334.584,83.138 L334.588,83.158 L334.61,83.265 L334.614,83.285 L334.634,83.393 L334.637,83.413 L334.656,83.521 L334.659,83.541 L334.677,83.65 L334.68,83.67 L334.696,83.779 L334.698,83.8 L334.713,83.909 L334.715,83.929 L334.728,84.039 L334.73,84.059 L334.742,84.169 L334.744,84.19 L334.754,84.3 L334.755,84.321 L334.764,84.432 L334.765,84.453 L334.772,84.564 L334.773,84.584 L334.779,84.696 L334.779,84.717 L334.783,84.829 L334.784,84.85 L334.786,84.962 L334.786,84.982 L334.787,85.094 L334.787,85.116 L334.786,85.228 L334.786,85.248 L334.784,85.36 L334.783,85.381 L334.779,85.493 L334.779,85.514 L334.773,85.626 L334.772,85.646 L334.765,85.757 L334.764,85.778 L334.755,85.889 L334.754,85.91 L334.744,86.02 L334.742,86.041 L334.73,86.151 L334.728,86.171 L334.715,86.281 L334.713,86.301 L334.698,86.41 L334.696,86.431 L334.68,86.54 L334.677,86.56 L334.659,86.669 L334.656,86.689 L334.637,86.797 L334.634,86.817 L334.614,86.925 L334.61,86.945 L334.588,87.052 L334.584,87.072 L334.561,87.179 L334.557,87.199 L334.532,87.305 L334.528,87.325 L334.502,87.431 L334.497,87.45 L334.47,87.555 L334.465,87.575 L334.436,87.68 L334.431,87.699 L334.401,87.803 L334.395,87.822 L334.364,87.926 L334.358,87.945 L334.325,88.049 L334.319,88.068 L334.285,88.17 L334.279,88.189 L334.244,88.291 L334.237,88.309 L334.201,88.411 L334.194,88.429 L334.156,88.53 L334.149,88.549 L334.11,88.649 L334.103,88.668 L334.062,88.767 L334.055,88.785 L334.014,88.884 L334.006,88.902 L333.963,89 L333.955,89.018 L333.911,89.116 L333.903,89.134 L333.857,89.231 L333.849,89.248 L333.803,89.345 L333.794,89.362 L333.746,89.458 L333.737,89.475 L333.689,89.57 L333.68,89.587 L333.63,89.681 L333.621,89.698 L333.569,89.792 L333.56,89.809 L333.508,89.902 L333.498,89.918 L333.445,90.01 L333.435,90.027 L333.38,90.119 L333.37,90.134 L333.315,90.225 L333.304,90.241 L333.247,90.331 L333.237,90.347 L333.179,90.437 L333.169,90.452 L333.11,90.541 L333.099,90.556 L333.039,90.644 L333.028,90.659 L332.967,90.746 L332.956,90.761 L332.894,90.848 L332.883,90.863 L332.819,90.949 L332.808,90.963 L332.744,91.048 L332.733,91.062 L332.667,91.146 L332.655,91.161 L332.589,91.244 L332.577,91.258 L332.51,91.34 L332.498,91.354 L332.429,91.436 L332.418,91.45 L332.348,91.53 L332.336,91.544 L332.266,91.624 L332.253,91.637 L332.182,91.716 L332.17,91.73 L332.097,91.808 L332.085,91.821 L332.011,91.898 L331.999,91.911 L331.925,91.987 L331.912,92 L331.836,92.076 L331.824,92.088 L331.747,92.163 L331.734,92.176 L331.657,92.249 L331.645,92.261 L331.567,92.334 L331.553,92.347 L331.474,92.419 L331.461,92.43 L331.381,92.501 L331.368,92.513 L331.287,92.583 L331.273,92.595 L331.192,92.664 L331.178,92.676 L331.096,92.744 L331.082,92.755 L330.999,92.822 L330.985,92.834 L330.9,92.9 L330.887,92.911 L330.802,92.976 L330.788,92.987 L330.702,93.051 L330.688,93.062 L330.601,93.126 L330.587,93.136 L330.5,93.198 L330.486,93.208 L330.397,93.27 L330.383,93.28 L330.293,93.341 L330.279,93.351 L330.189,93.41 L330.175,93.42 L330.084,93.478 L330.069,93.488 L329.978,93.546 L329.963,93.555 L329.871,93.611 L329.856,93.621 L329.763,93.676 L329.749,93.685 L329.655,93.739 L329.639,93.748 L329.545,93.802 L329.53,93.81 L329.435,93.863 L329.42,93.871 L329.324,93.923 L329.308,93.931 L329.212,93.981 L329.197,93.989 L329.1,94.039 L329.084,94.047 L328.986,94.095 L328.971,94.102 L328.872,94.15 L328.856,94.157 L328.757,94.203 L328.741,94.21 L328.642,94.256 L328.626,94.262 L328.526,94.307 L328.509,94.314 L328.408,94.356 L328.392,94.363 L328.29,94.405 L328.274,94.411 L328.172,94.452 L328.156,94.458 L328.053,94.498 L328.037,94.504 L327.933,94.542 L327.916,94.548 L327.812,94.586 L327.796,94.591 L327.691,94.627 L327.675,94.633 L327.57,94.668 L327.553,94.673 L327.447,94.707 L327.431,94.712 L327.324,94.745 L327.307,94.75 L327.201,94.781 L327.184,94.786 L327.076,94.816 L327.059,94.821 L326.951,94.85 L326.935,94.854 L326.826,94.882 L326.809,94.886 L326.7,94.912 L326.683,94.916 L326.574,94.942 L326.557,94.946 L326.446,94.97 L326.429,94.974 L326.318,94.996 L326.302,95 L326.191,95.021 L326.173,95.025 L326.062,95.045 L326.045,95.048 L325.933,95.067 L325.916,95.07 L325.803,95.088 L325.786,95.091 L325.673,95.107 L325.656,95.11 L325.543,95.125 L325.525,95.127 L325.411,95.141 L325.394,95.143 L325.28,95.156 L325.263,95.158 L325.148,95.169 L325.131,95.171 L325.016,95.181 L324.999,95.182 L324.883,95.191 L324.866,95.192 L324.75,95.2 L324.733,95.201 L324.617,95.207 L324.599,95.208 L324.483,95.212 L324.465,95.213 L324.349,95.216 L324.332,95.217 L324.215,95.219 L324.197,95.219 L324.08,95.22 L324.062,95.22 L323.945,95.219 L323.927,95.219 L323.81,95.217 L323.793,95.216 L323.677,95.213 L323.659,95.212 L323.543,95.208 L323.525,95.207 L323.409,95.201 L323.392,95.2 L323.276,95.192 L323.258,95.191 L323.143,95.182 L323.126,95.181 L323.011,95.171 L322.994,95.169 L322.879,95.158 L322.862,95.156 L322.748,95.143 L322.731,95.141 L322.617,95.127 L322.599,95.125 L322.486,95.11 L322.469,95.107 L322.356,95.091 L322.339,95.088 L322.226,95.07 L322.209,95.067 L322.097,95.048 L322.08,95.045 L321.969,95.025 L321.951,95.021 L321.84,95 L321.823,94.996 L321.713,94.974 L321.696,94.97 L321.585,94.946 L321.568,94.942 L321.459,94.916 L321.441,94.912 L321.332,94.886 L321.316,94.882 L321.207,94.854 L321.191,94.85 L321.083,94.821 L321.066,94.816 L320.958,94.786 L320.941,94.781 L320.834,94.749 L320.818,94.745 L320.711,94.712 L320.695,94.707 L320.589,94.673 L320.572,94.668 L320.467,94.633 L320.45,94.627 L320.346,94.591 L320.33,94.585 L320.225,94.548 L320.209,94.542 L320.105,94.504 L320.089,94.498 L319.986,94.458 L319.97,94.452 L319.867,94.411 L319.851,94.405 L319.75,94.363 L319.734,94.356 L319.633,94.314 L319.617,94.307 L319.516,94.263 L319.5,94.255 L319.4,94.21 L319.385,94.203 L319.286,94.157 L319.27,94.15 L319.171,94.102 L319.156,94.095 L319.058,94.047 L319.042,94.039 L318.945,93.989 L318.93,93.981 L318.833,93.931 L318.818,93.923 L318.722,93.871 L318.706,93.863 L318.611,93.81 L318.597,93.802 L318.503,93.748 L318.487,93.74 L318.393,93.685 L318.379,93.676 L318.286,93.621 L318.271,93.611 L318.179,93.555 L318.164,93.546 L318.073,93.488 L318.058,93.478 L317.967,93.42 L317.953,93.41 L317.863,93.351 L317.848,93.341 L317.759,93.28 L317.745,93.27 L317.656,93.208 L317.642,93.198 L317.555,93.136 L317.541,93.126 L317.454,93.062 L317.44,93.051 L317.354,92.987 L317.34,92.976 L317.255,92.911 L317.241,92.9 L317.157,92.833 L317.143,92.822 L317.06,92.755 L317.046,92.744 L316.964,92.676 L316.95,92.664 L316.869,92.595 L316.855,92.583 L316.774,92.513 L316.761,92.501 L316.681,92.43 L316.668,92.419 L316.589,92.347 L316.575,92.334 L316.497,92.261 L316.484,92.249 L316.407,92.176 L316.395,92.163 L316.318,92.089 L316.306,92.076 L316.23,92 L316.217,91.987 L316.143,91.911 L316.131,91.898 L316.057,91.821 L316.045,91.808 L315.972,91.73 L315.96,91.716 L315.888,91.637 L315.876,91.624 L315.806,91.544 L315.793,91.53 L315.724,91.449 L315.712,91.436 L315.644,91.354 L315.632,91.341 L315.565,91.258 L315.553,91.244 L315.486,91.16 L315.475,91.146 L315.409,91.062 L315.398,91.048 L315.334,90.963 L315.322,90.948 L315.259,90.863 L315.248,90.848 L315.186,90.762 L315.175,90.746 L315.114,90.659 L315.103,90.644 L315.043,90.556 L315.032,90.54 L314.973,90.452 L314.962,90.436 L314.904,90.347 L314.894,90.331 L314.837,90.241 L314.827,90.225 L314.772,90.135 L314.762,90.118 L314.707,90.027 L314.697,90.01 L314.644,89.918 L314.634,89.902 L314.582,89.809 L314.573,89.792 L314.521,89.698 L314.512,89.682 L314.462,89.587 L314.453,89.57 L314.404,89.475 L314.395,89.458 L314.348,89.362 L314.339,89.345 L314.293,89.248 L314.284,89.231 L314.239,89.134 L314.231,89.116 L314.187,89.018 L314.179,89 L314.136,88.902 L314.128,88.884 L314.087,88.785 L314.079,88.767 L314.039,88.667 L314.032,88.649 L313.992,88.548 L313.985,88.53 L313.948,88.43 L313.941,88.411 L313.905,88.31 L313.898,88.291 L313.863,88.189 L313.856,88.17 L313.822,88.067 L313.816,88.048 L313.784,87.945 L313.778,87.926 L313.747,87.822 L313.741,87.804 L313.711,87.699 L313.706,87.68 L313.677,87.575 L313.672,87.555 L313.645,87.45 L313.64,87.431 L313.614,87.325 L313.609,87.305 L313.585,87.198 L313.581,87.179 L313.558,87.072 L313.554,87.052 L313.532,86.945 L313.528,86.925 L313.508,86.818 L313.504,86.797 L313.486,86.688 L313.482,86.669 L313.465,86.56 L313.462,86.54 L313.446,86.431 L313.444,86.411 L313.429,86.301 L313.427,86.281 L313.414,86.171 L313.411,86.151 L313.4,86.04 L313.398,86.02 L313.388,85.909 L313.387,85.889 L313.378,85.778 L313.377,85.758 L313.37,85.646 L313.369,85.625 L313.363,85.513 L313.362,85.493 L313.359,85.382 L313.358,85.361 L313.356,85.248 L313.355,85.228 L313.355,85.115 L313.355,85.095 L313.355,84.982 L313.356,84.962 L313.358,84.849 L313.359,84.828 L313.362,84.716 L313.363,84.696 L313.369,84.585 L313.37,84.564 L313.377,84.452 L313.378,84.432 L313.387,84.321 L313.388,84.301 L313.398,84.19 L313.4,84.17 L313.411,84.059 L313.414,84.039 L313.427,83.929 L313.429,83.908 L313.444,83.799 L313.446,83.779 L313.462,83.67 L313.465,83.65 L313.482,83.541 L313.486,83.521 L313.504,83.413 L313.508,83.392 L313.528,83.285 L313.532,83.265 L313.554,83.158 L313.558,83.138 L313.581,83.031 L313.585,83.012 L313.609,82.905 L313.614,82.885 L313.64,82.779 L313.645,82.76 L313.672,82.655 L313.677,82.635 L313.706,82.53 L313.711,82.511 L313.741,82.406 L313.747,82.387 L313.778,82.284 L313.784,82.265 L313.816,82.162 L313.822,82.143 L313.856,82.04 L313.863,82.021 L313.898,81.919 L313.904,81.9 L313.941,81.799 L313.948,81.78 L313.986,81.679 L313.992,81.661 L314.032,81.561 L314.039,81.543 L314.079,81.443 L314.087,81.425 L314.128,81.326 L314.136,81.308 L314.179,81.209 L314.187,81.191 L314.231,81.094 L314.239,81.076 L314.284,80.979 L314.293,80.962 L314.339,80.865 L314.348,80.848 L314.395,80.752 L314.404,80.735 L314.453,80.64 L314.462,80.623 L314.512,80.528 L314.521,80.511 L314.573,80.418 L314.582,80.401 L314.634,80.308 L314.644,80.292 L314.697,80.2 L314.707,80.184 L314.762,80.092 L314.772,80.075 L314.828,79.984 L314.837,79.969 L314.894,79.879 L314.904,79.863 L314.963,79.773 L314.973,79.758 L315.032,79.669 L315.042,79.654 L315.103,79.566 L315.113,79.551 L315.175,79.463 L315.186,79.448 L315.248,79.362 L315.259,79.347 L315.322,79.262 L315.334,79.247 L315.398,79.162 L315.41,79.147 L315.475,79.064 L315.486,79.049 L315.553,78.966 L315.565,78.952 L315.632,78.869 L315.644,78.856 L315.712,78.774 L315.724,78.761 L315.794,78.68 L315.806,78.666 L315.877,78.586 L315.889,78.573 L315.96,78.494 L315.972,78.48 L316.045,78.402 L316.057,78.389 L316.13,78.312 L316.143,78.299 L316.218,78.222 L316.23,78.21 L316.305,78.134 L316.318,78.122 L316.394,78.047 L316.407,78.035 L316.484,77.961 L316.498,77.948 L316.576,77.875 L316.589,77.864 L316.667,77.792 L316.681,77.78 L316.761,77.708 L316.774,77.697 L316.855,77.627 L316.868,77.615 L316.95,77.546 L316.964,77.534 L317.046,77.466 L317.06,77.455 L317.143,77.387 L317.157,77.377 L317.241,77.31 L317.255,77.299 L317.34,77.233 L317.354,77.223 L317.44,77.159 L317.454,77.148 L317.54,77.085 L317.554,77.074 L317.642,77.012 L317.657,77.001 L317.745,76.94 L317.759,76.93 L317.848,76.869 L317.863,76.86 L317.953,76.8 L317.967,76.79 L318.058,76.731 L318.073,76.722 L318.164,76.665 L318.178,76.655 L318.271,76.599 L318.286,76.589 L318.379,76.534 L318.394,76.525 L318.487,76.47 L318.502,76.462 L318.597,76.408 L318.612,76.4 L318.707,76.347 L318.722,76.339 L318.818,76.287 L318.833,76.279 L318.93,76.229 L318.945,76.221 L319.042,76.171 L319.058,76.163 L319.156,76.115 L319.171,76.107 L319.27,76.06 L319.285,76.053 L319.384,76.007 L319.401,75.999 L319.5,75.954 L319.516,75.947 L319.616,75.903 L319.632,75.897 L319.733,75.854 L319.75,75.847 L319.852,75.805 L319.867,75.799 L319.969,75.758 L319.986,75.752 L320.089,75.712 L320.106,75.706 L320.209,75.668 L320.225,75.662 L320.329,75.625 L320.345,75.619 L320.45,75.583 L320.467,75.577 L320.573,75.542 L320.589,75.537 L320.694,75.503 L320.711,75.498 L320.817,75.466 L320.834,75.46 L320.941,75.429 L320.958,75.424 L321.066,75.394 L321.082,75.389 L321.19,75.36 L321.207,75.356 L321.316,75.328 L321.333,75.324 L321.442,75.297 L321.459,75.293 L321.568,75.268 L321.585,75.264 L321.696,75.24 L321.712,75.236 L321.823,75.214 L321.84,75.21 L321.951,75.188 L321.968,75.185 L322.08,75.165 L322.097,75.162 L322.209,75.143 L322.227,75.14 L322.339,75.122 L322.356,75.119 L322.469,75.103 L322.486,75.1 L322.6,75.085 L322.616,75.083 L322.73,75.069 L322.748,75.067 L322.862,75.054 L322.879,75.052 L322.994,75.041 L323.011,75.039 L323.126,75.029 L323.144,75.028 L323.259,75.019 L323.276,75.018 L323.392,75.01 L323.409,75.009 L323.525,75.003 L323.542,75.002 L323.659,74.997 L323.676,74.997 L323.793,74.993 L323.811,74.993 L323.928,74.991 L323.945,74.991 L324.062,74.99 L324.08,74.99 Z M323.971,77.991 L323.872,77.992 L323.773,77.995 L323.674,77.999 L323.576,78.005 L323.478,78.011 L323.38,78.018 L323.282,78.027 L323.185,78.037 L323.089,78.047 L322.992,78.059 L322.896,78.072 L322.801,78.086 L322.706,78.101 L322.611,78.117 L322.517,78.135 L322.423,78.153 L322.329,78.172 L322.236,78.193 L322.143,78.214 L322.051,78.237 L321.959,78.26 L321.868,78.285 L321.777,78.31 L321.687,78.337 L321.597,78.364 L321.508,78.393 L321.419,78.422 L321.331,78.453 L321.243,78.484 L321.155,78.516 L321.069,78.55 L320.982,78.584 L320.897,78.619 L320.811,78.655 L320.727,78.692 L320.643,78.73 L320.559,78.769 L320.476,78.809 L320.394,78.849 L320.312,78.891 L320.231,78.933 L320.151,78.977 L320.071,79.021 L319.992,79.066 L319.913,79.112 L319.835,79.158 L319.758,79.206 L319.681,79.254 L319.605,79.303 L319.53,79.354 L319.455,79.404 L319.381,79.456 L319.308,79.508 L319.236,79.562 L319.164,79.616 L319.093,79.67 L319.022,79.726 L318.953,79.782 L318.884,79.839 L318.816,79.897 L318.748,79.956 L318.682,80.015 L318.616,80.075 L318.551,80.136 L318.486,80.197 L318.423,80.259 L318.36,80.322 L318.298,80.386 L318.237,80.45 L318.177,80.515 L318.118,80.58 L318.059,80.647 L318.001,80.713 L317.944,80.781 L317.888,80.849 L317.833,80.918 L317.779,80.987 L317.726,81.057 L317.673,81.128 L317.622,81.199 L317.571,81.271 L317.521,81.344 L317.472,81.417 L317.425,81.49 L317.378,81.565 L317.332,81.639 L317.287,81.715 L317.242,81.791 L317.199,81.867 L317.157,81.944 L317.116,82.022 L317.076,82.1 L317.037,82.178 L316.999,82.257 L316.961,82.337 L316.925,82.417 L316.89,82.497 L316.856,82.578 L316.823,82.66 L316.791,82.742 L316.76,82.824 L316.731,82.907 L316.702,82.99 L316.674,83.074 L316.648,83.158 L316.622,83.243 L316.598,83.328 L316.575,83.413 L316.552,83.499 L316.531,83.585 L316.512,83.672 L316.493,83.759 L316.475,83.846 L316.459,83.934 L316.444,84.022 L316.43,84.111 L316.417,84.199 L316.405,84.288 L316.395,84.378 L316.385,84.468 L316.377,84.558 L316.37,84.648 L316.365,84.739 L316.36,84.83 L316.357,84.921 L316.355,85.013 L316.355,85.105 L316.355,85.197 L316.357,85.288 L316.36,85.38 L316.365,85.471 L316.37,85.562 L316.377,85.652 L316.385,85.742 L316.395,85.832 L316.405,85.921 L316.417,86.011 L316.43,86.099 L316.444,86.188 L316.459,86.276 L316.475,86.364 L316.493,86.451 L316.512,86.538 L316.531,86.625 L316.552,86.711 L316.575,86.797 L316.598,86.882 L316.622,86.967 L316.648,87.052 L316.674,87.136 L316.702,87.22 L316.731,87.303 L316.76,87.386 L316.791,87.468 L316.823,87.55 L316.856,87.632 L316.89,87.713 L316.925,87.793 L316.961,87.873 L316.999,87.953 L317.037,88.032 L317.076,88.11 L317.116,88.188 L317.157,88.266 L317.199,88.343 L317.242,88.419 L317.287,88.495 L317.332,88.571 L317.378,88.645 L317.425,88.719 L317.472,88.793 L317.521,88.866 L317.571,88.939 L317.622,89.011 L317.673,89.082 L317.726,89.152 L317.779,89.223 L317.833,89.292 L317.888,89.361 L317.944,89.429 L318.001,89.496 L318.059,89.563 L318.118,89.63 L318.177,89.695 L318.237,89.76 L318.298,89.824 L318.36,89.888 L318.423,89.951 L318.486,90.013 L318.551,90.074 L318.616,90.135 L318.682,90.195 L318.748,90.254 L318.816,90.313 L318.884,90.371 L318.953,90.428 L319.022,90.484 L319.093,90.54 L319.164,90.594 L319.236,90.648 L319.308,90.702 L319.381,90.754 L319.455,90.806 L319.53,90.856 L319.605,90.906 L319.681,90.956 L319.758,91.004 L319.835,91.052 L319.913,91.098 L319.992,91.144 L320.071,91.189 L320.151,91.233 L320.231,91.277 L320.312,91.319 L320.394,91.361 L320.476,91.401 L320.559,91.441 L320.643,91.48 L320.727,91.518 L320.811,91.555 L320.897,91.591 L320.982,91.626 L321.069,91.66 L321.155,91.694 L321.243,91.726 L321.331,91.757 L321.419,91.788 L321.508,91.817 L321.597,91.846 L321.687,91.873 L321.777,91.9 L321.868,91.925 L321.959,91.95 L322.051,91.973 L322.143,91.996 L322.236,92.017 L322.329,92.038 L322.423,92.057 L322.517,92.075 L322.611,92.092 L322.706,92.109 L322.801,92.124 L322.896,92.138 L322.992,92.151 L323.089,92.163 L323.185,92.173 L323.282,92.183 L323.38,92.192 L323.478,92.199 L323.576,92.205 L323.674,92.211 L323.773,92.215 L323.872,92.218 L323.971,92.219 L324.071,92.22 L324.171,92.219 L324.27,92.218 L324.369,92.215 L324.468,92.211 L324.566,92.205 L324.664,92.199 L324.762,92.192 L324.859,92.183 L324.956,92.173 L325.053,92.163 L325.149,92.151 L325.245,92.138 L325.341,92.124 L325.436,92.109 L325.531,92.092 L325.625,92.075 L325.719,92.057 L325.813,92.038 L325.906,92.017 L325.998,91.996 L326.091,91.973 L326.182,91.95 L326.274,91.925 L326.364,91.9 L326.455,91.873 L326.545,91.846 L326.634,91.817 L326.723,91.788 L326.811,91.757 L326.899,91.726 L326.986,91.694 L327.073,91.66 L327.159,91.626 L327.245,91.591 L327.33,91.555 L327.415,91.518 L327.499,91.48 L327.582,91.441 L327.665,91.401 L327.748,91.361 L327.829,91.319 L327.91,91.277 L327.991,91.233 L328.071,91.189 L328.15,91.144 L328.229,91.098 L328.307,91.052 L328.384,91.004 L328.461,90.956 L328.537,90.906 L328.612,90.856 L328.686,90.806 L328.76,90.754 L328.834,90.702 L328.906,90.648 L328.978,90.594 L329.049,90.54 L329.119,90.484 L329.189,90.428 L329.258,90.371 L329.326,90.313 L329.394,90.254 L329.46,90.195 L329.526,90.135 L329.591,90.074 L329.655,90.013 L329.719,89.951 L329.782,89.888 L329.843,89.824 L329.905,89.76 L329.965,89.695 L330.024,89.63 L330.083,89.563 L330.141,89.496 L330.197,89.429 L330.253,89.361 L330.308,89.292 L330.363,89.223 L330.416,89.152 L330.469,89.082 L330.52,89.011 L330.571,88.939 L330.621,88.866 L330.669,88.793 L330.717,88.719 L330.764,88.645 L330.81,88.571 L330.855,88.495 L330.899,88.419 L330.942,88.343 L330.985,88.266 L331.026,88.188 L331.066,88.11 L331.105,88.032 L331.143,87.953 L331.18,87.873 L331.216,87.793 L331.252,87.713 L331.286,87.632 L331.319,87.55 L331.351,87.468 L331.381,87.386 L331.411,87.303 L331.44,87.22 L331.468,87.136 L331.494,87.052 L331.52,86.967 L331.544,86.882 L331.567,86.797 L331.589,86.711 L331.61,86.625 L331.63,86.538 L331.649,86.451 L331.667,86.364 L331.683,86.276 L331.698,86.188 L331.712,86.099 L331.725,86.011 L331.737,85.921 L331.747,85.832 L331.757,85.742 L331.765,85.652 L331.771,85.562 L331.777,85.471 L331.781,85.38 L331.785,85.288 L331.787,85.197 L331.787,85.105 L331.787,85.013 L331.785,84.921 L331.781,84.83 L331.777,84.739 L331.771,84.648 L331.765,84.558 L331.757,84.468 L331.747,84.378 L331.737,84.288 L331.725,84.199 L331.712,84.111 L331.698,84.022 L331.683,83.934 L331.667,83.846 L331.649,83.759 L331.63,83.672 L331.61,83.585 L331.589,83.499 L331.567,83.413 L331.544,83.328 L331.52,83.243 L331.494,83.158 L331.468,83.074 L331.44,82.99 L331.411,82.907 L331.381,82.824 L331.351,82.742 L331.319,82.66 L331.286,82.578 L331.252,82.497 L331.216,82.417 L331.18,82.337 L331.143,82.257 L331.105,82.178 L331.066,82.1 L331.026,82.022 L330.985,81.944 L330.942,81.867 L330.899,81.791 L330.855,81.715 L330.81,81.639 L330.764,81.565 L330.717,81.49 L330.669,81.417 L330.621,81.344 L330.571,81.271 L330.52,81.199 L330.469,81.128 L330.416,81.057 L330.363,80.987 L330.308,80.918 L330.253,80.849 L330.197,80.781 L330.141,80.713 L330.083,80.647 L330.024,80.58 L329.965,80.515 L329.905,80.45 L329.843,80.386 L329.782,80.322 L329.719,80.259 L329.655,80.197 L329.591,80.136 L329.526,80.075 L329.46,80.015 L329.394,79.956 L329.326,79.897 L329.258,79.839 L329.189,79.782 L329.119,79.726 L329.049,79.67 L328.978,79.616 L328.906,79.562 L328.834,79.508 L328.76,79.456 L328.686,79.404 L328.612,79.354 L328.537,79.303 L328.461,79.254 L328.384,79.206 L328.307,79.158 L328.229,79.112 L328.15,79.066 L328.071,79.021 L327.991,78.977 L327.91,78.933 L327.829,78.891 L327.748,78.849 L327.665,78.809 L327.582,78.769 L327.499,78.73 L327.415,78.692 L327.33,78.655 L327.245,78.619 L327.159,78.584 L327.073,78.55 L326.986,78.516 L326.899,78.484 L326.811,78.453 L326.723,78.422 L326.634,78.393 L326.545,78.364 L326.455,78.337 L326.364,78.31 L326.274,78.285 L326.182,78.26 L326.091,78.237 L325.998,78.214 L325.906,78.193 L325.813,78.172 L325.719,78.153 L325.625,78.135 L325.531,78.117 L325.436,78.101 L325.341,78.086 L325.245,78.072 L325.149,78.059 L325.053,78.047 L324.956,78.037 L324.859,78.027 L324.762,78.018 L324.664,78.011 L324.566,78.005 L324.468,77.999 L324.369,77.995 L324.27,77.992 L324.171,77.991 L324.071,77.99 L323.971,77.991 Z" id="Shape" fill="#FFFFFF"></path>
            <polygon id="Shape" fill="#9B5E66" points="324.957 7.665 325.768 8.207 326.31 9.018 326.5 9.975 326.5 267.965 326.31 268.922 325.768 269.733 324.957 270.275 324 270.465 323.043 270.275 322.232 269.733 321.69 268.922 321.5 267.965 321.5 9.975 321.69 9.018 322.232 8.207 323.043 7.665 324 7.475"></polygon>
        </g>
    </g>
</svg>