<?xml version="1.0" encoding="UTF-8" standalone="no"?><!DOCTYPE svg PUBLIC "-//W3C//DTD SVG 1.1//EN" "http://www.w3.org/Graphics/SVG/1.1/DTD/svg11.dtd"><svg width="100%" height="100%" viewBox="0 0 642 642" version="1.1" xmlns="http://www.w3.org/2000/svg" xmlns:xlink="http://www.w3.org/1999/xlink" xml:space="preserve" xmlns:serif="http://www.serif.com/" style="fill-rule:evenodd;clip-rule:evenodd;stroke-linecap:round;stroke-linejoin:round;stroke-miterlimit:1.5;"><g id="tour-control"><ellipse cx="321" cy="321.406" rx="317.889" ry="320.594" style="fill:#5c393e;fill-opacity:0.380392;"/><g id="Phone"><g><path d="M437.716,108.481c0,-14.185 -11.516,-25.702 -25.701,-25.702l-205.613,0c-14.185,0 -25.702,11.517 -25.702,25.702l0,424.753c0,14.185 11.517,25.702 25.702,25.702l205.613,0c14.185,0 25.701,-11.517 25.701,-25.702l0,-424.753Z" style="fill:#412b2e;fill-opacity:0.517647;"/><path d="M412.032,75.779l0.182,0.001l0.023,0l0.188,0.002l0.022,0l0.187,0.003l0.023,0.001l0.187,0.004l0.022,0l0.188,0.006l0.022,0l0.187,0.007l0.022,0.001l0.187,0.007l0.022,0.001l0.186,0.009l0.023,0.001l0.186,0.01l0.022,0.002l0.186,0.011l0.022,0.001l0.185,0.013l0.023,0.001l0.185,0.014l0.022,0.001l0.185,0.015l0.022,0.002l0.185,0.016l0.022,0.002l0.184,0.017l0.022,0.002l0.184,0.018l0.022,0.002l0.184,0.019l0.022,0.003l0.184,0.02l0.022,0.003l0.183,0.021l0.022,0.003l0.182,0.023l0.022,0.002l0.183,0.024l0.021,0.003l0.182,0.025l0.022,0.003l0.182,0.026l0.022,0.003l0.181,0.028l0.022,0.003l0.181,0.028l0.022,0.004l0.181,0.029l0.021,0.004l0.181,0.03l0.021,0.004l0.18,0.031l0.022,0.004l0.18,0.033l0.021,0.004l0.179,0.034l0.022,0.004l0.179,0.035l0.022,0.004l0.178,0.036l0.021,0.005l0.178,0.037l0.022,0.004l0.178,0.038l0.021,0.005l0.177,0.039l0.022,0.005l0.177,0.04l0.021,0.005l0.176,0.041l0.022,0.006l0.176,0.042l0.021,0.005l0.176,0.044l0.021,0.005l0.175,0.045l0.022,0.005l0.174,0.046l0.021,0.005l0.175,0.047l0.021,0.006l0.174,0.047l0.021,0.006l0.173,0.049l0.021,0.006l0.173,0.05l0.021,0.006l0.173,0.05l0.021,0.007l0.172,0.052l0.021,0.006l0.172,0.053l0.02,0.006l0.172,0.054l0.02,0.007l0.171,0.055l0.021,0.006l0.17,0.056l0.021,0.007l0.17,0.057l0.02,0.007l0.17,0.058l0.02,0.007l0.169,0.059l0.02,0.007l0.169,0.06l0.021,0.008l0.168,0.061l0.02,0.007l0.167,0.062l0.021,0.008l0.167,0.063l0.019,0.007l0.167,0.064l0.02,0.008l0.167,0.065l0.02,0.008l0.165,0.066l0.02,0.008l0.165,0.067l0.02,0.008l0.165,0.068l0.02,0.008l0.164,0.069l0.02,0.008l0.163,0.07l0.019,0.008l0.164,0.071l0.019,0.009l0.163,0.072l0.02,0.008l0.162,0.073l0.019,0.009l0.162,0.074l0.019,0.009l0.161,0.074l0.019,0.009l0.161,0.076l0.019,0.009l0.16,0.076l0.019,0.01l0.16,0.077l0.019,0.009l0.158,0.079l0.02,0.01l0.158,0.079l0.019,0.009l0.157,0.08l0.019,0.01l0.158,0.081l0.019,0.01l0.156,0.082l0.019,0.01l0.156,0.083l0.019,0.01l0.155,0.084l0.018,0.01l0.155,0.085l0.019,0.01l0.155,0.086l0.018,0.01l0.153,0.087l0.019,0.01l0.153,0.088l0.019,0.01l0.152,0.089l0.018,0.01l0.152,0.089l0.019,0.011l0.151,0.091l0.018,0.01l0.151,0.092l0.018,0.01l0.15,0.092l0.018,0.011l0.15,0.093l0.018,0.011l0.149,0.094l0.017,0.011l0.149,0.095l0.017,0.011l0.148,0.096l0.018,0.011l0.147,0.096l0.018,0.012l0.146,0.097l0.018,0.012l0.145,0.098l0.018,0.011l0.145,0.099l0.017,0.012l0.145,0.1l0.018,0.012l0.144,0.1l0.017,0.013l0.143,0.101l0.017,0.012l0.143,0.102l0.017,0.012l0.142,0.103l0.017,0.013l0.142,0.104l0.016,0.012l0.141,0.105l0.017,0.012l0.14,0.105l0.017,0.013l0.139,0.107l0.017,0.012l0.139,0.107l0.016,0.013l0.138,0.108l0.017,0.013l0.137,0.109l0.017,0.013l0.136,0.109l0.017,0.014l0.136,0.11l0.016,0.013l0.135,0.111l0.016,0.013l0.135,0.112l0.017,0.014l0.134,0.113l0.015,0.013l0.134,0.113l0.016,0.014l0.132,0.114l0.016,0.014l0.132,0.115l0.016,0.014l0.132,0.116l0.015,0.013l0.13,0.117l0.016,0.014l0.13,0.118l0.016,0.014l0.129,0.118l0.015,0.014l0.128,0.119l0.015,0.014l0.128,0.119l0.016,0.015l0.127,0.121l0.015,0.014l0.126,0.121l0.015,0.014l0.126,0.122l0.014,0.015l0.125,0.122l0.016,0.016l0.124,0.123l0.014,0.015l0.124,0.124l0.014,0.014l0.123,0.125l0.014,0.015l0.122,0.125l0.015,0.016l0.121,0.126l0.015,0.015l0.12,0.127l0.014,0.016l0.12,0.127l0.014,0.015l0.119,0.129l0.014,0.015l0.118,0.13l0.014,0.015l0.118,0.13l0.014,0.016l0.116,0.13l0.014,0.015l0.116,0.132l0.013,0.015l0.115,0.132l0.014,0.016l0.115,0.133l0.013,0.016l0.114,0.134l0.014,0.016l0.112,0.134l0.013,0.015l0.112,0.135l0.013,0.016l0.112,0.136l0.013,0.016l0.11,0.136l0.013,0.016l0.11,0.137l0.013,0.017l0.109,0.137l0.013,0.017l0.107,0.138l0.013,0.016l0.107,0.139l0.013,0.016l0.107,0.14l0.012,0.017l0.106,0.14l0.013,0.017l0.104,0.141l0.012,0.016l0.104,0.142l0.012,0.017l0.104,0.142l0.012,0.017l0.102,0.143l0.012,0.016l0.101,0.144l0.013,0.017l0.1,0.144l0.012,0.017l0.1,0.145l0.012,0.018l0.098,0.145l0.012,0.017l0.098,0.146l0.012,0.018l0.097,0.146l0.012,0.018l0.096,0.147l0.011,0.018l0.096,0.148l0.011,0.017l0.095,0.149l0.011,0.017l0.094,0.149l0.011,0.018l0.092,0.15l0.011,0.017l0.092,0.151l0.011,0.018l0.091,0.151l0.011,0.018l0.09,0.151l0.011,0.018l0.09,0.152l0.01,0.019l0.089,0.152l0.01,0.019l0.088,0.153l0.01,0.018l0.086,0.154l0.011,0.019l0.086,0.154l0.01,0.019l0.085,0.154l0.01,0.019l0.084,0.155l0.01,0.019l0.083,0.156l0.01,0.019l0.082,0.156l0.009,0.019l0.082,0.157l0.009,0.019l0.081,0.158l0.009,0.019l0.08,0.158l0.009,0.02l0.078,0.158l0.009,0.019l0.078,0.159l0.009,0.02l0.077,0.16l0.009,0.019l0.076,0.161l0.009,0.019l0.074,0.161l0.009,0.019l0.074,0.162l0.009,0.019l0.072,0.162l0.009,0.02l0.072,0.163l0.008,0.019l0.071,0.163l0.009,0.019l0.069,0.164l0.009,0.02l0.069,0.164l0.008,0.021l0.068,0.164l0.008,0.019l0.067,0.165l0.008,0.02l0.066,0.166l0.008,0.02l0.065,0.167l0.008,0.02l0.064,0.166l0.007,0.02l0.063,0.167l0.008,0.021l0.062,0.168l0.007,0.019l0.061,0.168l0.007,0.021l0.06,0.168l0.008,0.021l0.059,0.169l0.007,0.02l0.058,0.169l0.007,0.021l0.057,0.17l0.007,0.021l0.056,0.171l0.006,0.02l0.055,0.171l0.007,0.02l0.053,0.171l0.007,0.021l0.053,0.172l0.006,0.02l0.052,0.173l0.006,0.021l0.051,0.173l0.006,0.021l0.05,0.172l0.006,0.021l0.049,0.174l0.005,0.021l0.048,0.174l0.006,0.022l0.047,0.174l0.005,0.021l0.046,0.175l0.005,0.021l0.045,0.175l0.005,0.02l0.044,0.176l0.005,0.022l0.042,0.177l0.005,0.021l0.042,0.176l0.005,0.021l0.04,0.177l0.005,0.021l0.039,0.177l0.005,0.022l0.038,0.178l0.004,0.021l0.037,0.178l0.005,0.022l0.036,0.178l0.004,0.022l0.035,0.179l0.004,0.022l0.034,0.178l0.004,0.022l0.032,0.179l0.004,0.022l0.032,0.18l0.004,0.022l0.03,0.181l0.004,0.021l0.029,0.181l0.004,0.021l0.028,0.181l0.003,0.022l0.028,0.182l0.003,0.022l0.026,0.181l0.003,0.022l0.025,0.182l0.003,0.023l0.023,0.182l0.003,0.022l0.023,0.182l0.002,0.022l0.022,0.183l0.003,0.022l0.02,0.184l0.002,0.023l0.02,0.183l0.002,0.021l0.018,0.184l0.002,0.022l0.017,0.185l0.002,0.022l0.016,0.185l0.002,0.023l0.014,0.184l0.002,0.022l0.014,0.185l0.001,0.022l0.013,0.186l0.001,0.023l0.011,0.185l0.001,0.022l0.01,0.186l0.002,0.022l0.008,0.186l0.001,0.023l0.008,0.187l0.001,0.023l0.007,0.186l0,0.022l0.006,0.187l0,0.023l0.004,0.187l0.001,0.022l0.003,0.188l0,0.022l0.002,0.188l0,0.023l0,0.183l0,0.011l0,424.764l0,0.011l0,0.183l0,0.022l-0.002,0.188l0,0.022l-0.003,0.188l-0.001,0.022l-0.004,0.188l0,0.022l-0.006,0.188l0,0.021l-0.007,0.187l-0.001,0.022l-0.008,0.187l-0.001,0.023l-0.008,0.187l-0.002,0.021l-0.01,0.186l-0.001,0.022l-0.011,0.186l-0.001,0.022l-0.013,0.186l-0.001,0.023l-0.014,0.185l-0.002,0.021l-0.014,0.185l-0.002,0.022l-0.016,0.185l-0.002,0.022l-0.017,0.185l-0.002,0.022l-0.018,0.184l-0.002,0.021l-0.02,0.184l-0.002,0.022l-0.02,0.184l-0.003,0.023l-0.022,0.183l-0.002,0.021l-0.023,0.183l-0.003,0.021l-0.023,0.183l-0.003,0.022l-0.025,0.182l-0.003,0.022l-0.026,0.182l-0.004,0.021l-0.027,0.182l-0.003,0.022l-0.028,0.181l-0.004,0.021l-0.029,0.181l-0.004,0.022l-0.03,0.18l-0.004,0.022l-0.032,0.18l-0.004,0.022l-0.032,0.18l-0.004,0.021l-0.034,0.179l-0.004,0.021l-0.035,0.179l-0.004,0.022l-0.036,0.179l-0.005,0.021l-0.037,0.178l-0.004,0.021l-0.038,0.178l-0.005,0.022l-0.04,0.178l-0.004,0.02l-0.04,0.177l-0.005,0.021l-0.042,0.177l-0.005,0.021l-0.042,0.176l-0.005,0.022l-0.044,0.176l-0.005,0.021l-0.045,0.175l-0.005,0.021l-0.046,0.174l-0.005,0.021l-0.047,0.175l-0.006,0.022l-0.048,0.174l-0.005,0.02l-0.049,0.174l-0.006,0.021l-0.05,0.173l-0.006,0.021l-0.051,0.172l-0.006,0.021l-0.052,0.173l-0.006,0.02l-0.053,0.172l-0.007,0.021l-0.054,0.172l-0.006,0.02l-0.055,0.17l-0.006,0.021l-0.056,0.17l-0.007,0.021l-0.057,0.17l-0.007,0.021l-0.058,0.169l-0.007,0.021l-0.059,0.169l-0.007,0.02l-0.06,0.168l-0.008,0.021l-0.061,0.168l-0.007,0.02l-0.062,0.168l-0.008,0.021l-0.063,0.167l-0.007,0.019l-0.064,0.166l-0.008,0.02l-0.065,0.167l-0.008,0.021l-0.066,0.166l-0.008,0.019l-0.067,0.165l-0.008,0.018l-0.067,0.165l-0.009,0.021l-0.069,0.165l-0.008,0.019l-0.07,0.164l-0.009,0.02l-0.071,0.163l-0.008,0.019l-0.072,0.162l-0.009,0.02l-0.072,0.162l-0.009,0.019l-0.074,0.162l-0.009,0.02l-0.075,0.161l-0.009,0.019l-0.075,0.16l-0.009,0.019l-0.077,0.16l-0.009,0.02l-0.078,0.16l-0.009,0.018l-0.078,0.159l-0.009,0.018l-0.079,0.159l-0.01,0.019l-0.081,0.158l-0.01,0.02l-0.081,0.157l-0.009,0.018l-0.082,0.156l-0.011,0.02l-0.083,0.156l-0.009,0.018l-0.084,0.155l-0.01,0.019l-0.085,0.155l-0.01,0.018l-0.086,0.155l-0.01,0.019l-0.087,0.153l-0.01,0.018l-0.087,0.153l-0.011,0.019l-0.089,0.153l-0.01,0.018l-0.09,0.152l-0.011,0.019l-0.09,0.151l-0.01,0.018l-0.092,0.15l-0.011,0.019l-0.092,0.15l-0.011,0.018l-0.092,0.149l-0.011,0.018l-0.094,0.149l-0.011,0.018l-0.095,0.148l-0.012,0.018l-0.095,0.148l-0.011,0.017l-0.096,0.147l-0.012,0.018l-0.097,0.147l-0.012,0.017l-0.098,0.146l-0.011,0.017l-0.099,0.146l-0.013,0.018l-0.1,0.145l-0.011,0.016l-0.1,0.144l-0.012,0.017l-0.102,0.144l-0.012,0.017l-0.102,0.143l-0.013,0.017l-0.103,0.142l-0.012,0.017l-0.104,0.141l-0.012,0.016l-0.104,0.141l-0.013,0.017l-0.106,0.14l-0.012,0.017l-0.107,0.14l-0.013,0.017l-0.107,0.139l-0.012,0.016l-0.108,0.137l-0.013,0.017l-0.109,0.138l-0.014,0.017l-0.109,0.136l-0.012,0.016l-0.111,0.136l-0.013,0.016l-0.112,0.136l-0.013,0.017l-0.112,0.134l-0.013,0.016l-0.113,0.134l-0.013,0.015l-0.113,0.134l-0.015,0.016l-0.114,0.134l-0.014,0.016l-0.115,0.131l-0.013,0.015l-0.115,0.131l-0.015,0.016l-0.117,0.131l-0.013,0.015l-0.117,0.13l-0.014,0.015l-0.119,0.13l-0.015,0.016l-0.118,0.128l-0.013,0.014l-0.12,0.128l-0.016,0.017l-0.12,0.127l-0.014,0.014l-0.121,0.126l-0.015,0.016l-0.122,0.126l-0.015,0.015l-0.122,0.124l-0.014,0.015l-0.123,0.124l-0.015,0.014l-0.125,0.124l-0.015,0.015l-0.125,0.123l-0.014,0.014l-0.126,0.122l-0.015,0.014l-0.126,0.122l-0.015,0.014l-0.127,0.12l-0.016,0.015l-0.128,0.12l-0.015,0.014l-0.128,0.118l-0.014,0.014l-0.129,0.118l-0.017,0.015l-0.13,0.117l-0.016,0.014l-0.13,0.117l-0.015,0.013l-0.132,0.116l-0.015,0.014l-0.133,0.115l-0.016,0.014l-0.133,0.115l-0.016,0.013l-0.133,0.113l-0.015,0.013l-0.134,0.113l-0.017,0.014l-0.135,0.112l-0.016,0.013l-0.135,0.111l-0.016,0.014l-0.136,0.11l-0.016,0.013l-0.137,0.109l-0.017,0.013l-0.137,0.109l-0.016,0.012l-0.138,0.108l-0.017,0.014l-0.139,0.107l-0.017,0.013l-0.139,0.106l-0.017,0.013l-0.141,0.106l-0.016,0.012l-0.141,0.105l-0.017,0.012l-0.141,0.104l-0.016,0.012l-0.143,0.103l-0.017,0.013l-0.143,0.102l-0.017,0.012l-0.143,0.101l-0.017,0.012l-0.144,0.1l-0.018,0.012l-0.144,0.1l-0.017,0.012l-0.146,0.099l-0.018,0.012l-0.146,0.098l-0.017,0.011l-0.146,0.097l-0.017,0.011l-0.147,0.097l-0.019,0.012l-0.148,0.096l-0.018,0.011l-0.149,0.095l-0.017,0.011l-0.148,0.093l-0.017,0.011l-0.15,0.092l-0.018,0.012l-0.151,0.092l-0.018,0.011l-0.151,0.091l-0.019,0.011l-0.151,0.091l-0.019,0.01l-0.151,0.089l-0.017,0.01l-0.152,0.089l-0.019,0.01l-0.153,0.088l-0.019,0.01l-0.154,0.087l-0.019,0.011l-0.155,0.086l-0.017,0.009l-0.155,0.085l-0.02,0.011l-0.155,0.083l-0.017,0.01l-0.156,0.083l-0.02,0.01l-0.156,0.082l-0.019,0.01l-0.158,0.081l-0.019,0.01l-0.158,0.081l-0.018,0.009l-0.158,0.079l-0.019,0.009l-0.159,0.079l-0.02,0.009l-0.159,0.078l-0.019,0.009l-0.159,0.076l-0.02,0.01l-0.161,0.075l-0.02,0.009l-0.16,0.075l-0.019,0.009l-0.162,0.073l-0.019,0.009l-0.162,0.073l-0.02,0.009l-0.163,0.071l-0.02,0.009l-0.163,0.071l-0.018,0.008l-0.164,0.07l-0.02,0.008l-0.165,0.07l-0.02,0.008l-0.164,0.068l-0.019,0.007l-0.165,0.067l-0.021,0.008l-0.166,0.067l-0.02,0.007l-0.166,0.065l-0.02,0.008l-0.166,0.064l-0.02,0.007l-0.167,0.063l-0.021,0.008l-0.168,0.062l-0.019,0.008l-0.169,0.061l-0.021,0.007l-0.168,0.06l-0.02,0.007l-0.169,0.059l-0.019,0.007l-0.17,0.058l-0.021,0.007l-0.17,0.057l-0.021,0.007l-0.171,0.056l-0.021,0.007l-0.171,0.055l-0.02,0.006l-0.171,0.054l-0.021,0.007l-0.171,0.052l-0.019,0.006l-0.173,0.052l-0.022,0.007l-0.174,0.051l-0.021,0.006l-0.172,0.05l-0.02,0.005l-0.173,0.049l-0.023,0.006l-0.174,0.048l-0.021,0.006l-0.174,0.046l-0.021,0.006l-0.175,0.045l-0.021,0.006l-0.175,0.044l-0.021,0.005l-0.175,0.044l-0.023,0.005l-0.176,0.043l-0.021,0.005l-0.176,0.041l-0.021,0.005l-0.177,0.04l-0.022,0.005l-0.177,0.039l-0.021,0.005l-0.177,0.038l-0.022,0.005l-0.179,0.037l-0.022,0.004l-0.178,0.036l-0.021,0.004l-0.179,0.035l-0.021,0.005l-0.18,0.033l-0.022,0.004l-0.179,0.033l-0.021,0.004l-0.18,0.031l-0.023,0.004l-0.181,0.031l-0.02,0.003l-0.18,0.03l-0.022,0.003l-0.182,0.028l-0.023,0.004l-0.181,0.027l-0.02,0.003l-0.182,0.026l-0.023,0.003l-0.183,0.025l-0.021,0.003l-0.182,0.024l-0.022,0.003l-0.182,0.022l-0.022,0.003l-0.183,0.022l-0.023,0.002l-0.184,0.021l-0.021,0.002l-0.183,0.019l-0.022,0.002l-0.184,0.018l-0.023,0.003l-0.184,0.017l-0.021,0.001l-0.186,0.016l-0.023,0.002l-0.185,0.015l-0.02,0.002l-0.185,0.013l-0.024,0.002l-0.186,0.012l-0.021,0.001l-0.186,0.012l-0.022,0.001l-0.186,0.01l-0.023,0.001l-0.186,0.009l-0.023,0.001l-0.186,0.008l-0.023,0l-0.186,0.007l-0.021,0.001l-0.187,0.005l-0.024,0.001l-0.188,0.004l-0.022,0l-0.187,0.003l-0.022,0l-0.189,0.002l-0.023,0l-0.183,0.001l-0.01,0l-205.623,0l-0.011,0l-0.183,-0.001l-0.023,0l-0.188,-0.002l-0.022,0l-0.188,-0.003l-0.022,0l-0.188,-0.004l-0.023,-0.001l-0.187,-0.005l-0.021,-0.001l-0.187,-0.007l-0.022,0l-0.187,-0.008l-0.022,-0.001l-0.187,-0.009l-0.022,-0.001l-0.186,-0.01l-0.023,-0.001l-0.185,-0.012l-0.021,-0.001l-0.186,-0.012l-0.024,-0.002l-0.185,-0.013l-0.02,-0.002l-0.185,-0.015l-0.024,-0.002l-0.185,-0.016l-0.021,-0.001l-0.185,-0.017l-0.022,-0.003l-0.185,-0.018l-0.021,-0.002l-0.183,-0.019l-0.022,-0.002l-0.183,-0.021l-0.023,-0.002l-0.183,-0.022l-0.022,-0.003l-0.182,-0.022l-0.022,-0.003l-0.182,-0.024l-0.022,-0.003l-0.182,-0.025l-0.023,-0.003l-0.182,-0.026l-0.02,-0.003l-0.182,-0.027l-0.023,-0.004l-0.181,-0.028l-0.022,-0.003l-0.18,-0.03l-0.021,-0.003l-0.18,-0.031l-0.023,-0.004l-0.181,-0.031l-0.02,-0.004l-0.18,-0.033l-0.021,-0.004l-0.18,-0.033l-0.022,-0.005l-0.179,-0.035l-0.02,-0.004l-0.178,-0.036l-0.022,-0.004l-0.179,-0.037l-0.022,-0.005l-0.178,-0.038l-0.021,-0.005l-0.177,-0.039l-0.022,-0.005l-0.177,-0.04l-0.021,-0.005l-0.176,-0.041l-0.02,-0.005l-0.177,-0.043l-0.022,-0.005l-0.176,-0.044l-0.021,-0.005l-0.175,-0.044l-0.021,-0.006l-0.174,-0.045l-0.021,-0.006l-0.174,-0.046l-0.021,-0.006l-0.175,-0.048l-0.022,-0.006l-0.174,-0.049l-0.019,-0.005l-0.173,-0.05l-0.021,-0.006l-0.173,-0.051l-0.022,-0.007l-0.173,-0.052l-0.019,-0.006l-0.172,-0.052l-0.021,-0.007l-0.171,-0.054l-0.02,-0.006l-0.17,-0.055l-0.021,-0.007l-0.171,-0.056l-0.021,-0.007l-0.171,-0.057l-0.021,-0.007l-0.169,-0.058l-0.02,-0.007l-0.168,-0.059l-0.02,-0.007l-0.169,-0.06l-0.021,-0.007l-0.168,-0.061l-0.02,-0.008l-0.167,-0.062l-0.022,-0.008l-0.167,-0.063l-0.02,-0.007l-0.166,-0.064l-0.02,-0.008l-0.166,-0.065l-0.02,-0.007l-0.166,-0.066l-0.021,-0.009l-0.165,-0.067l-0.018,-0.007l-0.164,-0.068l-0.02,-0.008l-0.165,-0.069l-0.021,-0.009l-0.163,-0.07l-0.019,-0.008l-0.163,-0.071l-0.019,-0.008l-0.163,-0.072l-0.02,-0.009l-0.162,-0.073l-0.02,-0.009l-0.161,-0.073l-0.019,-0.009l-0.161,-0.075l-0.019,-0.009l-0.161,-0.076l-0.02,-0.009l-0.16,-0.076l-0.018,-0.009l-0.16,-0.078l-0.02,-0.009l-0.158,-0.079l-0.019,-0.009l-0.158,-0.079l-0.018,-0.01l-0.158,-0.08l-0.02,-0.01l-0.157,-0.081l-0.019,-0.01l-0.157,-0.082l-0.019,-0.01l-0.156,-0.083l-0.018,-0.01l-0.155,-0.083l-0.019,-0.011l-0.155,-0.085l-0.017,-0.009l-0.155,-0.086l-0.019,-0.011l-0.155,-0.087l-0.018,-0.01l-0.153,-0.088l-0.019,-0.01l-0.152,-0.089l-0.017,-0.01l-0.152,-0.089l-0.018,-0.011l-0.152,-0.09l-0.018,-0.011l-0.151,-0.091l-0.019,-0.011l-0.15,-0.092l-0.018,-0.012l-0.15,-0.092l-0.017,-0.011l-0.149,-0.093l-0.017,-0.011l-0.148,-0.095l-0.018,-0.012l-0.149,-0.095l-0.018,-0.012l-0.147,-0.097l-0.017,-0.011l-0.146,-0.097l-0.017,-0.011l-0.147,-0.098l-0.018,-0.012l-0.145,-0.099l-0.017,-0.012l-0.145,-0.099l-0.017,-0.012l-0.144,-0.101l-0.017,-0.012l-0.143,-0.101l-0.017,-0.012l-0.143,-0.103l-0.018,-0.012l-0.142,-0.104l-0.016,-0.011l-0.141,-0.104l-0.017,-0.012l-0.141,-0.105l-0.017,-0.013l-0.14,-0.105l-0.017,-0.013l-0.14,-0.106l-0.016,-0.013l-0.139,-0.108l-0.017,-0.013l-0.138,-0.107l-0.016,-0.013l-0.138,-0.109l-0.016,-0.013l-0.137,-0.109l-0.016,-0.013l-0.136,-0.11l-0.017,-0.014l-0.135,-0.111l-0.016,-0.013l-0.134,-0.112l-0.017,-0.014l-0.134,-0.112l-0.016,-0.014l-0.133,-0.113l-0.016,-0.013l-0.133,-0.115l-0.016,-0.014l-0.132,-0.115l-0.016,-0.014l-0.131,-0.116l-0.015,-0.013l-0.131,-0.117l-0.015,-0.014l-0.13,-0.117l-0.017,-0.015l-0.129,-0.118l-0.014,-0.014l-0.128,-0.118l-0.016,-0.014l-0.128,-0.12l-0.015,-0.015l-0.127,-0.12l-0.015,-0.014l-0.127,-0.122l-0.015,-0.015l-0.125,-0.121l-0.015,-0.014l-0.124,-0.123l-0.015,-0.015l-0.125,-0.123l-0.015,-0.015l-0.123,-0.124l-0.015,-0.015l-0.122,-0.125l-0.015,-0.015l-0.122,-0.126l-0.015,-0.015l-0.121,-0.126l-0.013,-0.014l-0.121,-0.127l-0.015,-0.017l-0.12,-0.127l-0.013,-0.015l-0.119,-0.128l-0.014,-0.016l-0.119,-0.129l-0.014,-0.016l-0.117,-0.13l-0.014,-0.015l-0.116,-0.13l-0.015,-0.017l-0.116,-0.131l-0.013,-0.015l-0.115,-0.132l-0.013,-0.015l-0.115,-0.134l-0.014,-0.016l-0.114,-0.134l-0.013,-0.015l-0.112,-0.134l-0.013,-0.016l-0.112,-0.135l-0.014,-0.016l-0.111,-0.136l-0.014,-0.016l-0.11,-0.136l-0.012,-0.016l-0.11,-0.136l-0.013,-0.017l-0.109,-0.138l-0.013,-0.017l-0.108,-0.138l-0.013,-0.016l-0.107,-0.139l-0.013,-0.016l-0.106,-0.14l-0.012,-0.016l-0.106,-0.14l-0.013,-0.018l-0.105,-0.141l-0.012,-0.016l-0.104,-0.142l-0.012,-0.016l-0.103,-0.142l-0.012,-0.017l-0.102,-0.143l-0.013,-0.018l-0.101,-0.143l-0.012,-0.017l-0.1,-0.144l-0.012,-0.017l-0.1,-0.144l-0.012,-0.018l-0.099,-0.146l-0.012,-0.017l-0.098,-0.146l-0.011,-0.018l-0.098,-0.146l-0.011,-0.018l-0.096,-0.147l-0.011,-0.017l-0.096,-0.147l-0.011,-0.018l-0.095,-0.149l-0.011,-0.018l-0.094,-0.149l-0.011,-0.018l-0.093,-0.15l-0.011,-0.017l-0.092,-0.15l-0.011,-0.018l-0.091,-0.151l-0.011,-0.018l-0.09,-0.152l-0.011,-0.018l-0.089,-0.152l-0.011,-0.018l-0.088,-0.153l-0.011,-0.019l-0.087,-0.153l-0.011,-0.018l-0.086,-0.154l-0.01,-0.018l-0.086,-0.154l-0.01,-0.019l-0.085,-0.155l-0.01,-0.018l-0.084,-0.156l-0.01,-0.018l-0.083,-0.156l-0.01,-0.02l-0.082,-0.156l-0.01,-0.018l-0.081,-0.157l-0.01,-0.02l-0.08,-0.159l-0.01,-0.018l-0.079,-0.158l-0.009,-0.019l-0.079,-0.159l-0.009,-0.019l-0.077,-0.159l-0.01,-0.019l-0.076,-0.16l-0.009,-0.019l-0.076,-0.161l-0.009,-0.02l-0.075,-0.161l-0.009,-0.019l-0.073,-0.161l-0.009,-0.02l-0.073,-0.162l-0.009,-0.02l-0.071,-0.162l-0.009,-0.019l-0.071,-0.163l-0.008,-0.021l-0.07,-0.163l-0.008,-0.019l-0.069,-0.164l-0.009,-0.021l-0.068,-0.165l-0.007,-0.019l-0.067,-0.165l-0.008,-0.02l-0.066,-0.166l-0.008,-0.02l-0.065,-0.166l-0.008,-0.02l-0.064,-0.167l-0.008,-0.02l-0.063,-0.167l-0.007,-0.02l-0.062,-0.168l-0.007,-0.02l-0.061,-0.168l-0.008,-0.021l-0.06,-0.168l-0.007,-0.02l-0.059,-0.169l-0.007,-0.021l-0.058,-0.169l-0.007,-0.021l-0.057,-0.17l-0.007,-0.02l-0.056,-0.171l-0.006,-0.02l-0.055,-0.171l-0.007,-0.021l-0.054,-0.171l-0.006,-0.021l-0.053,-0.172l-0.007,-0.021l-0.052,-0.172l-0.006,-0.02l-0.05,-0.173l-0.007,-0.021l-0.049,-0.173l-0.006,-0.021l-0.049,-0.174l-0.006,-0.021l-0.048,-0.174l-0.005,-0.021l-0.047,-0.174l-0.006,-0.022l-0.045,-0.174l-0.006,-0.021l-0.044,-0.175l-0.005,-0.022l-0.044,-0.175l-0.005,-0.022l-0.043,-0.176l-0.005,-0.021l-0.041,-0.177l-0.005,-0.021l-0.04,-0.177l-0.005,-0.021l-0.039,-0.177l-0.005,-0.022l-0.038,-0.178l-0.005,-0.021l-0.037,-0.178l-0.004,-0.022l-0.036,-0.178l-0.004,-0.022l-0.035,-0.179l-0.004,-0.021l-0.034,-0.179l-0.004,-0.022l-0.033,-0.179l-0.004,-0.022l-0.031,-0.18l-0.004,-0.021l-0.031,-0.181l-0.003,-0.022l-0.03,-0.181l-0.003,-0.021l-0.028,-0.181l-0.004,-0.022l-0.027,-0.181l-0.003,-0.022l-0.026,-0.182l-0.003,-0.022l-0.025,-0.182l-0.003,-0.022l-0.024,-0.183l-0.003,-0.021l-0.022,-0.183l-0.003,-0.022l-0.021,-0.183l-0.003,-0.022l-0.02,-0.183l-0.003,-0.022l-0.019,-0.184l-0.002,-0.022l-0.018,-0.185l-0.003,-0.021l-0.017,-0.185l-0.001,-0.022l-0.016,-0.185l-0.002,-0.022l-0.015,-0.185l-0.001,-0.022l-0.014,-0.185l-0.002,-0.022l-0.012,-0.186l-0.001,-0.022l-0.012,-0.186l-0.001,-0.022l-0.01,-0.186l-0.001,-0.022l-0.009,-0.186l-0.001,-0.023l-0.008,-0.187l0,-0.022l-0.007,-0.187l-0.001,-0.022l-0.005,-0.187l0,-0.022l-0.005,-0.188l0,-0.022l-0.003,-0.188l0,-0.022l-0.002,-0.188l0,-0.022l-0.001,-0.183l0,-0.011l0,-424.765l0,-0.011l0.001,-0.183l0,-0.021l0.002,-0.188l0,-0.023l0.003,-0.188l0,-0.022l0.005,-0.188l0,-0.022l0.005,-0.187l0.001,-0.022l0.007,-0.187l0,-0.022l0.008,-0.187l0.001,-0.022l0.009,-0.187l0.001,-0.022l0.01,-0.186l0.001,-0.022l0.012,-0.186l0.001,-0.022l0.012,-0.186l0.002,-0.022l0.014,-0.185l0.001,-0.022l0.015,-0.185l0.002,-0.022l0.016,-0.185l0.001,-0.022l0.017,-0.184l0.003,-0.022l0.018,-0.184l0.002,-0.022l0.019,-0.184l0.003,-0.022l0.02,-0.184l0.003,-0.022l0.021,-0.183l0.003,-0.022l0.022,-0.182l0.003,-0.022l0.024,-0.182l0.003,-0.023l0.025,-0.182l0.003,-0.022l0.026,-0.181l0.003,-0.022l0.027,-0.182l0.004,-0.022l0.028,-0.18l0.003,-0.022l0.03,-0.181l0.003,-0.022l0.031,-0.18l0.004,-0.021l0.031,-0.18l0.004,-0.022l0.033,-0.18l0.004,-0.022l0.034,-0.179l0.004,-0.021l0.035,-0.179l0.004,-0.021l0.036,-0.179l0.004,-0.022l0.037,-0.178l0.005,-0.021l0.038,-0.178l0.005,-0.021l0.039,-0.178l0.005,-0.021l0.04,-0.177l0.005,-0.021l0.041,-0.177l0.005,-0.021l0.043,-0.176l0.005,-0.021l0.044,-0.176l0.005,-0.021l0.044,-0.175l0.006,-0.021l0.045,-0.175l0.006,-0.021l0.047,-0.175l0.005,-0.021l0.048,-0.174l0.006,-0.021l0.049,-0.174l0.006,-0.021l0.049,-0.173l0.006,-0.02l0.051,-0.173l0.006,-0.021l0.052,-0.172l0.007,-0.021l0.053,-0.172l0.006,-0.02l0.054,-0.172l0.007,-0.021l0.055,-0.171l0.006,-0.02l0.056,-0.17l0.007,-0.021l0.057,-0.17l0.007,-0.02l0.058,-0.17l0.007,-0.02l0.059,-0.169l0.007,-0.021l0.06,-0.168l0.008,-0.021l0.061,-0.168l0.007,-0.02l0.062,-0.167l0.007,-0.02l0.063,-0.168l0.008,-0.02l0.064,-0.167l0.008,-0.02l0.065,-0.166l0.008,-0.02l0.066,-0.166l0.008,-0.02l0.067,-0.165l0.008,-0.019l0.067,-0.165l0.009,-0.02l0.069,-0.164l0.008,-0.019l0.07,-0.164l0.009,-0.02l0.07,-0.163l0.009,-0.019l0.071,-0.163l0.009,-0.02l0.073,-0.162l0.009,-0.019l0.073,-0.162l0.009,-0.019l0.075,-0.161l0.009,-0.019l0.076,-0.161l0.009,-0.019l0.076,-0.16l0.01,-0.019l0.077,-0.16l0.009,-0.019l0.079,-0.159l0.009,-0.019l0.08,-0.158l0.009,-0.019l0.08,-0.157l0.01,-0.02l0.081,-0.157l0.01,-0.019l0.082,-0.156l0.01,-0.019l0.083,-0.156l0.01,-0.019l0.084,-0.156l0.01,-0.018l0.085,-0.155l0.01,-0.018l0.086,-0.155l0.01,-0.018l0.087,-0.154l0.01,-0.018l0.087,-0.153l0.011,-0.019l0.088,-0.152l0.011,-0.019l0.089,-0.152l0.011,-0.018l0.09,-0.151l0.011,-0.018l0.091,-0.151l0.011,-0.018l0.092,-0.15l0.011,-0.018l0.093,-0.15l0.011,-0.018l0.094,-0.149l0.011,-0.017l0.095,-0.149l0.011,-0.018l0.095,-0.148l0.012,-0.017l0.096,-0.147l0.012,-0.018l0.097,-0.146l0.011,-0.018l0.098,-0.146l0.012,-0.017l0.099,-0.146l0.012,-0.017l0.1,-0.144l0.012,-0.018l0.1,-0.144l0.012,-0.017l0.102,-0.143l0.012,-0.017l0.102,-0.143l0.012,-0.017l0.103,-0.142l0.012,-0.017l0.104,-0.142l0.013,-0.016l0.104,-0.141l0.013,-0.017l0.106,-0.14l0.012,-0.017l0.106,-0.139l0.013,-0.017l0.107,-0.139l0.013,-0.016l0.108,-0.138l0.013,-0.017l0.109,-0.137l0.013,-0.017l0.109,-0.137l0.013,-0.016l0.111,-0.136l0.013,-0.016l0.111,-0.136l0.013,-0.016l0.112,-0.135l0.014,-0.016l0.112,-0.134l0.014,-0.015l0.113,-0.134l0.014,-0.016l0.114,-0.133l0.014,-0.015l0.115,-0.132l0.014,-0.016l0.116,-0.131l0.014,-0.016l0.116,-0.131l0.014,-0.015l0.117,-0.13l0.014,-0.016l0.119,-0.129l0.014,-0.015l0.119,-0.129l0.014,-0.015l0.12,-0.128l0.014,-0.015l0.12,-0.127l0.015,-0.015l0.121,-0.126l0.014,-0.015l0.122,-0.126l0.014,-0.015l0.123,-0.124l0.015,-0.016l0.124,-0.124l0.014,-0.014l0.124,-0.124l0.015,-0.015l0.125,-0.122l0.015,-0.015l0.125,-0.121l0.016,-0.015l0.126,-0.121l0.015,-0.015l0.127,-0.12l0.015,-0.014l0.128,-0.12l0.015,-0.014l0.129,-0.119l0.015,-0.014l0.129,-0.118l0.016,-0.014l0.13,-0.118l0.015,-0.014l0.131,-0.116l0.015,-0.014l0.132,-0.116l0.015,-0.014l0.133,-0.115l0.015,-0.013l0.133,-0.115l0.016,-0.013l0.133,-0.114l0.016,-0.013l0.134,-0.113l0.016,-0.014l0.135,-0.112l0.016,-0.013l0.135,-0.111l0.017,-0.013l0.136,-0.11l0.016,-0.014l0.137,-0.109l0.016,-0.013l0.138,-0.109l0.016,-0.013l0.139,-0.108l0.016,-0.012l0.139,-0.108l0.017,-0.012l0.139,-0.107l0.017,-0.012l0.14,-0.106l0.017,-0.012l0.14,-0.105l0.017,-0.012l0.141,-0.104l0.017,-0.013l0.143,-0.103l0.017,-0.012l0.142,-0.102l0.017,-0.012l0.144,-0.102l0.017,-0.012l0.144,-0.1l0.018,-0.012l0.144,-0.1l0.017,-0.012l0.146,-0.098l0.017,-0.012l0.146,-0.098l0.017,-0.012l0.147,-0.097l0.017,-0.012l0.148,-0.096l0.017,-0.011l0.148,-0.096l0.018,-0.011l0.148,-0.095l0.018,-0.011l0.149,-0.094l0.018,-0.011l0.15,-0.093l0.017,-0.011l0.151,-0.092l0.018,-0.011l0.15,-0.091l0.018,-0.01l0.152,-0.091l0.018,-0.01l0.152,-0.09l0.018,-0.01l0.153,-0.089l0.018,-0.01l0.154,-0.088l0.018,-0.01l0.154,-0.087l0.018,-0.01l0.155,-0.086l0.018,-0.01l0.155,-0.085l0.019,-0.01l0.155,-0.084l0.019,-0.01l0.156,-0.083l0.019,-0.01l0.156,-0.082l0.019,-0.01l0.157,-0.081l0.019,-0.009l0.158,-0.081l0.019,-0.009l0.158,-0.08l0.019,-0.009l0.159,-0.079l0.019,-0.009l0.159,-0.077l0.02,-0.01l0.16,-0.076l0.019,-0.009l0.16,-0.076l0.02,-0.009l0.16,-0.074l0.02,-0.009l0.161,-0.074l0.02,-0.009l0.162,-0.073l0.02,-0.008l0.162,-0.072l0.02,-0.009l0.163,-0.07l0.02,-0.009l0.163,-0.07l0.02,-0.008l0.164,-0.069l0.02,-0.008l0.165,-0.068l0.019,-0.008l0.165,-0.067l0.02,-0.008l0.166,-0.066l0.02,-0.008l0.166,-0.065l0.02,-0.008l0.167,-0.064l0.02,-0.007l0.167,-0.063l0.02,-0.008l0.168,-0.062l0.02,-0.007l0.168,-0.061l0.021,-0.008l0.168,-0.06l0.02,-0.007l0.169,-0.059l0.021,-0.007l0.17,-0.058l0.02,-0.007l0.17,-0.057l0.02,-0.007l0.171,-0.056l0.021,-0.006l0.17,-0.055l0.021,-0.007l0.171,-0.054l0.021,-0.006l0.172,-0.053l0.021,-0.006l0.172,-0.052l0.021,-0.006l0.172,-0.051l0.021,-0.006l0.174,-0.05l0.02,-0.006l0.174,-0.049l0.021,-0.006l0.174,-0.047l0.021,-0.006l0.174,-0.047l0.021,-0.005l0.175,-0.046l0.021,-0.005l0.176,-0.045l0.021,-0.005l0.176,-0.044l0.021,-0.005l0.176,-0.042l0.021,-0.006l0.177,-0.041l0.021,-0.005l0.177,-0.04l0.021,-0.005l0.177,-0.039l0.022,-0.005l0.178,-0.038l0.021,-0.004l0.178,-0.038l0.022,-0.004l0.178,-0.036l0.022,-0.004l0.179,-0.035l0.021,-0.004l0.179,-0.034l0.022,-0.004l0.179,-0.033l0.022,-0.004l0.18,-0.031l0.022,-0.004l0.18,-0.03l0.022,-0.004l0.181,-0.029l0.021,-0.004l0.182,-0.028l0.021,-0.003l0.182,-0.028l0.021,-0.003l0.182,-0.026l0.022,-0.003l0.182,-0.025l0.022,-0.003l0.182,-0.024l0.022,-0.002l0.183,-0.023l0.022,-0.003l0.183,-0.021l0.022,-0.003l0.184,-0.02l0.022,-0.003l0.183,-0.019l0.022,-0.002l0.184,-0.018l0.023,-0.002l0.184,-0.017l0.022,-0.002l0.185,-0.016l0.022,-0.002l0.185,-0.015l0.022,-0.001l0.185,-0.014l0.022,-0.001l0.186,-0.013l0.022,-0.001l0.186,-0.011l0.022,-0.002l0.186,-0.01l0.022,-0.001l0.187,-0.009l0.022,-0.001l0.187,-0.007l0.022,-0.001l0.187,-0.007l0.022,0l0.187,-0.006l0.022,0l0.188,-0.004l0.022,-0.001l0.188,-0.003l0.022,0l0.188,-0.002l0.022,0l0.183,-0.001l0.011,0l205.624,0l0.012,0Zm-205.63,7l-0.166,0.001l-0.166,0.001l-0.166,0.003l-0.165,0.004l-0.165,0.004l-0.165,0.006l-0.165,0.007l-0.164,0.008l-0.164,0.009l-0.164,0.01l-0.163,0.01l-0.164,0.012l-0.162,0.013l-0.163,0.014l-0.162,0.015l-0.163,0.016l-0.161,0.017l-0.162,0.018l-0.161,0.019l-0.161,0.02l-0.16,0.021l-0.161,0.022l-0.16,0.023l-0.159,0.024l-0.159,0.025l-0.159,0.025l-0.159,0.027l-0.158,0.028l-0.158,0.029l-0.158,0.03l-0.157,0.03l-0.157,0.032l-0.157,0.032l-0.156,0.034l-0.156,0.035l-0.156,0.035l-0.155,0.036l-0.155,0.038l-0.154,0.038l-0.154,0.039l-0.154,0.04l-0.153,0.041l-0.153,0.042l-0.153,0.043l-0.152,0.044l-0.152,0.045l-0.152,0.045l-0.151,0.047l-0.15,0.047l-0.151,0.048l-0.149,0.05l-0.15,0.05l-0.149,0.051l-0.149,0.052l-0.148,0.052l-0.148,0.054l-0.147,0.054l-0.147,0.056l-0.146,0.056l-0.146,0.057l-0.146,0.058l-0.145,0.059l-0.145,0.06l-0.144,0.06l-0.144,0.062l-0.144,0.062l-0.143,0.063l-0.142,0.064l-0.142,0.065l-0.142,0.066l-0.141,0.066l-0.141,0.067l-0.14,0.069l-0.14,0.068l-0.139,0.07l-0.139,0.071l-0.138,0.071l-0.138,0.072l-0.137,0.073l-0.137,0.074l-0.136,0.075l-0.136,0.075l-0.135,0.077l-0.135,0.077l-0.134,0.077l-0.134,0.079l-0.134,0.079l-0.132,0.08l-0.132,0.081l-0.132,0.082l-0.131,0.083l-0.131,0.083l-0.13,0.084l-0.13,0.085l-0.129,0.085l-0.128,0.086l-0.128,0.087l-0.127,0.088l-0.127,0.089l-0.126,0.089l-0.126,0.09l-0.125,0.091l-0.125,0.091l-0.124,0.092l-0.123,0.093l-0.123,0.094l-0.122,0.094l-0.122,0.095l-0.121,0.096l-0.121,0.096l-0.12,0.098l-0.119,0.097l-0.119,0.099l-0.118,0.099l-0.117,0.1l-0.117,0.101l-0.116,0.101l-0.116,0.102l-0.115,0.103l-0.115,0.103l-0.113,0.105l-0.114,0.104l-0.112,0.106l-0.112,0.106l-0.111,0.107l-0.111,0.107l-0.11,0.108l-0.109,0.109l-0.109,0.109l-0.108,0.11l-0.108,0.111l-0.106,0.111l-0.106,0.112l-0.106,0.113l-0.105,0.113l-0.104,0.114l-0.103,0.114l-0.103,0.115l-0.102,0.116l-0.101,0.116l-0.101,0.117l-0.1,0.117l-0.099,0.119l-0.099,0.118l-0.098,0.12l-0.097,0.12l-0.096,0.12l-0.096,0.121l-0.095,0.122l-0.095,0.122l-0.093,0.123l-0.093,0.123l-0.092,0.124l-0.092,0.125l-0.09,0.125l-0.09,0.126l-0.09,0.126l-0.088,0.127l-0.088,0.127l-0.087,0.128l-0.086,0.129l-0.086,0.129l-0.084,0.129l-0.084,0.13l-0.084,0.131l-0.082,0.131l-0.082,0.132l-0.081,0.132l-0.08,0.133l-0.079,0.133l-0.079,0.134l-0.078,0.134l-0.077,0.135l-0.076,0.135l-0.075,0.136l-0.075,0.136l-0.074,0.137l-0.073,0.137l-0.072,0.138l-0.071,0.138l-0.071,0.139l-0.07,0.139l-0.069,0.14l-0.068,0.14l-0.067,0.141l-0.067,0.141l-0.065,0.142l-0.065,0.142l-0.064,0.142l-0.063,0.143l-0.062,0.144l-0.062,0.144l-0.06,0.144l-0.06,0.145l-0.059,0.145l-0.058,0.146l-0.057,0.146l-0.056,0.146l-0.056,0.147l-0.054,0.148l-0.054,0.148l-0.053,0.148l-0.052,0.148l-0.051,0.149l-0.05,0.15l-0.049,0.15l-0.048,0.15l-0.048,0.151l-0.046,0.151l-0.046,0.151l-0.044,0.152l-0.044,0.152l-0.043,0.153l-0.042,0.153l-0.041,0.153l-0.04,0.154l-0.039,0.154l-0.039,0.155l-0.037,0.154l-0.036,0.156l-0.036,0.155l-0.034,0.156l-0.034,0.156l-0.032,0.157l-0.032,0.157l-0.031,0.157l-0.029,0.158l-0.029,0.158l-0.028,0.158l-0.027,0.159l-0.026,0.159l-0.025,0.159l-0.023,0.16l-0.023,0.16l-0.022,0.16l-0.021,0.16l-0.02,0.161l-0.019,0.161l-0.018,0.162l-0.017,0.162l-0.016,0.162l-0.015,0.162l-0.014,0.163l-0.013,0.163l-0.012,0.163l-0.011,0.163l-0.01,0.164l-0.008,0.164l-0.008,0.165l-0.007,0.164l-0.006,0.165l-0.004,0.165l-0.004,0.165l-0.003,0.166l-0.001,0.166l-0.001,0.166l0,424.753l0.001,0.166l0.001,0.166l0.003,0.166l0.004,0.165l0.004,0.165l0.006,0.165l0.007,0.165l0.008,0.164l0.008,0.164l0.01,0.164l0.011,0.163l0.012,0.164l0.013,0.163l0.014,0.162l0.015,0.163l0.016,0.162l0.017,0.161l0.018,0.162l0.019,0.161l0.02,0.161l0.021,0.16l0.022,0.161l0.023,0.16l0.023,0.159l0.025,0.16l0.026,0.159l0.027,0.158l0.028,0.158l0.029,0.158l0.029,0.158l0.031,0.157l0.032,0.157l0.032,0.157l0.034,0.156l0.034,0.156l0.036,0.156l0.036,0.155l0.037,0.155l0.039,0.154l0.039,0.154l0.04,0.154l0.041,0.154l0.042,0.153l0.043,0.152l0.044,0.152l0.044,0.152l0.046,0.152l0.046,0.151l0.048,0.15l0.048,0.151l0.049,0.149l0.05,0.15l0.051,0.149l0.052,0.149l0.053,0.148l0.054,0.148l0.054,0.147l0.056,0.147l0.056,0.146l0.057,0.147l0.058,0.145l0.059,0.145l0.06,0.145l0.06,0.145l0.062,0.143l0.062,0.144l0.063,0.143l0.064,0.142l0.065,0.143l0.065,0.141l0.067,0.141l0.067,0.141l0.068,0.14l0.069,0.14l0.07,0.139l0.071,0.139l0.071,0.138l0.072,0.138l0.073,0.137l0.074,0.137l0.075,0.136l0.075,0.136l0.076,0.135l0.077,0.135l0.078,0.135l0.079,0.133l0.079,0.134l0.08,0.132l0.081,0.133l0.082,0.131l0.082,0.131l0.084,0.131l0.084,0.13l0.084,0.13l0.086,0.129l0.086,0.128l0.087,0.128l0.088,0.127l0.088,0.127l0.09,0.127l0.09,0.125l0.09,0.125l0.092,0.125l0.092,0.124l0.093,0.123l0.093,0.123l0.095,0.123l0.095,0.121l0.096,0.121l0.096,0.121l0.097,0.12l0.098,0.119l0.099,0.119l0.099,0.118l0.1,0.117l0.101,0.117l0.101,0.117l0.102,0.115l0.103,0.115l0.103,0.115l0.104,0.114l0.105,0.113l0.106,0.112l0.106,0.112l0.106,0.112l0.108,0.11l0.108,0.11l0.109,0.11l0.109,0.108l0.11,0.108l0.111,0.108l0.111,0.107l0.112,0.106l0.112,0.105l0.114,0.105l0.113,0.104l0.115,0.103l0.115,0.103l0.116,0.102l0.116,0.101l0.117,0.101l0.117,0.1l0.118,0.099l0.119,0.099l0.119,0.098l0.12,0.097l0.121,0.096l0.121,0.096l0.122,0.095l0.122,0.095l0.123,0.093l0.123,0.093l0.124,0.092l0.125,0.092l0.125,0.091l0.126,0.09l0.126,0.089l0.127,0.088l0.127,0.088l0.128,0.087l0.128,0.086l0.129,0.086l0.13,0.085l0.13,0.084l0.131,0.083l0.131,0.082l0.132,0.082l0.132,0.081l0.132,0.08l0.134,0.079l0.134,0.079l0.134,0.078l0.135,0.077l0.135,0.076l0.136,0.075l0.136,0.075l0.137,0.074l0.137,0.073l0.138,0.072l0.138,0.071l0.139,0.071l0.139,0.07l0.14,0.069l0.14,0.068l0.141,0.067l0.141,0.067l0.142,0.065l0.142,0.065l0.142,0.064l0.143,0.063l0.144,0.062l0.144,0.062l0.144,0.06l0.145,0.06l0.145,0.059l0.146,0.058l0.146,0.057l0.146,0.056l0.147,0.056l0.147,0.054l0.148,0.054l0.148,0.053l0.149,0.052l0.149,0.051l0.15,0.05l0.149,0.049l0.151,0.048l0.15,0.048l0.151,0.046l0.152,0.046l0.152,0.044l0.152,0.044l0.153,0.043l0.153,0.042l0.153,0.041l0.154,0.04l0.154,0.039l0.154,0.039l0.155,0.037l0.155,0.036l0.156,0.036l0.156,0.034l0.156,0.034l0.157,0.032l0.157,0.032l0.157,0.031l0.158,0.029l0.158,0.029l0.158,0.028l0.159,0.027l0.159,0.026l0.159,0.025l0.159,0.024l0.16,0.022l0.161,0.022l0.16,0.021l0.161,0.02l0.161,0.019l0.162,0.018l0.161,0.017l0.163,0.016l0.162,0.015l0.163,0.014l0.162,0.013l0.164,0.012l0.163,0.011l0.164,0.01l0.164,0.009l0.164,0.007l0.165,0.007l0.165,0.006l0.165,0.005l0.165,0.003l0.166,0.003l0.166,0.001l0.166,0.001l205.613,0l0.166,-0.001l0.166,-0.001l0.165,-0.003l0.166,-0.003l0.165,-0.005l0.165,-0.006l0.164,-0.007l0.165,-0.007l0.164,-0.009l0.163,-0.01l0.164,-0.011l0.163,-0.012l0.163,-0.013l0.163,-0.014l0.162,-0.015l0.162,-0.016l0.162,-0.017l0.161,-0.018l0.162,-0.019l0.16,-0.02l0.161,-0.021l0.16,-0.022l0.16,-0.022l0.16,-0.024l0.159,-0.025l0.159,-0.026l0.159,-0.027l0.158,-0.028l0.158,-0.029l0.158,-0.029l0.157,-0.031l0.157,-0.032l0.157,-0.032l0.156,-0.034l0.156,-0.034l0.155,-0.036l0.155,-0.036l0.155,-0.037l0.155,-0.039l0.154,-0.039l0.154,-0.04l0.153,-0.041l0.153,-0.042l0.153,-0.043l0.152,-0.044l0.152,-0.044l0.151,-0.046l0.151,-0.046l0.151,-0.048l0.15,-0.048l0.15,-0.049l0.149,-0.05l0.149,-0.051l0.149,-0.052l0.148,-0.053l0.148,-0.054l0.148,-0.054l0.146,-0.056l0.147,-0.056l0.146,-0.057l0.146,-0.058l0.145,-0.059l0.145,-0.06l0.144,-0.06l0.144,-0.062l0.143,-0.062l0.143,-0.063l0.143,-0.064l0.142,-0.065l0.142,-0.065l0.141,-0.067l0.14,-0.067l0.141,-0.068l0.139,-0.069l0.14,-0.07l0.138,-0.071l0.139,-0.071l0.137,-0.072l0.138,-0.073l0.137,-0.074l0.136,-0.075l0.136,-0.075l0.135,-0.076l0.135,-0.077l0.134,-0.078l0.134,-0.079l0.133,-0.079l0.133,-0.08l0.132,-0.081l0.132,-0.082l0.131,-0.082l0.131,-0.083l0.13,-0.084l0.129,-0.085l0.129,-0.086l0.129,-0.086l0.128,-0.087l0.127,-0.088l0.127,-0.088l0.126,-0.089l0.126,-0.09l0.125,-0.091l0.124,-0.092l0.124,-0.092l0.124,-0.093l0.123,-0.093l0.122,-0.095l0.122,-0.095l0.121,-0.096l0.12,-0.096l0.12,-0.097l0.12,-0.098l0.118,-0.099l0.118,-0.099l0.118,-0.1l0.117,-0.101l0.116,-0.101l0.116,-0.102l0.115,-0.103l0.114,-0.103l0.114,-0.104l0.113,-0.105l0.113,-0.105l0.112,-0.106l0.111,-0.107l0.111,-0.108l0.11,-0.108l0.109,-0.108l0.109,-0.11l0.108,-0.11l0.107,-0.11l0.107,-0.112l0.106,-0.112l0.106,-0.112l0.104,-0.113l0.104,-0.114l0.104,-0.115l0.102,-0.115l0.103,-0.115l0.101,-0.117l0.101,-0.117l0.1,-0.117l0.099,-0.118l0.098,-0.119l0.098,-0.119l0.098,-0.12l0.096,-0.121l0.096,-0.121l0.095,-0.121l0.094,-0.123l0.094,-0.123l0.093,-0.123l0.092,-0.124l0.091,-0.125l0.091,-0.125l0.09,-0.125l0.089,-0.127l0.089,-0.127l0.088,-0.127l0.087,-0.128l0.086,-0.128l0.085,-0.129l0.085,-0.13l0.084,-0.13l0.083,-0.131l0.083,-0.131l0.081,-0.131l0.081,-0.133l0.081,-0.132l0.079,-0.134l0.078,-0.133l0.078,-0.135l0.077,-0.135l0.076,-0.135l0.076,-0.136l0.075,-0.136l0.073,-0.137l0.073,-0.137l0.073,-0.138l0.071,-0.138l0.071,-0.139l0.069,-0.139l0.069,-0.14l0.068,-0.14l0.068,-0.141l0.066,-0.141l0.066,-0.141l0.065,-0.143l0.064,-0.142l0.063,-0.143l0.062,-0.144l0.061,-0.143l0.061,-0.145l0.06,-0.145l0.059,-0.145l0.058,-0.145l0.057,-0.147l0.056,-0.146l0.055,-0.147l0.055,-0.147l0.054,-0.148l0.052,-0.148l0.052,-0.149l0.051,-0.149l0.05,-0.15l0.049,-0.149l0.049,-0.151l0.047,-0.15l0.047,-0.151l0.045,-0.152l0.045,-0.152l0.044,-0.152l0.043,-0.152l0.042,-0.153l0.041,-0.154l0.04,-0.154l0.039,-0.154l0.038,-0.154l0.037,-0.155l0.037,-0.155l0.035,-0.156l0.035,-0.156l0.033,-0.156l0.033,-0.157l0.032,-0.157l0.03,-0.157l0.03,-0.158l0.029,-0.158l0.028,-0.158l0.026,-0.158l0.026,-0.159l0.025,-0.16l0.024,-0.159l0.023,-0.16l0.022,-0.161l0.021,-0.16l0.02,-0.161l0.019,-0.161l0.018,-0.162l0.017,-0.161l0.016,-0.162l0.015,-0.163l0.014,-0.162l0.012,-0.163l0.012,-0.164l0.011,-0.163l0.01,-0.164l0.009,-0.164l0.008,-0.164l0.007,-0.165l0.005,-0.165l0.005,-0.165l0.004,-0.165l0.002,-0.166l0.002,-0.166l0,-0.166l0,-424.753l0,-0.166l-0.002,-0.166l-0.002,-0.166l-0.004,-0.165l-0.005,-0.165l-0.005,-0.165l-0.007,-0.164l-0.008,-0.165l-0.009,-0.164l-0.01,-0.164l-0.011,-0.163l-0.012,-0.163l-0.012,-0.163l-0.014,-0.163l-0.015,-0.162l-0.016,-0.162l-0.017,-0.162l-0.018,-0.162l-0.019,-0.161l-0.02,-0.161l-0.021,-0.16l-0.022,-0.16l-0.023,-0.16l-0.024,-0.16l-0.025,-0.159l-0.026,-0.159l-0.026,-0.159l-0.028,-0.158l-0.029,-0.158l-0.03,-0.158l-0.03,-0.157l-0.032,-0.157l-0.033,-0.157l-0.033,-0.156l-0.035,-0.156l-0.035,-0.155l-0.037,-0.156l-0.037,-0.154l-0.038,-0.155l-0.039,-0.154l-0.04,-0.154l-0.041,-0.153l-0.042,-0.153l-0.043,-0.153l-0.044,-0.152l-0.045,-0.152l-0.045,-0.151l-0.047,-0.151l-0.047,-0.151l-0.049,-0.15l-0.049,-0.15l-0.05,-0.15l-0.051,-0.149l-0.052,-0.148l-0.052,-0.148l-0.054,-0.148l-0.055,-0.148l-0.055,-0.147l-0.056,-0.146l-0.057,-0.146l-0.058,-0.146l-0.059,-0.145l-0.06,-0.145l-0.061,-0.144l-0.061,-0.144l-0.062,-0.144l-0.063,-0.143l-0.064,-0.142l-0.065,-0.142l-0.066,-0.142l-0.066,-0.141l-0.068,-0.141l-0.068,-0.14l-0.069,-0.14l-0.069,-0.139l-0.071,-0.139l-0.071,-0.138l-0.073,-0.138l-0.073,-0.137l-0.073,-0.137l-0.075,-0.136l-0.076,-0.136l-0.076,-0.135l-0.077,-0.135l-0.078,-0.134l-0.078,-0.134l-0.079,-0.133l-0.081,-0.133l-0.081,-0.132l-0.081,-0.132l-0.083,-0.131l-0.083,-0.131l-0.084,-0.13l-0.085,-0.129l-0.085,-0.129l-0.086,-0.129l-0.087,-0.128l-0.088,-0.127l-0.089,-0.127l-0.089,-0.126l-0.09,-0.126l-0.091,-0.125l-0.091,-0.125l-0.092,-0.124l-0.093,-0.123l-0.094,-0.123l-0.094,-0.122l-0.095,-0.122l-0.096,-0.121l-0.096,-0.12l-0.098,-0.12l-0.098,-0.12l-0.098,-0.118l-0.099,-0.119l-0.1,-0.117l-0.101,-0.117l-0.101,-0.116l-0.103,-0.116l-0.102,-0.115l-0.104,-0.114l-0.104,-0.114l-0.104,-0.113l-0.106,-0.113l-0.106,-0.112l-0.107,-0.111l-0.107,-0.111l-0.108,-0.11l-0.109,-0.109l-0.109,-0.109l-0.11,-0.108l-0.111,-0.107l-0.111,-0.107l-0.112,-0.106l-0.113,-0.106l-0.113,-0.104l-0.114,-0.105l-0.114,-0.103l-0.115,-0.103l-0.116,-0.102l-0.116,-0.101l-0.117,-0.101l-0.118,-0.1l-0.118,-0.099l-0.118,-0.099l-0.12,-0.097l-0.12,-0.098l-0.12,-0.096l-0.121,-0.096l-0.122,-0.095l-0.122,-0.094l-0.123,-0.094l-0.124,-0.093l-0.124,-0.092l-0.124,-0.091l-0.125,-0.091l-0.126,-0.09l-0.126,-0.089l-0.127,-0.089l-0.127,-0.088l-0.128,-0.087l-0.129,-0.086l-0.129,-0.085l-0.129,-0.085l-0.13,-0.084l-0.131,-0.083l-0.131,-0.083l-0.132,-0.082l-0.132,-0.081l-0.133,-0.08l-0.133,-0.079l-0.134,-0.079l-0.134,-0.077l-0.135,-0.077l-0.135,-0.077l-0.136,-0.075l-0.136,-0.075l-0.137,-0.074l-0.138,-0.073l-0.137,-0.072l-0.139,-0.071l-0.138,-0.071l-0.14,-0.07l-0.139,-0.068l-0.141,-0.069l-0.14,-0.067l-0.141,-0.066l-0.142,-0.066l-0.142,-0.065l-0.143,-0.064l-0.143,-0.063l-0.143,-0.062l-0.144,-0.062l-0.144,-0.06l-0.145,-0.06l-0.145,-0.059l-0.146,-0.058l-0.146,-0.057l-0.147,-0.056l-0.146,-0.056l-0.148,-0.054l-0.148,-0.054l-0.148,-0.052l-0.149,-0.052l-0.149,-0.051l-0.149,-0.05l-0.15,-0.05l-0.15,-0.048l-0.151,-0.047l-0.151,-0.047l-0.151,-0.045l-0.152,-0.045l-0.152,-0.044l-0.153,-0.043l-0.153,-0.042l-0.153,-0.041l-0.154,-0.04l-0.154,-0.039l-0.155,-0.038l-0.155,-0.038l-0.155,-0.036l-0.155,-0.035l-0.156,-0.035l-0.156,-0.034l-0.157,-0.032l-0.157,-0.032l-0.157,-0.03l-0.158,-0.03l-0.158,-0.029l-0.158,-0.028l-0.159,-0.027l-0.159,-0.025l-0.159,-0.025l-0.16,-0.024l-0.16,-0.023l-0.16,-0.022l-0.161,-0.021l-0.16,-0.02l-0.162,-0.019l-0.161,-0.018l-0.162,-0.017l-0.162,-0.016l-0.162,-0.015l-0.163,-0.014l-0.163,-0.013l-0.163,-0.012l-0.164,-0.01l-0.163,-0.01l-0.164,-0.009l-0.165,-0.008l-0.164,-0.007l-0.165,-0.006l-0.165,-0.004l-0.166,-0.004l-0.165,-0.003l-0.166,-0.001l-0.166,-0.001l-205.613,0Z" style="fill:#845057;"/></g><path d="M345.993,517.57l0.26,0.029l0.257,0.049l0.253,0.067l0.247,0.087l0.24,0.104l0.232,0.123l0.221,0.139l0.211,0.155l0.198,0.171l0.185,0.185l0.171,0.199l0.156,0.21l0.139,0.222l0.122,0.231l0.105,0.24l0.086,0.247l0.068,0.253l0.049,0.257l0.029,0.26l0.01,0.262l-0.01,0.261l-0.029,0.261l-0.049,0.257l-0.068,0.253l-0.086,0.247l-0.105,0.239l-0.122,0.232l-0.139,0.222l-0.156,0.21l-0.171,0.198l-0.185,0.186l-0.198,0.17l-0.211,0.156l-0.221,0.139l-0.232,0.122l-0.24,0.105l-0.247,0.086l-0.253,0.068l-0.257,0.049l-0.26,0.029l-0.261,0.01l-51.404,0l-0.261,-0.01l-0.26,-0.029l-0.257,-0.049l-0.253,-0.068l-0.247,-0.086l-0.24,-0.105l-0.232,-0.122l-0.221,-0.139l-0.211,-0.156l-0.198,-0.17l-0.185,-0.186l-0.171,-0.198l-0.155,-0.21l-0.14,-0.222l-0.122,-0.232l-0.105,-0.239l-0.086,-0.247l-0.068,-0.253l-0.048,-0.257l-0.03,-0.261l-0.01,-0.261l0.01,-0.262l0.03,-0.26l0.048,-0.257l0.068,-0.253l0.086,-0.247l0.105,-0.24l0.122,-0.231l0.14,-0.222l0.155,-0.21l0.171,-0.199l0.185,-0.185l0.198,-0.171l0.211,-0.155l0.221,-0.139l0.232,-0.123l0.24,-0.104l0.247,-0.087l0.253,-0.067l0.257,-0.049l0.26,-0.029l0.261,-0.01l51.404,0l0.261,0.01Z" style="fill:#845057;"/><path d="M281.115,111.759l0.311,0.042l0.306,0.07l0.299,0.097l0.289,0.123l0.276,0.149l0.262,0.173l0.246,0.196l0.227,0.217l0.207,0.236l0.184,0.254l0.161,0.27l0.137,0.283l0.11,0.294l0.083,0.303l0.057,0.309l0.028,0.313l0,0.314l-0.028,0.312l-0.057,0.309l-0.083,0.303l-0.11,0.294l-0.137,0.283l-0.161,0.27l-0.184,0.254l-0.207,0.236l-0.227,0.217l-0.246,0.196l-0.262,0.173l-0.276,0.149l-0.289,0.123l-0.299,0.097l-0.306,0.07l-0.311,0.042l-0.314,0.015l-73.047,0l-0.313,-0.015l-0.311,-0.042l-0.307,-0.07l-0.298,-0.097l-0.289,-0.123l-0.277,-0.149l-0.262,-0.173l-0.245,-0.196l-0.227,-0.217l-0.207,-0.236l-0.185,-0.254l-0.161,-0.27l-0.136,-0.283l-0.11,-0.294l-0.084,-0.303l-0.056,-0.309l-0.028,-0.312l0,-0.314l0.028,-0.313l0.056,-0.309l0.084,-0.303l0.11,-0.294l0.136,-0.283l0.161,-0.27l0.185,-0.254l0.207,-0.236l0.227,-0.217l0.245,-0.196l0.262,-0.173l0.277,-0.149l0.289,-0.123l0.298,-0.097l0.307,-0.07l0.311,-0.042l0.313,-0.014l73.047,0l0.314,0.014Z" style="fill:#845057;"/><path d="M309.6,133.41l0.387,0.066l0.377,0.108l0.363,0.151l0.343,0.19l0.321,0.227l0.292,0.261l0.262,0.293l0.227,0.32l0.19,0.343l0.15,0.363l0.109,0.377l0.065,0.387l0.022,0.392l-0.022,0.392l-0.065,0.387l-0.109,0.377l-0.15,0.363l-0.19,0.343l-0.227,0.32l-0.262,0.293l-0.292,0.261l-0.321,0.228l-0.343,0.189l-0.363,0.151l-0.377,0.108l-0.387,0.066l-0.392,0.022l-114.981,0l-0.392,-0.022l-0.387,-0.066l-0.377,-0.108l-0.362,-0.151l-0.344,-0.189l-0.32,-0.228l-0.293,-0.261l-0.261,-0.293l-0.227,-0.32l-0.19,-0.343l-0.15,-0.363l-0.109,-0.377l-0.066,-0.387l-0.022,-0.392l0.022,-0.392l0.066,-0.387l0.109,-0.377l0.15,-0.363l0.19,-0.343l0.227,-0.32l0.261,-0.293l0.293,-0.261l0.32,-0.227l0.344,-0.19l0.362,-0.151l0.377,-0.108l0.387,-0.066l0.392,-0.022l114.981,0l0.392,0.022Z" style="fill:#845057;"/><path d="M439.056,485.361l1.135,0.759l0.759,1.135l0.266,1.34l-0.266,1.339l-0.759,1.136l-1.135,0.758l-1.34,0.267l-257.016,0l-1.339,-0.267l-1.136,-0.758l-0.758,-1.136l-0.267,-1.339l0.267,-1.34l0.758,-1.135l1.136,-0.759l1.339,-0.266l257.016,0l1.34,0.266Z" style="fill:#845057;"/></g><ellipse cx="440.657" cy="151.911" rx="119.657" ry="116.739" style="fill:#5c393e;fill-opacity:0.533333;stroke:#845057;stroke-width:7px;"/><g><path d="M498.638,190.997l-115.963,0c0,0 14.389,-12.604 14.46,-19.779c0.545,-55.196 7.651,-73.231 42.199,-77.652l0.132,-0.034c40.273,9.775 41.514,28.897 42.939,80.346c0.199,7.166 16.208,17.103 16.233,17.119Zm-57.981,-116.728c5.48,0 9.929,4.316 9.929,9.631c0,5.316 -4.449,9.632 -9.929,9.632c-5.48,0 -9.929,-4.316 -9.929,-9.632c0,-5.315 4.449,-9.631 9.929,-9.631Z" style="fill:#9b5e66;fill-opacity:0.164706;"/><path d="M440.849,67.27l0.044,0l0.171,0.004l0.043,0.001l0.17,0.005l0.043,0.001l0.17,0.008l0.043,0.002l0.17,0.009l0.043,0.003l0.169,0.011l0.042,0.004l0.169,0.013l0.043,0.004l0.168,0.015l0.043,0.004l0.167,0.018l0.043,0.005l0.167,0.019l0.043,0.006l0.166,0.021l0.042,0.006l0.166,0.024l0.043,0.006l0.165,0.025l0.042,0.007l0.165,0.028l0.042,0.007l0.164,0.029l0.042,0.008l0.163,0.032l0.042,0.008l0.163,0.033l0.041,0.009l0.162,0.035l0.042,0.01l0.161,0.037l0.041,0.01l0.161,0.039l0.041,0.01l0.16,0.041l0.041,0.011l0.159,0.043l0.041,0.011l0.158,0.045l0.041,0.011l0.157,0.047l0.041,0.012l0.156,0.048l0.041,0.013l0.156,0.05l0.04,0.014l0.155,0.052l0.04,0.013l0.154,0.054l0.04,0.014l0.153,0.056l0.039,0.014l0.152,0.057l0.04,0.015l0.152,0.06l0.038,0.015l0.151,0.061l0.039,0.016l0.15,0.062l0.039,0.017l0.148,0.064l0.038,0.017l0.148,0.066l0.039,0.017l0.147,0.068l0.037,0.017l0.146,0.07l0.038,0.018l0.145,0.071l0.037,0.018l0.144,0.073l0.037,0.019l0.143,0.074l0.038,0.02l0.141,0.076l0.036,0.019l0.141,0.078l0.037,0.02l0.14,0.079l0.035,0.021l0.139,0.081l0.036,0.021l0.138,0.082l0.035,0.022l0.137,0.083l0.035,0.022l0.136,0.086l0.035,0.023l0.134,0.086l0.035,0.023l0.133,0.088l0.034,0.024l0.133,0.09l0.034,0.023l0.131,0.092l0.033,0.024l0.13,0.092l0.033,0.025l0.129,0.094l0.033,0.025l0.128,0.096l0.033,0.025l0.126,0.098l0.033,0.025l0.125,0.099l0.033,0.027l0.123,0.1l0.032,0.025l0.122,0.102l0.033,0.027l0.121,0.104l0.032,0.027l0.12,0.104l0.03,0.027l0.118,0.106l0.032,0.028l0.118,0.108l0.03,0.028l0.116,0.109l0.03,0.028l0.115,0.11l0.031,0.03l0.113,0.111l0.029,0.029l0.112,0.112l0.029,0.03l0.111,0.115l0.03,0.03l0.109,0.116l0.029,0.03l0.108,0.117l0.027,0.03l0.107,0.117l0.028,0.032l0.106,0.12l0.028,0.032l0.103,0.121l0.027,0.031l0.102,0.122l0.027,0.032l0.101,0.123l0.026,0.033l0.1,0.124l0.027,0.034l0.098,0.125l0.025,0.033l0.097,0.127l0.025,0.034l0.095,0.128l0.025,0.034l0.094,0.129l0.024,0.034l0.092,0.131l0.025,0.035l0.09,0.132l0.024,0.034l0.089,0.133l0.024,0.037l0.087,0.134l0.023,0.035l0.085,0.134l0.023,0.036l0.084,0.137l0.023,0.038l0.083,0.137l0.021,0.035l0.081,0.138l0.022,0.038l0.079,0.14l0.021,0.038l0.077,0.14l0.021,0.037l0.076,0.142l0.02,0.038l0.075,0.143l0.02,0.039l0.072,0.144l0.019,0.037l0.07,0.145l0.02,0.04l0.069,0.146l0.019,0.04l0.067,0.147l0.018,0.039l0.065,0.147l0.017,0.039l0.064,0.149l0.017,0.041l0.063,0.151l0.016,0.041l0.06,0.15l0.016,0.04l0.058,0.151l0.016,0.043l0.057,0.152l0.014,0.041l0.055,0.153l0.015,0.043l0.053,0.154l0.014,0.042l0.05,0.154l0.014,0.042l0.049,0.156l0.013,0.042l0.047,0.158l0.013,0.044l0.045,0.157l0.011,0.042l0.043,0.158l0.012,0.044l0.041,0.159l0.012,0.044l0.039,0.16l0.01,0.044l0.037,0.16l0.01,0.043l0.035,0.161l0.009,0.045l0.034,0.163l0.009,0.045l0.031,0.162l0.008,0.044l0.029,0.163l0.007,0.044l0.027,0.164l0.007,0.045l0.025,0.165l0.007,0.046l0.022,0.165l0.006,0.044l0.021,0.166l0.005,0.045l0.019,0.167l0.005,0.045l0.016,0.167l0.004,0.045l0.014,0.168l0.004,0.046l0.012,0.168l0.003,0.045l0.01,0.168l0.002,0.047l0.008,0.169l0.002,0.045l0.005,0.169l0.002,0.046l0.003,0.17l0.001,0.045l0.001,0.17l0,0.047l-0.001,0.17l-0.001,0.045l-0.003,0.17l-0.002,0.046l-0.005,0.169l-0.002,0.045l-0.008,0.169l-0.002,0.047l-0.01,0.168l-0.003,0.045l-0.012,0.168l-0.004,0.046l-0.014,0.168l-0.004,0.045l-0.016,0.167l-0.005,0.045l-0.019,0.167l-0.005,0.045l-0.021,0.166l-0.006,0.044l-0.022,0.165l-0.007,0.046l-0.025,0.165l-0.007,0.045l-0.027,0.164l-0.007,0.044l-0.029,0.163l-0.008,0.044l-0.031,0.162l-0.009,0.045l-0.034,0.163l-0.009,0.045l-0.035,0.161l-0.01,0.043l-0.037,0.16l-0.01,0.044l-0.039,0.16l-0.012,0.044l-0.041,0.159l-0.012,0.044l-0.043,0.158l-0.011,0.042l-0.045,0.157l-0.013,0.044l-0.047,0.158l-0.013,0.042l-0.049,0.156l-0.014,0.042l-0.05,0.154l-0.014,0.042l-0.053,0.154l-0.015,0.043l-0.055,0.153l-0.014,0.041l-0.057,0.152l-0.016,0.043l-0.058,0.151l-0.016,0.04l-0.06,0.15l-0.016,0.041l-0.063,0.151l-0.017,0.041l-0.064,0.149l-0.017,0.039l-0.065,0.147l-0.018,0.039l-0.067,0.146l-0.019,0.041l-0.069,0.146l-0.02,0.04l-0.07,0.145l-0.019,0.037l-0.065,0.128l0.027,0.011l0.379,0.156l0.019,0.007l0.375,0.157l0.019,0.008l0.373,0.158l0.019,0.008l0.37,0.16l0.019,0.008l0.367,0.161l0.02,0.008l0.364,0.163l0.02,0.009l0.361,0.163l0.02,0.009l0.359,0.165l0.02,0.01l0.356,0.166l0.02,0.01l0.353,0.168l0.02,0.01l0.351,0.169l0.02,0.01l0.348,0.171l0.02,0.01l0.345,0.173l0.021,0.01l0.342,0.174l0.021,0.011l0.339,0.176l0.021,0.011l0.337,0.177l0.022,0.011l0.333,0.179l0.022,0.011l0.331,0.18l0.022,0.012l0.328,0.182l0.022,0.012l0.326,0.183l0.022,0.013l0.323,0.185l0.022,0.012l0.32,0.187l0.023,0.013l0.317,0.188l0.023,0.013l0.315,0.19l0.022,0.013l0.313,0.192l0.022,0.014l0.31,0.193l0.023,0.014l0.307,0.194l0.023,0.015l0.304,0.196l0.023,0.015l0.302,0.198l0.023,0.015l0.299,0.2l0.023,0.015l0.297,0.202l0.023,0.015l0.294,0.203l0.023,0.017l0.292,0.204l0.023,0.017l0.289,0.206l0.023,0.017l0.286,0.208l0.024,0.017l0.283,0.21l0.023,0.017l0.281,0.212l0.024,0.018l0.278,0.213l0.024,0.018l0.276,0.215l0.023,0.019l0.273,0.217l0.024,0.018l0.27,0.219l0.024,0.019l0.268,0.22l0.023,0.02l0.265,0.222l0.023,0.019l0.263,0.224l0.024,0.02l0.26,0.226l0.024,0.02l0.257,0.228l0.023,0.02l0.256,0.23l0.023,0.021l0.252,0.231l0.023,0.021l0.25,0.233l0.023,0.021l0.248,0.235l0.023,0.022l0.245,0.236l0.022,0.022l0.243,0.238l0.022,0.022l0.24,0.241l0.023,0.022l0.237,0.242l0.022,0.023l0.235,0.244l0.022,0.023l0.232,0.245l0.022,0.023l0.23,0.247l0.022,0.024l0.227,0.249l0.022,0.024l0.225,0.251l0.021,0.024l0.222,0.252l0.021,0.024l0.22,0.255l0.021,0.024l0.218,0.257l0.02,0.024l0.215,0.258l0.02,0.025l0.213,0.26l0.02,0.024l0.21,0.262l0.02,0.025l0.207,0.264l0.02,0.025l0.205,0.265l0.019,0.025l0.203,0.267l0.019,0.026l0.2,0.269l0.019,0.025l0.197,0.271l0.019,0.025l0.195,0.272l0.018,0.026l0.193,0.274l0.018,0.026l0.191,0.276l0.017,0.026l0.189,0.278l0.017,0.025l0.186,0.28l0.016,0.025l0.184,0.282l0.017,0.026l0.181,0.283l0.016,0.025l0.179,0.285l0.016,0.026l0.176,0.287l0.016,0.026l0.174,0.288l0.016,0.026l0.171,0.29l0.015,0.025l0.17,0.292l0.015,0.026l0.167,0.294l0.014,0.026l0.165,0.295l0.014,0.025l0.163,0.297l0.014,0.026l0.161,0.299l0.013,0.025l0.158,0.301l0.013,0.025l0.157,0.302l0.012,0.026l0.154,0.304l0.013,0.025l0.151,0.305l0.012,0.025l0.15,0.307l0.012,0.025l0.148,0.31l0.011,0.025l0.146,0.311l0.011,0.024l0.143,0.313l0.011,0.024l0.141,0.314l0.011,0.025l0.139,0.316l0.011,0.024l0.137,0.319l0.01,0.023l0.135,0.32l0.009,0.023l0.133,0.321l0.01,0.024l0.131,0.324l0.009,0.023l0.129,0.325l0.01,0.023l0.127,0.327l0.008,0.022l0.125,0.329l0.009,0.022l0.123,0.331l0.008,0.022l0.121,0.332l0.008,0.022l0.12,0.333l0.008,0.023l0.117,0.336l0.008,0.021l0.115,0.337l0.007,0.021l0.114,0.34l0.007,0.021l0.112,0.341l0.007,0.021l0.11,0.343l0.007,0.02l0.108,0.345l0.007,0.02l0.106,0.347l0.007,0.02l0.105,0.348l0.005,0.02l0.104,0.349l0.005,0.02l0.102,0.352l0.006,0.02l0.1,0.353l0.005,0.019l0.098,0.356l0.005,0.019l0.097,0.357l0.005,0.018l0.095,0.359l0.005,0.019l0.093,0.361l0.005,0.018l0.091,0.363l0.005,0.018l0.09,0.365l0.004,0.017l0.089,0.366l0.004,0.018l0.087,0.368l0.004,0.018l0.086,0.37l0.004,0.017l0.084,0.372l0.004,0.017l0.082,0.374l0.004,0.016l0.081,0.376l0.004,0.016l0.079,0.378l0.004,0.016l0.078,0.38l0.003,0.015l0.077,0.382l0.003,0.015l0.076,0.384l0.003,0.015l0.074,0.386l0.003,0.015l0.073,0.388l0.002,0.015l0.072,0.389l0.002,0.014l0.071,0.392l0.002,0.014l0.069,0.394l0.003,0.014l0.067,0.396l0.002,0.013l0.067,0.398l0.002,0.013l0.065,0.4l0.002,0.013l0.064,0.402l0.002,0.012l0.063,0.404l0.002,0.013l0.062,0.406l0.001,0.013l0.061,0.408l0.002,0.012l0.059,0.41l0.002,0.012l0.058,0.412l0.001,0.012l0.057,0.414l0.002,0.012l0.056,0.416l0.001,0.011l0.055,0.419l0.001,0.011l0.054,0.421l0.001,0.011l0.053,0.422l0.001,0.011l0.052,0.425l0.001,0.01l0.051,0.427l0.001,0.011l0.05,0.43l0.001,0.009l0.048,0.432l0.002,0.009l0.047,0.434l0.001,0.01l0.047,0.436l0.001,0.009l0.046,0.438l0.001,0.009l0.044,0.441l0.001,0.009l0.044,0.442l0.001,0.009l0.043,0.445l0.001,0.008l0.042,0.448l0.001,0.009l0.041,0.449l0.001,0.008l0.04,0.451l0.001,0.008l0.039,0.454l0.001,0.008l0.039,0.457l0.001,0.007l0.038,0.459l0,0.007l0.037,0.461l0.001,0.007l0.036,0.464l0.001,0.007l0.036,0.466l0,0.007l0.035,0.468l0.001,0.006l0.034,0.471l0,0.006l0.034,0.473l0,0.007l0.033,0.475l0,0.006l0.033,0.478l0,0.006l0.031,0.48l0.001,0.005l0.031,0.483l0,0.005l0.03,0.487l0.001,0.008l0.058,0.976l0.001,0.01l0.056,0.987l0.001,0.01l0.053,0.997l0.001,0.009l0.052,1.007l0,0.009l0.05,1.017l0,0.008l0.048,1.027l0.001,0.008l0.046,1.038l0,0.006l0.045,1.048l0,0.007l0.043,1.058l0,0.006l0.042,1.069l0,0.005l0.04,1.08l0,0.005l0.04,1.09l0,0.005l0.038,1.1l0,0.005l0.037,1.111l0,0.004l0.036,1.125l0.036,1.137l0.035,1.147l0.034,1.159l0.068,2.344l0,0.003l0.061,2.181l0.004,0.011l0.008,0.019l0.008,0.02l0.01,0.024l0.011,0.026l0.012,0.025l0.013,0.028l0.014,0.031l0.015,0.03l0.017,0.034l0.017,0.035l0.018,0.035l0.02,0.037l0.021,0.04l0.022,0.039l0.023,0.041l0.024,0.043l0.025,0.043l0.027,0.045l0.028,0.047l0.029,0.047l0.03,0.048l0.031,0.05l0.025,0.039l0.075,0.115l0.072,0.107l0.077,0.11l0.081,0.114l0.085,0.117l0.09,0.12l0.093,0.122l0.098,0.125l0.101,0.127l0.105,0.13l0.108,0.131l0.112,0.132l0.116,0.135l0.119,0.136l0.123,0.138l0.125,0.138l0.128,0.14l0.131,0.141l0.134,0.142l0.137,0.142l0.139,0.144l0.142,0.144l0.144,0.144l0.147,0.145l0.148,0.145l0.15,0.145l0.153,0.146l0.154,0.145l0.156,0.146l0.157,0.145l0.159,0.146l0.16,0.145l0.162,0.144l0.162,0.145l0.164,0.144l0.164,0.143l0.166,0.144l0.166,0.142l0.167,0.142l0.168,0.141l0.167,0.14l0.168,0.139l0.168,0.139l0.169,0.137l0.168,0.137l0.168,0.135l0.169,0.134l0.167,0.134l0.168,0.131l0.162,0.128l0.337,0.26l0.328,0.252l0.325,0.246l0.32,0.239l0.314,0.232l0.307,0.225l0.301,0.218l0.293,0.21l0.284,0.201l0.275,0.193l0.264,0.185l0.254,0.175l0.241,0.165l0.229,0.156l0.216,0.145l0.202,0.135l0.187,0.124l0.171,0.113l0.151,0.099l0.264,0.171l0.185,0.118l0.106,0.067l4.506,2.817l-2.909,10.14l-126.068,0l-3.427,-9.034l3.761,-3.334l0.165,-0.148l0.235,-0.213l0.301,-0.276l0.166,-0.154l0.183,-0.17l0.196,-0.183l0.208,-0.196l0.22,-0.208l0.23,-0.22l0.239,-0.23l0.249,-0.242l0.259,-0.252l0.266,-0.262l0.273,-0.27l0.279,-0.28l0.286,-0.289l0.291,-0.296l0.295,-0.304l0.299,-0.311l0.302,-0.317l0.304,-0.323l0.31,-0.333l0.15,-0.162l0.154,-0.168l0.153,-0.168l0.154,-0.17l0.154,-0.171l0.153,-0.171l0.153,-0.173l0.152,-0.173l0.153,-0.174l0.151,-0.174l0.151,-0.175l0.151,-0.176l0.149,-0.175l0.148,-0.176l0.147,-0.177l0.147,-0.177l0.145,-0.177l0.143,-0.177l0.143,-0.176l0.14,-0.177l0.139,-0.176l0.138,-0.176l0.136,-0.176l0.134,-0.175l0.132,-0.174l0.13,-0.174l0.128,-0.173l0.125,-0.172l0.123,-0.171l0.121,-0.17l0.118,-0.168l0.116,-0.167l0.112,-0.166l0.11,-0.164l0.107,-0.162l0.105,-0.161l0.1,-0.158l0.098,-0.156l0.095,-0.154l0.091,-0.152l0.088,-0.148l0.084,-0.146l0.08,-0.143l0.077,-0.139l0.073,-0.136l0.07,-0.133l0.065,-0.128l0.062,-0.125l0.058,-0.12l0.053,-0.115l0.055,-0.122l0.018,-0.044l0.022,-0.051l0.021,-0.05l0.021,-0.05l0.019,-0.049l0.019,-0.046l0.016,-0.044l0.017,-0.044l0.015,-0.042l0.014,-0.039l0.013,-0.038l0.013,-0.039l0.011,-0.034l0.011,-0.032l0.01,-0.032l0.008,-0.029l0.008,-0.028l0.007,-0.026l0.006,-0.021l0.005,-0.022l0.005,-0.02l0.004,-0.017l0.003,-0.014l0.002,-0.01l0.013,-1.213l0,-0.007l0.017,-1.28l0,-0.008l0.019,-1.267l0,-0.008l0.022,-1.254l0,-0.009l0.025,-1.24l0,-0.006l0.013,-0.617l0,-0.005l0.014,-0.612l0,-0.005l0.015,-0.609l0,-0.005l0.015,-0.606l0,-0.005l0.016,-0.603l0,-0.004l0.017,-0.6l0,-0.005l0.017,-0.596l0.001,-0.005l0.018,-0.594l0,-0.005l0.019,-0.59l0,-0.005l0.02,-0.587l0,-0.005l0.02,-0.585l0.001,-0.005l0.021,-0.581l0,-0.006l0.022,-0.577l0,-0.006l0.023,-0.575l0,-0.005l0.024,-0.572l0,-0.005l0.024,-0.569l0.001,-0.006l0.025,-0.565l0,-0.006l0.026,-0.563l0,-0.006l0.027,-0.559l0.001,-0.006l0.027,-0.557l0.001,-0.006l0.028,-0.553l0,-0.006l0.03,-0.551l0,-0.006l0.03,-0.548l0.001,-0.006l0.031,-0.544l0,-0.007l0.032,-0.541l0.001,-0.007l0.032,-0.538l0.001,-0.007l0.034,-0.536l0,-0.007l0.035,-0.532l0,-0.007l0.036,-0.53l0,-0.007l0.037,-0.527l0,-0.007l0.037,-0.523l0.001,-0.008l0.038,-0.521l0.001,-0.008l0.039,-0.517l0.001,-0.008l0.04,-0.515l0.001,-0.008l0.041,-0.512l0.001,-0.008l0.042,-0.509l0,-0.008l0.043,-0.506l0.001,-0.008l0.044,-0.504l0.001,-0.009l0.045,-0.5l0.001,-0.009l0.046,-0.497l0.001,-0.009l0.047,-0.495l0.001,-0.009l0.048,-0.492l0.001,-0.009l0.049,-0.489l0.001,-0.009l0.05,-0.487l0.001,-0.009l0.051,-0.484l0.001,-0.009l0.053,-0.481l0.001,-0.01l0.053,-0.478l0.001,-0.01l0.055,-0.475l0.001,-0.01l0.055,-0.473l0.002,-0.01l0.056,-0.47l0.001,-0.01l0.058,-0.467l0.002,-0.011l0.058,-0.464l0.002,-0.011l0.06,-0.461l0.001,-0.011l0.061,-0.459l0.002,-0.012l0.062,-0.456l0.001,-0.011l0.064,-0.453l0.001,-0.012l0.065,-0.451l0.002,-0.012l0.065,-0.448l0.002,-0.011l0.067,-0.446l0.002,-0.012l0.068,-0.444l0.002,-0.012l0.069,-0.44l0.002,-0.012l0.07,-0.437l0.002,-0.014l0.072,-0.435l0.002,-0.013l0.073,-0.432l0.002,-0.013l0.074,-0.43l0.003,-0.013l0.075,-0.427l0.003,-0.014l0.076,-0.424l0.003,-0.014l0.078,-0.422l0.002,-0.014l0.079,-0.42l0.003,-0.014l0.081,-0.417l0.002,-0.014l0.082,-0.415l0.003,-0.014l0.083,-0.413l0.003,-0.014l0.084,-0.409l0.004,-0.015l0.085,-0.408l0.003,-0.015l0.088,-0.404l0.003,-0.016l0.088,-0.402l0.004,-0.016l0.09,-0.399l0.003,-0.015l0.091,-0.398l0.004,-0.016l0.093,-0.395l0.003,-0.016l0.094,-0.392l0.004,-0.017l0.096,-0.39l0.004,-0.016l0.097,-0.388l0.004,-0.016l0.098,-0.386l0.005,-0.017l0.099,-0.383l0.005,-0.017l0.101,-0.38l0.005,-0.018l0.102,-0.378l0.005,-0.017l0.104,-0.376l0.005,-0.018l0.106,-0.373l0.005,-0.018l0.107,-0.371l0.005,-0.019l0.109,-0.368l0.005,-0.019l0.111,-0.366l0.005,-0.019l0.112,-0.364l0.006,-0.019l0.113,-0.361l0.006,-0.019l0.115,-0.359l0.006,-0.02l0.117,-0.357l0.006,-0.02l0.118,-0.355l0.007,-0.02l0.119,-0.352l0.007,-0.02l0.121,-0.35l0.007,-0.021l0.123,-0.348l0.007,-0.02l0.125,-0.345l0.008,-0.022l0.126,-0.343l0.007,-0.021l0.128,-0.341l0.008,-0.021l0.129,-0.338l0.009,-0.022l0.131,-0.337l0.008,-0.021l0.133,-0.335l0.009,-0.022l0.135,-0.332l0.009,-0.022l0.136,-0.329l0.009,-0.022l0.138,-0.328l0.009,-0.023l0.14,-0.325l0.01,-0.023l0.142,-0.323l0.01,-0.023l0.143,-0.321l0.01,-0.023l0.145,-0.319l0.011,-0.023l0.147,-0.317l0.011,-0.023l0.148,-0.314l0.011,-0.024l0.151,-0.312l0.011,-0.024l0.153,-0.31l0.012,-0.023l0.154,-0.308l0.012,-0.024l0.156,-0.306l0.012,-0.024l0.158,-0.304l0.013,-0.024l0.16,-0.301l0.012,-0.024l0.162,-0.299l0.014,-0.025l0.163,-0.297l0.014,-0.024l0.165,-0.295l0.014,-0.025l0.167,-0.292l0.015,-0.025l0.169,-0.291l0.015,-0.024l0.171,-0.288l0.015,-0.025l0.173,-0.286l0.015,-0.026l0.176,-0.283l0.015,-0.025l0.177,-0.282l0.016,-0.025l0.179,-0.28l0.016,-0.025l0.181,-0.277l0.017,-0.025l0.183,-0.275l0.017,-0.026l0.185,-0.272l0.018,-0.026l0.187,-0.271l0.017,-0.025l0.189,-0.268l0.018,-0.026l0.191,-0.266l0.018,-0.025l0.193,-0.264l0.019,-0.026l0.195,-0.262l0.019,-0.025l0.197,-0.259l0.02,-0.026l0.199,-0.257l0.019,-0.025l0.201,-0.255l0.02,-0.025l0.203,-0.253l0.021,-0.026l0.205,-0.251l0.021,-0.024l0.207,-0.249l0.021,-0.025l0.209,-0.246l0.021,-0.024l0.211,-0.245l0.022,-0.025l0.214,-0.242l0.021,-0.024l0.216,-0.24l0.021,-0.024l0.218,-0.237l0.022,-0.024l0.22,-0.236l0.023,-0.024l0.221,-0.233l0.023,-0.024l0.224,-0.231l0.023,-0.023l0.226,-0.229l0.023,-0.023l0.228,-0.227l0.023,-0.023l0.23,-0.224l0.024,-0.023l0.232,-0.222l0.024,-0.023l0.234,-0.22l0.024,-0.022l0.236,-0.217l0.024,-0.022l0.239,-0.216l0.025,-0.022l0.24,-0.213l0.025,-0.022l0.242,-0.211l0.024,-0.021l0.245,-0.209l0.025,-0.021l0.246,-0.206l0.025,-0.021l0.249,-0.204l0.025,-0.021l0.251,-0.202l0.025,-0.02l0.252,-0.2l0.026,-0.02l0.254,-0.197l0.026,-0.02l0.257,-0.195l0.025,-0.02l0.259,-0.193l0.026,-0.019l0.26,-0.191l0.026,-0.019l0.263,-0.188l0.026,-0.019l0.264,-0.186l0.026,-0.019l0.267,-0.184l0.026,-0.018l0.269,-0.182l0.026,-0.017l0.27,-0.18l0.026,-0.017l0.273,-0.178l0.026,-0.017l0.274,-0.175l0.027,-0.017l0.276,-0.173l0.026,-0.017l0.279,-0.171l0.026,-0.016l0.28,-0.169l0.026,-0.015l0.283,-0.167l0.026,-0.016l0.284,-0.164l0.026,-0.015l0.286,-0.163l0.026,-0.015l0.289,-0.16l0.026,-0.015l0.29,-0.158l0.026,-0.014l0.292,-0.156l0.025,-0.014l0.295,-0.154l0.025,-0.013l0.297,-0.153l0.025,-0.013l0.298,-0.15l0.026,-0.013l0.3,-0.148l0.025,-0.012l0.302,-0.146l0.025,-0.012l0.304,-0.144l0.025,-0.012l0.306,-0.142l0.025,-0.011l0.308,-0.14l0.024,-0.011l0.31,-0.139l0.025,-0.011l0.312,-0.136l0.024,-0.01l0.314,-0.134l0.024,-0.011l0.316,-0.132l0.024,-0.01l0.318,-0.13l0.023,-0.01l0.32,-0.128l0.024,-0.009l0.322,-0.127l0.023,-0.009l0.324,-0.125l0.023,-0.008l0.326,-0.123l0.023,-0.009l0.327,-0.12l0.023,-0.009l0.33,-0.119l0.022,-0.008l0.332,-0.117l0.023,-0.008l0.333,-0.115l0.022,-0.008l0.336,-0.113l0.022,-0.007l0.338,-0.112l0.021,-0.007l0.34,-0.11l0.022,-0.007l0.341,-0.108l0.022,-0.007l0.136,-0.042l-0.003,-0.006l-0.055,-0.154l-0.015,-0.043l-0.052,-0.154l-0.014,-0.042l-0.051,-0.155l-0.014,-0.043l-0.049,-0.155l-0.012,-0.042l-0.047,-0.156l-0.013,-0.043l-0.045,-0.158l-0.012,-0.044l-0.044,-0.159l-0.011,-0.042l-0.041,-0.159l-0.011,-0.042l-0.039,-0.161l-0.011,-0.045l-0.037,-0.161l-0.01,-0.044l-0.035,-0.16l-0.009,-0.043l-0.033,-0.162l-0.009,-0.046l-0.031,-0.163l-0.008,-0.044l-0.029,-0.163l-0.008,-0.044l-0.027,-0.164l-0.007,-0.045l-0.025,-0.165l-0.006,-0.046l-0.023,-0.165l-0.006,-0.044l-0.021,-0.166l-0.005,-0.045l-0.018,-0.167l-0.005,-0.045l-0.017,-0.168l-0.004,-0.046l-0.014,-0.167l-0.004,-0.044l-0.012,-0.168l-0.003,-0.047l-0.01,-0.169l-0.002,-0.044l-0.008,-0.168l-0.001,-0.046l-0.006,-0.17l-0.001,-0.046l-0.004,-0.17l0,-0.045l-0.001,-0.17l0,-0.047l0.001,-0.17l0,-0.045l0.004,-0.17l0.001,-0.046l0.006,-0.17l0.001,-0.046l0.008,-0.168l0.002,-0.044l0.01,-0.169l0.003,-0.048l0.012,-0.167l0.004,-0.044l0.014,-0.167l0.004,-0.047l0.017,-0.167l0.005,-0.045l0.018,-0.167l0.005,-0.045l0.021,-0.166l0.006,-0.044l0.023,-0.165l0.006,-0.046l0.025,-0.165l0.007,-0.045l0.027,-0.164l0.008,-0.044l0.029,-0.163l0.008,-0.044l0.031,-0.163l0.009,-0.046l0.033,-0.162l0.009,-0.043l0.035,-0.16l0.01,-0.044l0.037,-0.161l0.011,-0.046l0.039,-0.16l0.011,-0.042l0.041,-0.159l0.011,-0.043l0.044,-0.158l0.012,-0.044l0.045,-0.158l0.013,-0.043l0.047,-0.156l0.012,-0.042l0.049,-0.155l0.014,-0.043l0.051,-0.155l0.014,-0.042l0.052,-0.154l0.015,-0.043l0.055,-0.154l0.015,-0.042l0.057,-0.152l0.015,-0.04l0.058,-0.151l0.017,-0.042l0.06,-0.15l0.016,-0.041l0.062,-0.149l0.017,-0.04l0.064,-0.149l0.017,-0.04l0.066,-0.148l0.018,-0.041l0.067,-0.146l0.019,-0.039l0.069,-0.146l0.018,-0.039l0.071,-0.144l0.019,-0.039l0.073,-0.144l0.021,-0.04l0.074,-0.143l0.019,-0.036l0.076,-0.141l0.021,-0.039l0.078,-0.141l0.021,-0.038l0.079,-0.14l0.021,-0.036l0.081,-0.138l0.022,-0.037l0.083,-0.137l0.022,-0.036l0.084,-0.137l0.023,-0.037l0.086,-0.135l0.023,-0.036l0.087,-0.133l0.023,-0.035l0.089,-0.133l0.025,-0.036l0.09,-0.132l0.024,-0.035l0.092,-0.129l0.024,-0.034l0.093,-0.129l0.026,-0.035l0.095,-0.128l0.026,-0.034l0.097,-0.127l0.026,-0.034l0.097,-0.125l0.026,-0.032l0.099,-0.124l0.027,-0.034l0.101,-0.123l0.027,-0.032l0.103,-0.122l0.027,-0.033l0.104,-0.12l0.027,-0.031l0.105,-0.119l0.028,-0.031l0.106,-0.118l0.029,-0.031l0.108,-0.117l0.029,-0.031l0.11,-0.116l0.028,-0.03l0.111,-0.113l0.029,-0.03l0.112,-0.113l0.03,-0.03l0.114,-0.111l0.029,-0.028l0.115,-0.11l0.031,-0.03l0.116,-0.109l0.03,-0.028l0.117,-0.107l0.031,-0.027l0.119,-0.106l0.03,-0.027l0.121,-0.105l0.032,-0.028l0.122,-0.103l0.031,-0.027l0.122,-0.101l0.033,-0.027l0.124,-0.1l0.032,-0.026l0.124,-0.099l0.033,-0.025l0.126,-0.097l0.033,-0.025l0.127,-0.096l0.034,-0.026l0.129,-0.094l0.034,-0.025l0.129,-0.092l0.034,-0.024l0.13,-0.092l0.035,-0.023l0.132,-0.09l0.035,-0.024l0.133,-0.088l0.035,-0.023l0.134,-0.087l0.035,-0.022l0.135,-0.086l0.036,-0.022l0.136,-0.083l0.036,-0.022l0.137,-0.082l0.035,-0.021l0.139,-0.081l0.037,-0.02l0.14,-0.08l0.037,-0.02l0.14,-0.078l0.036,-0.019l0.142,-0.076l0.038,-0.02l0.143,-0.074l0.036,-0.019l0.144,-0.073l0.037,-0.018l0.145,-0.071l0.038,-0.018l0.146,-0.07l0.038,-0.018l0.147,-0.067l0.038,-0.017l0.147,-0.066l0.039,-0.017l0.149,-0.064l0.039,-0.017l0.15,-0.062l0.038,-0.016l0.151,-0.061l0.039,-0.016l0.152,-0.059l0.039,-0.015l0.152,-0.057l0.04,-0.015l0.153,-0.055l0.039,-0.014l0.155,-0.054l0.04,-0.013l0.155,-0.052l0.04,-0.014l0.156,-0.05l0.04,-0.012l0.156,-0.049l0.041,-0.012l0.158,-0.047l0.04,-0.011l0.158,-0.045l0.041,-0.011l0.159,-0.043l0.041,-0.011l0.16,-0.041l0.042,-0.01l0.16,-0.039l0.041,-0.01l0.162,-0.037l0.041,-0.01l0.162,-0.035l0.042,-0.009l0.163,-0.033l0.041,-0.008l0.164,-0.032l0.042,-0.008l0.163,-0.029l0.042,-0.007l0.165,-0.028l0.043,-0.007l0.165,-0.025l0.042,-0.006l0.166,-0.024l0.042,-0.006l0.167,-0.021l0.043,-0.006l0.167,-0.019l0.042,-0.005l0.167,-0.018l0.043,-0.004l0.168,-0.015l0.043,-0.004l0.169,-0.013l0.043,-0.004l0.169,-0.011l0.043,-0.003l0.169,-0.009l0.043,-0.002l0.17,-0.008l0.043,-0.001l0.171,-0.005l0.043,-0.001l0.171,-0.004l0.043,0l0.171,-0.001l0.043,0l0.171,0.001Zm-1.515,26.296l-0.404,0.053l-0.401,0.053l-0.399,0.055l-0.396,0.057l-0.393,0.057l-0.392,0.059l-0.388,0.06l-0.387,0.061l-0.383,0.063l-0.382,0.064l-0.378,0.065l-0.377,0.067l-0.374,0.068l-0.372,0.07l-0.369,0.07l-0.367,0.073l-0.364,0.073l-0.362,0.075l-0.36,0.076l-0.357,0.078l-0.355,0.079l-0.352,0.081l-0.351,0.082l-0.348,0.083l-0.345,0.085l-0.343,0.086l-0.341,0.088l-0.339,0.089l-0.336,0.091l-0.334,0.092l-0.332,0.094l-0.329,0.095l-0.327,0.097l-0.325,0.098l-0.323,0.1l-0.32,0.102l-0.318,0.102l-0.316,0.105l-0.314,0.106l-0.311,0.108l-0.309,0.109l-0.307,0.111l-0.305,0.112l-0.303,0.114l-0.3,0.116l-0.299,0.117l-0.296,0.119l-0.294,0.12l-0.291,0.122l-0.29,0.124l-0.288,0.126l-0.285,0.127l-0.283,0.129l-0.281,0.13l-0.279,0.132l-0.277,0.134l-0.275,0.136l-0.273,0.137l-0.271,0.14l-0.268,0.14l-0.267,0.143l-0.264,0.144l-0.263,0.147l-0.26,0.148l-0.258,0.149l-0.257,0.152l-0.254,0.153l-0.252,0.155l-0.25,0.157l-0.249,0.159l-0.246,0.161l-0.244,0.162l-0.243,0.164l-0.24,0.166l-0.238,0.168l-0.237,0.17l-0.234,0.172l-0.233,0.174l-0.231,0.175l-0.228,0.178l-0.227,0.179l-0.225,0.182l-0.223,0.183l-0.221,0.185l-0.219,0.187l-0.218,0.19l-0.215,0.191l-0.214,0.193l-0.212,0.195l-0.209,0.197l-0.208,0.199l-0.207,0.201l-0.204,0.203l-0.203,0.206l-0.2,0.207l-0.199,0.209l-0.198,0.211l-0.195,0.214l-0.194,0.215l-0.192,0.218l-0.19,0.219l-0.188,0.222l-0.186,0.224l-0.185,0.226l-0.183,0.228l-0.182,0.23l-0.179,0.232l-0.178,0.235l-0.177,0.236l-0.174,0.239l-0.173,0.241l-0.171,0.243l-0.169,0.245l-0.168,0.248l-0.166,0.25l-0.165,0.251l-0.163,0.255l-0.161,0.256l-0.16,0.259l-0.157,0.26l-0.157,0.264l-0.155,0.265l-0.153,0.268l-0.151,0.27l-0.15,0.272l-0.149,0.274l-0.146,0.277l-0.146,0.279l-0.143,0.282l-0.142,0.284l-0.141,0.286l-0.139,0.288l-0.137,0.291l-0.136,0.294l-0.135,0.295l-0.133,0.298l-0.131,0.301l-0.13,0.302l-0.129,0.306l-0.127,0.307l-0.126,0.31l-0.124,0.313l-0.122,0.315l-0.122,0.317l-0.119,0.32l-0.119,0.322l-0.117,0.325l-0.115,0.327l-0.114,0.33l-0.113,0.332l-0.111,0.335l-0.11,0.337l-0.109,0.34l-0.107,0.342l-0.106,0.345l-0.104,0.348l-0.103,0.35l-0.102,0.352l-0.101,0.355l-0.099,0.358l-0.098,0.36l-0.096,0.363l-0.095,0.366l-0.094,0.368l-0.093,0.371l-0.091,0.373l-0.09,0.376l-0.089,0.379l-0.087,0.381l-0.087,0.384l-0.085,0.387l-0.084,0.39l-0.082,0.392l-0.082,0.394l-0.08,0.398l-0.079,0.4l-0.077,0.403l-0.077,0.406l-0.075,0.408l-0.074,0.411l-0.073,0.414l-0.072,0.417l-0.071,0.42l-0.07,0.422l-0.068,0.425l-0.067,0.428l-0.067,0.431l-0.065,0.433l-0.064,0.437l-0.062,0.439l-0.062,0.442l-0.061,0.445l-0.059,0.448l-0.059,0.45l-0.057,0.454l-0.057,0.456l-0.055,0.459l-0.054,0.463l-0.054,0.465l-0.052,0.468l-0.051,0.471l-0.05,0.474l-0.05,0.477l-0.048,0.479l-0.047,0.483l-0.046,0.486l-0.046,0.489l-0.044,0.491l-0.043,0.495l-0.043,0.498l-0.041,0.501l-0.041,0.503l-0.039,0.507l-0.039,0.51l-0.038,0.513l-0.036,0.516l-0.036,0.519l-0.035,0.522l-0.034,0.525l-0.034,0.528l-0.032,0.532l-0.032,0.534l-0.03,0.538l-0.03,0.54l-0.029,0.544l-0.029,0.547l-0.027,0.55l-0.026,0.554l-0.026,0.556l-0.025,0.56l-0.024,0.563l-0.024,0.566l-0.022,0.569l-0.022,0.572l-0.021,0.576l-0.02,0.579l-0.02,0.582l-0.019,0.585l-0.018,0.589l-0.017,0.592l-0.016,0.595l-0.016,0.598l-0.016,0.602l-0.014,0.605l-0.014,0.608l-0.013,0.611l-0.024,1.234l-0.022,1.246l-0.019,1.26l-0.016,1.273l-0.014,1.287l-0.002,0.084l-0.002,0.085l-0.004,0.086l-0.006,0.085l-0.006,0.087l-0.008,0.086l-0.009,0.087l-0.011,0.088l-0.011,0.088l-0.013,0.089l-0.014,0.089l-0.015,0.089l-0.017,0.09l-0.017,0.09l-0.019,0.091l-0.02,0.091l-0.021,0.091l-0.022,0.092l-0.024,0.092l-0.024,0.093l-0.026,0.092l-0.026,0.094l-0.028,0.093l-0.029,0.094l-0.03,0.095l-0.031,0.094l-0.032,0.095l-0.033,0.096l-0.034,0.095l-0.035,0.096l-0.036,0.096l-0.037,0.097l-0.038,0.097l-0.039,0.097l-0.04,0.097l-0.041,0.098l-0.041,0.098l-0.043,0.098l-0.088,0.197l-0.092,0.198l-0.096,0.199l-0.099,0.2l-0.102,0.201l-0.105,0.201l-0.109,0.202l-0.112,0.203l-0.114,0.203l-0.118,0.204l-0.121,0.204l-0.123,0.205l-0.126,0.205l-0.129,0.206l-0.131,0.206l-0.134,0.206l-0.136,0.206l-0.138,0.206l-0.141,0.207l-0.142,0.206l-0.145,0.207l-0.147,0.206l-0.148,0.206l-0.151,0.206l-0.152,0.206l-0.153,0.206l-0.156,0.205l-0.156,0.205l-0.158,0.204l-0.16,0.204l-0.16,0.203l-0.162,0.203l-0.163,0.202l-0.163,0.202l-0.165,0.201l-0.166,0.199l-0.166,0.199l-0.167,0.199l-0.167,0.197l-0.168,0.196l-0.168,0.195l-0.169,0.194l-0.168,0.193l-0.169,0.192l-0.169,0.19l-0.169,0.189l-0.169,0.188l-0.169,0.186l-0.169,0.185l-0.168,0.183l-0.167,0.182l-0.334,0.358l-0.331,0.352l-0.328,0.344l-0.324,0.337l-0.319,0.328l-0.314,0.32l-0.308,0.311l-0.301,0.302l-0.294,0.292l-0.286,0.281l-0.278,0.271l-0.268,0.26l-0.258,0.248l-0.248,0.237l-0.237,0.224l-0.224,0.212l-0.212,0.198l-0.199,0.185l-0.185,0.171l-0.326,0.299l-0.263,0.238l-0.194,0.174l-0.162,0.144l115.963,0l-0.048,-0.03l-0.136,-0.086l-0.218,-0.14l-0.295,-0.19l-0.173,-0.114l-0.191,-0.126l-0.207,-0.137l-0.222,-0.149l-0.237,-0.159l-0.251,-0.171l-0.264,-0.181l-0.277,-0.191l-0.289,-0.201l-0.299,-0.21l-0.31,-0.22l-0.319,-0.229l-0.328,-0.238l-0.337,-0.246l-0.343,-0.254l-0.351,-0.262l-0.356,-0.27l-0.362,-0.277l-0.366,-0.283l-0.184,-0.145l-0.186,-0.146l-0.186,-0.148l-0.187,-0.149l-0.187,-0.151l-0.188,-0.152l-0.188,-0.154l-0.189,-0.155l-0.188,-0.156l-0.189,-0.158l-0.189,-0.159l-0.189,-0.161l-0.189,-0.161l-0.188,-0.163l-0.188,-0.164l-0.188,-0.166l-0.187,-0.166l-0.187,-0.167l-0.186,-0.169l-0.185,-0.169l-0.184,-0.17l-0.183,-0.171l-0.183,-0.172l-0.181,-0.173l-0.179,-0.174l-0.179,-0.174l-0.177,-0.176l-0.175,-0.176l-0.174,-0.176l-0.173,-0.177l-0.17,-0.178l-0.169,-0.178l-0.166,-0.179l-0.165,-0.179l-0.162,-0.18l-0.16,-0.18l-0.158,-0.181l-0.156,-0.18l-0.152,-0.182l-0.151,-0.181l-0.147,-0.181l-0.145,-0.182l-0.142,-0.182l-0.139,-0.182l-0.136,-0.182l-0.132,-0.182l-0.13,-0.183l-0.126,-0.182l-0.123,-0.182l-0.119,-0.182l-0.058,-0.09l-0.058,-0.091l-0.056,-0.091l-0.055,-0.091l-0.055,-0.091l-0.054,-0.09l-0.052,-0.091l-0.052,-0.09l-0.05,-0.091l-0.05,-0.09l-0.049,-0.091l-0.047,-0.09l-0.047,-0.09l-0.045,-0.09l-0.045,-0.09l-0.043,-0.09l-0.042,-0.089l-0.042,-0.09l-0.04,-0.09l-0.039,-0.089l-0.037,-0.089l-0.037,-0.089l-0.036,-0.089l-0.034,-0.089l-0.033,-0.089l-0.032,-0.088l-0.031,-0.089l-0.03,-0.088l-0.028,-0.088l-0.027,-0.088l-0.026,-0.088l-0.025,-0.087l-0.023,-0.088l-0.022,-0.087l-0.021,-0.087l-0.02,-0.087l-0.018,-0.086l-0.017,-0.087l-0.015,-0.086l-0.015,-0.086l-0.012,-0.086l-0.012,-0.085l-0.01,-0.085l-0.009,-0.085l-0.007,-0.085l-0.006,-0.085l-0.005,-0.084l-0.003,-0.084l-0.066,-2.388l-0.068,-2.342l-0.034,-1.153l-0.035,-1.142l-0.035,-1.13l-0.036,-1.119l-0.037,-1.107l-0.038,-1.097l-0.039,-1.085l-0.04,-1.074l-0.041,-1.063l-0.043,-1.052l-0.044,-1.041l-0.046,-1.03l-0.048,-1.02l-0.049,-1.008l-0.052,-0.998l-0.053,-0.988l-0.056,-0.977l-0.057,-0.966l-0.03,-0.48l-0.031,-0.476l-0.031,-0.475l-0.032,-0.471l-0.032,-0.469l-0.033,-0.467l-0.034,-0.464l-0.034,-0.461l-0.035,-0.459l-0.036,-0.456l-0.037,-0.454l-0.037,-0.451l-0.038,-0.449l-0.039,-0.447l-0.04,-0.443l-0.041,-0.442l-0.041,-0.439l-0.042,-0.436l-0.043,-0.434l-0.044,-0.432l-0.045,-0.429l-0.045,-0.426l-0.047,-0.425l-0.048,-0.422l-0.048,-0.419l-0.049,-0.417l-0.051,-0.415l-0.051,-0.412l-0.053,-0.41l-0.053,-0.408l-0.054,-0.405l-0.056,-0.403l-0.056,-0.4l-0.058,-0.398l-0.058,-0.396l-0.06,-0.394l-0.061,-0.391l-0.062,-0.389l-0.063,-0.387l-0.064,-0.384l-0.065,-0.383l-0.067,-0.379l-0.067,-0.378l-0.069,-0.376l-0.07,-0.373l-0.072,-0.371l-0.072,-0.368l-0.074,-0.367l-0.075,-0.364l-0.077,-0.362l-0.078,-0.36l-0.079,-0.358l-0.08,-0.356l-0.082,-0.353l-0.083,-0.351l-0.084,-0.349l-0.086,-0.347l-0.087,-0.345l-0.089,-0.343l-0.09,-0.341l-0.092,-0.338l-0.093,-0.336l-0.094,-0.335l-0.096,-0.332l-0.097,-0.33l-0.099,-0.328l-0.101,-0.326l-0.102,-0.324l-0.103,-0.322l-0.105,-0.32l-0.107,-0.318l-0.108,-0.316l-0.11,-0.314l-0.112,-0.312l-0.113,-0.31l-0.115,-0.308l-0.116,-0.306l-0.119,-0.304l-0.119,-0.302l-0.122,-0.3l-0.123,-0.298l-0.125,-0.296l-0.127,-0.294l-0.129,-0.293l-0.13,-0.29l-0.132,-0.289l-0.134,-0.286l-0.136,-0.285l-0.137,-0.283l-0.14,-0.281l-0.141,-0.279l-0.143,-0.278l-0.145,-0.275l-0.147,-0.274l-0.149,-0.272l-0.151,-0.27l-0.153,-0.268l-0.154,-0.266l-0.157,-0.265l-0.159,-0.263l-0.16,-0.261l-0.163,-0.259l-0.165,-0.257l-0.167,-0.256l-0.169,-0.254l-0.17,-0.253l-0.173,-0.25l-0.176,-0.249l-0.177,-0.247l-0.179,-0.246l-0.182,-0.243l-0.183,-0.242l-0.186,-0.241l-0.188,-0.238l-0.19,-0.237l-0.193,-0.236l-0.194,-0.234l-0.197,-0.232l-0.199,-0.23l-0.202,-0.229l-0.203,-0.227l-0.206,-0.226l-0.209,-0.224l-0.21,-0.223l-0.213,-0.22l-0.216,-0.22l-0.217,-0.217l-0.22,-0.217l-0.223,-0.214l-0.225,-0.213l-0.227,-0.212l-0.23,-0.21l-0.232,-0.209l-0.234,-0.207l-0.238,-0.205l-0.239,-0.204l-0.242,-0.203l-0.245,-0.201l-0.247,-0.2l-0.25,-0.198l-0.252,-0.197l-0.255,-0.195l-0.258,-0.194l-0.26,-0.192l-0.262,-0.191l-0.266,-0.19l-0.268,-0.188l-0.27,-0.187l-0.274,-0.185l-0.276,-0.185l-0.278,-0.182l-0.282,-0.182l-0.284,-0.18l-0.287,-0.178l-0.289,-0.178l-0.293,-0.176l-0.295,-0.174l-0.298,-0.174l-0.301,-0.172l-0.304,-0.171l-0.306,-0.169l-0.309,-0.168l-0.313,-0.167l-0.315,-0.166l-0.318,-0.165l-0.321,-0.163l-0.324,-0.162l-0.327,-0.161l-0.329,-0.159l-0.333,-0.158l-0.336,-0.158l-0.338,-0.156l-0.342,-0.154l-0.345,-0.154l-0.348,-0.152l-0.351,-0.152l-0.354,-0.15l-0.357,-0.149l-0.36,-0.147l-0.363,-0.147l-0.366,-0.146l-0.37,-0.144l-0.372,-0.144l-0.376,-0.142l-0.379,-0.141l-0.382,-0.14l-0.386,-0.139l-0.388,-0.138l-0.392,-0.137l-0.395,-0.136l-0.399,-0.135l-0.401,-0.134l-0.405,-0.133l-0.409,-0.131l-0.411,-0.131l-0.415,-0.13l-0.418,-0.129l-0.422,-0.128l-0.425,-0.126l-0.428,-0.126l-0.432,-0.125l-0.435,-0.124l-0.439,-0.123l-0.442,-0.122l-0.446,-0.122l-0.449,-0.12l-0.452,-0.119l-0.456,-0.119l-0.46,-0.117l-0.463,-0.117l-0.466,-0.116l-0.47,-0.115l-0.132,0.034Zm1.194,-19.296l-0.127,0.002l-0.128,0.004l-0.127,0.005l-0.127,0.007l-0.126,0.009l-0.126,0.01l-0.125,0.012l-0.125,0.013l-0.124,0.014l-0.124,0.016l-0.124,0.018l-0.122,0.019l-0.123,0.02l-0.122,0.022l-0.121,0.024l-0.121,0.024l-0.12,0.027l-0.12,0.027l-0.119,0.029l-0.119,0.031l-0.118,0.031l-0.118,0.034l-0.117,0.034l-0.116,0.036l-0.115,0.037l-0.115,0.039l-0.115,0.04l-0.113,0.041l-0.113,0.042l-0.113,0.044l-0.112,0.045l-0.111,0.047l-0.11,0.047l-0.109,0.049l-0.109,0.05l-0.108,0.052l-0.108,0.052l-0.107,0.054l-0.105,0.055l-0.106,0.056l-0.104,0.058l-0.103,0.058l-0.103,0.06l-0.102,0.061l-0.101,0.062l-0.101,0.063l-0.099,0.065l-0.099,0.065l-0.097,0.067l-0.097,0.067l-0.096,0.069l-0.096,0.07l-0.094,0.071l-0.093,0.072l-0.093,0.073l-0.091,0.074l-0.091,0.076l-0.089,0.076l-0.089,0.077l-0.088,0.078l-0.086,0.08l-0.086,0.08l-0.085,0.081l-0.084,0.082l-0.082,0.084l-0.082,0.084l-0.081,0.085l-0.079,0.086l-0.079,0.087l-0.077,0.088l-0.077,0.088l-0.075,0.09l-0.074,0.09l-0.074,0.092l-0.072,0.092l-0.071,0.093l-0.069,0.094l-0.069,0.095l-0.068,0.096l-0.066,0.096l-0.065,0.098l-0.064,0.098l-0.063,0.099l-0.062,0.099l-0.06,0.101l-0.059,0.101l-0.058,0.102l-0.057,0.103l-0.055,0.103l-0.055,0.104l-0.053,0.105l-0.051,0.106l-0.051,0.106l-0.049,0.107l-0.047,0.108l-0.047,0.108l-0.045,0.109l-0.044,0.11l-0.042,0.11l-0.041,0.111l-0.04,0.112l-0.039,0.112l-0.037,0.113l-0.035,0.113l-0.034,0.114l-0.033,0.114l-0.031,0.116l-0.03,0.115l-0.029,0.116l-0.027,0.117l-0.025,0.117l-0.024,0.118l-0.023,0.118l-0.021,0.119l-0.02,0.119l-0.018,0.12l-0.016,0.12l-0.015,0.121l-0.014,0.121l-0.012,0.122l-0.01,0.122l-0.009,0.122l-0.007,0.123l-0.006,0.123l-0.004,0.124l-0.002,0.124l-0.001,0.124l0.001,0.125l0.002,0.124l0.004,0.124l0.006,0.123l0.007,0.123l0.009,0.122l0.01,0.122l0.012,0.122l0.014,0.121l0.015,0.12l0.016,0.121l0.018,0.119l0.02,0.12l0.021,0.118l0.023,0.119l0.024,0.118l0.025,0.117l0.027,0.117l0.029,0.116l0.03,0.115l0.031,0.115l0.033,0.115l0.034,0.114l0.035,0.113l0.037,0.113l0.039,0.112l0.04,0.112l0.041,0.111l0.042,0.11l0.044,0.11l0.045,0.109l0.047,0.108l0.047,0.108l0.049,0.107l0.051,0.106l0.051,0.106l0.053,0.105l0.055,0.104l0.055,0.103l0.057,0.103l0.058,0.102l0.059,0.101l0.06,0.101l0.062,0.099l0.063,0.099l0.064,0.098l0.065,0.098l0.066,0.096l0.068,0.096l0.069,0.095l0.069,0.094l0.071,0.093l0.072,0.092l0.074,0.091l0.074,0.091l0.075,0.09l0.077,0.088l0.077,0.088l0.079,0.087l0.079,0.086l0.081,0.085l0.082,0.084l0.082,0.084l0.084,0.082l0.085,0.081l0.086,0.08l0.086,0.079l0.088,0.079l0.089,0.077l0.089,0.076l0.091,0.075l0.091,0.075l0.093,0.073l0.093,0.072l0.094,0.071l0.096,0.07l0.096,0.068l0.097,0.068l0.097,0.067l0.099,0.065l0.099,0.065l0.101,0.063l0.101,0.062l0.102,0.061l0.103,0.06l0.103,0.058l0.104,0.058l0.106,0.056l0.105,0.055l0.107,0.054l0.108,0.052l0.108,0.052l0.109,0.05l0.109,0.049l0.11,0.047l0.111,0.047l0.112,0.045l0.113,0.044l0.113,0.042l0.113,0.041l0.115,0.04l0.115,0.039l0.115,0.037l0.116,0.036l0.117,0.034l0.118,0.033l0.118,0.032l0.119,0.031l0.119,0.029l0.12,0.027l0.12,0.027l0.121,0.024l0.121,0.024l0.122,0.022l0.123,0.02l0.122,0.019l0.124,0.018l0.124,0.016l0.124,0.014l0.125,0.013l0.125,0.012l0.126,0.01l0.126,0.009l0.127,0.007l0.127,0.005l0.128,0.004l0.127,0.002l0.129,0.001l0.128,-0.001l0.128,-0.002l0.127,-0.004l0.127,-0.005l0.127,-0.007l0.126,-0.009l0.126,-0.01l0.125,-0.012l0.125,-0.013l0.125,-0.014l0.124,-0.016l0.123,-0.018l0.123,-0.019l0.122,-0.02l0.122,-0.022l0.122,-0.024l0.121,-0.024l0.12,-0.027l0.12,-0.027l0.119,-0.029l0.119,-0.031l0.118,-0.032l0.117,-0.033l0.117,-0.034l0.116,-0.036l0.116,-0.037l0.115,-0.039l0.114,-0.04l0.114,-0.041l0.113,-0.042l0.112,-0.044l0.112,-0.045l0.111,-0.047l0.11,-0.047l0.11,-0.049l0.109,-0.05l0.108,-0.052l0.107,-0.052l0.107,-0.054l0.106,-0.055l0.105,-0.056l0.104,-0.058l0.104,-0.058l0.103,-0.06l0.102,-0.061l0.101,-0.062l0.1,-0.063l0.099,-0.065l0.099,-0.065l0.098,-0.067l0.097,-0.068l0.096,-0.068l0.095,-0.07l0.094,-0.071l0.094,-0.072l0.092,-0.073l0.091,-0.075l0.091,-0.075l0.09,-0.076l0.088,-0.077l0.088,-0.079l0.087,-0.079l0.085,-0.08l0.085,-0.081l0.084,-0.082l0.083,-0.084l0.081,-0.084l0.081,-0.085l0.08,-0.086l0.078,-0.087l0.078,-0.088l0.076,-0.088l0.076,-0.09l0.074,-0.091l0.073,-0.091l0.072,-0.092l0.071,-0.093l0.07,-0.094l0.068,-0.095l0.068,-0.096l0.066,-0.096l0.066,-0.098l0.064,-0.098l0.062,-0.099l0.062,-0.099l0.06,-0.101l0.06,-0.101l0.058,-0.102l0.056,-0.103l0.056,-0.103l0.054,-0.104l0.053,-0.105l0.052,-0.106l0.05,-0.106l0.049,-0.107l0.048,-0.108l0.046,-0.108l0.046,-0.109l0.043,-0.11l0.043,-0.11l0.041,-0.111l0.04,-0.112l0.038,-0.112l0.037,-0.113l0.036,-0.113l0.034,-0.114l0.033,-0.115l0.031,-0.115l0.03,-0.115l0.028,-0.116l0.027,-0.117l0.026,-0.117l0.024,-0.118l0.023,-0.119l0.021,-0.118l0.019,-0.12l0.018,-0.119l0.017,-0.121l0.015,-0.12l0.013,-0.121l0.012,-0.122l0.011,-0.122l0.009,-0.122l0.007,-0.123l0.005,-0.123l0.004,-0.124l0.003,-0.124l0.001,-0.125l-0.001,-0.124l-0.003,-0.124l-0.004,-0.124l-0.005,-0.123l-0.007,-0.123l-0.009,-0.122l-0.011,-0.122l-0.012,-0.122l-0.013,-0.121l-0.015,-0.121l-0.017,-0.12l-0.018,-0.12l-0.019,-0.119l-0.021,-0.119l-0.023,-0.118l-0.024,-0.118l-0.026,-0.117l-0.027,-0.117l-0.028,-0.116l-0.03,-0.115l-0.031,-0.116l-0.033,-0.114l-0.034,-0.114l-0.036,-0.113l-0.037,-0.113l-0.038,-0.112l-0.04,-0.112l-0.041,-0.111l-0.043,-0.11l-0.043,-0.11l-0.046,-0.109l-0.046,-0.108l-0.048,-0.108l-0.049,-0.107l-0.05,-0.106l-0.052,-0.106l-0.053,-0.105l-0.054,-0.104l-0.056,-0.103l-0.056,-0.103l-0.058,-0.102l-0.06,-0.101l-0.06,-0.101l-0.062,-0.099l-0.062,-0.099l-0.064,-0.098l-0.066,-0.098l-0.066,-0.096l-0.068,-0.096l-0.068,-0.095l-0.07,-0.094l-0.071,-0.093l-0.072,-0.092l-0.073,-0.092l-0.074,-0.09l-0.076,-0.09l-0.076,-0.088l-0.078,-0.088l-0.078,-0.087l-0.08,-0.086l-0.081,-0.085l-0.081,-0.084l-0.083,-0.084l-0.084,-0.082l-0.085,-0.081l-0.085,-0.08l-0.087,-0.08l-0.088,-0.078l-0.088,-0.077l-0.09,-0.076l-0.091,-0.076l-0.091,-0.074l-0.092,-0.073l-0.094,-0.072l-0.094,-0.071l-0.095,-0.07l-0.096,-0.069l-0.097,-0.067l-0.098,-0.067l-0.099,-0.065l-0.099,-0.065l-0.1,-0.063l-0.101,-0.062l-0.102,-0.061l-0.103,-0.06l-0.104,-0.058l-0.104,-0.058l-0.105,-0.056l-0.106,-0.055l-0.107,-0.054l-0.107,-0.052l-0.108,-0.052l-0.109,-0.05l-0.11,-0.049l-0.11,-0.047l-0.111,-0.047l-0.112,-0.045l-0.112,-0.044l-0.113,-0.042l-0.114,-0.041l-0.114,-0.04l-0.115,-0.039l-0.116,-0.037l-0.116,-0.036l-0.117,-0.034l-0.117,-0.034l-0.118,-0.031l-0.119,-0.031l-0.119,-0.029l-0.12,-0.027l-0.12,-0.027l-0.121,-0.024l-0.122,-0.024l-0.122,-0.022l-0.122,-0.02l-0.123,-0.019l-0.123,-0.018l-0.124,-0.016l-0.125,-0.014l-0.125,-0.013l-0.125,-0.012l-0.126,-0.01l-0.126,-0.009l-0.127,-0.007l-0.127,-0.005l-0.127,-0.004l-0.128,-0.002l-0.128,-0.001l-0.129,0.001Z" style="fill:#fff;"/></g></g></svg>