<?xml version="1.0" encoding="UTF-8"?>
<svg width="355px" height="491px" viewBox="0 0 355 491" version="1.1" xmlns="http://www.w3.org/2000/svg" xmlns:xlink="http://www.w3.org/1999/xlink">
    <!-- Generator: Sketch 48.2 (47327) - http://www.bohemiancoding.com/sketch -->
    <title>tour-phone</title>
    <desc>Created with Sketch.</desc>
    <defs></defs>
    <g id="Page-1" stroke="none" stroke-width="1" fill="none" fill-rule="evenodd">
        <g id="tour-phone">
            <g id="Phone">
                <g id="Group">
                    <path d="M264.716,33.481 C264.716,19.296 253.2,7.779 239.015,7.779 L33.402,7.779 C19.217,7.779 7.7,19.296 7.7,33.481 L7.7,458.234 C7.7,472.419 19.217,483.936 33.402,483.936 L239.015,483.936 C253.2,483.936 264.716,472.419 264.716,458.234 L264.716,33.481 Z" id="Shape" fill-opacity="0.517647" fill="#412B2E"></path>
                    <path d="M239.032,0.779 L239.214,0.78 L239.237,0.78 L239.425,0.782 L239.447,0.782 L239.634,0.785 L239.657,0.786 L239.844,0.79 L239.866,0.79 L240.054,0.796 L240.076,0.796 L240.263,0.803 L240.285,0.804 L240.472,0.811 L240.494,0.812 L240.68,0.821 L240.703,0.822 L240.889,0.832 L240.911,0.834 L241.097,0.845 L241.119,0.846 L241.304,0.859 L241.327,0.86 L241.512,0.874 L241.534,0.875 L241.719,0.89 L241.741,0.892 L241.926,0.908 L241.948,0.91 L242.132,0.927 L242.154,0.929 L242.338,0.947 L242.36,0.949 L242.544,0.968 L242.566,0.971 L242.75,0.991 L242.772,0.994 L242.955,1.015 L242.977,1.018 L243.159,1.041 L243.181,1.043 L243.364,1.067 L243.385,1.07 L243.567,1.095 L243.589,1.098 L243.771,1.124 L243.793,1.127 L243.974,1.155 L243.996,1.158 L244.177,1.186 L244.199,1.19 L244.38,1.219 L244.401,1.223 L244.582,1.253 L244.603,1.257 L244.783,1.288 L244.805,1.292 L244.985,1.325 L245.006,1.329 L245.185,1.363 L245.207,1.367 L245.386,1.402 L245.408,1.406 L245.586,1.442 L245.607,1.447 L245.785,1.484 L245.807,1.488 L245.985,1.526 L246.006,1.531 L246.183,1.57 L246.205,1.575 L246.382,1.615 L246.403,1.62 L246.579,1.661 L246.601,1.667 L246.777,1.709 L246.798,1.714 L246.974,1.758 L246.995,1.763 L247.17,1.808 L247.192,1.813 L247.366,1.859 L247.387,1.864 L247.562,1.911 L247.583,1.917 L247.757,1.964 L247.778,1.97 L247.951,2.019 L247.972,2.025 L248.145,2.075 L248.166,2.081 L248.339,2.131 L248.36,2.138 L248.532,2.19 L248.553,2.196 L248.725,2.249 L248.745,2.255 L248.917,2.309 L248.937,2.316 L249.108,2.371 L249.129,2.377 L249.299,2.433 L249.32,2.44 L249.49,2.497 L249.51,2.504 L249.68,2.562 L249.7,2.569 L249.869,2.628 L249.889,2.635 L250.058,2.695 L250.079,2.703 L250.247,2.764 L250.267,2.771 L250.434,2.833 L250.455,2.841 L250.622,2.904 L250.641,2.911 L250.808,2.975 L250.828,2.983 L250.995,3.048 L251.015,3.056 L251.18,3.122 L251.2,3.13 L251.365,3.197 L251.385,3.205 L251.55,3.273 L251.57,3.281 L251.734,3.35 L251.754,3.358 L251.917,3.428 L251.936,3.436 L252.1,3.507 L252.119,3.516 L252.282,3.588 L252.302,3.596 L252.464,3.669 L252.483,3.678 L252.645,3.752 L252.664,3.761 L252.825,3.835 L252.844,3.844 L253.005,3.92 L253.024,3.929 L253.184,4.005 L253.203,4.015 L253.363,4.092 L253.382,4.101 L253.54,4.18 L253.56,4.19 L253.718,4.269 L253.737,4.278 L253.894,4.358 L253.913,4.368 L254.071,4.449 L254.09,4.459 L254.246,4.541 L254.265,4.551 L254.421,4.634 L254.44,4.644 L254.595,4.728 L254.613,4.738 L254.768,4.823 L254.787,4.833 L254.942,4.919 L254.96,4.929 L255.113,5.016 L255.132,5.026 L255.285,5.114 L255.304,5.124 L255.456,5.213 L255.474,5.223 L255.626,5.312 L255.645,5.323 L255.796,5.414 L255.814,5.424 L255.965,5.516 L255.983,5.526 L256.133,5.618 L256.151,5.629 L256.301,5.722 L256.319,5.733 L256.468,5.827 L256.485,5.838 L256.634,5.933 L256.651,5.944 L256.799,6.04 L256.817,6.051 L256.964,6.147 L256.982,6.159 L257.128,6.256 L257.146,6.268 L257.291,6.366 L257.309,6.377 L257.454,6.476 L257.471,6.488 L257.616,6.588 L257.634,6.6 L257.778,6.7 L257.795,6.713 L257.938,6.814 L257.955,6.826 L258.098,6.928 L258.115,6.94 L258.257,7.043 L258.274,7.056 L258.416,7.16 L258.432,7.172 L258.573,7.277 L258.59,7.289 L258.73,7.394 L258.747,7.407 L258.886,7.514 L258.903,7.526 L259.042,7.633 L259.058,7.646 L259.196,7.754 L259.213,7.767 L259.35,7.876 L259.367,7.889 L259.503,7.998 L259.52,8.012 L259.656,8.122 L259.672,8.135 L259.807,8.246 L259.823,8.259 L259.958,8.371 L259.975,8.385 L260.109,8.498 L260.124,8.511 L260.258,8.624 L260.274,8.638 L260.406,8.752 L260.422,8.766 L260.554,8.881 L260.57,8.895 L260.702,9.011 L260.717,9.024 L260.847,9.141 L260.863,9.155 L260.993,9.273 L261.009,9.287 L261.138,9.405 L261.153,9.419 L261.281,9.538 L261.296,9.552 L261.424,9.671 L261.44,9.686 L261.567,9.807 L261.582,9.821 L261.708,9.942 L261.723,9.956 L261.849,10.078 L261.863,10.093 L261.988,10.215 L262.004,10.231 L262.128,10.354 L262.142,10.369 L262.266,10.493 L262.28,10.507 L262.403,10.632 L262.417,10.647 L262.539,10.772 L262.554,10.788 L262.675,10.914 L262.69,10.929 L262.81,11.056 L262.824,11.072 L262.944,11.199 L262.958,11.214 L263.077,11.343 L263.091,11.358 L263.209,11.488 L263.223,11.503 L263.341,11.633 L263.355,11.649 L263.471,11.779 L263.485,11.794 L263.601,11.926 L263.614,11.941 L263.729,12.073 L263.743,12.089 L263.858,12.222 L263.871,12.238 L263.985,12.372 L263.999,12.388 L264.111,12.522 L264.124,12.537 L264.236,12.672 L264.249,12.688 L264.361,12.824 L264.374,12.84 L264.484,12.976 L264.497,12.992 L264.607,13.129 L264.62,13.146 L264.729,13.283 L264.742,13.3 L264.849,13.438 L264.862,13.454 L264.969,13.593 L264.982,13.609 L265.089,13.749 L265.101,13.766 L265.207,13.906 L265.22,13.923 L265.324,14.064 L265.336,14.08 L265.44,14.222 L265.452,14.239 L265.556,14.381 L265.568,14.398 L265.67,14.541 L265.682,14.557 L265.783,14.701 L265.796,14.718 L265.896,14.862 L265.908,14.879 L266.008,15.024 L266.02,15.042 L266.118,15.187 L266.13,15.204 L266.228,15.35 L266.24,15.368 L266.337,15.514 L266.349,15.532 L266.445,15.679 L266.456,15.697 L266.552,15.845 L266.563,15.862 L266.658,16.011 L266.669,16.028 L266.763,16.177 L266.774,16.195 L266.866,16.345 L266.877,16.362 L266.969,16.513 L266.98,16.531 L267.071,16.682 L267.082,16.7 L267.172,16.851 L267.183,16.869 L267.273,17.021 L267.283,17.04 L267.372,17.192 L267.382,17.211 L267.47,17.364 L267.48,17.382 L267.566,17.536 L267.577,17.555 L267.663,17.709 L267.673,17.728 L267.758,17.882 L267.768,17.901 L267.852,18.056 L267.862,18.075 L267.945,18.231 L267.955,18.25 L268.037,18.406 L268.046,18.425 L268.128,18.582 L268.137,18.601 L268.218,18.759 L268.227,18.778 L268.307,18.936 L268.316,18.956 L268.394,19.114 L268.403,19.133 L268.481,19.292 L268.49,19.312 L268.567,19.472 L268.576,19.491 L268.652,19.652 L268.661,19.671 L268.735,19.832 L268.744,19.851 L268.818,20.013 L268.827,20.032 L268.899,20.194 L268.908,20.214 L268.98,20.377 L268.988,20.396 L269.059,20.559 L269.068,20.578 L269.137,20.742 L269.146,20.762 L269.215,20.926 L269.223,20.947 L269.291,21.111 L269.299,21.13 L269.366,21.295 L269.374,21.315 L269.44,21.481 L269.448,21.501 L269.513,21.668 L269.521,21.688 L269.585,21.854 L269.592,21.874 L269.655,22.041 L269.663,22.062 L269.725,22.23 L269.732,22.249 L269.793,22.417 L269.8,22.438 L269.86,22.606 L269.868,22.627 L269.927,22.796 L269.934,22.816 L269.992,22.985 L269.999,23.006 L270.056,23.176 L270.063,23.197 L270.119,23.368 L270.125,23.388 L270.18,23.559 L270.187,23.579 L270.24,23.75 L270.247,23.771 L270.3,23.943 L270.306,23.963 L270.358,24.136 L270.364,24.157 L270.415,24.33 L270.421,24.351 L270.471,24.523 L270.477,24.544 L270.526,24.718 L270.531,24.739 L270.579,24.913 L270.585,24.935 L270.632,25.109 L270.637,25.13 L270.683,25.305 L270.688,25.326 L270.733,25.501 L270.738,25.521 L270.782,25.697 L270.787,25.719 L270.829,25.896 L270.834,25.917 L270.876,26.093 L270.881,26.114 L270.921,26.291 L270.926,26.312 L270.965,26.489 L270.97,26.511 L271.008,26.689 L271.012,26.71 L271.049,26.888 L271.054,26.91 L271.09,27.088 L271.094,27.11 L271.129,27.289 L271.133,27.311 L271.167,27.489 L271.171,27.511 L271.203,27.69 L271.207,27.712 L271.239,27.892 L271.243,27.914 L271.273,28.095 L271.277,28.116 L271.306,28.297 L271.31,28.318 L271.338,28.499 L271.341,28.521 L271.369,28.703 L271.372,28.725 L271.398,28.906 L271.401,28.928 L271.426,29.11 L271.429,29.133 L271.452,29.315 L271.455,29.337 L271.478,29.519 L271.48,29.541 L271.502,29.724 L271.505,29.746 L271.525,29.93 L271.527,29.953 L271.547,30.136 L271.549,30.157 L271.567,30.341 L271.569,30.363 L271.586,30.548 L271.588,30.57 L271.604,30.755 L271.606,30.778 L271.62,30.962 L271.622,30.984 L271.636,31.169 L271.637,31.191 L271.65,31.377 L271.651,31.4 L271.662,31.585 L271.663,31.607 L271.673,31.793 L271.675,31.815 L271.683,32.001 L271.684,32.024 L271.692,32.211 L271.693,32.234 L271.7,32.42 L271.7,32.442 L271.706,32.629 L271.706,32.652 L271.71,32.839 L271.711,32.861 L271.714,33.049 L271.714,33.071 L271.716,33.259 L271.716,33.282 L271.716,33.465 L271.716,33.476 L271.716,458.24 L271.716,458.251 L271.716,458.434 L271.716,458.456 L271.714,458.644 L271.714,458.666 L271.711,458.854 L271.71,458.876 L271.706,459.064 L271.706,459.086 L271.7,459.274 L271.7,459.295 L271.693,459.482 L271.692,459.504 L271.684,459.691 L271.683,459.714 L271.675,459.901 L271.673,459.922 L271.663,460.108 L271.662,460.13 L271.651,460.316 L271.65,460.338 L271.637,460.524 L271.636,460.547 L271.622,460.732 L271.62,460.753 L271.606,460.938 L271.604,460.96 L271.588,461.145 L271.586,461.167 L271.569,461.352 L271.567,461.374 L271.549,461.558 L271.547,461.579 L271.527,461.763 L271.525,461.785 L271.505,461.969 L271.502,461.992 L271.48,462.175 L271.478,462.196 L271.455,462.379 L271.452,462.4 L271.429,462.583 L271.426,462.605 L271.401,462.787 L271.398,462.809 L271.372,462.991 L271.368,463.012 L271.341,463.194 L271.338,463.216 L271.31,463.397 L271.306,463.418 L271.277,463.599 L271.273,463.621 L271.243,463.801 L271.239,463.823 L271.207,464.003 L271.203,464.025 L271.171,464.205 L271.167,464.226 L271.133,464.405 L271.129,464.426 L271.094,464.605 L271.09,464.627 L271.054,464.806 L271.049,464.827 L271.012,465.005 L271.008,465.026 L270.97,465.204 L270.965,465.226 L270.925,465.404 L270.921,465.424 L270.881,465.601 L270.876,465.622 L270.834,465.799 L270.829,465.82 L270.787,465.996 L270.782,466.018 L270.738,466.194 L270.733,466.215 L270.688,466.39 L270.683,466.411 L270.637,466.585 L270.632,466.606 L270.585,466.781 L270.579,466.803 L270.531,466.977 L270.526,466.997 L270.477,467.171 L270.471,467.192 L270.421,467.365 L270.415,467.386 L270.364,467.558 L270.358,467.579 L270.306,467.752 L270.3,467.772 L270.247,467.944 L270.24,467.965 L270.186,468.137 L270.18,468.157 L270.125,468.327 L270.119,468.348 L270.063,468.518 L270.056,468.539 L269.999,468.709 L269.992,468.73 L269.934,468.899 L269.927,468.92 L269.868,469.089 L269.861,469.109 L269.801,469.277 L269.793,469.298 L269.732,469.466 L269.725,469.486 L269.663,469.654 L269.655,469.675 L269.592,469.842 L269.585,469.861 L269.521,470.027 L269.513,470.047 L269.448,470.214 L269.44,470.235 L269.374,470.401 L269.366,470.42 L269.299,470.585 L269.291,470.603 L269.224,470.768 L269.215,470.789 L269.146,470.954 L269.138,470.973 L269.068,471.137 L269.059,471.157 L268.988,471.32 L268.98,471.339 L268.908,471.501 L268.899,471.521 L268.827,471.683 L268.818,471.702 L268.744,471.864 L268.735,471.884 L268.66,472.045 L268.651,472.064 L268.576,472.224 L268.567,472.243 L268.49,472.403 L268.481,472.423 L268.403,472.583 L268.394,472.601 L268.316,472.76 L268.307,472.778 L268.228,472.937 L268.218,472.956 L268.137,473.114 L268.127,473.134 L268.046,473.291 L268.037,473.309 L267.955,473.465 L267.944,473.485 L267.861,473.641 L267.852,473.659 L267.768,473.814 L267.758,473.833 L267.673,473.988 L267.663,474.006 L267.577,474.161 L267.567,474.18 L267.48,474.333 L267.47,474.351 L267.383,474.504 L267.372,474.523 L267.283,474.676 L267.273,474.694 L267.183,474.846 L267.172,474.865 L267.082,475.016 L267.072,475.034 L266.98,475.184 L266.969,475.203 L266.877,475.353 L266.866,475.371 L266.774,475.52 L266.763,475.538 L266.669,475.687 L266.658,475.705 L266.563,475.853 L266.551,475.871 L266.456,476.019 L266.445,476.036 L266.349,476.183 L266.337,476.201 L266.24,476.348 L266.228,476.365 L266.13,476.511 L266.119,476.528 L266.02,476.674 L266.007,476.692 L265.907,476.837 L265.896,476.853 L265.796,476.997 L265.784,477.014 L265.682,477.158 L265.67,477.175 L265.568,477.318 L265.555,477.335 L265.452,477.477 L265.44,477.494 L265.336,477.635 L265.324,477.651 L265.22,477.792 L265.207,477.809 L265.101,477.949 L265.089,477.966 L264.982,478.106 L264.969,478.123 L264.862,478.262 L264.85,478.278 L264.742,478.415 L264.729,478.432 L264.62,478.57 L264.606,478.587 L264.497,478.723 L264.485,478.739 L264.374,478.875 L264.361,478.891 L264.249,479.027 L264.236,479.044 L264.124,479.178 L264.111,479.194 L263.998,479.328 L263.985,479.343 L263.872,479.477 L263.857,479.493 L263.743,479.627 L263.729,479.643 L263.614,479.774 L263.601,479.789 L263.486,479.92 L263.471,479.936 L263.354,480.067 L263.341,480.082 L263.224,480.212 L263.21,480.227 L263.091,480.357 L263.076,480.373 L262.958,480.501 L262.945,480.515 L262.825,480.643 L262.809,480.66 L262.689,480.787 L262.675,480.801 L262.554,480.927 L262.539,480.943 L262.417,481.069 L262.402,481.084 L262.28,481.208 L262.266,481.223 L262.143,481.347 L262.128,481.361 L262.003,481.485 L261.988,481.5 L261.863,481.623 L261.849,481.637 L261.723,481.759 L261.708,481.773 L261.582,481.895 L261.567,481.909 L261.44,482.029 L261.424,482.044 L261.296,482.164 L261.281,482.178 L261.153,482.296 L261.139,482.31 L261.01,482.428 L260.993,482.443 L260.863,482.56 L260.847,482.574 L260.717,482.691 L260.702,482.704 L260.57,482.82 L260.555,482.834 L260.422,482.949 L260.406,482.963 L260.273,483.078 L260.257,483.091 L260.124,483.204 L260.109,483.217 L259.975,483.33 L259.958,483.344 L259.823,483.456 L259.807,483.469 L259.672,483.58 L259.656,483.594 L259.52,483.704 L259.504,483.717 L259.367,483.826 L259.35,483.839 L259.213,483.948 L259.197,483.96 L259.059,484.068 L259.042,484.082 L258.903,484.189 L258.886,484.202 L258.747,484.308 L258.73,484.321 L258.589,484.427 L258.573,484.439 L258.432,484.544 L258.415,484.556 L258.274,484.66 L258.258,484.672 L258.115,484.775 L258.098,484.788 L257.955,484.89 L257.938,484.902 L257.795,485.003 L257.778,485.015 L257.634,485.115 L257.616,485.127 L257.472,485.227 L257.455,485.239 L257.309,485.338 L257.291,485.35 L257.145,485.448 L257.128,485.459 L256.982,485.556 L256.965,485.567 L256.818,485.664 L256.799,485.676 L256.651,485.772 L256.633,485.783 L256.484,485.878 L256.467,485.889 L256.319,485.982 L256.302,485.993 L256.152,486.085 L256.134,486.097 L255.983,486.189 L255.965,486.2 L255.814,486.291 L255.795,486.302 L255.644,486.393 L255.625,486.403 L255.474,486.492 L255.457,486.502 L255.305,486.591 L255.286,486.601 L255.133,486.689 L255.114,486.699 L254.96,486.786 L254.941,486.797 L254.786,486.883 L254.769,486.892 L254.614,486.977 L254.594,486.988 L254.439,487.071 L254.422,487.081 L254.266,487.164 L254.246,487.174 L254.09,487.256 L254.071,487.266 L253.913,487.347 L253.894,487.357 L253.736,487.438 L253.718,487.447 L253.56,487.526 L253.541,487.535 L253.382,487.614 L253.362,487.623 L253.203,487.701 L253.184,487.71 L253.025,487.786 L253.005,487.796 L252.844,487.871 L252.824,487.88 L252.664,487.955 L252.645,487.964 L252.483,488.037 L252.464,488.046 L252.302,488.119 L252.282,488.128 L252.119,488.199 L252.099,488.208 L251.936,488.279 L251.918,488.287 L251.754,488.357 L251.734,488.365 L251.569,488.435 L251.549,488.443 L251.385,488.511 L251.366,488.518 L251.201,488.585 L251.18,488.593 L251.014,488.66 L250.994,488.667 L250.828,488.732 L250.808,488.74 L250.642,488.804 L250.622,488.811 L250.455,488.874 L250.434,488.882 L250.266,488.944 L250.247,488.952 L250.078,489.013 L250.057,489.02 L249.889,489.08 L249.869,489.087 L249.7,489.146 L249.681,489.153 L249.511,489.211 L249.49,489.218 L249.32,489.275 L249.299,489.282 L249.128,489.338 L249.107,489.345 L248.936,489.4 L248.916,489.406 L248.745,489.46 L248.724,489.467 L248.553,489.519 L248.534,489.525 L248.361,489.577 L248.339,489.584 L248.165,489.635 L248.144,489.641 L247.972,489.691 L247.952,489.696 L247.779,489.745 L247.756,489.751 L247.582,489.799 L247.561,489.805 L247.387,489.851 L247.366,489.857 L247.191,489.902 L247.17,489.908 L246.995,489.952 L246.974,489.957 L246.799,490.001 L246.776,490.006 L246.6,490.049 L246.579,490.054 L246.403,490.095 L246.382,490.1 L246.205,490.14 L246.183,490.145 L246.006,490.184 L245.985,490.189 L245.808,490.227 L245.786,490.232 L245.607,490.269 L245.585,490.273 L245.407,490.309 L245.386,490.313 L245.207,490.348 L245.186,490.353 L245.006,490.386 L244.984,490.39 L244.805,490.423 L244.784,490.427 L244.604,490.458 L244.581,490.462 L244.4,490.493 L244.38,490.496 L244.2,490.526 L244.178,490.529 L243.996,490.557 L243.973,490.561 L243.792,490.588 L243.772,490.591 L243.59,490.617 L243.567,490.62 L243.384,490.645 L243.363,490.648 L243.181,490.672 L243.159,490.675 L242.977,490.697 L242.955,490.7 L242.772,490.722 L242.749,490.724 L242.565,490.745 L242.544,490.747 L242.361,490.766 L242.339,490.768 L242.155,490.786 L242.132,490.789 L241.948,490.806 L241.927,490.807 L241.741,490.823 L241.718,490.825 L241.533,490.84 L241.513,490.842 L241.328,490.855 L241.304,490.857 L241.118,490.869 L241.097,490.87 L240.911,490.882 L240.889,490.883 L240.703,490.893 L240.68,490.894 L240.494,490.903 L240.471,490.904 L240.285,490.912 L240.262,490.912 L240.076,490.919 L240.055,490.92 L239.868,490.925 L239.844,490.926 L239.656,490.93 L239.634,490.93 L239.447,490.933 L239.425,490.933 L239.236,490.935 L239.213,490.935 L239.03,490.936 L239.02,490.936 L33.397,490.936 L33.386,490.936 L33.203,490.935 L33.18,490.935 L32.992,490.933 L32.97,490.933 L32.782,490.93 L32.76,490.93 L32.572,490.926 L32.549,490.925 L32.362,490.92 L32.341,490.919 L32.154,490.912 L32.132,490.912 L31.945,490.904 L31.923,490.903 L31.736,490.894 L31.714,490.893 L31.528,490.883 L31.505,490.882 L31.32,490.87 L31.299,490.869 L31.113,490.857 L31.089,490.855 L30.904,490.842 L30.884,490.84 L30.699,490.825 L30.675,490.823 L30.49,490.807 L30.469,490.806 L30.284,490.789 L30.262,490.786 L30.077,490.768 L30.056,490.766 L29.873,490.747 L29.851,490.745 L29.668,490.724 L29.645,490.722 L29.462,490.7 L29.44,490.697 L29.258,490.675 L29.236,490.672 L29.054,490.648 L29.032,490.645 L28.85,490.62 L28.827,490.617 L28.645,490.591 L28.625,490.588 L28.443,490.561 L28.42,490.557 L28.239,490.529 L28.217,490.526 L28.037,490.496 L28.016,490.493 L27.836,490.462 L27.813,490.458 L27.632,490.427 L27.612,490.423 L27.432,490.39 L27.411,490.386 L27.231,490.353 L27.209,490.348 L27.03,490.313 L27.01,490.309 L26.832,490.273 L26.81,490.269 L26.631,490.232 L26.609,490.227 L26.431,490.189 L26.41,490.184 L26.233,490.145 L26.211,490.14 L26.034,490.1 L26.013,490.095 L25.837,490.054 L25.817,490.049 L25.64,490.006 L25.618,490.001 L25.442,489.957 L25.421,489.952 L25.246,489.908 L25.225,489.902 L25.051,489.857 L25.03,489.851 L24.856,489.805 L24.835,489.799 L24.66,489.751 L24.638,489.745 L24.464,489.696 L24.445,489.691 L24.272,489.641 L24.251,489.635 L24.078,489.584 L24.056,489.577 L23.883,489.525 L23.864,489.519 L23.692,489.467 L23.671,489.46 L23.5,489.406 L23.48,489.4 L23.31,489.345 L23.289,489.338 L23.118,489.282 L23.097,489.275 L22.926,489.218 L22.905,489.211 L22.736,489.153 L22.716,489.146 L22.548,489.087 L22.528,489.08 L22.359,489.02 L22.338,489.013 L22.17,488.952 L22.15,488.944 L21.983,488.882 L21.961,488.874 L21.794,488.811 L21.774,488.804 L21.608,488.74 L21.588,488.732 L21.422,488.667 L21.402,488.66 L21.236,488.594 L21.215,488.585 L21.05,488.518 L21.032,488.511 L20.868,488.443 L20.848,488.435 L20.683,488.366 L20.662,488.357 L20.499,488.287 L20.48,488.279 L20.317,488.208 L20.298,488.2 L20.135,488.128 L20.115,488.119 L19.953,488.046 L19.933,488.037 L19.772,487.964 L19.753,487.955 L19.592,487.88 L19.573,487.871 L19.412,487.795 L19.392,487.786 L19.232,487.71 L19.214,487.701 L19.054,487.623 L19.034,487.614 L18.876,487.535 L18.857,487.526 L18.699,487.447 L18.681,487.437 L18.523,487.357 L18.503,487.347 L18.346,487.266 L18.327,487.256 L18.17,487.174 L18.151,487.164 L17.995,487.081 L17.977,487.071 L17.822,486.988 L17.803,486.977 L17.648,486.892 L17.631,486.883 L17.476,486.797 L17.457,486.786 L17.302,486.699 L17.284,486.689 L17.131,486.601 L17.112,486.591 L16.96,486.502 L16.943,486.492 L16.791,486.403 L16.773,486.392 L16.621,486.302 L16.603,486.291 L16.452,486.2 L16.433,486.189 L16.283,486.097 L16.265,486.085 L16.115,485.993 L16.098,485.982 L15.949,485.889 L15.932,485.878 L15.784,485.783 L15.766,485.771 L15.617,485.676 L15.599,485.664 L15.452,485.567 L15.435,485.556 L15.289,485.459 L15.272,485.448 L15.125,485.35 L15.107,485.338 L14.962,485.239 L14.945,485.227 L14.8,485.128 L14.783,485.116 L14.639,485.015 L14.622,485.003 L14.479,484.902 L14.462,484.89 L14.319,484.787 L14.301,484.775 L14.159,484.671 L14.143,484.66 L14.002,484.556 L13.985,484.544 L13.844,484.439 L13.827,484.426 L13.687,484.321 L13.67,484.308 L13.53,484.202 L13.514,484.189 L13.375,484.081 L13.358,484.068 L13.22,483.961 L13.204,483.948 L13.066,483.839 L13.05,483.826 L12.913,483.717 L12.897,483.704 L12.761,483.594 L12.744,483.58 L12.609,483.469 L12.593,483.456 L12.459,483.344 L12.442,483.33 L12.308,483.218 L12.292,483.204 L12.159,483.091 L12.143,483.078 L12.01,482.963 L11.994,482.949 L11.862,482.834 L11.846,482.82 L11.715,482.704 L11.7,482.691 L11.569,482.574 L11.554,482.56 L11.424,482.443 L11.407,482.428 L11.278,482.31 L11.264,482.296 L11.136,482.178 L11.12,482.164 L10.992,482.044 L10.977,482.029 L10.85,481.909 L10.835,481.895 L10.708,481.773 L10.693,481.758 L10.568,481.637 L10.553,481.623 L10.429,481.5 L10.414,481.485 L10.289,481.362 L10.274,481.347 L10.151,481.223 L10.136,481.208 L10.014,481.083 L9.999,481.068 L9.877,480.942 L9.862,480.927 L9.741,480.801 L9.728,480.787 L9.607,480.66 L9.592,480.643 L9.472,480.516 L9.459,480.501 L9.34,480.373 L9.326,480.357 L9.207,480.228 L9.193,480.212 L9.076,480.082 L9.062,480.067 L8.946,479.937 L8.931,479.92 L8.815,479.789 L8.802,479.774 L8.687,479.642 L8.674,479.627 L8.559,479.493 L8.545,479.477 L8.431,479.343 L8.418,479.328 L8.306,479.194 L8.293,479.178 L8.181,479.043 L8.167,479.027 L8.056,478.891 L8.042,478.875 L7.932,478.739 L7.92,478.723 L7.81,478.587 L7.797,478.57 L7.688,478.432 L7.675,478.415 L7.567,478.277 L7.554,478.261 L7.447,478.122 L7.434,478.106 L7.328,477.966 L7.316,477.95 L7.21,477.81 L7.197,477.792 L7.092,477.651 L7.08,477.635 L6.976,477.493 L6.964,477.477 L6.861,477.335 L6.849,477.318 L6.747,477.175 L6.734,477.157 L6.633,477.014 L6.621,476.997 L6.521,476.853 L6.509,476.836 L6.409,476.692 L6.397,476.674 L6.298,476.528 L6.286,476.511 L6.188,476.365 L6.177,476.347 L6.079,476.201 L6.068,476.183 L5.972,476.036 L5.961,476.019 L5.865,475.872 L5.854,475.854 L5.759,475.705 L5.748,475.687 L5.654,475.538 L5.643,475.52 L5.55,475.37 L5.539,475.353 L5.447,475.203 L5.436,475.185 L5.345,475.034 L5.334,475.016 L5.244,474.864 L5.233,474.846 L5.144,474.694 L5.133,474.676 L5.045,474.523 L5.034,474.504 L4.947,474.351 L4.936,474.333 L4.85,474.179 L4.84,474.161 L4.754,474.007 L4.744,473.988 L4.659,473.833 L4.649,473.815 L4.565,473.659 L4.555,473.641 L4.472,473.485 L4.462,473.465 L4.38,473.309 L4.37,473.291 L4.289,473.134 L4.279,473.114 L4.199,472.955 L4.189,472.937 L4.11,472.779 L4.101,472.76 L4.022,472.601 L4.013,472.582 L3.936,472.423 L3.926,472.404 L3.85,472.244 L3.841,472.225 L3.765,472.064 L3.756,472.044 L3.681,471.883 L3.672,471.864 L3.599,471.703 L3.59,471.683 L3.517,471.521 L3.508,471.501 L3.437,471.339 L3.428,471.32 L3.357,471.157 L3.349,471.136 L3.279,470.973 L3.271,470.954 L3.202,470.79 L3.193,470.769 L3.125,470.604 L3.118,470.585 L3.051,470.42 L3.043,470.4 L2.977,470.234 L2.969,470.214 L2.904,470.048 L2.896,470.028 L2.832,469.861 L2.824,469.841 L2.761,469.674 L2.754,469.654 L2.692,469.486 L2.685,469.466 L2.624,469.298 L2.616,469.277 L2.556,469.109 L2.549,469.089 L2.49,468.92 L2.483,468.899 L2.425,468.73 L2.418,468.709 L2.361,468.539 L2.354,468.519 L2.298,468.348 L2.292,468.328 L2.237,468.157 L2.23,468.136 L2.176,467.965 L2.17,467.944 L2.117,467.772 L2.11,467.751 L2.058,467.579 L2.052,467.559 L2.002,467.386 L1.995,467.365 L1.946,467.192 L1.94,467.171 L1.891,466.997 L1.885,466.976 L1.837,466.802 L1.832,466.781 L1.785,466.607 L1.779,466.585 L1.734,466.411 L1.728,466.39 L1.684,466.215 L1.679,466.193 L1.635,466.018 L1.63,465.996 L1.587,465.82 L1.582,465.799 L1.541,465.622 L1.536,465.601 L1.496,465.424 L1.491,465.403 L1.452,465.226 L1.447,465.204 L1.409,465.026 L1.404,465.005 L1.367,464.827 L1.363,464.805 L1.327,464.627 L1.323,464.605 L1.288,464.426 L1.284,464.405 L1.25,464.226 L1.246,464.204 L1.213,464.025 L1.209,464.003 L1.178,463.823 L1.174,463.802 L1.143,463.621 L1.14,463.599 L1.11,463.418 L1.107,463.397 L1.079,463.216 L1.075,463.194 L1.048,463.013 L1.045,462.991 L1.019,462.809 L1.016,462.787 L0.991,462.605 L0.988,462.583 L0.964,462.4 L0.961,462.379 L0.939,462.196 L0.936,462.174 L0.915,461.991 L0.912,461.969 L0.892,461.786 L0.889,461.764 L0.87,461.58 L0.868,461.558 L0.85,461.373 L0.847,461.352 L0.83,461.167 L0.829,461.145 L0.813,460.96 L0.811,460.938 L0.796,460.753 L0.795,460.731 L0.781,460.546 L0.779,460.524 L0.767,460.338 L0.766,460.316 L0.754,460.13 L0.753,460.108 L0.743,459.922 L0.742,459.9 L0.733,459.714 L0.732,459.691 L0.724,459.504 L0.724,459.482 L0.717,459.295 L0.716,459.273 L0.711,459.086 L0.711,459.064 L0.706,458.876 L0.706,458.854 L0.703,458.666 L0.703,458.644 L0.701,458.456 L0.701,458.434 L0.7,458.251 L0.7,458.24 L0.7,33.475 L0.7,33.464 L0.701,33.281 L0.701,33.26 L0.703,33.072 L0.703,33.049 L0.706,32.861 L0.706,32.839 L0.711,32.651 L0.711,32.629 L0.716,32.442 L0.717,32.42 L0.724,32.233 L0.724,32.211 L0.732,32.024 L0.733,32.002 L0.742,31.815 L0.743,31.793 L0.753,31.607 L0.754,31.585 L0.766,31.399 L0.767,31.377 L0.779,31.191 L0.781,31.169 L0.795,30.984 L0.796,30.962 L0.811,30.777 L0.813,30.755 L0.829,30.57 L0.83,30.548 L0.847,30.364 L0.85,30.342 L0.868,30.158 L0.87,30.136 L0.889,29.952 L0.892,29.93 L0.912,29.746 L0.915,29.724 L0.936,29.541 L0.939,29.519 L0.961,29.337 L0.964,29.315 L0.988,29.133 L0.991,29.11 L1.016,28.928 L1.019,28.906 L1.045,28.725 L1.048,28.703 L1.075,28.521 L1.079,28.499 L1.107,28.319 L1.11,28.297 L1.14,28.116 L1.143,28.094 L1.174,27.914 L1.178,27.893 L1.209,27.713 L1.213,27.691 L1.246,27.511 L1.25,27.489 L1.284,27.31 L1.288,27.289 L1.323,27.11 L1.327,27.089 L1.363,26.91 L1.367,26.888 L1.404,26.71 L1.409,26.689 L1.447,26.511 L1.452,26.49 L1.491,26.312 L1.496,26.291 L1.536,26.114 L1.541,26.093 L1.582,25.916 L1.587,25.895 L1.63,25.719 L1.635,25.698 L1.679,25.522 L1.684,25.501 L1.728,25.326 L1.734,25.305 L1.779,25.13 L1.785,25.109 L1.832,24.934 L1.837,24.913 L1.885,24.739 L1.891,24.718 L1.94,24.544 L1.946,24.523 L1.995,24.35 L2.001,24.33 L2.052,24.157 L2.058,24.136 L2.11,23.964 L2.117,23.943 L2.17,23.771 L2.176,23.751 L2.23,23.579 L2.237,23.558 L2.292,23.387 L2.298,23.367 L2.354,23.197 L2.361,23.176 L2.418,23.006 L2.425,22.986 L2.483,22.816 L2.49,22.796 L2.549,22.627 L2.556,22.606 L2.616,22.438 L2.624,22.417 L2.685,22.249 L2.692,22.229 L2.754,22.062 L2.761,22.042 L2.824,21.874 L2.832,21.854 L2.896,21.687 L2.904,21.667 L2.969,21.501 L2.977,21.481 L3.043,21.315 L3.051,21.295 L3.118,21.13 L3.126,21.111 L3.193,20.946 L3.202,20.926 L3.271,20.762 L3.279,20.743 L3.349,20.579 L3.358,20.559 L3.428,20.396 L3.437,20.377 L3.508,20.214 L3.517,20.194 L3.59,20.032 L3.599,20.013 L3.672,19.851 L3.681,19.832 L3.756,19.671 L3.765,19.652 L3.841,19.491 L3.85,19.472 L3.926,19.312 L3.936,19.293 L4.013,19.133 L4.022,19.114 L4.101,18.955 L4.11,18.936 L4.19,18.778 L4.199,18.759 L4.279,18.602 L4.289,18.582 L4.37,18.425 L4.38,18.406 L4.462,18.25 L4.472,18.231 L4.555,18.075 L4.565,18.056 L4.649,17.9 L4.659,17.882 L4.744,17.727 L4.754,17.709 L4.84,17.554 L4.85,17.536 L4.937,17.382 L4.947,17.364 L5.034,17.211 L5.045,17.192 L5.133,17.04 L5.144,17.021 L5.233,16.869 L5.244,16.851 L5.334,16.7 L5.345,16.682 L5.436,16.531 L5.447,16.513 L5.539,16.363 L5.55,16.345 L5.643,16.195 L5.654,16.177 L5.748,16.028 L5.759,16.011 L5.854,15.862 L5.865,15.844 L5.96,15.696 L5.972,15.679 L6.068,15.532 L6.08,15.514 L6.177,15.368 L6.188,15.35 L6.286,15.204 L6.298,15.187 L6.397,15.041 L6.409,15.024 L6.509,14.88 L6.521,14.862 L6.621,14.718 L6.633,14.701 L6.735,14.558 L6.747,14.541 L6.849,14.398 L6.861,14.381 L6.964,14.239 L6.976,14.222 L7.08,14.08 L7.093,14.064 L7.197,13.923 L7.21,13.906 L7.316,13.766 L7.328,13.749 L7.434,13.61 L7.447,13.593 L7.554,13.454 L7.567,13.438 L7.675,13.3 L7.688,13.283 L7.797,13.146 L7.81,13.129 L7.919,12.992 L7.932,12.976 L8.043,12.84 L8.056,12.824 L8.167,12.688 L8.18,12.672 L8.292,12.537 L8.306,12.521 L8.418,12.387 L8.432,12.372 L8.545,12.238 L8.559,12.222 L8.673,12.089 L8.687,12.074 L8.802,11.942 L8.816,11.926 L8.932,11.795 L8.946,11.779 L9.062,11.648 L9.076,11.633 L9.193,11.503 L9.207,11.487 L9.326,11.358 L9.34,11.343 L9.459,11.214 L9.473,11.199 L9.593,11.071 L9.607,11.056 L9.727,10.929 L9.742,10.914 L9.863,10.788 L9.877,10.773 L9.999,10.647 L10.013,10.632 L10.136,10.508 L10.151,10.492 L10.275,10.368 L10.289,10.354 L10.413,10.23 L10.428,10.215 L10.553,10.093 L10.568,10.078 L10.693,9.957 L10.709,9.942 L10.835,9.821 L10.85,9.806 L10.977,9.686 L10.992,9.672 L11.12,9.552 L11.135,9.538 L11.264,9.419 L11.279,9.405 L11.408,9.287 L11.424,9.273 L11.554,9.155 L11.569,9.141 L11.7,9.025 L11.715,9.011 L11.847,8.895 L11.862,8.881 L11.995,8.766 L12.01,8.753 L12.143,8.638 L12.159,8.625 L12.292,8.511 L12.308,8.498 L12.442,8.385 L12.458,8.371 L12.593,8.259 L12.609,8.246 L12.744,8.135 L12.761,8.122 L12.897,8.012 L12.913,7.998 L13.05,7.889 L13.066,7.876 L13.204,7.767 L13.22,7.754 L13.359,7.646 L13.375,7.634 L13.514,7.526 L13.531,7.514 L13.67,7.407 L13.687,7.395 L13.827,7.289 L13.844,7.277 L13.984,7.172 L14.001,7.16 L14.142,7.056 L14.159,7.043 L14.302,6.94 L14.319,6.928 L14.461,6.826 L14.478,6.814 L14.622,6.712 L14.639,6.7 L14.783,6.6 L14.801,6.588 L14.945,6.488 L14.962,6.476 L15.108,6.378 L15.125,6.366 L15.271,6.268 L15.288,6.256 L15.435,6.159 L15.452,6.147 L15.6,6.051 L15.617,6.04 L15.765,5.944 L15.783,5.933 L15.931,5.838 L15.949,5.827 L16.098,5.733 L16.116,5.722 L16.266,5.629 L16.283,5.618 L16.434,5.526 L16.452,5.515 L16.602,5.424 L16.62,5.414 L16.772,5.323 L16.79,5.313 L16.942,5.223 L16.96,5.213 L17.113,5.124 L17.131,5.114 L17.285,5.026 L17.303,5.016 L17.457,4.929 L17.475,4.919 L17.63,4.833 L17.648,4.823 L17.803,4.738 L17.822,4.728 L17.977,4.644 L17.996,4.634 L18.152,4.551 L18.171,4.541 L18.327,4.459 L18.346,4.449 L18.503,4.368 L18.522,4.359 L18.68,4.278 L18.699,4.269 L18.857,4.189 L18.876,4.18 L19.035,4.101 L19.054,4.092 L19.213,4.015 L19.233,4.005 L19.393,3.929 L19.412,3.92 L19.572,3.844 L19.592,3.835 L19.752,3.761 L19.772,3.752 L19.933,3.678 L19.953,3.669 L20.115,3.596 L20.135,3.588 L20.297,3.516 L20.317,3.507 L20.48,3.437 L20.5,3.428 L20.663,3.358 L20.683,3.35 L20.847,3.281 L20.867,3.273 L21.032,3.205 L21.051,3.197 L21.216,3.13 L21.236,3.122 L21.402,3.056 L21.422,3.048 L21.588,2.983 L21.608,2.975 L21.775,2.911 L21.795,2.904 L21.962,2.841 L21.982,2.833 L22.15,2.771 L22.17,2.764 L22.338,2.703 L22.359,2.695 L22.527,2.635 L22.547,2.628 L22.716,2.569 L22.737,2.562 L22.907,2.504 L22.927,2.497 L23.097,2.44 L23.117,2.433 L23.288,2.377 L23.309,2.371 L23.479,2.316 L23.5,2.309 L23.671,2.255 L23.692,2.249 L23.864,2.196 L23.885,2.19 L24.057,2.138 L24.078,2.132 L24.25,2.081 L24.271,2.075 L24.445,2.025 L24.465,2.019 L24.639,1.97 L24.66,1.964 L24.834,1.917 L24.855,1.911 L25.029,1.864 L25.05,1.859 L25.225,1.813 L25.246,1.808 L25.422,1.763 L25.443,1.758 L25.619,1.714 L25.64,1.709 L25.816,1.667 L25.837,1.661 L26.014,1.62 L26.035,1.615 L26.212,1.575 L26.233,1.57 L26.41,1.531 L26.432,1.526 L26.61,1.488 L26.631,1.484 L26.809,1.446 L26.831,1.442 L27.009,1.406 L27.031,1.402 L27.21,1.367 L27.231,1.363 L27.41,1.329 L27.432,1.325 L27.611,1.292 L27.633,1.288 L27.813,1.257 L27.835,1.253 L28.015,1.223 L28.037,1.219 L28.218,1.19 L28.239,1.186 L28.421,1.158 L28.442,1.155 L28.624,1.127 L28.645,1.124 L28.827,1.098 L28.849,1.095 L29.031,1.07 L29.053,1.067 L29.235,1.043 L29.257,1.041 L29.44,1.018 L29.462,1.015 L29.645,0.994 L29.667,0.991 L29.851,0.971 L29.873,0.968 L30.056,0.949 L30.078,0.947 L30.262,0.929 L30.285,0.927 L30.469,0.91 L30.491,0.908 L30.676,0.892 L30.698,0.89 L30.883,0.875 L30.905,0.874 L31.09,0.86 L31.112,0.859 L31.298,0.846 L31.32,0.845 L31.506,0.834 L31.528,0.832 L31.714,0.822 L31.736,0.821 L31.923,0.812 L31.945,0.811 L32.132,0.804 L32.154,0.803 L32.341,0.796 L32.363,0.796 L32.55,0.79 L32.572,0.79 L32.76,0.786 L32.782,0.785 L32.97,0.782 L32.992,0.782 L33.18,0.78 L33.202,0.78 L33.385,0.779 L33.396,0.779 L239.02,0.779 L239.032,0.779 Z M33.402,7.779 L33.236,7.78 L33.07,7.781 L32.904,7.784 L32.739,7.788 L32.574,7.792 L32.409,7.798 L32.244,7.805 L32.08,7.813 L31.916,7.822 L31.752,7.832 L31.589,7.842 L31.425,7.854 L31.263,7.867 L31.1,7.881 L30.938,7.896 L30.775,7.912 L30.614,7.929 L30.452,7.947 L30.291,7.966 L30.13,7.986 L29.97,8.007 L29.809,8.029 L29.649,8.052 L29.49,8.076 L29.331,8.101 L29.172,8.126 L29.013,8.153 L28.855,8.181 L28.697,8.21 L28.539,8.24 L28.382,8.27 L28.225,8.302 L28.068,8.334 L27.912,8.368 L27.756,8.403 L27.6,8.438 L27.445,8.474 L27.29,8.512 L27.136,8.55 L26.982,8.589 L26.828,8.629 L26.675,8.67 L26.522,8.712 L26.369,8.755 L26.217,8.799 L26.065,8.844 L25.913,8.889 L25.762,8.936 L25.612,8.983 L25.461,9.031 L25.312,9.081 L25.162,9.131 L25.013,9.182 L24.864,9.234 L24.716,9.286 L24.568,9.34 L24.421,9.394 L24.274,9.45 L24.128,9.506 L23.982,9.563 L23.836,9.621 L23.691,9.68 L23.546,9.74 L23.402,9.8 L23.258,9.862 L23.114,9.924 L22.971,9.987 L22.829,10.051 L22.687,10.116 L22.545,10.182 L22.404,10.248 L22.263,10.315 L22.123,10.384 L21.983,10.452 L21.844,10.522 L21.705,10.593 L21.567,10.664 L21.429,10.736 L21.292,10.809 L21.155,10.883 L21.019,10.958 L20.883,11.033 L20.748,11.11 L20.613,11.187 L20.479,11.264 L20.345,11.343 L20.211,11.422 L20.079,11.502 L19.947,11.583 L19.815,11.665 L19.684,11.748 L19.553,11.831 L19.423,11.915 L19.293,12 L19.164,12.085 L19.036,12.171 L18.908,12.258 L18.781,12.346 L18.654,12.435 L18.528,12.524 L18.402,12.614 L18.277,12.705 L18.152,12.796 L18.028,12.888 L17.905,12.981 L17.782,13.075 L17.66,13.169 L17.538,13.264 L17.417,13.36 L17.296,13.456 L17.176,13.554 L17.057,13.651 L16.938,13.75 L16.82,13.849 L16.703,13.949 L16.586,14.05 L16.47,14.151 L16.354,14.253 L16.239,14.356 L16.124,14.459 L16.011,14.564 L15.897,14.668 L15.785,14.774 L15.673,14.88 L15.562,14.987 L15.451,15.094 L15.341,15.202 L15.232,15.311 L15.123,15.42 L15.015,15.53 L14.907,15.641 L14.801,15.752 L14.695,15.864 L14.589,15.977 L14.484,16.09 L14.38,16.204 L14.277,16.318 L14.174,16.433 L14.072,16.549 L13.971,16.665 L13.87,16.782 L13.77,16.899 L13.671,17.018 L13.572,17.136 L13.474,17.256 L13.377,17.376 L13.281,17.496 L13.185,17.617 L13.09,17.739 L12.995,17.861 L12.902,17.984 L12.809,18.107 L12.717,18.231 L12.625,18.356 L12.535,18.481 L12.445,18.607 L12.355,18.733 L12.267,18.86 L12.179,18.987 L12.092,19.115 L12.006,19.244 L11.92,19.373 L11.836,19.502 L11.752,19.632 L11.668,19.763 L11.586,19.894 L11.504,20.026 L11.423,20.158 L11.343,20.291 L11.264,20.424 L11.185,20.558 L11.107,20.692 L11.03,20.827 L10.954,20.962 L10.879,21.098 L10.804,21.234 L10.73,21.371 L10.657,21.508 L10.585,21.646 L10.514,21.784 L10.443,21.923 L10.373,22.062 L10.304,22.202 L10.236,22.342 L10.169,22.483 L10.102,22.624 L10.037,22.766 L9.972,22.908 L9.908,23.05 L9.845,23.193 L9.783,23.337 L9.721,23.481 L9.661,23.625 L9.601,23.77 L9.542,23.915 L9.484,24.061 L9.427,24.207 L9.371,24.353 L9.315,24.5 L9.261,24.648 L9.207,24.796 L9.154,24.944 L9.102,25.092 L9.051,25.241 L9.001,25.391 L8.952,25.541 L8.904,25.691 L8.856,25.842 L8.81,25.993 L8.764,26.144 L8.72,26.296 L8.676,26.448 L8.633,26.601 L8.591,26.754 L8.55,26.907 L8.51,27.061 L8.471,27.215 L8.432,27.37 L8.395,27.524 L8.359,27.68 L8.323,27.835 L8.289,27.991 L8.255,28.147 L8.223,28.304 L8.191,28.461 L8.16,28.618 L8.131,28.776 L8.102,28.934 L8.074,29.092 L8.047,29.251 L8.021,29.41 L7.996,29.569 L7.973,29.729 L7.95,29.889 L7.928,30.049 L7.907,30.209 L7.887,30.37 L7.868,30.531 L7.85,30.693 L7.833,30.855 L7.817,31.017 L7.802,31.179 L7.788,31.342 L7.775,31.505 L7.763,31.668 L7.752,31.831 L7.742,31.995 L7.734,32.159 L7.726,32.324 L7.719,32.488 L7.713,32.653 L7.709,32.818 L7.705,32.983 L7.702,33.149 L7.701,33.315 L7.7,33.481 L7.7,458.234 L7.701,458.4 L7.702,458.566 L7.705,458.732 L7.709,458.897 L7.713,459.062 L7.719,459.227 L7.726,459.392 L7.734,459.556 L7.742,459.72 L7.752,459.884 L7.763,460.047 L7.775,460.211 L7.788,460.374 L7.802,460.536 L7.817,460.699 L7.833,460.861 L7.85,461.022 L7.868,461.184 L7.887,461.345 L7.907,461.506 L7.928,461.666 L7.95,461.827 L7.973,461.987 L7.996,462.146 L8.021,462.306 L8.047,462.465 L8.074,462.623 L8.102,462.781 L8.131,462.939 L8.16,463.097 L8.191,463.254 L8.223,463.411 L8.255,463.568 L8.289,463.724 L8.323,463.88 L8.359,464.036 L8.395,464.191 L8.432,464.346 L8.471,464.5 L8.51,464.654 L8.55,464.808 L8.591,464.962 L8.633,465.115 L8.676,465.267 L8.72,465.419 L8.764,465.571 L8.81,465.723 L8.856,465.874 L8.904,466.024 L8.952,466.175 L9.001,466.324 L9.051,466.474 L9.102,466.623 L9.154,466.772 L9.207,466.92 L9.261,467.068 L9.315,467.215 L9.371,467.362 L9.427,467.508 L9.484,467.655 L9.542,467.8 L9.601,467.945 L9.661,468.09 L9.721,468.235 L9.783,468.378 L9.845,468.522 L9.908,468.665 L9.972,468.807 L10.037,468.95 L10.102,469.091 L10.169,469.232 L10.236,469.373 L10.304,469.513 L10.373,469.653 L10.443,469.792 L10.514,469.931 L10.585,470.069 L10.657,470.207 L10.73,470.344 L10.804,470.481 L10.879,470.617 L10.954,470.753 L11.03,470.888 L11.107,471.023 L11.185,471.158 L11.264,471.291 L11.343,471.425 L11.423,471.557 L11.504,471.69 L11.586,471.821 L11.668,471.952 L11.752,472.083 L11.836,472.213 L11.92,472.343 L12.006,472.472 L12.092,472.6 L12.179,472.728 L12.267,472.855 L12.355,472.982 L12.445,473.109 L12.535,473.234 L12.625,473.359 L12.717,473.484 L12.809,473.608 L12.902,473.731 L12.995,473.854 L13.09,473.977 L13.185,474.098 L13.281,474.219 L13.377,474.34 L13.474,474.46 L13.572,474.579 L13.671,474.698 L13.77,474.816 L13.87,474.933 L13.971,475.05 L14.072,475.167 L14.174,475.282 L14.277,475.397 L14.38,475.512 L14.484,475.626 L14.589,475.739 L14.695,475.851 L14.801,475.963 L14.907,476.075 L15.015,476.185 L15.123,476.295 L15.232,476.405 L15.341,476.513 L15.451,476.621 L15.562,476.729 L15.673,476.836 L15.785,476.942 L15.897,477.047 L16.011,477.152 L16.124,477.256 L16.239,477.359 L16.354,477.462 L16.47,477.564 L16.586,477.665 L16.703,477.766 L16.82,477.866 L16.938,477.965 L17.057,478.064 L17.176,478.162 L17.296,478.259 L17.417,478.355 L17.538,478.451 L17.66,478.546 L17.782,478.641 L17.905,478.734 L18.028,478.827 L18.152,478.919 L18.277,479.011 L18.402,479.102 L18.528,479.192 L18.654,479.281 L18.781,479.369 L18.908,479.457 L19.036,479.544 L19.164,479.63 L19.293,479.716 L19.423,479.801 L19.553,479.885 L19.684,479.968 L19.815,480.05 L19.947,480.132 L20.079,480.213 L20.211,480.293 L20.345,480.372 L20.479,480.451 L20.613,480.529 L20.748,480.606 L20.883,480.682 L21.019,480.757 L21.155,480.832 L21.292,480.906 L21.429,480.979 L21.567,481.051 L21.705,481.122 L21.844,481.193 L21.983,481.263 L22.123,481.332 L22.263,481.4 L22.404,481.467 L22.545,481.534 L22.687,481.599 L22.829,481.664 L22.971,481.728 L23.114,481.791 L23.258,481.853 L23.402,481.915 L23.546,481.975 L23.691,482.035 L23.836,482.094 L23.982,482.152 L24.128,482.209 L24.274,482.265 L24.421,482.321 L24.568,482.375 L24.716,482.429 L24.864,482.482 L25.013,482.534 L25.162,482.585 L25.312,482.635 L25.461,482.684 L25.612,482.732 L25.762,482.78 L25.913,482.826 L26.065,482.872 L26.217,482.916 L26.369,482.96 L26.522,483.003 L26.675,483.045 L26.828,483.086 L26.982,483.126 L27.136,483.165 L27.29,483.204 L27.445,483.241 L27.6,483.277 L27.756,483.313 L27.912,483.347 L28.068,483.381 L28.225,483.413 L28.382,483.445 L28.539,483.476 L28.697,483.505 L28.855,483.534 L29.013,483.562 L29.172,483.589 L29.331,483.615 L29.49,483.64 L29.649,483.664 L29.809,483.686 L29.97,483.708 L30.13,483.729 L30.291,483.749 L30.452,483.768 L30.614,483.786 L30.775,483.803 L30.938,483.819 L31.1,483.834 L31.263,483.848 L31.425,483.861 L31.589,483.873 L31.752,483.884 L31.916,483.894 L32.08,483.903 L32.244,483.91 L32.409,483.917 L32.574,483.923 L32.739,483.928 L32.904,483.931 L33.07,483.934 L33.236,483.935 L33.402,483.936 L239.015,483.936 L239.181,483.935 L239.347,483.934 L239.512,483.931 L239.678,483.928 L239.843,483.923 L240.008,483.917 L240.172,483.91 L240.337,483.903 L240.501,483.894 L240.664,483.884 L240.828,483.873 L240.991,483.861 L241.154,483.848 L241.317,483.834 L241.479,483.819 L241.641,483.803 L241.803,483.786 L241.964,483.768 L242.126,483.749 L242.286,483.729 L242.447,483.708 L242.607,483.686 L242.767,483.664 L242.927,483.64 L243.086,483.615 L243.245,483.589 L243.404,483.562 L243.562,483.534 L243.72,483.505 L243.878,483.476 L244.035,483.445 L244.192,483.413 L244.349,483.381 L244.505,483.347 L244.661,483.313 L244.816,483.277 L244.971,483.241 L245.126,483.204 L245.281,483.165 L245.435,483.126 L245.589,483.086 L245.742,483.045 L245.895,483.003 L246.048,482.96 L246.2,482.916 L246.352,482.872 L246.503,482.826 L246.654,482.78 L246.805,482.732 L246.955,482.684 L247.105,482.635 L247.254,482.585 L247.403,482.534 L247.552,482.482 L247.7,482.429 L247.848,482.375 L247.996,482.321 L248.142,482.265 L248.289,482.209 L248.435,482.152 L248.581,482.094 L248.726,482.035 L248.871,481.975 L249.015,481.915 L249.159,481.853 L249.302,481.791 L249.445,481.728 L249.588,481.664 L249.73,481.599 L249.872,481.534 L250.013,481.467 L250.153,481.4 L250.294,481.332 L250.433,481.263 L250.573,481.193 L250.711,481.122 L250.85,481.051 L250.987,480.979 L251.125,480.906 L251.262,480.832 L251.398,480.757 L251.534,480.682 L251.669,480.606 L251.804,480.529 L251.938,480.451 L252.072,480.372 L252.205,480.293 L252.338,480.213 L252.47,480.132 L252.602,480.05 L252.733,479.968 L252.864,479.885 L252.994,479.801 L253.123,479.716 L253.252,479.63 L253.381,479.544 L253.509,479.457 L253.636,479.369 L253.763,479.281 L253.889,479.192 L254.015,479.102 L254.14,479.011 L254.264,478.919 L254.388,478.827 L254.512,478.734 L254.635,478.641 L254.757,478.546 L254.879,478.451 L255,478.355 L255.12,478.259 L255.24,478.162 L255.36,478.064 L255.478,477.965 L255.596,477.866 L255.714,477.766 L255.831,477.665 L255.947,477.564 L256.063,477.462 L256.178,477.359 L256.292,477.256 L256.406,477.152 L256.519,477.047 L256.632,476.942 L256.744,476.836 L256.855,476.729 L256.966,476.621 L257.076,476.513 L257.185,476.405 L257.294,476.295 L257.402,476.185 L257.509,476.075 L257.616,475.963 L257.722,475.851 L257.828,475.739 L257.932,475.626 L258.036,475.512 L258.14,475.397 L258.242,475.282 L258.345,475.167 L258.446,475.05 L258.547,474.933 L258.647,474.816 L258.746,474.698 L258.844,474.579 L258.942,474.46 L259.04,474.34 L259.136,474.219 L259.232,474.098 L259.327,473.977 L259.421,473.854 L259.515,473.731 L259.608,473.608 L259.7,473.484 L259.791,473.359 L259.882,473.234 L259.972,473.109 L260.061,472.982 L260.15,472.855 L260.238,472.728 L260.325,472.6 L260.411,472.472 L260.496,472.343 L260.581,472.213 L260.665,472.083 L260.748,471.952 L260.831,471.821 L260.912,471.69 L260.993,471.557 L261.074,471.425 L261.153,471.291 L261.231,471.158 L261.309,471.023 L261.386,470.888 L261.462,470.753 L261.538,470.617 L261.613,470.481 L261.686,470.344 L261.759,470.207 L261.832,470.069 L261.903,469.931 L261.974,469.792 L262.043,469.653 L262.112,469.513 L262.18,469.373 L262.248,469.232 L262.314,469.091 L262.38,468.95 L262.445,468.807 L262.509,468.665 L262.572,468.522 L262.634,468.378 L262.695,468.235 L262.756,468.09 L262.816,467.945 L262.875,467.8 L262.933,467.655 L262.99,467.508 L263.046,467.362 L263.101,467.215 L263.156,467.068 L263.21,466.92 L263.262,466.772 L263.314,466.623 L263.365,466.474 L263.415,466.324 L263.464,466.175 L263.513,466.024 L263.56,465.874 L263.607,465.723 L263.652,465.571 L263.697,465.419 L263.741,465.267 L263.784,465.115 L263.826,464.962 L263.867,464.808 L263.907,464.654 L263.946,464.5 L263.984,464.346 L264.021,464.191 L264.058,464.036 L264.093,463.88 L264.128,463.724 L264.161,463.568 L264.194,463.411 L264.226,463.254 L264.256,463.097 L264.286,462.939 L264.315,462.781 L264.343,462.623 L264.369,462.465 L264.395,462.306 L264.42,462.146 L264.444,461.987 L264.467,461.827 L264.489,461.666 L264.51,461.506 L264.53,461.345 L264.549,461.184 L264.567,461.022 L264.584,460.861 L264.6,460.699 L264.615,460.536 L264.629,460.374 L264.641,460.211 L264.653,460.047 L264.664,459.884 L264.674,459.72 L264.683,459.556 L264.691,459.392 L264.698,459.227 L264.703,459.062 L264.708,458.897 L264.712,458.732 L264.714,458.566 L264.716,458.4 L264.716,458.234 L264.716,33.481 L264.716,33.315 L264.714,33.149 L264.712,32.983 L264.708,32.818 L264.703,32.653 L264.698,32.488 L264.691,32.324 L264.683,32.159 L264.674,31.995 L264.664,31.831 L264.653,31.668 L264.641,31.505 L264.629,31.342 L264.615,31.179 L264.6,31.017 L264.584,30.855 L264.567,30.693 L264.549,30.531 L264.53,30.37 L264.51,30.209 L264.489,30.049 L264.467,29.889 L264.444,29.729 L264.42,29.569 L264.395,29.41 L264.369,29.251 L264.343,29.092 L264.315,28.934 L264.286,28.776 L264.256,28.618 L264.226,28.461 L264.194,28.304 L264.161,28.147 L264.128,27.991 L264.093,27.835 L264.058,27.68 L264.021,27.524 L263.984,27.37 L263.946,27.215 L263.907,27.061 L263.867,26.907 L263.826,26.754 L263.784,26.601 L263.741,26.448 L263.697,26.296 L263.652,26.144 L263.607,25.993 L263.56,25.842 L263.513,25.691 L263.464,25.541 L263.415,25.391 L263.365,25.241 L263.314,25.092 L263.262,24.944 L263.21,24.796 L263.156,24.648 L263.101,24.5 L263.046,24.353 L262.99,24.207 L262.933,24.061 L262.875,23.915 L262.816,23.77 L262.756,23.625 L262.695,23.481 L262.634,23.337 L262.572,23.193 L262.509,23.05 L262.445,22.908 L262.38,22.766 L262.314,22.624 L262.248,22.483 L262.18,22.342 L262.112,22.202 L262.043,22.062 L261.974,21.923 L261.903,21.784 L261.832,21.646 L261.759,21.508 L261.686,21.371 L261.613,21.234 L261.538,21.098 L261.462,20.962 L261.386,20.827 L261.309,20.692 L261.231,20.558 L261.153,20.424 L261.074,20.291 L260.993,20.158 L260.912,20.026 L260.831,19.894 L260.748,19.763 L260.665,19.632 L260.581,19.502 L260.496,19.373 L260.411,19.244 L260.325,19.115 L260.238,18.987 L260.15,18.86 L260.061,18.733 L259.972,18.607 L259.882,18.481 L259.791,18.356 L259.7,18.231 L259.608,18.107 L259.515,17.984 L259.421,17.861 L259.327,17.739 L259.232,17.617 L259.136,17.496 L259.04,17.376 L258.942,17.256 L258.844,17.136 L258.746,17.018 L258.647,16.899 L258.547,16.782 L258.446,16.665 L258.345,16.549 L258.242,16.433 L258.14,16.318 L258.036,16.204 L257.932,16.09 L257.828,15.977 L257.722,15.864 L257.616,15.752 L257.509,15.641 L257.402,15.53 L257.294,15.42 L257.185,15.311 L257.076,15.202 L256.966,15.094 L256.855,14.987 L256.744,14.88 L256.632,14.774 L256.519,14.668 L256.406,14.564 L256.292,14.459 L256.178,14.356 L256.063,14.253 L255.947,14.151 L255.831,14.05 L255.714,13.949 L255.596,13.849 L255.478,13.75 L255.36,13.651 L255.24,13.554 L255.12,13.456 L255,13.36 L254.879,13.264 L254.757,13.169 L254.635,13.075 L254.512,12.981 L254.388,12.888 L254.264,12.796 L254.14,12.705 L254.015,12.614 L253.889,12.524 L253.763,12.435 L253.636,12.346 L253.509,12.258 L253.381,12.171 L253.252,12.085 L253.123,12 L252.994,11.915 L252.864,11.831 L252.733,11.748 L252.602,11.665 L252.47,11.583 L252.338,11.502 L252.205,11.422 L252.072,11.343 L251.938,11.264 L251.804,11.187 L251.669,11.11 L251.534,11.033 L251.398,10.958 L251.262,10.883 L251.125,10.809 L250.987,10.736 L250.85,10.664 L250.711,10.593 L250.573,10.522 L250.433,10.452 L250.294,10.384 L250.153,10.315 L250.013,10.248 L249.872,10.182 L249.73,10.116 L249.588,10.051 L249.445,9.987 L249.302,9.924 L249.159,9.862 L249.015,9.8 L248.871,9.74 L248.726,9.68 L248.581,9.621 L248.435,9.563 L248.289,9.506 L248.142,9.45 L247.996,9.394 L247.848,9.34 L247.7,9.286 L247.552,9.234 L247.403,9.182 L247.254,9.131 L247.105,9.081 L246.955,9.031 L246.805,8.983 L246.654,8.936 L246.503,8.889 L246.352,8.844 L246.2,8.799 L246.048,8.755 L245.895,8.712 L245.742,8.67 L245.589,8.629 L245.435,8.589 L245.281,8.55 L245.126,8.512 L244.971,8.474 L244.816,8.438 L244.661,8.403 L244.505,8.368 L244.349,8.334 L244.192,8.302 L244.035,8.27 L243.878,8.24 L243.72,8.21 L243.562,8.181 L243.404,8.153 L243.245,8.126 L243.086,8.101 L242.927,8.076 L242.767,8.052 L242.607,8.029 L242.447,8.007 L242.286,7.986 L242.126,7.966 L241.964,7.947 L241.803,7.929 L241.641,7.912 L241.479,7.896 L241.317,7.881 L241.154,7.867 L240.991,7.854 L240.828,7.842 L240.664,7.832 L240.501,7.822 L240.337,7.813 L240.172,7.805 L240.008,7.798 L239.843,7.792 L239.678,7.788 L239.512,7.784 L239.347,7.781 L239.181,7.78 L239.015,7.779 L33.402,7.779 Z" id="Shape" fill="#FFFFFF"></path>
                </g>
                <polygon id="Shape" fill="#FFFFFF" points="172.993 442.57 173.253 442.599 173.51 442.648 173.763 442.715 174.01 442.802 174.25 442.906 174.482 443.029 174.703 443.168 174.914 443.323 175.112 443.494 175.297 443.679 175.468 443.878 175.624 444.088 175.763 444.31 175.885 444.541 175.99 444.781 176.076 445.028 176.144 445.281 176.193 445.538 176.222 445.798 176.232 446.06 176.222 446.321 176.193 446.582 176.144 446.839 176.076 447.092 175.99 447.339 175.885 447.578 175.763 447.81 175.624 448.032 175.468 448.242 175.297 448.44 175.112 448.626 174.914 448.796 174.703 448.952 174.482 449.091 174.25 449.213 174.01 449.318 173.763 449.404 173.51 449.472 173.253 449.521 172.993 449.55 172.732 449.56 121.328 449.56 121.067 449.55 120.807 449.521 120.55 449.472 120.297 449.404 120.05 449.318 119.81 449.213 119.578 449.091 119.357 448.952 119.146 448.796 118.948 448.626 118.763 448.44 118.592 448.242 118.437 448.032 118.297 447.81 118.175 447.578 118.07 447.339 117.984 447.092 117.916 446.839 117.868 446.582 117.838 446.321 117.828 446.06 117.838 445.798 117.868 445.538 117.916 445.281 117.984 445.028 118.07 444.781 118.175 444.541 118.297 444.31 118.437 444.088 118.592 443.878 118.763 443.679 118.948 443.494 119.146 443.323 119.357 443.168 119.578 443.029 119.81 442.906 120.05 442.802 120.297 442.715 120.55 442.648 120.807 442.599 121.067 442.57 121.328 442.56 172.732 442.56"></polygon>
                <polygon id="Shape" fill="#FFFFFF" points="266.056 410.361 267.191 411.12 267.95 412.255 268.216 413.595 267.95 414.934 267.191 416.07 266.056 416.828 264.716 417.095 7.7 417.095 6.361 416.828 5.225 416.07 4.467 414.934 4.2 413.595 4.467 412.255 5.225 411.12 6.361 410.361 7.7 410.095 264.716 410.095"></polygon>
            </g>
            <g id="http:--dallar.org--QR-Code" transform="translate(90.000000, 94.000000)" fill="#FFFF00">
                <rect id="p" x="0.216" y="0.977" width="9.119" height="9.119"></rect>
                <rect id="p1" x="0.216" y="10.097" width="9.119" height="9.119"></rect>
                <rect id="p2" x="0.216" y="19.216" width="9.119" height="9.119"></rect>
                <rect id="p3" x="0.216" y="28.336" width="9.119" height="9.119"></rect>
                <rect id="p4" x="0.216" y="37.455" width="9.119" height="9.119"></rect>
                <rect id="p5" x="0.216" y="46.575" width="9.119" height="9.119"></rect>
                <rect id="p6" x="0.216" y="55.694" width="9.119" height="9.119"></rect>
                <rect id="p7" x="0.216" y="92.172" width="9.119" height="9.119"></rect>
                <rect id="p8" x="0.216" y="110.411" width="9.119" height="9.119"></rect>
                <rect id="p9" x="0.216" y="119.531" width="9.119" height="9.119"></rect>
                <rect id="p10" x="0.216" y="146.889" width="9.119" height="9.119"></rect>
                <rect id="p11" x="0.216" y="156.009" width="9.119" height="9.119"></rect>
                <rect id="p12" x="0.216" y="174.248" width="9.119" height="9.119"></rect>
                <rect id="p13" x="0.216" y="201.606" width="9.119" height="9.119"></rect>
                <rect id="p14" x="0.216" y="210.725" width="9.119" height="9.119"></rect>
                <rect id="p15" x="0.216" y="219.845" width="9.119" height="9.119"></rect>
                <rect id="p16" x="0.216" y="228.964" width="9.119" height="9.119"></rect>
                <rect id="p17" x="0.216" y="238.084" width="9.119" height="9.119"></rect>
                <rect id="p18" x="0.216" y="247.203" width="9.119" height="9.119"></rect>
                <rect id="p19" x="0.216" y="256.323" width="9.119" height="9.119"></rect>
                <rect id="p20" x="9.335" y="0.977" width="9.119" height="9.119"></rect>
                <rect id="p21" x="9.335" y="55.694" width="9.119" height="9.119"></rect>
                <rect id="p22" x="9.335" y="101.292" width="9.119" height="9.119"></rect>
                <rect id="p23" x="9.335" y="110.411" width="9.119" height="9.119"></rect>
                <rect id="p24" x="9.335" y="137.77" width="9.119" height="9.119"></rect>
                <rect id="p25" x="9.335" y="146.889" width="9.119" height="9.119"></rect>
                <rect id="p26" x="9.335" y="174.248" width="9.119" height="9.119"></rect>
                <rect id="p27" x="9.335" y="201.606" width="9.119" height="9.119"></rect>
                <rect id="p28" x="9.335" y="256.323" width="9.119" height="9.119"></rect>
                <rect id="p29" x="18.455" y="0.977" width="9.119" height="9.119"></rect>
                <rect id="p30" x="18.455" y="19.216" width="9.119" height="9.119"></rect>
                <rect id="p31" x="18.455" y="28.336" width="9.119" height="9.119"></rect>
                <rect id="p32" x="18.455" y="37.455" width="9.119" height="9.119"></rect>
                <rect id="p33" x="18.455" y="55.694" width="9.119" height="9.119"></rect>
                <rect id="p34" x="18.455" y="73.933" width="9.119" height="9.119"></rect>
                <rect id="p35" x="18.455" y="83.053" width="9.119" height="9.119"></rect>
                <rect id="p36" x="18.455" y="110.411" width="9.119" height="9.119"></rect>
                <rect id="p37" x="18.455" y="119.531" width="9.119" height="9.119"></rect>
                <rect id="p38" x="18.455" y="128.65" width="9.119" height="9.119"></rect>
                <rect id="p39" x="18.455" y="146.889" width="9.119" height="9.119"></rect>
                <rect id="p40" x="18.455" y="165.128" width="9.119" height="9.119"></rect>
                <rect id="p41" x="18.455" y="174.248" width="9.119" height="9.119"></rect>
                <rect id="p42" x="18.455" y="183.367" width="9.119" height="9.119"></rect>
                <rect id="p43" x="18.455" y="201.606" width="9.119" height="9.119"></rect>
                <rect id="p44" x="18.455" y="219.845" width="9.119" height="9.119"></rect>
                <rect id="p45" x="18.455" y="228.964" width="9.119" height="9.119"></rect>
                <rect id="p46" x="18.455" y="238.084" width="9.119" height="9.119"></rect>
                <rect id="p47" x="18.455" y="256.323" width="9.119" height="9.119"></rect>
                <rect id="p48" x="27.574" y="0.977" width="9.119" height="9.119"></rect>
                <rect id="p49" x="27.574" y="19.216" width="9.119" height="9.119"></rect>
                <rect id="p50" x="27.574" y="28.336" width="9.119" height="9.119"></rect>
                <rect id="p51" x="27.574" y="37.455" width="9.119" height="9.119"></rect>
                <rect id="p52" x="27.574" y="55.694" width="9.119" height="9.119"></rect>
                <rect id="p53" x="27.574" y="92.172" width="9.119" height="9.119"></rect>
                <rect id="p54" x="27.574" y="101.292" width="9.119" height="9.119"></rect>
                <rect id="p55" x="27.574" y="110.411" width="9.119" height="9.119"></rect>
                <rect id="p56" x="27.574" y="119.531" width="9.119" height="9.119"></rect>
                <rect id="p57" x="27.574" y="137.77" width="9.119" height="9.119"></rect>
                <rect id="p58" x="27.574" y="174.248" width="9.119" height="9.119"></rect>
                <rect id="p59" x="27.574" y="201.606" width="9.119" height="9.119"></rect>
                <rect id="p60" x="27.574" y="219.845" width="9.119" height="9.119"></rect>
                <rect id="p61" x="27.574" y="228.964" width="9.119" height="9.119"></rect>
                <rect id="p62" x="27.574" y="238.084" width="9.119" height="9.119"></rect>
                <rect id="p63" x="27.574" y="256.323" width="9.119" height="9.119"></rect>
                <rect id="p64" x="36.694" y="0.977" width="9.119" height="9.119"></rect>
                <rect id="p65" x="36.694" y="19.216" width="9.119" height="9.119"></rect>
                <rect id="p66" x="36.694" y="28.336" width="9.119" height="9.119"></rect>
                <rect id="p67" x="36.694" y="37.455" width="9.119" height="9.119"></rect>
                <rect id="p68" x="36.694" y="55.694" width="9.119" height="9.119"></rect>
                <rect id="p69" x="36.694" y="83.053" width="9.119" height="9.119"></rect>
                <rect id="p70" x="36.694" y="110.411" width="9.119" height="9.119"></rect>
                <rect id="p71" x="36.694" y="128.65" width="9.119" height="9.119"></rect>
                <rect id="p72" x="36.694" y="146.889" width="9.119" height="9.119"></rect>
                <rect id="p73" x="36.694" y="201.606" width="9.119" height="9.119"></rect>
                <rect id="p74" x="36.694" y="219.845" width="9.119" height="9.119"></rect>
                <rect id="p75" x="36.694" y="228.964" width="9.119" height="9.119"></rect>
                <rect id="p76" x="36.694" y="238.084" width="9.119" height="9.119"></rect>
                <rect id="p77" x="36.694" y="256.323" width="9.119" height="9.119"></rect>
                <rect id="p78" x="45.813" y="0.977" width="9.119" height="9.119"></rect>
                <rect id="p79" x="45.813" y="55.694" width="9.119" height="9.119"></rect>
                <rect id="p80" x="45.813" y="73.933" width="9.119" height="9.119"></rect>
                <rect id="p81" x="45.813" y="92.172" width="9.119" height="9.119"></rect>
                <rect id="p82" x="45.813" y="110.411" width="9.119" height="9.119"></rect>
                <rect id="p83" x="45.813" y="119.531" width="9.119" height="9.119"></rect>
                <rect id="p84" x="45.813" y="146.889" width="9.119" height="9.119"></rect>
                <rect id="p85" x="45.813" y="156.009" width="9.119" height="9.119"></rect>
                <rect id="p86" x="45.813" y="174.248" width="9.119" height="9.119"></rect>
                <rect id="p87" x="45.813" y="201.606" width="9.119" height="9.119"></rect>
                <rect id="p88" x="45.813" y="256.323" width="9.119" height="9.119"></rect>
                <rect id="p89" x="54.933" y="0.977" width="9.119" height="9.119"></rect>
                <rect id="p90" x="54.933" y="10.097" width="9.119" height="9.119"></rect>
                <rect id="p91" x="54.933" y="19.216" width="9.119" height="9.119"></rect>
                <rect id="p92" x="54.933" y="28.336" width="9.119" height="9.119"></rect>
                <rect id="p93" x="54.933" y="37.455" width="9.119" height="9.119"></rect>
                <rect id="p94" x="54.933" y="46.575" width="9.119" height="9.119"></rect>
                <rect id="p95" x="54.933" y="55.694" width="9.119" height="9.119"></rect>
                <rect id="p96" x="54.933" y="73.933" width="9.119" height="9.119"></rect>
                <rect id="p97" x="54.933" y="92.172" width="9.119" height="9.119"></rect>
                <rect id="p98" x="54.933" y="110.411" width="9.119" height="9.119"></rect>
                <rect id="p99" x="54.933" y="128.65" width="9.119" height="9.119"></rect>
                <rect id="p100" x="54.933" y="146.889" width="9.119" height="9.119"></rect>
                <rect id="p101" x="54.933" y="165.128" width="9.119" height="9.119"></rect>
                <rect id="p102" x="54.933" y="183.367" width="9.119" height="9.119"></rect>
                <rect id="p103" x="54.933" y="201.606" width="9.119" height="9.119"></rect>
                <rect id="p104" x="54.933" y="210.725" width="9.119" height="9.119"></rect>
                <rect id="p105" x="54.933" y="219.845" width="9.119" height="9.119"></rect>
                <rect id="p106" x="54.933" y="228.964" width="9.119" height="9.119"></rect>
                <rect id="p107" x="54.933" y="238.084" width="9.119" height="9.119"></rect>
                <rect id="p108" x="54.933" y="247.203" width="9.119" height="9.119"></rect>
                <rect id="p109" x="54.933" y="256.323" width="9.119" height="9.119"></rect>
                <rect id="p110" x="64.052" y="73.933" width="9.119" height="9.119"></rect>
                <rect id="p111" x="64.052" y="110.411" width="9.119" height="9.119"></rect>
                <rect id="p112" x="64.052" y="119.531" width="9.119" height="9.119"></rect>
                <rect id="p113" x="64.052" y="174.248" width="9.119" height="9.119"></rect>
                <rect id="p114" x="64.052" y="183.367" width="9.119" height="9.119"></rect>
                <rect id="p115" x="73.172" y="10.097" width="9.119" height="9.119"></rect>
                <rect id="p116" x="73.172" y="19.216" width="9.119" height="9.119"></rect>
                <rect id="p117" x="73.172" y="28.336" width="9.119" height="9.119"></rect>
                <rect id="p118" x="73.172" y="37.455" width="9.119" height="9.119"></rect>
                <rect id="p119" x="73.172" y="46.575" width="9.119" height="9.119"></rect>
                <rect id="p120" x="73.172" y="55.694" width="9.119" height="9.119"></rect>
                <rect id="p121" x="73.172" y="73.933" width="9.119" height="9.119"></rect>
                <rect id="p122" x="73.172" y="92.172" width="9.119" height="9.119"></rect>
                <rect id="p123" x="73.172" y="101.292" width="9.119" height="9.119"></rect>
                <rect id="p124" x="73.172" y="110.411" width="9.119" height="9.119"></rect>
                <rect id="p125" x="73.172" y="137.77" width="9.119" height="9.119"></rect>
                <rect id="p126" x="73.172" y="156.009" width="9.119" height="9.119"></rect>
                <rect id="p127" x="73.172" y="165.128" width="9.119" height="9.119"></rect>
                <rect id="p128" x="73.172" y="174.248" width="9.119" height="9.119"></rect>
                <rect id="p129" x="73.172" y="183.367" width="9.119" height="9.119"></rect>
                <rect id="p130" x="73.172" y="192.487" width="9.119" height="9.119"></rect>
                <rect id="p131" x="73.172" y="201.606" width="9.119" height="9.119"></rect>
                <rect id="p132" x="73.172" y="210.725" width="9.119" height="9.119"></rect>
                <rect id="p133" x="73.172" y="238.084" width="9.119" height="9.119"></rect>
                <rect id="p134" x="82.291" y="0.977" width="9.119" height="9.119"></rect>
                <rect id="p135" x="82.291" y="10.097" width="9.119" height="9.119"></rect>
                <rect id="p136" x="82.291" y="28.336" width="9.119" height="9.119"></rect>
                <rect id="p137" x="82.291" y="37.455" width="9.119" height="9.119"></rect>
                <rect id="p138" x="82.291" y="64.814" width="9.119" height="9.119"></rect>
                <rect id="p139" x="82.291" y="73.933" width="9.119" height="9.119"></rect>
                <rect id="p140" x="82.291" y="83.053" width="9.119" height="9.119"></rect>
                <rect id="p141" x="82.291" y="92.172" width="9.119" height="9.119"></rect>
                <rect id="p142" x="82.291" y="110.411" width="9.119" height="9.119"></rect>
                <rect id="p143" x="82.291" y="146.889" width="9.119" height="9.119"></rect>
                <rect id="p144" x="82.291" y="183.367" width="9.119" height="9.119"></rect>
                <rect id="p145" x="82.291" y="210.725" width="9.119" height="9.119"></rect>
                <rect id="p146" x="82.291" y="247.203" width="9.119" height="9.119"></rect>
                <rect id="p147" x="91.411" y="0.977" width="9.119" height="9.119"></rect>
                <rect id="p148" x="91.411" y="10.097" width="9.119" height="9.119"></rect>
                <rect id="p149" x="91.411" y="28.336" width="9.119" height="9.119"></rect>
                <rect id="p150" x="91.411" y="46.575" width="9.119" height="9.119"></rect>
                <rect id="p151" x="91.411" y="55.694" width="9.119" height="9.119"></rect>
                <rect id="p152" x="91.411" y="73.933" width="9.119" height="9.119"></rect>
                <rect id="p153" x="91.411" y="92.172" width="9.119" height="9.119"></rect>
                <rect id="p154" x="91.411" y="101.292" width="9.119" height="9.119"></rect>
                <rect id="p155" x="91.411" y="110.411" width="9.119" height="9.119"></rect>
                <rect id="p156" x="91.411" y="128.65" width="9.119" height="9.119"></rect>
                <rect id="p157" x="91.411" y="146.889" width="9.119" height="9.119"></rect>
                <rect id="p158" x="91.411" y="156.009" width="9.119" height="9.119"></rect>
                <rect id="p159" x="91.411" y="165.128" width="9.119" height="9.119"></rect>
                <rect id="p160" x="91.411" y="183.367" width="9.119" height="9.119"></rect>
                <rect id="p161" x="91.411" y="192.487" width="9.119" height="9.119"></rect>
                <rect id="p162" x="91.411" y="228.964" width="9.119" height="9.119"></rect>
                <rect id="p163" x="100.53" y="10.097" width="9.119" height="9.119"></rect>
                <rect id="p164" x="100.53" y="28.336" width="9.119" height="9.119"></rect>
                <rect id="p165" x="100.53" y="83.053" width="9.119" height="9.119"></rect>
                <rect id="p166" x="100.53" y="92.172" width="9.119" height="9.119"></rect>
                <rect id="p167" x="100.53" y="119.531" width="9.119" height="9.119"></rect>
                <rect id="p168" x="100.53" y="128.65" width="9.119" height="9.119"></rect>
                <rect id="p169" x="100.53" y="137.77" width="9.119" height="9.119"></rect>
                <rect id="p170" x="100.53" y="165.128" width="9.119" height="9.119"></rect>
                <rect id="p171" x="100.53" y="174.248" width="9.119" height="9.119"></rect>
                <rect id="p172" x="100.53" y="183.367" width="9.119" height="9.119"></rect>
                <rect id="p173" x="100.53" y="219.845" width="9.119" height="9.119"></rect>
                <rect id="p174" x="100.53" y="228.964" width="9.119" height="9.119"></rect>
                <rect id="p175" x="100.53" y="238.084" width="9.119" height="9.119"></rect>
                <rect id="p176" x="109.65" y="10.097" width="9.119" height="9.119"></rect>
                <rect id="p177" x="109.65" y="19.216" width="9.119" height="9.119"></rect>
                <rect id="p178" x="109.65" y="37.455" width="9.119" height="9.119"></rect>
                <rect id="p179" x="109.65" y="46.575" width="9.119" height="9.119"></rect>
                <rect id="p180" x="109.65" y="55.694" width="9.119" height="9.119"></rect>
                <rect id="p181" x="109.65" y="64.814" width="9.119" height="9.119"></rect>
                <rect id="p182" x="109.65" y="83.053" width="9.119" height="9.119"></rect>
                <rect id="p183" x="109.65" y="92.172" width="9.119" height="9.119"></rect>
                <rect id="p184" x="109.65" y="101.292" width="9.119" height="9.119"></rect>
                <rect id="p185" x="109.65" y="110.411" width="9.119" height="9.119"></rect>
                <rect id="p186" x="109.65" y="137.77" width="9.119" height="9.119"></rect>
                <rect id="p187" x="109.65" y="146.889" width="9.119" height="9.119"></rect>
                <rect id="p188" x="109.65" y="165.128" width="9.119" height="9.119"></rect>
                <rect id="p189" x="109.65" y="183.367" width="9.119" height="9.119"></rect>
                <rect id="p190" x="109.65" y="210.725" width="9.119" height="9.119"></rect>
                <rect id="p191" x="109.65" y="238.084" width="9.119" height="9.119"></rect>
                <rect id="p192" x="109.65" y="247.203" width="9.119" height="9.119"></rect>
                <rect id="p193" x="118.769" y="0.977" width="9.119" height="9.119"></rect>
                <rect id="p194" x="118.769" y="10.097" width="9.119" height="9.119"></rect>
                <rect id="p195" x="118.769" y="19.216" width="9.119" height="9.119"></rect>
                <rect id="p196" x="118.769" y="28.336" width="9.119" height="9.119"></rect>
                <rect id="p197" x="118.769" y="64.814" width="9.119" height="9.119"></rect>
                <rect id="p198" x="118.769" y="92.172" width="9.119" height="9.119"></rect>
                <rect id="p199" x="118.769" y="137.77" width="9.119" height="9.119"></rect>
                <rect id="p200" x="118.769" y="146.889" width="9.119" height="9.119"></rect>
                <rect id="p201" x="118.769" y="165.128" width="9.119" height="9.119"></rect>
                <rect id="p202" x="118.769" y="183.367" width="9.119" height="9.119"></rect>
                <rect id="p203" x="118.769" y="192.487" width="9.119" height="9.119"></rect>
                <rect id="p204" x="118.769" y="201.606" width="9.119" height="9.119"></rect>
                <rect id="p205" x="118.769" y="210.725" width="9.119" height="9.119"></rect>
                <rect id="p206" x="118.769" y="228.964" width="9.119" height="9.119"></rect>
                <rect id="p207" x="118.769" y="238.084" width="9.119" height="9.119"></rect>
                <rect id="p208" x="118.769" y="256.323" width="9.119" height="9.119"></rect>
                <rect id="p209" x="127.889" y="0.977" width="9.119" height="9.119"></rect>
                <rect id="p210" x="127.889" y="37.455" width="9.119" height="9.119"></rect>
                <rect id="p211" x="127.889" y="46.575" width="9.119" height="9.119"></rect>
                <rect id="p212" x="127.889" y="55.694" width="9.119" height="9.119"></rect>
                <rect id="p213" x="127.889" y="83.053" width="9.119" height="9.119"></rect>
                <rect id="p214" x="127.889" y="92.172" width="9.119" height="9.119"></rect>
                <rect id="p215" x="127.889" y="119.531" width="9.119" height="9.119"></rect>
                <rect id="p216" x="127.889" y="137.77" width="9.119" height="9.119"></rect>
                <rect id="p217" x="127.889" y="165.128" width="9.119" height="9.119"></rect>
                <rect id="p218" x="127.889" y="192.487" width="9.119" height="9.119"></rect>
                <rect id="p219" x="127.889" y="201.606" width="9.119" height="9.119"></rect>
                <rect id="p220" x="127.889" y="210.725" width="9.119" height="9.119"></rect>
                <rect id="p221" x="127.889" y="219.845" width="9.119" height="9.119"></rect>
                <rect id="p222" x="127.889" y="228.964" width="9.119" height="9.119"></rect>
                <rect id="p223" x="137.008" y="10.097" width="9.119" height="9.119"></rect>
                <rect id="p224" x="137.008" y="19.216" width="9.119" height="9.119"></rect>
                <rect id="p225" x="137.008" y="28.336" width="9.119" height="9.119"></rect>
                <rect id="p226" x="137.008" y="46.575" width="9.119" height="9.119"></rect>
                <rect id="p227" x="137.008" y="64.814" width="9.119" height="9.119"></rect>
                <rect id="p228" x="137.008" y="137.77" width="9.119" height="9.119"></rect>
                <rect id="p229" x="137.008" y="174.248" width="9.119" height="9.119"></rect>
                <rect id="p230" x="137.008" y="192.487" width="9.119" height="9.119"></rect>
                <rect id="p231" x="137.008" y="210.725" width="9.119" height="9.119"></rect>
                <rect id="p232" x="137.008" y="228.964" width="9.119" height="9.119"></rect>
                <rect id="p233" x="137.008" y="247.203" width="9.119" height="9.119"></rect>
                <rect id="p234" x="146.128" y="19.216" width="9.119" height="9.119"></rect>
                <rect id="p235" x="146.128" y="28.336" width="9.119" height="9.119"></rect>
                <rect id="p236" x="146.128" y="55.694" width="9.119" height="9.119"></rect>
                <rect id="p237" x="146.128" y="64.814" width="9.119" height="9.119"></rect>
                <rect id="p238" x="146.128" y="73.933" width="9.119" height="9.119"></rect>
                <rect id="p239" x="146.128" y="83.053" width="9.119" height="9.119"></rect>
                <rect id="p240" x="146.128" y="101.292" width="9.119" height="9.119"></rect>
                <rect id="p241" x="146.128" y="128.65" width="9.119" height="9.119"></rect>
                <rect id="p242" x="146.128" y="137.77" width="9.119" height="9.119"></rect>
                <rect id="p243" x="146.128" y="146.889" width="9.119" height="9.119"></rect>
                <rect id="p244" x="146.128" y="156.009" width="9.119" height="9.119"></rect>
                <rect id="p245" x="146.128" y="165.128" width="9.119" height="9.119"></rect>
                <rect id="p246" x="146.128" y="183.367" width="9.119" height="9.119"></rect>
                <rect id="p247" x="146.128" y="219.845" width="9.119" height="9.119"></rect>
                <rect id="p248" x="146.128" y="228.964" width="9.119" height="9.119"></rect>
                <rect id="p249" x="146.128" y="256.323" width="9.119" height="9.119"></rect>
                <rect id="p250" x="155.247" y="19.216" width="9.119" height="9.119"></rect>
                <rect id="p251" x="155.247" y="28.336" width="9.119" height="9.119"></rect>
                <rect id="p252" x="155.247" y="37.455" width="9.119" height="9.119"></rect>
                <rect id="p253" x="155.247" y="73.933" width="9.119" height="9.119"></rect>
                <rect id="p254" x="155.247" y="92.172" width="9.119" height="9.119"></rect>
                <rect id="p255" x="155.247" y="128.65" width="9.119" height="9.119"></rect>
                <rect id="p256" x="155.247" y="156.009" width="9.119" height="9.119"></rect>
                <rect id="p257" x="155.247" y="165.128" width="9.119" height="9.119"></rect>
                <rect id="p258" x="155.247" y="174.248" width="9.119" height="9.119"></rect>
                <rect id="p259" x="155.247" y="183.367" width="9.119" height="9.119"></rect>
                <rect id="p260" x="155.247" y="219.845" width="9.119" height="9.119"></rect>
                <rect id="p261" x="155.247" y="238.084" width="9.119" height="9.119"></rect>
                <rect id="p262" x="155.247" y="256.323" width="9.119" height="9.119"></rect>
                <rect id="p263" x="164.367" y="0.977" width="9.119" height="9.119"></rect>
                <rect id="p264" x="164.367" y="10.097" width="9.119" height="9.119"></rect>
                <rect id="p265" x="164.367" y="19.216" width="9.119" height="9.119"></rect>
                <rect id="p266" x="164.367" y="28.336" width="9.119" height="9.119"></rect>
                <rect id="p267" x="164.367" y="37.455" width="9.119" height="9.119"></rect>
                <rect id="p268" x="164.367" y="55.694" width="9.119" height="9.119"></rect>
                <rect id="p269" x="164.367" y="64.814" width="9.119" height="9.119"></rect>
                <rect id="p270" x="164.367" y="73.933" width="9.119" height="9.119"></rect>
                <rect id="p271" x="164.367" y="83.053" width="9.119" height="9.119"></rect>
                <rect id="p272" x="164.367" y="110.411" width="9.119" height="9.119"></rect>
                <rect id="p273" x="164.367" y="119.531" width="9.119" height="9.119"></rect>
                <rect id="p274" x="164.367" y="128.65" width="9.119" height="9.119"></rect>
                <rect id="p275" x="164.367" y="137.77" width="9.119" height="9.119"></rect>
                <rect id="p276" x="164.367" y="192.487" width="9.119" height="9.119"></rect>
                <rect id="p277" x="164.367" y="201.606" width="9.119" height="9.119"></rect>
                <rect id="p278" x="164.367" y="210.725" width="9.119" height="9.119"></rect>
                <rect id="p279" x="164.367" y="219.845" width="9.119" height="9.119"></rect>
                <rect id="p280" x="164.367" y="238.084" width="9.119" height="9.119"></rect>
                <rect id="p281" x="164.367" y="256.323" width="9.119" height="9.119"></rect>
                <rect id="p282" x="173.486" y="0.977" width="9.119" height="9.119"></rect>
                <rect id="p283" x="173.486" y="10.097" width="9.119" height="9.119"></rect>
                <rect id="p284" x="173.486" y="28.336" width="9.119" height="9.119"></rect>
                <rect id="p285" x="173.486" y="92.172" width="9.119" height="9.119"></rect>
                <rect id="p286" x="173.486" y="110.411" width="9.119" height="9.119"></rect>
                <rect id="p287" x="173.486" y="119.531" width="9.119" height="9.119"></rect>
                <rect id="p288" x="173.486" y="128.65" width="9.119" height="9.119"></rect>
                <rect id="p289" x="173.486" y="146.889" width="9.119" height="9.119"></rect>
                <rect id="p290" x="173.486" y="174.248" width="9.119" height="9.119"></rect>
                <rect id="p291" x="173.486" y="210.725" width="9.119" height="9.119"></rect>
                <rect id="p292" x="173.486" y="219.845" width="9.119" height="9.119"></rect>
                <rect id="p293" x="173.486" y="247.203" width="9.119" height="9.119"></rect>
                <rect id="p294" x="173.486" y="256.323" width="9.119" height="9.119"></rect>
                <rect id="p295" x="182.606" y="55.694" width="9.119" height="9.119"></rect>
                <rect id="p296" x="182.606" y="64.814" width="9.119" height="9.119"></rect>
                <rect id="p297" x="182.606" y="110.411" width="9.119" height="9.119"></rect>
                <rect id="p298" x="182.606" y="119.531" width="9.119" height="9.119"></rect>
                <rect id="p299" x="182.606" y="146.889" width="9.119" height="9.119"></rect>
                <rect id="p300" x="182.606" y="156.009" width="9.119" height="9.119"></rect>
                <rect id="p301" x="182.606" y="165.128" width="9.119" height="9.119"></rect>
                <rect id="p302" x="182.606" y="174.248" width="9.119" height="9.119"></rect>
                <rect id="p303" x="182.606" y="183.367" width="9.119" height="9.119"></rect>
                <rect id="p304" x="182.606" y="192.487" width="9.119" height="9.119"></rect>
                <rect id="p305" x="182.606" y="201.606" width="9.119" height="9.119"></rect>
                <rect id="p306" x="182.606" y="210.725" width="9.119" height="9.119"></rect>
                <rect id="p307" x="182.606" y="219.845" width="9.119" height="9.119"></rect>
                <rect id="p308" x="182.606" y="238.084" width="9.119" height="9.119"></rect>
                <rect id="p309" x="182.606" y="256.323" width="9.119" height="9.119"></rect>
                <rect id="p310" x="191.725" y="73.933" width="9.119" height="9.119"></rect>
                <rect id="p311" x="191.725" y="101.292" width="9.119" height="9.119"></rect>
                <rect id="p312" x="191.725" y="110.411" width="9.119" height="9.119"></rect>
                <rect id="p313" x="191.725" y="174.248" width="9.119" height="9.119"></rect>
                <rect id="p314" x="191.725" y="183.367" width="9.119" height="9.119"></rect>
                <rect id="p315" x="191.725" y="219.845" width="9.119" height="9.119"></rect>
                <rect id="p316" x="191.725" y="228.964" width="9.119" height="9.119"></rect>
                <rect id="p317" x="191.725" y="238.084" width="9.119" height="9.119"></rect>
                <rect id="p318" x="200.845" y="0.977" width="9.119" height="9.119"></rect>
                <rect id="p319" x="200.845" y="10.097" width="9.119" height="9.119"></rect>
                <rect id="p320" x="200.845" y="19.216" width="9.119" height="9.119"></rect>
                <rect id="p321" x="200.845" y="28.336" width="9.119" height="9.119"></rect>
                <rect id="p322" x="200.845" y="37.455" width="9.119" height="9.119"></rect>
                <rect id="p323" x="200.845" y="46.575" width="9.119" height="9.119"></rect>
                <rect id="p324" x="200.845" y="55.694" width="9.119" height="9.119"></rect>
                <rect id="p325" x="200.845" y="101.292" width="9.119" height="9.119"></rect>
                <rect id="p326" x="200.845" y="110.411" width="9.119" height="9.119"></rect>
                <rect id="p327" x="200.845" y="119.531" width="9.119" height="9.119"></rect>
                <rect id="p328" x="200.845" y="137.77" width="9.119" height="9.119"></rect>
                <rect id="p329" x="200.845" y="174.248" width="9.119" height="9.119"></rect>
                <rect id="p330" x="200.845" y="183.367" width="9.119" height="9.119"></rect>
                <rect id="p331" x="200.845" y="201.606" width="9.119" height="9.119"></rect>
                <rect id="p332" x="200.845" y="219.845" width="9.119" height="9.119"></rect>
                <rect id="p333" x="200.845" y="256.323" width="9.119" height="9.119"></rect>
                <rect id="p334" x="209.964" y="0.977" width="9.119" height="9.119"></rect>
                <rect id="p335" x="209.964" y="55.694" width="9.119" height="9.119"></rect>
                <rect id="p336" x="209.964" y="73.933" width="9.119" height="9.119"></rect>
                <rect id="p337" x="209.964" y="101.292" width="9.119" height="9.119"></rect>
                <rect id="p338" x="209.964" y="110.411" width="9.119" height="9.119"></rect>
                <rect id="p339" x="209.964" y="128.65" width="9.119" height="9.119"></rect>
                <rect id="p340" x="209.964" y="146.889" width="9.119" height="9.119"></rect>
                <rect id="p341" x="209.964" y="174.248" width="9.119" height="9.119"></rect>
                <rect id="p342" x="209.964" y="183.367" width="9.119" height="9.119"></rect>
                <rect id="p343" x="209.964" y="219.845" width="9.119" height="9.119"></rect>
                <rect id="p344" x="209.964" y="228.964" width="9.119" height="9.119"></rect>
                <rect id="p345" x="209.964" y="238.084" width="9.119" height="9.119"></rect>
                <rect id="p346" x="209.964" y="256.323" width="9.119" height="9.119"></rect>
                <rect id="p347" x="219.084" y="0.977" width="9.119" height="9.119"></rect>
                <rect id="p348" x="219.084" y="19.216" width="9.119" height="9.119"></rect>
                <rect id="p349" x="219.084" y="28.336" width="9.119" height="9.119"></rect>
                <rect id="p350" x="219.084" y="37.455" width="9.119" height="9.119"></rect>
                <rect id="p351" x="219.084" y="55.694" width="9.119" height="9.119"></rect>
                <rect id="p352" x="219.084" y="73.933" width="9.119" height="9.119"></rect>
                <rect id="p353" x="219.084" y="101.292" width="9.119" height="9.119"></rect>
                <rect id="p354" x="219.084" y="137.77" width="9.119" height="9.119"></rect>
                <rect id="p355" x="219.084" y="183.367" width="9.119" height="9.119"></rect>
                <rect id="p356" x="219.084" y="192.487" width="9.119" height="9.119"></rect>
                <rect id="p357" x="219.084" y="201.606" width="9.119" height="9.119"></rect>
                <rect id="p358" x="219.084" y="210.725" width="9.119" height="9.119"></rect>
                <rect id="p359" x="219.084" y="219.845" width="9.119" height="9.119"></rect>
                <rect id="p360" x="219.084" y="228.964" width="9.119" height="9.119"></rect>
                <rect id="p361" x="219.084" y="238.084" width="9.119" height="9.119"></rect>
                <rect id="p362" x="219.084" y="256.323" width="9.119" height="9.119"></rect>
                <rect id="p363" x="228.203" y="0.977" width="9.119" height="9.119"></rect>
                <rect id="p364" x="228.203" y="19.216" width="9.119" height="9.119"></rect>
                <rect id="p365" x="228.203" y="28.336" width="9.119" height="9.119"></rect>
                <rect id="p366" x="228.203" y="37.455" width="9.119" height="9.119"></rect>
                <rect id="p367" x="228.203" y="55.694" width="9.119" height="9.119"></rect>
                <rect id="p368" x="228.203" y="73.933" width="9.119" height="9.119"></rect>
                <rect id="p369" x="228.203" y="83.053" width="9.119" height="9.119"></rect>
                <rect id="p370" x="228.203" y="92.172" width="9.119" height="9.119"></rect>
                <rect id="p371" x="228.203" y="101.292" width="9.119" height="9.119"></rect>
                <rect id="p372" x="228.203" y="110.411" width="9.119" height="9.119"></rect>
                <rect id="p373" x="228.203" y="119.531" width="9.119" height="9.119"></rect>
                <rect id="p374" x="228.203" y="128.65" width="9.119" height="9.119"></rect>
                <rect id="p375" x="228.203" y="137.77" width="9.119" height="9.119"></rect>
                <rect id="p376" x="228.203" y="156.009" width="9.119" height="9.119"></rect>
                <rect id="p377" x="228.203" y="174.248" width="9.119" height="9.119"></rect>
                <rect id="p378" x="228.203" y="192.487" width="9.119" height="9.119"></rect>
                <rect id="p379" x="228.203" y="201.606" width="9.119" height="9.119"></rect>
                <rect id="p380" x="228.203" y="210.725" width="9.119" height="9.119"></rect>
                <rect id="p381" x="228.203" y="238.084" width="9.119" height="9.119"></rect>
                <rect id="p382" x="228.203" y="247.203" width="9.119" height="9.119"></rect>
                <rect id="p383" x="228.203" y="256.323" width="9.119" height="9.119"></rect>
                <rect id="p384" x="237.323" y="0.977" width="9.119" height="9.119"></rect>
                <rect id="p385" x="237.323" y="19.216" width="9.119" height="9.119"></rect>
                <rect id="p386" x="237.323" y="28.336" width="9.119" height="9.119"></rect>
                <rect id="p387" x="237.323" y="37.455" width="9.119" height="9.119"></rect>
                <rect id="p388" x="237.323" y="55.694" width="9.119" height="9.119"></rect>
                <rect id="p389" x="237.323" y="73.933" width="9.119" height="9.119"></rect>
                <rect id="p390" x="237.323" y="83.053" width="9.119" height="9.119"></rect>
                <rect id="p391" x="237.323" y="128.65" width="9.119" height="9.119"></rect>
                <rect id="p392" x="237.323" y="156.009" width="9.119" height="9.119"></rect>
                <rect id="p393" x="237.323" y="201.606" width="9.119" height="9.119"></rect>
                <rect id="p394" x="246.442" y="0.977" width="9.119" height="9.119"></rect>
                <rect id="p395" x="246.442" y="55.694" width="9.119" height="9.119"></rect>
                <rect id="p396" x="246.442" y="73.933" width="9.119" height="9.119"></rect>
                <rect id="p397" x="246.442" y="83.053" width="9.119" height="9.119"></rect>
                <rect id="p398" x="246.442" y="110.411" width="9.119" height="9.119"></rect>
                <rect id="p399" x="246.442" y="128.65" width="9.119" height="9.119"></rect>
                <rect id="p400" x="246.442" y="146.889" width="9.119" height="9.119"></rect>
                <rect id="p401" x="246.442" y="183.367" width="9.119" height="9.119"></rect>
                <rect id="p402" x="246.442" y="192.487" width="9.119" height="9.119"></rect>
                <rect id="p403" x="246.442" y="210.725" width="9.119" height="9.119"></rect>
                <rect id="p404" x="246.442" y="219.845" width="9.119" height="9.119"></rect>
                <rect id="p405" x="246.442" y="228.964" width="9.119" height="9.119"></rect>
                <rect id="p406" x="246.442" y="238.084" width="9.119" height="9.119"></rect>
                <rect id="p407" x="255.562" y="0.977" width="9.119" height="9.119"></rect>
                <rect id="p408" x="255.562" y="10.097" width="9.119" height="9.119"></rect>
                <rect id="p409" x="255.562" y="19.216" width="9.119" height="9.119"></rect>
                <rect id="p410" x="255.562" y="28.336" width="9.119" height="9.119"></rect>
                <rect id="p411" x="255.562" y="37.455" width="9.119" height="9.119"></rect>
                <rect id="p412" x="255.562" y="46.575" width="9.119" height="9.119"></rect>
                <rect id="p413" x="255.562" y="55.694" width="9.119" height="9.119"></rect>
                <rect id="p414" x="255.562" y="83.053" width="9.119" height="9.119"></rect>
                <rect id="p415" x="255.562" y="92.172" width="9.119" height="9.119"></rect>
                <rect id="p416" x="255.562" y="119.531" width="9.119" height="9.119"></rect>
                <rect id="p417" x="255.562" y="128.65" width="9.119" height="9.119"></rect>
                <rect id="p418" x="255.562" y="137.77" width="9.119" height="9.119"></rect>
                <rect id="p419" x="255.562" y="146.889" width="9.119" height="9.119"></rect>
                <rect id="p420" x="255.562" y="156.009" width="9.119" height="9.119"></rect>
                <rect id="p421" x="255.562" y="165.128" width="9.119" height="9.119"></rect>
                <rect id="p422" x="255.562" y="174.248" width="9.119" height="9.119"></rect>
                <rect id="p423" x="255.562" y="183.367" width="9.119" height="9.119"></rect>
                <rect id="p424" x="255.562" y="192.487" width="9.119" height="9.119"></rect>
                <rect id="p425" x="255.562" y="201.606" width="9.119" height="9.119"></rect>
                <rect id="p426" x="255.562" y="219.845" width="9.119" height="9.119"></rect>
                <rect id="p427" x="255.562" y="238.084" width="9.119" height="9.119"></rect>
                <rect id="p428" x="255.562" y="256.323" width="9.119" height="9.119"></rect>
            </g>
        </g>
    </g>
</svg>