<?xml version="1.0" encoding="UTF-8" standalone="no"?><!DOCTYPE svg PUBLIC "-//W3C//DTD SVG 1.1//EN" "http://www.w3.org/Graphics/SVG/1.1/DTD/svg11.dtd"><svg width="100%" height="100%" viewBox="0 0 642 642" version="1.1" xmlns="http://www.w3.org/2000/svg" xmlns:xlink="http://www.w3.org/1999/xlink" xml:space="preserve" xmlns:serif="http://www.serif.com/" style="fill-rule:evenodd;clip-rule:evenodd;stroke-linejoin:round;stroke-miterlimit:1.41421;"><g id="tour-currency"><ellipse cx="321" cy="321.406" rx="210.086" ry="211.874" style="fill:#5c393e;fill-opacity:0.380392;"/><path d="M169.713,255.817l73.23,47.868l78.057,-61.255l57.884,-3.44l48.819,-53.298l57.627,32.025l121.204,-41.123l35.537,-12.734l-0.071,260.776l-642,-2.164l0,-104.322l94.996,-2.857l74.717,-59.476Z" style="fill:#5c393e;fill-opacity:0.415686;"/><path d="M643.172,161.615l0.775,0.593l0.49,0.844l0.129,0.966l-0.251,0.943l-0.592,0.775l-0.844,0.49l-86.192,29.443l-0.05,0.016l-76.729,22.67l-1.071,-0.15l-50.623,-32.061l-49.142,54.226l-0.925,0.427l-56.134,1.72l-78.56,65.792l-1.717,0.061l-71.862,-51.999l-73.262,59.695l-0.713,0.284l-95.713,7.143l-0.968,-0.119l-0.849,-0.48l-0.601,-0.768l-0.261,-0.94l0.119,-0.968l0.48,-0.849l0.768,-0.601l0.94,-0.261l94.546,-7.056l74.503,-60.706l1.698,-0.048l71.833,51.977l77.394,-64.816l0.786,-0.299l55.848,-1.712l50.112,-55.296l1.807,-0.245l51.757,32.779l75.047,-22.173l86.118,-29.418l0.967,-0.129l0.942,0.25Z" style="fill:#9b5e66;"/><ellipse cx="321.071" cy="246.105" rx="7.716" ry="7.115" style="fill:#5c393e;fill-opacity:0.686275;"/><path d="M321.08,235.99l0.117,0.001l0.017,0l0.117,0.002l0.018,0l0.116,0.004l0.018,0l0.116,0.005l0.018,0.001l0.116,0.006l0.017,0.001l0.116,0.008l0.017,0.001l0.115,0.009l0.018,0.001l0.115,0.01l0.017,0.002l0.115,0.011l0.017,0.002l0.114,0.013l0.018,0.002l0.113,0.014l0.017,0.002l0.114,0.015l0.017,0.003l0.113,0.016l0.017,0.003l0.112,0.018l0.017,0.003l0.113,0.019l0.017,0.003l0.112,0.02l0.016,0.003l0.111,0.022l0.018,0.004l0.11,0.022l0.017,0.004l0.111,0.024l0.017,0.004l0.109,0.025l0.017,0.004l0.109,0.027l0.017,0.004l0.109,0.028l0.016,0.004l0.108,0.029l0.017,0.005l0.108,0.03l0.016,0.005l0.108,0.031l0.017,0.006l0.106,0.032l0.016,0.005l0.106,0.034l0.016,0.005l0.106,0.035l0.016,0.006l0.105,0.036l0.017,0.006l0.104,0.037l0.016,0.006l0.103,0.038l0.017,0.006l0.103,0.04l0.016,0.006l0.103,0.041l0.015,0.006l0.102,0.042l0.016,0.007l0.102,0.043l0.016,0.007l0.1,0.043l0.015,0.007l0.1,0.045l0.016,0.008l0.1,0.046l0.015,0.007l0.098,0.047l0.016,0.008l0.098,0.048l0.016,0.008l0.097,0.05l0.015,0.008l0.096,0.05l0.016,0.008l0.095,0.052l0.016,0.008l0.095,0.052l0.015,0.009l0.095,0.054l0.015,0.008l0.093,0.055l0.015,0.009l0.093,0.055l0.015,0.009l0.092,0.057l0.015,0.01l0.092,0.057l0.014,0.009l0.09,0.059l0.015,0.01l0.09,0.06l0.014,0.009l0.089,0.061l0.015,0.01l0.088,0.061l0.015,0.011l0.087,0.062l0.014,0.01l0.087,0.064l0.014,0.011l0.086,0.064l0.014,0.011l0.085,0.065l0.014,0.011l0.084,0.067l0.014,0.011l0.083,0.067l0.013,0.011l0.083,0.068l0.014,0.012l0.082,0.069l0.013,0.012l0.081,0.07l0.013,0.011l0.08,0.071l0.013,0.012l0.079,0.072l0.013,0.013l0.078,0.072l0.013,0.012l0.077,0.074l0.014,0.013l0.076,0.075l0.012,0.012l0.076,0.076l0.012,0.012l0.075,0.077l0.012,0.013l0.074,0.077l0.012,0.013l0.073,0.078l0.012,0.014l0.071,0.079l0.012,0.013l0.071,0.08l0.012,0.014l0.07,0.08l0.012,0.014l0.068,0.082l0.012,0.014l0.067,0.082l0.012,0.014l0.066,0.083l0.012,0.015l0.066,0.084l0.011,0.014l0.064,0.085l0.011,0.014l0.064,0.086l0.011,0.015l0.062,0.087l0.011,0.015l0.061,0.087l0.011,0.015l0.06,0.088l0.01,0.015l0.06,0.088l0.01,0.016l0.058,0.09l0.011,0.016l0.057,0.09l0.01,0.016l0.055,0.091l0.01,0.016l0.055,0.091l0.009,0.016l0.054,0.093l0.01,0.016l0.052,0.094l0.01,0.016l0.051,0.094l0.009,0.016l0.05,0.095l0.009,0.017l0.049,0.095l0.008,0.017l0.048,0.096l0.009,0.017l0.046,0.097l0.009,0.017l0.045,0.097l0.008,0.018l0.044,0.097l0.008,0.018l0.043,0.099l0.008,0.018l0.041,0.099l0.008,0.018l0.04,0.099l0.007,0.019l0.039,0.1l0.007,0.018l0.038,0.101l0.007,0.019l0.037,0.102l0.006,0.018l0.035,0.102l0.007,0.019l0.033,0.103l0.007,0.018l0.032,0.104l0.006,0.019l0.031,0.104l0.006,0.019l0.03,0.104l0.005,0.019l0.029,0.105l0.005,0.02l0.027,0.105l0.005,0.019l0.026,0.106l0.004,0.02l0.025,0.106l0.004,0.02l0.023,0.107l0.004,0.02l0.022,0.107l0.004,0.02l0.02,0.108l0.003,0.02l0.019,0.108l0.003,0.02l0.018,0.109l0.003,0.02l0.016,0.109l0.002,0.021l0.015,0.109l0.002,0.02l0.013,0.11l0.002,0.02l0.012,0.11l0.002,0.021l0.01,0.11l0.001,0.021l0.009,0.111l0.001,0.021l0.007,0.111l0.001,0.02l0.006,0.112l0,0.021l0.004,0.112l0.001,0.021l0.002,0.112l0,0.02l0.001,0.112l0,0.022l-0.001,0.112l0,0.02l-0.002,0.112l-0.001,0.021l-0.004,0.112l0,0.021l-0.006,0.112l-0.001,0.02l-0.007,0.111l-0.001,0.021l-0.009,0.111l-0.001,0.021l-0.01,0.11l-0.002,0.021l-0.012,0.11l-0.002,0.02l-0.013,0.11l-0.002,0.02l-0.015,0.109l-0.002,0.021l-0.016,0.109l-0.003,0.02l-0.018,0.109l-0.003,0.02l-0.019,0.108l-0.003,0.02l-0.02,0.108l-0.004,0.02l-0.022,0.107l-0.004,0.02l-0.023,0.107l-0.004,0.02l-0.025,0.106l-0.004,0.02l-0.026,0.106l-0.005,0.019l-0.027,0.105l-0.005,0.02l-0.029,0.105l-0.005,0.019l-0.03,0.104l-0.006,0.019l-0.031,0.104l-0.006,0.019l-0.033,0.104l-0.006,0.019l-0.034,0.102l-0.006,0.019l-0.035,0.102l-0.007,0.018l-0.036,0.102l-0.007,0.018l-0.038,0.101l-0.007,0.019l-0.039,0.1l-0.007,0.019l-0.041,0.099l-0.007,0.018l-0.041,0.099l-0.008,0.018l-0.043,0.098l-0.008,0.018l-0.044,0.098l-0.008,0.018l-0.046,0.097l-0.008,0.017l-0.046,0.097l-0.009,0.017l-0.048,0.096l-0.009,0.017l-0.048,0.095l-0.009,0.017l-0.05,0.094l-0.009,0.017l-0.052,0.094l-0.009,0.017l-0.052,0.093l-0.01,0.016l-0.053,0.092l-0.01,0.017l-0.055,0.092l-0.01,0.015l-0.055,0.091l-0.011,0.016l-0.057,0.09l-0.01,0.016l-0.058,0.09l-0.01,0.015l-0.059,0.089l-0.011,0.015l-0.06,0.088l-0.011,0.015l-0.061,0.087l-0.011,0.015l-0.062,0.087l-0.011,0.015l-0.064,0.086l-0.011,0.014l-0.064,0.085l-0.011,0.014l-0.066,0.084l-0.012,0.015l-0.066,0.083l-0.012,0.014l-0.067,0.082l-0.012,0.014l-0.069,0.082l-0.011,0.014l-0.07,0.08l-0.012,0.014l-0.07,0.08l-0.013,0.013l-0.071,0.079l-0.012,0.014l-0.073,0.078l-0.012,0.013l-0.074,0.077l-0.012,0.013l-0.074,0.076l-0.013,0.013l-0.076,0.076l-0.012,0.012l-0.077,0.075l-0.013,0.013l-0.077,0.073l-0.012,0.012l-0.078,0.073l-0.014,0.013l-0.079,0.072l-0.013,0.011l-0.08,0.071l-0.013,0.012l-0.081,0.07l-0.014,0.012l-0.081,0.069l-0.014,0.012l-0.082,0.068l-0.014,0.011l-0.083,0.067l-0.014,0.012l-0.085,0.066l-0.013,0.011l-0.085,0.065l-0.014,0.011l-0.086,0.064l-0.014,0.011l-0.087,0.064l-0.014,0.01l-0.087,0.062l-0.014,0.01l-0.089,0.062l-0.014,0.01l-0.09,0.061l-0.014,0.01l-0.09,0.059l-0.014,0.01l-0.091,0.058l-0.015,0.01l-0.091,0.058l-0.015,0.009l-0.092,0.056l-0.015,0.01l-0.093,0.055l-0.014,0.009l-0.094,0.054l-0.016,0.009l-0.094,0.054l-0.015,0.008l-0.095,0.053l-0.015,0.008l-0.096,0.052l-0.016,0.008l-0.096,0.05l-0.015,0.008l-0.097,0.05l-0.016,0.008l-0.098,0.048l-0.015,0.007l-0.099,0.048l-0.016,0.007l-0.099,0.046l-0.016,0.007l-0.099,0.046l-0.016,0.006l-0.1,0.045l-0.017,0.007l-0.101,0.042l-0.016,0.007l-0.102,0.042l-0.016,0.006l-0.102,0.041l-0.016,0.006l-0.103,0.04l-0.016,0.006l-0.104,0.038l-0.017,0.006l-0.104,0.038l-0.016,0.005l-0.105,0.036l-0.016,0.006l-0.105,0.035l-0.017,0.005l-0.106,0.034l-0.016,0.005l-0.107,0.033l-0.017,0.005l-0.106,0.031l-0.017,0.005l-0.108,0.03l-0.017,0.005l-0.108,0.029l-0.016,0.004l-0.109,0.028l-0.017,0.004l-0.109,0.026l-0.017,0.004l-0.109,0.026l-0.017,0.004l-0.111,0.024l-0.017,0.004l-0.111,0.022l-0.016,0.004l-0.111,0.021l-0.018,0.004l-0.111,0.02l-0.017,0.003l-0.112,0.019l-0.017,0.003l-0.113,0.018l-0.017,0.003l-0.113,0.016l-0.017,0.003l-0.113,0.015l-0.018,0.002l-0.114,0.014l-0.017,0.002l-0.114,0.013l-0.017,0.002l-0.115,0.011l-0.017,0.002l-0.115,0.01l-0.017,0.001l-0.116,0.009l-0.017,0.001l-0.116,0.008l-0.017,0.001l-0.116,0.006l-0.018,0.001l-0.116,0.004l-0.018,0.001l-0.116,0.003l-0.017,0.001l-0.117,0.002l-0.018,0l-0.117,0.001l-0.018,0l-0.117,-0.001l-0.018,0l-0.117,-0.002l-0.017,-0.001l-0.116,-0.003l-0.018,-0.001l-0.116,-0.004l-0.018,-0.001l-0.116,-0.006l-0.017,-0.001l-0.116,-0.008l-0.018,-0.001l-0.115,-0.009l-0.017,-0.001l-0.115,-0.01l-0.017,-0.002l-0.115,-0.011l-0.017,-0.002l-0.114,-0.013l-0.017,-0.002l-0.114,-0.014l-0.018,-0.002l-0.113,-0.015l-0.017,-0.003l-0.113,-0.016l-0.017,-0.003l-0.113,-0.018l-0.017,-0.003l-0.112,-0.019l-0.017,-0.003l-0.111,-0.02l-0.018,-0.004l-0.111,-0.021l-0.017,-0.004l-0.11,-0.022l-0.017,-0.004l-0.111,-0.024l-0.017,-0.004l-0.109,-0.026l-0.018,-0.004l-0.109,-0.026l-0.016,-0.004l-0.109,-0.028l-0.016,-0.004l-0.108,-0.029l-0.017,-0.005l-0.108,-0.03l-0.017,-0.005l-0.107,-0.032l-0.016,-0.004l-0.107,-0.033l-0.016,-0.005l-0.106,-0.034l-0.017,-0.005l-0.105,-0.035l-0.017,-0.006l-0.104,-0.036l-0.016,-0.006l-0.105,-0.037l-0.016,-0.006l-0.104,-0.038l-0.016,-0.006l-0.103,-0.04l-0.016,-0.006l-0.103,-0.041l-0.016,-0.006l-0.101,-0.042l-0.016,-0.007l-0.101,-0.042l-0.016,-0.007l-0.101,-0.044l-0.016,-0.008l-0.1,-0.045l-0.015,-0.007l-0.099,-0.046l-0.016,-0.007l-0.099,-0.048l-0.015,-0.007l-0.098,-0.048l-0.016,-0.008l-0.097,-0.05l-0.015,-0.008l-0.097,-0.05l-0.015,-0.008l-0.096,-0.052l-0.016,-0.008l-0.095,-0.053l-0.014,-0.008l-0.094,-0.054l-0.016,-0.008l-0.094,-0.055l-0.014,-0.009l-0.093,-0.055l-0.015,-0.01l-0.092,-0.056l-0.015,-0.009l-0.091,-0.058l-0.015,-0.01l-0.091,-0.058l-0.014,-0.01l-0.09,-0.059l-0.015,-0.01l-0.089,-0.061l-0.014,-0.01l-0.089,-0.062l-0.014,-0.01l-0.087,-0.062l-0.014,-0.01l-0.087,-0.064l-0.014,-0.011l-0.086,-0.064l-0.014,-0.011l-0.085,-0.065l-0.014,-0.011l-0.084,-0.067l-0.014,-0.011l-0.083,-0.067l-0.014,-0.011l-0.082,-0.068l-0.014,-0.012l-0.081,-0.069l-0.014,-0.012l-0.081,-0.07l-0.013,-0.012l-0.08,-0.071l-0.013,-0.011l-0.079,-0.072l-0.014,-0.013l-0.078,-0.073l-0.013,-0.012l-0.077,-0.073l-0.012,-0.013l-0.077,-0.074l-0.012,-0.013l-0.076,-0.076l-0.013,-0.013l-0.074,-0.076l-0.012,-0.013l-0.074,-0.077l-0.012,-0.013l-0.073,-0.078l-0.012,-0.014l-0.072,-0.079l-0.012,-0.013l-0.07,-0.08l-0.013,-0.014l-0.069,-0.081l-0.012,-0.013l-0.068,-0.082l-0.012,-0.013l-0.067,-0.083l-0.012,-0.014l-0.067,-0.084l-0.011,-0.014l-0.066,-0.084l-0.011,-0.014l-0.064,-0.085l-0.012,-0.015l-0.063,-0.085l-0.011,-0.015l-0.062,-0.086l-0.011,-0.016l-0.061,-0.087l-0.011,-0.015l-0.06,-0.088l-0.011,-0.016l-0.059,-0.088l-0.011,-0.016l-0.058,-0.089l-0.01,-0.016l-0.057,-0.09l-0.01,-0.016l-0.055,-0.09l-0.01,-0.017l-0.055,-0.091l-0.01,-0.017l-0.053,-0.092l-0.01,-0.016l-0.052,-0.093l-0.009,-0.017l-0.052,-0.094l-0.009,-0.016l-0.05,-0.095l-0.009,-0.017l-0.049,-0.095l-0.009,-0.017l-0.047,-0.096l-0.009,-0.017l-0.046,-0.097l-0.009,-0.017l-0.045,-0.097l-0.008,-0.018l-0.044,-0.098l-0.008,-0.018l-0.043,-0.098l-0.008,-0.018l-0.041,-0.099l-0.008,-0.018l-0.04,-0.1l-0.007,-0.018l-0.04,-0.101l-0.007,-0.018l-0.037,-0.1l-0.007,-0.019l-0.036,-0.101l-0.007,-0.019l-0.035,-0.102l-0.007,-0.019l-0.034,-0.103l-0.006,-0.019l-0.032,-0.103l-0.006,-0.019l-0.031,-0.104l-0.006,-0.018l-0.03,-0.105l-0.005,-0.019l-0.029,-0.105l-0.005,-0.02l-0.027,-0.105l-0.005,-0.019l-0.026,-0.106l-0.005,-0.02l-0.024,-0.107l-0.004,-0.019l-0.023,-0.107l-0.004,-0.02l-0.022,-0.107l-0.004,-0.02l-0.02,-0.107l-0.004,-0.021l-0.018,-0.109l-0.004,-0.019l-0.017,-0.109l-0.003,-0.02l-0.016,-0.109l-0.002,-0.02l-0.015,-0.11l-0.002,-0.02l-0.013,-0.11l-0.003,-0.02l-0.011,-0.111l-0.002,-0.02l-0.01,-0.111l-0.001,-0.02l-0.009,-0.111l-0.001,-0.02l-0.007,-0.112l-0.001,-0.021l-0.006,-0.112l-0.001,-0.02l-0.003,-0.111l-0.001,-0.021l-0.002,-0.113l-0.001,-0.02l0,-0.113l0,-0.02l0,-0.113l0.001,-0.02l0.002,-0.113l0.001,-0.021l0.003,-0.112l0.001,-0.02l0.006,-0.111l0.001,-0.021l0.007,-0.112l0.001,-0.02l0.009,-0.111l0.001,-0.02l0.01,-0.111l0.002,-0.02l0.011,-0.111l0.003,-0.02l0.013,-0.11l0.002,-0.021l0.015,-0.109l0.002,-0.02l0.016,-0.109l0.003,-0.02l0.017,-0.109l0.004,-0.02l0.018,-0.108l0.004,-0.021l0.02,-0.107l0.004,-0.02l0.022,-0.107l0.004,-0.02l0.023,-0.107l0.004,-0.019l0.024,-0.107l0.005,-0.02l0.026,-0.106l0.005,-0.019l0.027,-0.105l0.005,-0.02l0.029,-0.105l0.005,-0.019l0.03,-0.105l0.006,-0.019l0.031,-0.103l0.006,-0.019l0.032,-0.103l0.006,-0.019l0.034,-0.103l0.007,-0.019l0.035,-0.102l0.006,-0.019l0.037,-0.101l0.007,-0.019l0.038,-0.101l0.006,-0.018l0.04,-0.1l0.007,-0.018l0.04,-0.1l0.008,-0.018l0.041,-0.099l0.008,-0.018l0.043,-0.099l0.008,-0.018l0.044,-0.097l0.008,-0.018l0.045,-0.097l0.009,-0.017l0.046,-0.097l0.009,-0.017l0.047,-0.096l0.009,-0.017l0.049,-0.095l0.009,-0.017l0.05,-0.095l0.009,-0.017l0.052,-0.093l0.009,-0.017l0.052,-0.093l0.01,-0.016l0.053,-0.092l0.01,-0.016l0.055,-0.092l0.01,-0.017l0.056,-0.091l0.009,-0.015l0.057,-0.09l0.01,-0.016l0.059,-0.09l0.01,-0.015l0.059,-0.089l0.01,-0.015l0.061,-0.088l0.01,-0.015l0.062,-0.088l0.011,-0.015l0.062,-0.086l0.011,-0.015l0.063,-0.085l0.012,-0.015l0.064,-0.085l0.012,-0.015l0.065,-0.083l0.011,-0.015l0.067,-0.083l0.012,-0.014l0.067,-0.083l0.012,-0.013l0.068,-0.082l0.012,-0.013l0.07,-0.081l0.012,-0.014l0.071,-0.08l0.012,-0.013l0.071,-0.079l0.012,-0.014l0.073,-0.078l0.012,-0.013l0.073,-0.077l0.013,-0.013l0.075,-0.077l0.012,-0.012l0.075,-0.076l0.013,-0.012l0.076,-0.075l0.013,-0.012l0.077,-0.074l0.014,-0.013l0.078,-0.073l0.013,-0.011l0.078,-0.072l0.014,-0.012l0.08,-0.072l0.013,-0.011l0.081,-0.07l0.013,-0.012l0.082,-0.069l0.014,-0.012l0.082,-0.068l0.014,-0.011l0.083,-0.068l0.014,-0.01l0.084,-0.067l0.014,-0.011l0.085,-0.066l0.014,-0.01l0.086,-0.064l0.014,-0.011l0.086,-0.063l0.014,-0.011l0.088,-0.062l0.015,-0.011l0.088,-0.061l0.014,-0.01l0.089,-0.061l0.015,-0.009l0.09,-0.06l0.014,-0.01l0.091,-0.059l0.015,-0.009l0.091,-0.057l0.014,-0.01l0.093,-0.056l0.015,-0.01l0.093,-0.055l0.015,-0.009l0.093,-0.055l0.015,-0.008l0.095,-0.054l0.015,-0.008l0.095,-0.053l0.015,-0.008l0.096,-0.052l0.015,-0.008l0.097,-0.05l0.015,-0.008l0.097,-0.05l0.016,-0.008l0.098,-0.048l0.015,-0.008l0.099,-0.047l0.015,-0.007l0.099,-0.046l0.017,-0.008l0.099,-0.045l0.016,-0.007l0.1,-0.044l0.016,-0.006l0.101,-0.043l0.017,-0.007l0.102,-0.042l0.015,-0.006l0.102,-0.041l0.017,-0.006l0.103,-0.04l0.017,-0.006l0.103,-0.038l0.016,-0.006l0.104,-0.037l0.016,-0.006l0.105,-0.036l0.017,-0.006l0.106,-0.035l0.016,-0.005l0.105,-0.034l0.017,-0.005l0.106,-0.032l0.017,-0.006l0.107,-0.031l0.017,-0.005l0.108,-0.03l0.016,-0.005l0.108,-0.029l0.017,-0.004l0.109,-0.028l0.017,-0.004l0.109,-0.027l0.017,-0.004l0.109,-0.025l0.017,-0.004l0.111,-0.024l0.016,-0.004l0.111,-0.022l0.017,-0.004l0.111,-0.022l0.017,-0.003l0.112,-0.02l0.017,-0.003l0.112,-0.019l0.018,-0.003l0.112,-0.018l0.017,-0.003l0.113,-0.016l0.017,-0.003l0.114,-0.015l0.016,-0.002l0.114,-0.014l0.018,-0.002l0.114,-0.013l0.017,-0.002l0.115,-0.011l0.017,-0.002l0.115,-0.01l0.018,-0.001l0.115,-0.009l0.017,-0.001l0.116,-0.008l0.017,-0.001l0.116,-0.006l0.017,-0.001l0.117,-0.005l0.017,0l0.117,-0.004l0.018,0l0.117,-0.002l0.017,0l0.117,-0.001l0.018,0Zm-0.109,3.001l-0.099,0.001l-0.099,0.003l-0.099,0.004l-0.098,0.006l-0.098,0.006l-0.098,0.007l-0.098,0.009l-0.097,0.01l-0.096,0.01l-0.097,0.012l-0.096,0.013l-0.095,0.014l-0.095,0.015l-0.095,0.016l-0.094,0.018l-0.094,0.018l-0.094,0.019l-0.093,0.021l-0.093,0.021l-0.092,0.023l-0.092,0.023l-0.091,0.025l-0.091,0.025l-0.09,0.027l-0.09,0.027l-0.089,0.029l-0.089,0.029l-0.088,0.031l-0.088,0.031l-0.088,0.032l-0.086,0.034l-0.087,0.034l-0.085,0.035l-0.086,0.036l-0.084,0.037l-0.084,0.038l-0.084,0.039l-0.083,0.04l-0.082,0.04l-0.082,0.042l-0.081,0.042l-0.08,0.044l-0.08,0.044l-0.079,0.045l-0.079,0.046l-0.078,0.046l-0.077,0.048l-0.077,0.048l-0.076,0.049l-0.075,0.051l-0.075,0.05l-0.074,0.052l-0.073,0.052l-0.072,0.054l-0.072,0.054l-0.071,0.054l-0.071,0.056l-0.069,0.056l-0.069,0.057l-0.068,0.058l-0.068,0.059l-0.066,0.059l-0.066,0.06l-0.065,0.061l-0.065,0.061l-0.063,0.062l-0.063,0.063l-0.062,0.064l-0.061,0.064l-0.06,0.065l-0.059,0.065l-0.059,0.067l-0.058,0.066l-0.057,0.068l-0.056,0.068l-0.055,0.069l-0.054,0.069l-0.053,0.07l-0.053,0.071l-0.051,0.071l-0.051,0.072l-0.05,0.073l-0.049,0.073l-0.047,0.073l-0.047,0.075l-0.046,0.074l-0.045,0.076l-0.045,0.076l-0.043,0.076l-0.042,0.077l-0.041,0.078l-0.04,0.078l-0.039,0.078l-0.038,0.079l-0.038,0.08l-0.036,0.08l-0.035,0.08l-0.034,0.081l-0.033,0.082l-0.032,0.082l-0.031,0.082l-0.029,0.083l-0.029,0.083l-0.028,0.084l-0.026,0.084l-0.026,0.085l-0.024,0.085l-0.023,0.085l-0.023,0.086l-0.021,0.086l-0.019,0.087l-0.019,0.087l-0.018,0.087l-0.016,0.088l-0.015,0.088l-0.014,0.089l-0.013,0.088l-0.012,0.089l-0.01,0.09l-0.01,0.09l-0.008,0.09l-0.007,0.09l-0.005,0.091l-0.005,0.091l-0.003,0.091l-0.002,0.092l0,0.092l0,0.092l0.002,0.091l0.003,0.092l0.005,0.091l0.005,0.091l0.007,0.09l0.008,0.09l0.01,0.09l0.01,0.089l0.012,0.09l0.013,0.088l0.014,0.089l0.015,0.088l0.016,0.088l0.018,0.087l0.019,0.087l0.019,0.087l0.021,0.086l0.023,0.086l0.023,0.085l0.024,0.085l0.026,0.085l0.026,0.084l0.028,0.084l0.029,0.083l0.029,0.083l0.031,0.082l0.032,0.082l0.033,0.082l0.034,0.081l0.035,0.08l0.036,0.08l0.038,0.08l0.038,0.079l0.039,0.078l0.04,0.078l0.041,0.078l0.042,0.077l0.043,0.076l0.045,0.076l0.045,0.076l0.046,0.074l0.047,0.074l0.047,0.074l0.049,0.073l0.05,0.073l0.051,0.072l0.051,0.071l0.053,0.07l0.053,0.071l0.054,0.069l0.055,0.069l0.056,0.068l0.057,0.067l0.058,0.067l0.059,0.067l0.059,0.065l0.06,0.065l0.061,0.064l0.062,0.064l0.063,0.063l0.063,0.062l0.065,0.061l0.065,0.061l0.066,0.06l0.066,0.059l0.068,0.059l0.068,0.058l0.069,0.057l0.069,0.056l0.071,0.056l0.071,0.054l0.072,0.054l0.072,0.054l0.073,0.052l0.074,0.052l0.075,0.05l0.075,0.05l0.076,0.05l0.077,0.048l0.077,0.048l0.078,0.046l0.079,0.046l0.079,0.045l0.08,0.044l0.08,0.044l0.081,0.042l0.082,0.042l0.082,0.04l0.083,0.04l0.084,0.039l0.084,0.038l0.084,0.037l0.086,0.036l0.085,0.035l0.087,0.034l0.086,0.034l0.088,0.032l0.088,0.031l0.088,0.031l0.089,0.029l0.089,0.029l0.09,0.027l0.09,0.027l0.091,0.025l0.091,0.025l0.092,0.023l0.092,0.023l0.093,0.021l0.093,0.021l0.094,0.019l0.094,0.018l0.094,0.017l0.095,0.017l0.095,0.015l0.095,0.014l0.096,0.013l0.097,0.012l0.096,0.01l0.097,0.01l0.098,0.009l0.098,0.007l0.098,0.006l0.098,0.006l0.099,0.004l0.099,0.003l0.099,0.001l0.1,0.001l0.1,-0.001l0.099,-0.001l0.099,-0.003l0.099,-0.004l0.098,-0.006l0.098,-0.006l0.098,-0.007l0.097,-0.009l0.097,-0.01l0.097,-0.01l0.096,-0.012l0.096,-0.013l0.096,-0.014l0.095,-0.015l0.095,-0.017l0.094,-0.017l0.094,-0.018l0.094,-0.019l0.093,-0.021l0.092,-0.021l0.093,-0.023l0.091,-0.023l0.092,-0.025l0.09,-0.025l0.091,-0.027l0.09,-0.027l0.089,-0.029l0.089,-0.029l0.088,-0.031l0.088,-0.031l0.087,-0.032l0.087,-0.034l0.086,-0.034l0.086,-0.035l0.085,-0.036l0.085,-0.037l0.084,-0.038l0.083,-0.039l0.083,-0.04l0.083,-0.04l0.081,-0.042l0.081,-0.042l0.081,-0.044l0.08,-0.044l0.079,-0.045l0.079,-0.046l0.078,-0.046l0.077,-0.048l0.077,-0.048l0.076,-0.05l0.075,-0.05l0.074,-0.05l0.074,-0.052l0.074,-0.052l0.072,-0.054l0.072,-0.054l0.071,-0.054l0.07,-0.056l0.07,-0.056l0.069,-0.057l0.068,-0.058l0.068,-0.059l0.066,-0.059l0.066,-0.06l0.065,-0.061l0.064,-0.061l0.064,-0.062l0.063,-0.063l0.061,-0.064l0.062,-0.064l0.06,-0.065l0.059,-0.065l0.059,-0.067l0.058,-0.067l0.056,-0.067l0.056,-0.068l0.055,-0.069l0.055,-0.069l0.053,-0.071l0.053,-0.07l0.051,-0.071l0.051,-0.072l0.05,-0.073l0.048,-0.073l0.048,-0.074l0.047,-0.074l0.046,-0.074l0.045,-0.076l0.044,-0.076l0.043,-0.076l0.043,-0.077l0.041,-0.078l0.04,-0.078l0.039,-0.078l0.038,-0.079l0.037,-0.08l0.036,-0.08l0.036,-0.08l0.034,-0.081l0.033,-0.082l0.032,-0.082l0.03,-0.082l0.03,-0.083l0.029,-0.083l0.028,-0.084l0.026,-0.084l0.026,-0.085l0.024,-0.085l0.023,-0.085l0.022,-0.086l0.021,-0.086l0.02,-0.087l0.019,-0.087l0.018,-0.087l0.016,-0.088l0.015,-0.088l0.014,-0.089l0.013,-0.088l0.012,-0.09l0.01,-0.089l0.01,-0.09l0.008,-0.09l0.006,-0.09l0.006,-0.091l0.004,-0.091l0.004,-0.092l0.002,-0.091l0,-0.092l0,-0.092l-0.002,-0.092l-0.004,-0.091l-0.004,-0.091l-0.006,-0.091l-0.006,-0.09l-0.008,-0.09l-0.01,-0.09l-0.01,-0.09l-0.012,-0.089l-0.013,-0.088l-0.014,-0.089l-0.015,-0.088l-0.016,-0.088l-0.018,-0.087l-0.019,-0.087l-0.02,-0.087l-0.021,-0.086l-0.022,-0.086l-0.023,-0.085l-0.024,-0.085l-0.026,-0.085l-0.026,-0.084l-0.028,-0.084l-0.029,-0.083l-0.03,-0.083l-0.03,-0.082l-0.032,-0.082l-0.033,-0.082l-0.034,-0.081l-0.036,-0.08l-0.036,-0.08l-0.037,-0.08l-0.038,-0.079l-0.039,-0.078l-0.04,-0.078l-0.041,-0.078l-0.043,-0.077l-0.043,-0.076l-0.044,-0.076l-0.045,-0.076l-0.046,-0.074l-0.047,-0.075l-0.048,-0.073l-0.048,-0.073l-0.05,-0.073l-0.051,-0.072l-0.051,-0.071l-0.053,-0.071l-0.053,-0.07l-0.055,-0.069l-0.055,-0.069l-0.056,-0.068l-0.056,-0.068l-0.058,-0.066l-0.059,-0.067l-0.059,-0.065l-0.06,-0.065l-0.062,-0.064l-0.061,-0.064l-0.063,-0.063l-0.064,-0.062l-0.064,-0.061l-0.065,-0.061l-0.066,-0.06l-0.066,-0.059l-0.068,-0.059l-0.068,-0.058l-0.069,-0.057l-0.07,-0.056l-0.07,-0.056l-0.071,-0.054l-0.072,-0.054l-0.072,-0.054l-0.074,-0.052l-0.074,-0.052l-0.074,-0.05l-0.075,-0.051l-0.076,-0.049l-0.077,-0.048l-0.077,-0.048l-0.078,-0.046l-0.079,-0.046l-0.079,-0.045l-0.08,-0.044l-0.081,-0.044l-0.081,-0.042l-0.081,-0.042l-0.083,-0.04l-0.083,-0.04l-0.083,-0.039l-0.084,-0.038l-0.085,-0.037l-0.085,-0.036l-0.086,-0.035l-0.086,-0.034l-0.087,-0.034l-0.087,-0.032l-0.088,-0.031l-0.088,-0.031l-0.089,-0.029l-0.089,-0.029l-0.09,-0.027l-0.091,-0.027l-0.09,-0.025l-0.092,-0.025l-0.091,-0.023l-0.093,-0.023l-0.092,-0.021l-0.093,-0.021l-0.094,-0.019l-0.094,-0.018l-0.094,-0.018l-0.095,-0.016l-0.095,-0.015l-0.096,-0.014l-0.096,-0.013l-0.096,-0.012l-0.097,-0.01l-0.097,-0.01l-0.097,-0.009l-0.098,-0.007l-0.098,-0.006l-0.098,-0.006l-0.099,-0.004l-0.099,-0.003l-0.099,-0.001l-0.1,-0.001l-0.1,0.001Z" style="fill:#fff;"/><path d="M321.957,168.665l0.811,0.542l0.542,0.811l0.19,0.957l0,257.99l-0.19,0.957l-0.542,0.811l-0.811,0.542l-0.957,0.19l-0.957,-0.19l-0.811,-0.542l-0.542,-0.811l-0.19,-0.957l0,-257.99l0.19,-0.957l0.542,-0.811l0.811,-0.542l0.957,-0.19l0.957,0.19Z" style="fill:#9b5e66;"/></g></svg>