<?xml version="1.0" encoding="UTF-8" standalone="no"?><!DOCTYPE svg PUBLIC "-//W3C//DTD SVG 1.1//EN" "http://www.w3.org/Graphics/SVG/1.1/DTD/svg11.dtd"><svg width="100%" height="100%" viewBox="0 0 642 642" version="1.1" xmlns="http://www.w3.org/2000/svg" xmlns:xlink="http://www.w3.org/1999/xlink" xml:space="preserve" xmlns:serif="http://www.serif.com/" style="fill-rule:evenodd;clip-rule:evenodd;stroke-linejoin:round;stroke-miterlimit:1.41421;"><g id="tour-phone"><ellipse cx="321" cy="321.406" rx="317.889" ry="320.594" style="fill:#5c393e;fill-opacity:0.380392;"/><g id="Phone"><g><path d="M437.716,108.481c0,-14.185 -11.516,-25.702 -25.701,-25.702l-205.613,0c-14.185,0 -25.702,11.517 -25.702,25.702l0,424.753c0,14.185 11.517,25.702 25.702,25.702l205.613,0c14.185,0 25.701,-11.517 25.701,-25.702l0,-424.753Z" style="fill:#412b2e;fill-opacity:0.517647;"/><path d="M412.032,75.779l0.182,0.001l0.023,0l0.188,0.002l0.022,0l0.187,0.003l0.023,0.001l0.187,0.004l0.022,0l0.188,0.006l0.022,0l0.187,0.007l0.022,0.001l0.187,0.007l0.022,0.001l0.186,0.009l0.023,0.001l0.186,0.01l0.022,0.002l0.186,0.011l0.022,0.001l0.185,0.013l0.023,0.001l0.185,0.014l0.022,0.001l0.185,0.015l0.022,0.002l0.185,0.016l0.022,0.002l0.184,0.017l0.022,0.002l0.184,0.018l0.022,0.002l0.184,0.019l0.022,0.003l0.184,0.02l0.022,0.003l0.183,0.021l0.022,0.003l0.182,0.023l0.022,0.002l0.183,0.024l0.021,0.003l0.182,0.025l0.022,0.003l0.182,0.026l0.022,0.003l0.181,0.028l0.022,0.003l0.181,0.028l0.022,0.004l0.181,0.029l0.021,0.004l0.181,0.03l0.021,0.004l0.18,0.031l0.022,0.004l0.18,0.033l0.021,0.004l0.179,0.034l0.022,0.004l0.179,0.035l0.022,0.004l0.178,0.036l0.021,0.005l0.178,0.037l0.022,0.004l0.178,0.038l0.021,0.005l0.177,0.039l0.022,0.005l0.177,0.04l0.021,0.005l0.176,0.041l0.022,0.006l0.176,0.042l0.021,0.005l0.176,0.044l0.021,0.005l0.175,0.045l0.022,0.005l0.174,0.046l0.021,0.005l0.175,0.047l0.021,0.006l0.174,0.047l0.021,0.006l0.173,0.049l0.021,0.006l0.173,0.05l0.021,0.006l0.173,0.05l0.021,0.007l0.172,0.052l0.021,0.006l0.172,0.053l0.02,0.006l0.172,0.054l0.02,0.007l0.171,0.055l0.021,0.006l0.17,0.056l0.021,0.007l0.17,0.057l0.02,0.007l0.17,0.058l0.02,0.007l0.169,0.059l0.02,0.007l0.169,0.06l0.021,0.008l0.168,0.061l0.02,0.007l0.167,0.062l0.021,0.008l0.167,0.063l0.019,0.007l0.167,0.064l0.02,0.008l0.167,0.065l0.02,0.008l0.165,0.066l0.02,0.008l0.165,0.067l0.02,0.008l0.165,0.068l0.02,0.008l0.164,0.069l0.02,0.008l0.163,0.07l0.019,0.008l0.164,0.071l0.019,0.009l0.163,0.072l0.02,0.008l0.162,0.073l0.019,0.009l0.162,0.074l0.019,0.009l0.161,0.074l0.019,0.009l0.161,0.076l0.019,0.009l0.16,0.076l0.019,0.01l0.16,0.077l0.019,0.009l0.158,0.079l0.02,0.01l0.158,0.079l0.019,0.009l0.157,0.08l0.019,0.01l0.158,0.081l0.019,0.01l0.156,0.082l0.019,0.01l0.156,0.083l0.019,0.01l0.155,0.084l0.018,0.01l0.155,0.085l0.019,0.01l0.155,0.086l0.018,0.01l0.153,0.087l0.019,0.01l0.153,0.088l0.019,0.01l0.152,0.089l0.018,0.01l0.152,0.089l0.019,0.011l0.151,0.091l0.018,0.01l0.151,0.092l0.018,0.01l0.15,0.092l0.018,0.011l0.15,0.093l0.018,0.011l0.149,0.094l0.017,0.011l0.149,0.095l0.017,0.011l0.148,0.096l0.018,0.011l0.147,0.096l0.018,0.012l0.146,0.097l0.018,0.012l0.145,0.098l0.018,0.011l0.145,0.099l0.017,0.012l0.145,0.1l0.018,0.012l0.144,0.1l0.017,0.013l0.143,0.101l0.017,0.012l0.143,0.102l0.017,0.012l0.142,0.103l0.017,0.013l0.142,0.104l0.016,0.012l0.141,0.105l0.017,0.012l0.14,0.105l0.017,0.013l0.139,0.107l0.017,0.012l0.139,0.107l0.016,0.013l0.138,0.108l0.017,0.013l0.137,0.109l0.017,0.013l0.136,0.109l0.017,0.014l0.136,0.11l0.016,0.013l0.135,0.111l0.016,0.013l0.135,0.112l0.017,0.014l0.134,0.113l0.015,0.013l0.134,0.113l0.016,0.014l0.132,0.114l0.016,0.014l0.132,0.115l0.016,0.014l0.132,0.116l0.015,0.013l0.13,0.117l0.016,0.014l0.13,0.118l0.016,0.014l0.129,0.118l0.015,0.014l0.128,0.119l0.015,0.014l0.128,0.119l0.016,0.015l0.127,0.121l0.015,0.014l0.126,0.121l0.015,0.014l0.126,0.122l0.014,0.015l0.125,0.122l0.016,0.016l0.124,0.123l0.014,0.015l0.124,0.124l0.014,0.014l0.123,0.125l0.014,0.015l0.122,0.125l0.015,0.016l0.121,0.126l0.015,0.015l0.12,0.127l0.014,0.016l0.12,0.127l0.014,0.015l0.119,0.129l0.014,0.015l0.118,0.13l0.014,0.015l0.118,0.13l0.014,0.016l0.116,0.13l0.014,0.015l0.116,0.132l0.013,0.015l0.115,0.132l0.014,0.016l0.115,0.133l0.013,0.016l0.114,0.134l0.014,0.016l0.112,0.134l0.013,0.015l0.112,0.135l0.013,0.016l0.112,0.136l0.013,0.016l0.11,0.136l0.013,0.016l0.11,0.137l0.013,0.017l0.109,0.137l0.013,0.017l0.107,0.138l0.013,0.016l0.107,0.139l0.013,0.016l0.107,0.14l0.012,0.017l0.106,0.14l0.013,0.017l0.104,0.141l0.012,0.016l0.104,0.142l0.012,0.017l0.104,0.142l0.012,0.017l0.102,0.143l0.012,0.016l0.101,0.144l0.013,0.017l0.1,0.144l0.012,0.017l0.1,0.145l0.012,0.018l0.098,0.145l0.012,0.017l0.098,0.146l0.012,0.018l0.097,0.146l0.012,0.018l0.096,0.147l0.011,0.018l0.096,0.148l0.011,0.017l0.095,0.149l0.011,0.017l0.094,0.149l0.011,0.018l0.092,0.15l0.011,0.017l0.092,0.151l0.011,0.018l0.091,0.151l0.011,0.018l0.09,0.151l0.011,0.018l0.09,0.152l0.01,0.019l0.089,0.152l0.01,0.019l0.088,0.153l0.01,0.018l0.086,0.154l0.011,0.019l0.086,0.154l0.01,0.019l0.085,0.154l0.01,0.019l0.084,0.155l0.01,0.019l0.083,0.156l0.01,0.019l0.082,0.156l0.009,0.019l0.082,0.157l0.009,0.019l0.081,0.158l0.009,0.019l0.08,0.158l0.009,0.02l0.078,0.158l0.009,0.019l0.078,0.159l0.009,0.02l0.077,0.16l0.009,0.019l0.076,0.161l0.009,0.019l0.074,0.161l0.009,0.019l0.074,0.162l0.009,0.019l0.072,0.162l0.009,0.02l0.072,0.163l0.008,0.019l0.071,0.163l0.009,0.019l0.069,0.164l0.009,0.02l0.069,0.164l0.008,0.021l0.068,0.164l0.008,0.019l0.067,0.165l0.008,0.02l0.066,0.166l0.008,0.02l0.065,0.167l0.008,0.02l0.064,0.166l0.007,0.02l0.063,0.167l0.008,0.021l0.062,0.168l0.007,0.019l0.061,0.168l0.007,0.021l0.06,0.168l0.008,0.021l0.059,0.169l0.007,0.02l0.058,0.169l0.007,0.021l0.057,0.17l0.007,0.021l0.056,0.171l0.006,0.02l0.055,0.171l0.007,0.02l0.053,0.171l0.007,0.021l0.053,0.172l0.006,0.02l0.052,0.173l0.006,0.021l0.051,0.173l0.006,0.021l0.05,0.172l0.006,0.021l0.049,0.174l0.005,0.021l0.048,0.174l0.006,0.022l0.047,0.174l0.005,0.021l0.046,0.175l0.005,0.021l0.045,0.175l0.005,0.02l0.044,0.176l0.005,0.022l0.042,0.177l0.005,0.021l0.042,0.176l0.005,0.021l0.04,0.177l0.005,0.021l0.039,0.177l0.005,0.022l0.038,0.178l0.004,0.021l0.037,0.178l0.005,0.022l0.036,0.178l0.004,0.022l0.035,0.179l0.004,0.022l0.034,0.178l0.004,0.022l0.032,0.179l0.004,0.022l0.032,0.18l0.004,0.022l0.03,0.181l0.004,0.021l0.029,0.181l0.004,0.021l0.028,0.181l0.003,0.022l0.028,0.182l0.003,0.022l0.026,0.181l0.003,0.022l0.025,0.182l0.003,0.023l0.023,0.182l0.003,0.022l0.023,0.182l0.002,0.022l0.022,0.183l0.003,0.022l0.02,0.184l0.002,0.023l0.02,0.183l0.002,0.021l0.018,0.184l0.002,0.022l0.017,0.185l0.002,0.022l0.016,0.185l0.002,0.023l0.014,0.184l0.002,0.022l0.014,0.185l0.001,0.022l0.013,0.186l0.001,0.023l0.011,0.185l0.001,0.022l0.01,0.186l0.002,0.022l0.008,0.186l0.001,0.023l0.008,0.187l0.001,0.023l0.007,0.186l0,0.022l0.006,0.187l0,0.023l0.004,0.187l0.001,0.022l0.003,0.188l0,0.022l0.002,0.188l0,0.023l0,0.183l0,0.011l0,424.764l0,0.011l0,0.183l0,0.022l-0.002,0.188l0,0.022l-0.003,0.188l-0.001,0.022l-0.004,0.188l0,0.022l-0.006,0.188l0,0.021l-0.007,0.187l-0.001,0.022l-0.008,0.187l-0.001,0.023l-0.008,0.187l-0.002,0.021l-0.01,0.186l-0.001,0.022l-0.011,0.186l-0.001,0.022l-0.013,0.186l-0.001,0.023l-0.014,0.185l-0.002,0.021l-0.014,0.185l-0.002,0.022l-0.016,0.185l-0.002,0.022l-0.017,0.185l-0.002,0.022l-0.018,0.184l-0.002,0.021l-0.02,0.184l-0.002,0.022l-0.02,0.184l-0.003,0.023l-0.022,0.183l-0.002,0.021l-0.023,0.183l-0.003,0.021l-0.023,0.183l-0.003,0.022l-0.025,0.182l-0.003,0.022l-0.026,0.182l-0.004,0.021l-0.027,0.182l-0.003,0.022l-0.028,0.181l-0.004,0.021l-0.029,0.181l-0.004,0.022l-0.03,0.18l-0.004,0.022l-0.032,0.18l-0.004,0.022l-0.032,0.18l-0.004,0.021l-0.034,0.179l-0.004,0.021l-0.035,0.179l-0.004,0.022l-0.036,0.179l-0.005,0.021l-0.037,0.178l-0.004,0.021l-0.038,0.178l-0.005,0.022l-0.04,0.178l-0.004,0.02l-0.04,0.177l-0.005,0.021l-0.042,0.177l-0.005,0.021l-0.042,0.176l-0.005,0.022l-0.044,0.176l-0.005,0.021l-0.045,0.175l-0.005,0.021l-0.046,0.174l-0.005,0.021l-0.047,0.175l-0.006,0.022l-0.048,0.174l-0.005,0.02l-0.049,0.174l-0.006,0.021l-0.05,0.173l-0.006,0.021l-0.051,0.172l-0.006,0.021l-0.052,0.173l-0.006,0.02l-0.053,0.172l-0.007,0.021l-0.054,0.172l-0.006,0.02l-0.055,0.17l-0.006,0.021l-0.056,0.17l-0.007,0.021l-0.057,0.17l-0.007,0.021l-0.058,0.169l-0.007,0.021l-0.059,0.169l-0.007,0.02l-0.06,0.168l-0.008,0.021l-0.061,0.168l-0.007,0.02l-0.062,0.168l-0.008,0.021l-0.063,0.167l-0.007,0.019l-0.064,0.166l-0.008,0.02l-0.065,0.167l-0.008,0.021l-0.066,0.166l-0.008,0.019l-0.067,0.165l-0.008,0.018l-0.067,0.165l-0.009,0.021l-0.069,0.165l-0.008,0.019l-0.07,0.164l-0.009,0.02l-0.071,0.163l-0.008,0.019l-0.072,0.162l-0.009,0.02l-0.072,0.162l-0.009,0.019l-0.074,0.162l-0.009,0.02l-0.075,0.161l-0.009,0.019l-0.075,0.16l-0.009,0.019l-0.077,0.16l-0.009,0.02l-0.078,0.16l-0.009,0.018l-0.078,0.159l-0.009,0.018l-0.079,0.159l-0.01,0.019l-0.081,0.158l-0.01,0.02l-0.081,0.157l-0.009,0.018l-0.082,0.156l-0.011,0.02l-0.083,0.156l-0.009,0.018l-0.084,0.155l-0.01,0.019l-0.085,0.155l-0.01,0.018l-0.086,0.155l-0.01,0.019l-0.087,0.153l-0.01,0.018l-0.087,0.153l-0.011,0.019l-0.089,0.153l-0.01,0.018l-0.09,0.152l-0.011,0.019l-0.09,0.151l-0.01,0.018l-0.092,0.15l-0.011,0.019l-0.092,0.15l-0.011,0.018l-0.092,0.149l-0.011,0.018l-0.094,0.149l-0.011,0.018l-0.095,0.148l-0.012,0.018l-0.095,0.148l-0.011,0.017l-0.096,0.147l-0.012,0.018l-0.097,0.147l-0.012,0.017l-0.098,0.146l-0.011,0.017l-0.099,0.146l-0.013,0.018l-0.1,0.145l-0.011,0.016l-0.1,0.144l-0.012,0.017l-0.102,0.144l-0.012,0.017l-0.102,0.143l-0.013,0.017l-0.103,0.142l-0.012,0.017l-0.104,0.141l-0.012,0.016l-0.104,0.141l-0.013,0.017l-0.106,0.14l-0.012,0.017l-0.107,0.14l-0.013,0.017l-0.107,0.139l-0.012,0.016l-0.108,0.137l-0.013,0.017l-0.109,0.138l-0.014,0.017l-0.109,0.136l-0.012,0.016l-0.111,0.136l-0.013,0.016l-0.112,0.136l-0.013,0.017l-0.112,0.134l-0.013,0.016l-0.113,0.134l-0.013,0.015l-0.113,0.134l-0.015,0.016l-0.114,0.134l-0.014,0.016l-0.115,0.131l-0.013,0.015l-0.115,0.131l-0.015,0.016l-0.117,0.131l-0.013,0.015l-0.117,0.13l-0.014,0.015l-0.119,0.13l-0.015,0.016l-0.118,0.128l-0.013,0.014l-0.12,0.128l-0.016,0.017l-0.12,0.127l-0.014,0.014l-0.121,0.126l-0.015,0.016l-0.122,0.126l-0.015,0.015l-0.122,0.124l-0.014,0.015l-0.123,0.124l-0.015,0.014l-0.125,0.124l-0.015,0.015l-0.125,0.123l-0.014,0.014l-0.126,0.122l-0.015,0.014l-0.126,0.122l-0.015,0.014l-0.127,0.12l-0.016,0.015l-0.128,0.12l-0.015,0.014l-0.128,0.118l-0.014,0.014l-0.129,0.118l-0.017,0.015l-0.13,0.117l-0.016,0.014l-0.13,0.117l-0.015,0.013l-0.132,0.116l-0.015,0.014l-0.133,0.115l-0.016,0.014l-0.133,0.115l-0.016,0.013l-0.133,0.113l-0.015,0.013l-0.134,0.113l-0.017,0.014l-0.135,0.112l-0.016,0.013l-0.135,0.111l-0.016,0.014l-0.136,0.11l-0.016,0.013l-0.137,0.109l-0.017,0.013l-0.137,0.109l-0.016,0.012l-0.138,0.108l-0.017,0.014l-0.139,0.107l-0.017,0.013l-0.139,0.106l-0.017,0.013l-0.141,0.106l-0.016,0.012l-0.141,0.105l-0.017,0.012l-0.141,0.104l-0.016,0.012l-0.143,0.103l-0.017,0.013l-0.143,0.102l-0.017,0.012l-0.143,0.101l-0.017,0.012l-0.144,0.1l-0.018,0.012l-0.144,0.1l-0.017,0.012l-0.146,0.099l-0.018,0.012l-0.146,0.098l-0.017,0.011l-0.146,0.097l-0.017,0.011l-0.147,0.097l-0.019,0.012l-0.148,0.096l-0.018,0.011l-0.149,0.095l-0.017,0.011l-0.148,0.093l-0.017,0.011l-0.15,0.092l-0.018,0.012l-0.151,0.092l-0.018,0.011l-0.151,0.091l-0.019,0.011l-0.151,0.091l-0.019,0.01l-0.151,0.089l-0.017,0.01l-0.152,0.089l-0.019,0.01l-0.153,0.088l-0.019,0.01l-0.154,0.087l-0.019,0.011l-0.155,0.086l-0.017,0.009l-0.155,0.085l-0.02,0.011l-0.155,0.083l-0.017,0.01l-0.156,0.083l-0.02,0.01l-0.156,0.082l-0.019,0.01l-0.158,0.081l-0.019,0.01l-0.158,0.081l-0.018,0.009l-0.158,0.079l-0.019,0.009l-0.159,0.079l-0.02,0.009l-0.159,0.078l-0.019,0.009l-0.159,0.076l-0.02,0.01l-0.161,0.075l-0.02,0.009l-0.16,0.075l-0.019,0.009l-0.162,0.073l-0.019,0.009l-0.162,0.073l-0.02,0.009l-0.163,0.071l-0.02,0.009l-0.163,0.071l-0.018,0.008l-0.164,0.07l-0.02,0.008l-0.165,0.07l-0.02,0.008l-0.164,0.068l-0.019,0.007l-0.165,0.067l-0.021,0.008l-0.166,0.067l-0.02,0.007l-0.166,0.065l-0.02,0.008l-0.166,0.064l-0.02,0.007l-0.167,0.063l-0.021,0.008l-0.168,0.062l-0.019,0.008l-0.169,0.061l-0.021,0.007l-0.168,0.06l-0.02,0.007l-0.169,0.059l-0.019,0.007l-0.17,0.058l-0.021,0.007l-0.17,0.057l-0.021,0.007l-0.171,0.056l-0.021,0.007l-0.171,0.055l-0.02,0.006l-0.171,0.054l-0.021,0.007l-0.171,0.052l-0.019,0.006l-0.173,0.052l-0.022,0.007l-0.174,0.051l-0.021,0.006l-0.172,0.05l-0.02,0.005l-0.173,0.049l-0.023,0.006l-0.174,0.048l-0.021,0.006l-0.174,0.046l-0.021,0.006l-0.175,0.045l-0.021,0.006l-0.175,0.044l-0.021,0.005l-0.175,0.044l-0.023,0.005l-0.176,0.043l-0.021,0.005l-0.176,0.041l-0.021,0.005l-0.177,0.04l-0.022,0.005l-0.177,0.039l-0.021,0.005l-0.177,0.038l-0.022,0.005l-0.179,0.037l-0.022,0.004l-0.178,0.036l-0.021,0.004l-0.179,0.035l-0.021,0.005l-0.18,0.033l-0.022,0.004l-0.179,0.033l-0.021,0.004l-0.18,0.031l-0.023,0.004l-0.181,0.031l-0.02,0.003l-0.18,0.03l-0.022,0.003l-0.182,0.028l-0.023,0.004l-0.181,0.027l-0.02,0.003l-0.182,0.026l-0.023,0.003l-0.183,0.025l-0.021,0.003l-0.182,0.024l-0.022,0.003l-0.182,0.022l-0.022,0.003l-0.183,0.022l-0.023,0.002l-0.184,0.021l-0.021,0.002l-0.183,0.019l-0.022,0.002l-0.184,0.018l-0.023,0.003l-0.184,0.017l-0.021,0.001l-0.186,0.016l-0.023,0.002l-0.185,0.015l-0.02,0.002l-0.185,0.013l-0.024,0.002l-0.186,0.012l-0.021,0.001l-0.186,0.012l-0.022,0.001l-0.186,0.01l-0.023,0.001l-0.186,0.009l-0.023,0.001l-0.186,0.008l-0.023,0l-0.186,0.007l-0.021,0.001l-0.187,0.005l-0.024,0.001l-0.188,0.004l-0.022,0l-0.187,0.003l-0.022,0l-0.189,0.002l-0.023,0l-0.183,0.001l-0.01,0l-205.623,0l-0.011,0l-0.183,-0.001l-0.023,0l-0.188,-0.002l-0.022,0l-0.188,-0.003l-0.022,0l-0.188,-0.004l-0.023,-0.001l-0.187,-0.005l-0.021,-0.001l-0.187,-0.007l-0.022,0l-0.187,-0.008l-0.022,-0.001l-0.187,-0.009l-0.022,-0.001l-0.186,-0.01l-0.023,-0.001l-0.185,-0.012l-0.021,-0.001l-0.186,-0.012l-0.024,-0.002l-0.185,-0.013l-0.02,-0.002l-0.185,-0.015l-0.024,-0.002l-0.185,-0.016l-0.021,-0.001l-0.185,-0.017l-0.022,-0.003l-0.185,-0.018l-0.021,-0.002l-0.183,-0.019l-0.022,-0.002l-0.183,-0.021l-0.023,-0.002l-0.183,-0.022l-0.022,-0.003l-0.182,-0.022l-0.022,-0.003l-0.182,-0.024l-0.022,-0.003l-0.182,-0.025l-0.023,-0.003l-0.182,-0.026l-0.02,-0.003l-0.182,-0.027l-0.023,-0.004l-0.181,-0.028l-0.022,-0.003l-0.18,-0.03l-0.021,-0.003l-0.18,-0.031l-0.023,-0.004l-0.181,-0.031l-0.02,-0.004l-0.18,-0.033l-0.021,-0.004l-0.18,-0.033l-0.022,-0.005l-0.179,-0.035l-0.02,-0.004l-0.178,-0.036l-0.022,-0.004l-0.179,-0.037l-0.022,-0.005l-0.178,-0.038l-0.021,-0.005l-0.177,-0.039l-0.022,-0.005l-0.177,-0.04l-0.021,-0.005l-0.176,-0.041l-0.02,-0.005l-0.177,-0.043l-0.022,-0.005l-0.176,-0.044l-0.021,-0.005l-0.175,-0.044l-0.021,-0.006l-0.174,-0.045l-0.021,-0.006l-0.174,-0.046l-0.021,-0.006l-0.175,-0.048l-0.022,-0.006l-0.174,-0.049l-0.019,-0.005l-0.173,-0.05l-0.021,-0.006l-0.173,-0.051l-0.022,-0.007l-0.173,-0.052l-0.019,-0.006l-0.172,-0.052l-0.021,-0.007l-0.171,-0.054l-0.02,-0.006l-0.17,-0.055l-0.021,-0.007l-0.171,-0.056l-0.021,-0.007l-0.171,-0.057l-0.021,-0.007l-0.169,-0.058l-0.02,-0.007l-0.168,-0.059l-0.02,-0.007l-0.169,-0.06l-0.021,-0.007l-0.168,-0.061l-0.02,-0.008l-0.167,-0.062l-0.022,-0.008l-0.167,-0.063l-0.02,-0.007l-0.166,-0.064l-0.02,-0.008l-0.166,-0.065l-0.02,-0.007l-0.166,-0.066l-0.021,-0.009l-0.165,-0.067l-0.018,-0.007l-0.164,-0.068l-0.02,-0.008l-0.165,-0.069l-0.021,-0.009l-0.163,-0.07l-0.019,-0.008l-0.163,-0.071l-0.019,-0.008l-0.163,-0.072l-0.02,-0.009l-0.162,-0.073l-0.02,-0.009l-0.161,-0.073l-0.019,-0.009l-0.161,-0.075l-0.019,-0.009l-0.161,-0.076l-0.02,-0.009l-0.16,-0.076l-0.018,-0.009l-0.16,-0.078l-0.02,-0.009l-0.158,-0.079l-0.019,-0.009l-0.158,-0.079l-0.018,-0.01l-0.158,-0.08l-0.02,-0.01l-0.157,-0.081l-0.019,-0.01l-0.157,-0.082l-0.019,-0.01l-0.156,-0.083l-0.018,-0.01l-0.155,-0.083l-0.019,-0.011l-0.155,-0.085l-0.017,-0.009l-0.155,-0.086l-0.019,-0.011l-0.155,-0.087l-0.018,-0.01l-0.153,-0.088l-0.019,-0.01l-0.152,-0.089l-0.017,-0.01l-0.152,-0.089l-0.018,-0.011l-0.152,-0.09l-0.018,-0.011l-0.151,-0.091l-0.019,-0.011l-0.15,-0.092l-0.018,-0.012l-0.15,-0.092l-0.017,-0.011l-0.149,-0.093l-0.017,-0.011l-0.148,-0.095l-0.018,-0.012l-0.149,-0.095l-0.018,-0.012l-0.147,-0.097l-0.017,-0.011l-0.146,-0.097l-0.017,-0.011l-0.147,-0.098l-0.018,-0.012l-0.145,-0.099l-0.017,-0.012l-0.145,-0.099l-0.017,-0.012l-0.144,-0.101l-0.017,-0.012l-0.143,-0.101l-0.017,-0.012l-0.143,-0.103l-0.018,-0.012l-0.142,-0.104l-0.016,-0.011l-0.141,-0.104l-0.017,-0.012l-0.141,-0.105l-0.017,-0.013l-0.14,-0.105l-0.017,-0.013l-0.14,-0.106l-0.016,-0.013l-0.139,-0.108l-0.017,-0.013l-0.138,-0.107l-0.016,-0.013l-0.138,-0.109l-0.016,-0.013l-0.137,-0.109l-0.016,-0.013l-0.136,-0.11l-0.017,-0.014l-0.135,-0.111l-0.016,-0.013l-0.134,-0.112l-0.017,-0.014l-0.134,-0.112l-0.016,-0.014l-0.133,-0.113l-0.016,-0.013l-0.133,-0.115l-0.016,-0.014l-0.132,-0.115l-0.016,-0.014l-0.131,-0.116l-0.015,-0.013l-0.131,-0.117l-0.015,-0.014l-0.13,-0.117l-0.017,-0.015l-0.129,-0.118l-0.014,-0.014l-0.128,-0.118l-0.016,-0.014l-0.128,-0.12l-0.015,-0.015l-0.127,-0.12l-0.015,-0.014l-0.127,-0.122l-0.015,-0.015l-0.125,-0.121l-0.015,-0.014l-0.124,-0.123l-0.015,-0.015l-0.125,-0.123l-0.015,-0.015l-0.123,-0.124l-0.015,-0.015l-0.122,-0.125l-0.015,-0.015l-0.122,-0.126l-0.015,-0.015l-0.121,-0.126l-0.013,-0.014l-0.121,-0.127l-0.015,-0.017l-0.12,-0.127l-0.013,-0.015l-0.119,-0.128l-0.014,-0.016l-0.119,-0.129l-0.014,-0.016l-0.117,-0.13l-0.014,-0.015l-0.116,-0.13l-0.015,-0.017l-0.116,-0.131l-0.013,-0.015l-0.115,-0.132l-0.013,-0.015l-0.115,-0.134l-0.014,-0.016l-0.114,-0.134l-0.013,-0.015l-0.112,-0.134l-0.013,-0.016l-0.112,-0.135l-0.014,-0.016l-0.111,-0.136l-0.014,-0.016l-0.11,-0.136l-0.012,-0.016l-0.11,-0.136l-0.013,-0.017l-0.109,-0.138l-0.013,-0.017l-0.108,-0.138l-0.013,-0.016l-0.107,-0.139l-0.013,-0.016l-0.106,-0.14l-0.012,-0.016l-0.106,-0.14l-0.013,-0.018l-0.105,-0.141l-0.012,-0.016l-0.104,-0.142l-0.012,-0.016l-0.103,-0.142l-0.012,-0.017l-0.102,-0.143l-0.013,-0.018l-0.101,-0.143l-0.012,-0.017l-0.1,-0.144l-0.012,-0.017l-0.1,-0.144l-0.012,-0.018l-0.099,-0.146l-0.012,-0.017l-0.098,-0.146l-0.011,-0.018l-0.098,-0.146l-0.011,-0.018l-0.096,-0.147l-0.011,-0.017l-0.096,-0.147l-0.011,-0.018l-0.095,-0.149l-0.011,-0.018l-0.094,-0.149l-0.011,-0.018l-0.093,-0.15l-0.011,-0.017l-0.092,-0.15l-0.011,-0.018l-0.091,-0.151l-0.011,-0.018l-0.09,-0.152l-0.011,-0.018l-0.089,-0.152l-0.011,-0.018l-0.088,-0.153l-0.011,-0.019l-0.087,-0.153l-0.011,-0.018l-0.086,-0.154l-0.01,-0.018l-0.086,-0.154l-0.01,-0.019l-0.085,-0.155l-0.01,-0.018l-0.084,-0.156l-0.01,-0.018l-0.083,-0.156l-0.01,-0.02l-0.082,-0.156l-0.01,-0.018l-0.081,-0.157l-0.01,-0.02l-0.08,-0.159l-0.01,-0.018l-0.079,-0.158l-0.009,-0.019l-0.079,-0.159l-0.009,-0.019l-0.077,-0.159l-0.01,-0.019l-0.076,-0.16l-0.009,-0.019l-0.076,-0.161l-0.009,-0.02l-0.075,-0.161l-0.009,-0.019l-0.073,-0.161l-0.009,-0.02l-0.073,-0.162l-0.009,-0.02l-0.071,-0.162l-0.009,-0.019l-0.071,-0.163l-0.008,-0.021l-0.07,-0.163l-0.008,-0.019l-0.069,-0.164l-0.009,-0.021l-0.068,-0.165l-0.007,-0.019l-0.067,-0.165l-0.008,-0.02l-0.066,-0.166l-0.008,-0.02l-0.065,-0.166l-0.008,-0.02l-0.064,-0.167l-0.008,-0.02l-0.063,-0.167l-0.007,-0.02l-0.062,-0.168l-0.007,-0.02l-0.061,-0.168l-0.008,-0.021l-0.06,-0.168l-0.007,-0.02l-0.059,-0.169l-0.007,-0.021l-0.058,-0.169l-0.007,-0.021l-0.057,-0.17l-0.007,-0.02l-0.056,-0.171l-0.006,-0.02l-0.055,-0.171l-0.007,-0.021l-0.054,-0.171l-0.006,-0.021l-0.053,-0.172l-0.007,-0.021l-0.052,-0.172l-0.006,-0.02l-0.05,-0.173l-0.007,-0.021l-0.049,-0.173l-0.006,-0.021l-0.049,-0.174l-0.006,-0.021l-0.048,-0.174l-0.005,-0.021l-0.047,-0.174l-0.006,-0.022l-0.045,-0.174l-0.006,-0.021l-0.044,-0.175l-0.005,-0.022l-0.044,-0.175l-0.005,-0.022l-0.043,-0.176l-0.005,-0.021l-0.041,-0.177l-0.005,-0.021l-0.04,-0.177l-0.005,-0.021l-0.039,-0.177l-0.005,-0.022l-0.038,-0.178l-0.005,-0.021l-0.037,-0.178l-0.004,-0.022l-0.036,-0.178l-0.004,-0.022l-0.035,-0.179l-0.004,-0.021l-0.034,-0.179l-0.004,-0.022l-0.033,-0.179l-0.004,-0.022l-0.031,-0.18l-0.004,-0.021l-0.031,-0.181l-0.003,-0.022l-0.03,-0.181l-0.003,-0.021l-0.028,-0.181l-0.004,-0.022l-0.027,-0.181l-0.003,-0.022l-0.026,-0.182l-0.003,-0.022l-0.025,-0.182l-0.003,-0.022l-0.024,-0.183l-0.003,-0.021l-0.022,-0.183l-0.003,-0.022l-0.021,-0.183l-0.003,-0.022l-0.02,-0.183l-0.003,-0.022l-0.019,-0.184l-0.002,-0.022l-0.018,-0.185l-0.003,-0.021l-0.017,-0.185l-0.001,-0.022l-0.016,-0.185l-0.002,-0.022l-0.015,-0.185l-0.001,-0.022l-0.014,-0.185l-0.002,-0.022l-0.012,-0.186l-0.001,-0.022l-0.012,-0.186l-0.001,-0.022l-0.01,-0.186l-0.001,-0.022l-0.009,-0.186l-0.001,-0.023l-0.008,-0.187l0,-0.022l-0.007,-0.187l-0.001,-0.022l-0.005,-0.187l0,-0.022l-0.005,-0.188l0,-0.022l-0.003,-0.188l0,-0.022l-0.002,-0.188l0,-0.022l-0.001,-0.183l0,-0.011l0,-424.765l0,-0.011l0.001,-0.183l0,-0.021l0.002,-0.188l0,-0.023l0.003,-0.188l0,-0.022l0.005,-0.188l0,-0.022l0.005,-0.187l0.001,-0.022l0.007,-0.187l0,-0.022l0.008,-0.187l0.001,-0.022l0.009,-0.187l0.001,-0.022l0.01,-0.186l0.001,-0.022l0.012,-0.186l0.001,-0.022l0.012,-0.186l0.002,-0.022l0.014,-0.185l0.001,-0.022l0.015,-0.185l0.002,-0.022l0.016,-0.185l0.001,-0.022l0.017,-0.184l0.003,-0.022l0.018,-0.184l0.002,-0.022l0.019,-0.184l0.003,-0.022l0.02,-0.184l0.003,-0.022l0.021,-0.183l0.003,-0.022l0.022,-0.182l0.003,-0.022l0.024,-0.182l0.003,-0.023l0.025,-0.182l0.003,-0.022l0.026,-0.181l0.003,-0.022l0.027,-0.182l0.004,-0.022l0.028,-0.18l0.003,-0.022l0.03,-0.181l0.003,-0.022l0.031,-0.18l0.004,-0.021l0.031,-0.18l0.004,-0.022l0.033,-0.18l0.004,-0.022l0.034,-0.179l0.004,-0.021l0.035,-0.179l0.004,-0.021l0.036,-0.179l0.004,-0.022l0.037,-0.178l0.005,-0.021l0.038,-0.178l0.005,-0.021l0.039,-0.178l0.005,-0.021l0.04,-0.177l0.005,-0.021l0.041,-0.177l0.005,-0.021l0.043,-0.176l0.005,-0.021l0.044,-0.176l0.005,-0.021l0.044,-0.175l0.006,-0.021l0.045,-0.175l0.006,-0.021l0.047,-0.175l0.005,-0.021l0.048,-0.174l0.006,-0.021l0.049,-0.174l0.006,-0.021l0.049,-0.173l0.006,-0.02l0.051,-0.173l0.006,-0.021l0.052,-0.172l0.007,-0.021l0.053,-0.172l0.006,-0.02l0.054,-0.172l0.007,-0.021l0.055,-0.171l0.006,-0.02l0.056,-0.17l0.007,-0.021l0.057,-0.17l0.007,-0.02l0.058,-0.17l0.007,-0.02l0.059,-0.169l0.007,-0.021l0.06,-0.168l0.008,-0.021l0.061,-0.168l0.007,-0.02l0.062,-0.167l0.007,-0.02l0.063,-0.168l0.008,-0.02l0.064,-0.167l0.008,-0.02l0.065,-0.166l0.008,-0.02l0.066,-0.166l0.008,-0.02l0.067,-0.165l0.008,-0.019l0.067,-0.165l0.009,-0.02l0.069,-0.164l0.008,-0.019l0.07,-0.164l0.009,-0.02l0.07,-0.163l0.009,-0.019l0.071,-0.163l0.009,-0.02l0.073,-0.162l0.009,-0.019l0.073,-0.162l0.009,-0.019l0.075,-0.161l0.009,-0.019l0.076,-0.161l0.009,-0.019l0.076,-0.16l0.01,-0.019l0.077,-0.16l0.009,-0.019l0.079,-0.159l0.009,-0.019l0.08,-0.158l0.009,-0.019l0.08,-0.157l0.01,-0.02l0.081,-0.157l0.01,-0.019l0.082,-0.156l0.01,-0.019l0.083,-0.156l0.01,-0.019l0.084,-0.156l0.01,-0.018l0.085,-0.155l0.01,-0.018l0.086,-0.155l0.01,-0.018l0.087,-0.154l0.01,-0.018l0.087,-0.153l0.011,-0.019l0.088,-0.152l0.011,-0.019l0.089,-0.152l0.011,-0.018l0.09,-0.151l0.011,-0.018l0.091,-0.151l0.011,-0.018l0.092,-0.15l0.011,-0.018l0.093,-0.15l0.011,-0.018l0.094,-0.149l0.011,-0.017l0.095,-0.149l0.011,-0.018l0.095,-0.148l0.012,-0.017l0.096,-0.147l0.012,-0.018l0.097,-0.146l0.011,-0.018l0.098,-0.146l0.012,-0.017l0.099,-0.146l0.012,-0.017l0.1,-0.144l0.012,-0.018l0.1,-0.144l0.012,-0.017l0.102,-0.143l0.012,-0.017l0.102,-0.143l0.012,-0.017l0.103,-0.142l0.012,-0.017l0.104,-0.142l0.013,-0.016l0.104,-0.141l0.013,-0.017l0.106,-0.14l0.012,-0.017l0.106,-0.139l0.013,-0.017l0.107,-0.139l0.013,-0.016l0.108,-0.138l0.013,-0.017l0.109,-0.137l0.013,-0.017l0.109,-0.137l0.013,-0.016l0.111,-0.136l0.013,-0.016l0.111,-0.136l0.013,-0.016l0.112,-0.135l0.014,-0.016l0.112,-0.134l0.014,-0.015l0.113,-0.134l0.014,-0.016l0.114,-0.133l0.014,-0.015l0.115,-0.132l0.014,-0.016l0.116,-0.131l0.014,-0.016l0.116,-0.131l0.014,-0.015l0.117,-0.13l0.014,-0.016l0.119,-0.129l0.014,-0.015l0.119,-0.129l0.014,-0.015l0.12,-0.128l0.014,-0.015l0.12,-0.127l0.015,-0.015l0.121,-0.126l0.014,-0.015l0.122,-0.126l0.014,-0.015l0.123,-0.124l0.015,-0.016l0.124,-0.124l0.014,-0.014l0.124,-0.124l0.015,-0.015l0.125,-0.122l0.015,-0.015l0.125,-0.121l0.016,-0.015l0.126,-0.121l0.015,-0.015l0.127,-0.12l0.015,-0.014l0.128,-0.12l0.015,-0.014l0.129,-0.119l0.015,-0.014l0.129,-0.118l0.016,-0.014l0.13,-0.118l0.015,-0.014l0.131,-0.116l0.015,-0.014l0.132,-0.116l0.015,-0.014l0.133,-0.115l0.015,-0.013l0.133,-0.115l0.016,-0.013l0.133,-0.114l0.016,-0.013l0.134,-0.113l0.016,-0.014l0.135,-0.112l0.016,-0.013l0.135,-0.111l0.017,-0.013l0.136,-0.11l0.016,-0.014l0.137,-0.109l0.016,-0.013l0.138,-0.109l0.016,-0.013l0.139,-0.108l0.016,-0.012l0.139,-0.108l0.017,-0.012l0.139,-0.107l0.017,-0.012l0.14,-0.106l0.017,-0.012l0.14,-0.105l0.017,-0.012l0.141,-0.104l0.017,-0.013l0.143,-0.103l0.017,-0.012l0.142,-0.102l0.017,-0.012l0.144,-0.102l0.017,-0.012l0.144,-0.1l0.018,-0.012l0.144,-0.1l0.017,-0.012l0.146,-0.098l0.017,-0.012l0.146,-0.098l0.017,-0.012l0.147,-0.097l0.017,-0.012l0.148,-0.096l0.017,-0.011l0.148,-0.096l0.018,-0.011l0.148,-0.095l0.018,-0.011l0.149,-0.094l0.018,-0.011l0.15,-0.093l0.017,-0.011l0.151,-0.092l0.018,-0.011l0.15,-0.091l0.018,-0.01l0.152,-0.091l0.018,-0.01l0.152,-0.09l0.018,-0.01l0.153,-0.089l0.018,-0.01l0.154,-0.088l0.018,-0.01l0.154,-0.087l0.018,-0.01l0.155,-0.086l0.018,-0.01l0.155,-0.085l0.019,-0.01l0.155,-0.084l0.019,-0.01l0.156,-0.083l0.019,-0.01l0.156,-0.082l0.019,-0.01l0.157,-0.081l0.019,-0.009l0.158,-0.081l0.019,-0.009l0.158,-0.08l0.019,-0.009l0.159,-0.079l0.019,-0.009l0.159,-0.077l0.02,-0.01l0.16,-0.076l0.019,-0.009l0.16,-0.076l0.02,-0.009l0.16,-0.074l0.02,-0.009l0.161,-0.074l0.02,-0.009l0.162,-0.073l0.02,-0.008l0.162,-0.072l0.02,-0.009l0.163,-0.07l0.02,-0.009l0.163,-0.07l0.02,-0.008l0.164,-0.069l0.02,-0.008l0.165,-0.068l0.019,-0.008l0.165,-0.067l0.02,-0.008l0.166,-0.066l0.02,-0.008l0.166,-0.065l0.02,-0.008l0.167,-0.064l0.02,-0.007l0.167,-0.063l0.02,-0.008l0.168,-0.062l0.02,-0.007l0.168,-0.061l0.021,-0.008l0.168,-0.06l0.02,-0.007l0.169,-0.059l0.021,-0.007l0.17,-0.058l0.02,-0.007l0.17,-0.057l0.02,-0.007l0.171,-0.056l0.021,-0.006l0.17,-0.055l0.021,-0.007l0.171,-0.054l0.021,-0.006l0.172,-0.053l0.021,-0.006l0.172,-0.052l0.021,-0.006l0.172,-0.051l0.021,-0.006l0.174,-0.05l0.02,-0.006l0.174,-0.049l0.021,-0.006l0.174,-0.047l0.021,-0.006l0.174,-0.047l0.021,-0.005l0.175,-0.046l0.021,-0.005l0.176,-0.045l0.021,-0.005l0.176,-0.044l0.021,-0.005l0.176,-0.042l0.021,-0.006l0.177,-0.041l0.021,-0.005l0.177,-0.04l0.021,-0.005l0.177,-0.039l0.022,-0.005l0.178,-0.038l0.021,-0.004l0.178,-0.038l0.022,-0.004l0.178,-0.036l0.022,-0.004l0.179,-0.035l0.021,-0.004l0.179,-0.034l0.022,-0.004l0.179,-0.033l0.022,-0.004l0.18,-0.031l0.022,-0.004l0.18,-0.03l0.022,-0.004l0.181,-0.029l0.021,-0.004l0.182,-0.028l0.021,-0.003l0.182,-0.028l0.021,-0.003l0.182,-0.026l0.022,-0.003l0.182,-0.025l0.022,-0.003l0.182,-0.024l0.022,-0.002l0.183,-0.023l0.022,-0.003l0.183,-0.021l0.022,-0.003l0.184,-0.02l0.022,-0.003l0.183,-0.019l0.022,-0.002l0.184,-0.018l0.023,-0.002l0.184,-0.017l0.022,-0.002l0.185,-0.016l0.022,-0.002l0.185,-0.015l0.022,-0.001l0.185,-0.014l0.022,-0.001l0.186,-0.013l0.022,-0.001l0.186,-0.011l0.022,-0.002l0.186,-0.01l0.022,-0.001l0.187,-0.009l0.022,-0.001l0.187,-0.007l0.022,-0.001l0.187,-0.007l0.022,0l0.187,-0.006l0.022,0l0.188,-0.004l0.022,-0.001l0.188,-0.003l0.022,0l0.188,-0.002l0.022,0l0.183,-0.001l0.011,0l205.624,0l0.012,0Zm-205.63,7l-0.166,0.001l-0.166,0.001l-0.166,0.003l-0.165,0.004l-0.165,0.004l-0.165,0.006l-0.165,0.007l-0.164,0.008l-0.164,0.009l-0.164,0.01l-0.163,0.01l-0.164,0.012l-0.162,0.013l-0.163,0.014l-0.162,0.015l-0.163,0.016l-0.161,0.017l-0.162,0.018l-0.161,0.019l-0.161,0.02l-0.16,0.021l-0.161,0.022l-0.16,0.023l-0.159,0.024l-0.159,0.025l-0.159,0.025l-0.159,0.027l-0.158,0.028l-0.158,0.029l-0.158,0.03l-0.157,0.03l-0.157,0.032l-0.157,0.032l-0.156,0.034l-0.156,0.035l-0.156,0.035l-0.155,0.036l-0.155,0.038l-0.154,0.038l-0.154,0.039l-0.154,0.04l-0.153,0.041l-0.153,0.042l-0.153,0.043l-0.152,0.044l-0.152,0.045l-0.152,0.045l-0.151,0.047l-0.15,0.047l-0.151,0.048l-0.149,0.05l-0.15,0.05l-0.149,0.051l-0.149,0.052l-0.148,0.052l-0.148,0.054l-0.147,0.054l-0.147,0.056l-0.146,0.056l-0.146,0.057l-0.146,0.058l-0.145,0.059l-0.145,0.06l-0.144,0.06l-0.144,0.062l-0.144,0.062l-0.143,0.063l-0.142,0.064l-0.142,0.065l-0.142,0.066l-0.141,0.066l-0.141,0.067l-0.14,0.069l-0.14,0.068l-0.139,0.07l-0.139,0.071l-0.138,0.071l-0.138,0.072l-0.137,0.073l-0.137,0.074l-0.136,0.075l-0.136,0.075l-0.135,0.077l-0.135,0.077l-0.134,0.077l-0.134,0.079l-0.134,0.079l-0.132,0.08l-0.132,0.081l-0.132,0.082l-0.131,0.083l-0.131,0.083l-0.13,0.084l-0.13,0.085l-0.129,0.085l-0.128,0.086l-0.128,0.087l-0.127,0.088l-0.127,0.089l-0.126,0.089l-0.126,0.09l-0.125,0.091l-0.125,0.091l-0.124,0.092l-0.123,0.093l-0.123,0.094l-0.122,0.094l-0.122,0.095l-0.121,0.096l-0.121,0.096l-0.12,0.098l-0.119,0.097l-0.119,0.099l-0.118,0.099l-0.117,0.1l-0.117,0.101l-0.116,0.101l-0.116,0.102l-0.115,0.103l-0.115,0.103l-0.113,0.105l-0.114,0.104l-0.112,0.106l-0.112,0.106l-0.111,0.107l-0.111,0.107l-0.11,0.108l-0.109,0.109l-0.109,0.109l-0.108,0.11l-0.108,0.111l-0.106,0.111l-0.106,0.112l-0.106,0.113l-0.105,0.113l-0.104,0.114l-0.103,0.114l-0.103,0.115l-0.102,0.116l-0.101,0.116l-0.101,0.117l-0.1,0.117l-0.099,0.119l-0.099,0.118l-0.098,0.12l-0.097,0.12l-0.096,0.12l-0.096,0.121l-0.095,0.122l-0.095,0.122l-0.093,0.123l-0.093,0.123l-0.092,0.124l-0.092,0.125l-0.09,0.125l-0.09,0.126l-0.09,0.126l-0.088,0.127l-0.088,0.127l-0.087,0.128l-0.086,0.129l-0.086,0.129l-0.084,0.129l-0.084,0.13l-0.084,0.131l-0.082,0.131l-0.082,0.132l-0.081,0.132l-0.08,0.133l-0.079,0.133l-0.079,0.134l-0.078,0.134l-0.077,0.135l-0.076,0.135l-0.075,0.136l-0.075,0.136l-0.074,0.137l-0.073,0.137l-0.072,0.138l-0.071,0.138l-0.071,0.139l-0.07,0.139l-0.069,0.14l-0.068,0.14l-0.067,0.141l-0.067,0.141l-0.065,0.142l-0.065,0.142l-0.064,0.142l-0.063,0.143l-0.062,0.144l-0.062,0.144l-0.06,0.144l-0.06,0.145l-0.059,0.145l-0.058,0.146l-0.057,0.146l-0.056,0.146l-0.056,0.147l-0.054,0.148l-0.054,0.148l-0.053,0.148l-0.052,0.148l-0.051,0.149l-0.05,0.15l-0.049,0.15l-0.048,0.15l-0.048,0.151l-0.046,0.151l-0.046,0.151l-0.044,0.152l-0.044,0.152l-0.043,0.153l-0.042,0.153l-0.041,0.153l-0.04,0.154l-0.039,0.154l-0.039,0.155l-0.037,0.154l-0.036,0.156l-0.036,0.155l-0.034,0.156l-0.034,0.156l-0.032,0.157l-0.032,0.157l-0.031,0.157l-0.029,0.158l-0.029,0.158l-0.028,0.158l-0.027,0.159l-0.026,0.159l-0.025,0.159l-0.023,0.16l-0.023,0.16l-0.022,0.16l-0.021,0.16l-0.02,0.161l-0.019,0.161l-0.018,0.162l-0.017,0.162l-0.016,0.162l-0.015,0.162l-0.014,0.163l-0.013,0.163l-0.012,0.163l-0.011,0.163l-0.01,0.164l-0.008,0.164l-0.008,0.165l-0.007,0.164l-0.006,0.165l-0.004,0.165l-0.004,0.165l-0.003,0.166l-0.001,0.166l-0.001,0.166l0,424.753l0.001,0.166l0.001,0.166l0.003,0.166l0.004,0.165l0.004,0.165l0.006,0.165l0.007,0.165l0.008,0.164l0.008,0.164l0.01,0.164l0.011,0.163l0.012,0.164l0.013,0.163l0.014,0.162l0.015,0.163l0.016,0.162l0.017,0.161l0.018,0.162l0.019,0.161l0.02,0.161l0.021,0.16l0.022,0.161l0.023,0.16l0.023,0.159l0.025,0.16l0.026,0.159l0.027,0.158l0.028,0.158l0.029,0.158l0.029,0.158l0.031,0.157l0.032,0.157l0.032,0.157l0.034,0.156l0.034,0.156l0.036,0.156l0.036,0.155l0.037,0.155l0.039,0.154l0.039,0.154l0.04,0.154l0.041,0.154l0.042,0.153l0.043,0.152l0.044,0.152l0.044,0.152l0.046,0.152l0.046,0.151l0.048,0.15l0.048,0.151l0.049,0.149l0.05,0.15l0.051,0.149l0.052,0.149l0.053,0.148l0.054,0.148l0.054,0.147l0.056,0.147l0.056,0.146l0.057,0.147l0.058,0.145l0.059,0.145l0.06,0.145l0.06,0.145l0.062,0.143l0.062,0.144l0.063,0.143l0.064,0.142l0.065,0.143l0.065,0.141l0.067,0.141l0.067,0.141l0.068,0.14l0.069,0.14l0.07,0.139l0.071,0.139l0.071,0.138l0.072,0.138l0.073,0.137l0.074,0.137l0.075,0.136l0.075,0.136l0.076,0.135l0.077,0.135l0.078,0.135l0.079,0.133l0.079,0.134l0.08,0.132l0.081,0.133l0.082,0.131l0.082,0.131l0.084,0.131l0.084,0.13l0.084,0.13l0.086,0.129l0.086,0.128l0.087,0.128l0.088,0.127l0.088,0.127l0.09,0.127l0.09,0.125l0.09,0.125l0.092,0.125l0.092,0.124l0.093,0.123l0.093,0.123l0.095,0.123l0.095,0.121l0.096,0.121l0.096,0.121l0.097,0.12l0.098,0.119l0.099,0.119l0.099,0.118l0.1,0.117l0.101,0.117l0.101,0.117l0.102,0.115l0.103,0.115l0.103,0.115l0.104,0.114l0.105,0.113l0.106,0.112l0.106,0.112l0.106,0.112l0.108,0.11l0.108,0.11l0.109,0.11l0.109,0.108l0.11,0.108l0.111,0.108l0.111,0.107l0.112,0.106l0.112,0.105l0.114,0.105l0.113,0.104l0.115,0.103l0.115,0.103l0.116,0.102l0.116,0.101l0.117,0.101l0.117,0.1l0.118,0.099l0.119,0.099l0.119,0.098l0.12,0.097l0.121,0.096l0.121,0.096l0.122,0.095l0.122,0.095l0.123,0.093l0.123,0.093l0.124,0.092l0.125,0.092l0.125,0.091l0.126,0.09l0.126,0.089l0.127,0.088l0.127,0.088l0.128,0.087l0.128,0.086l0.129,0.086l0.13,0.085l0.13,0.084l0.131,0.083l0.131,0.082l0.132,0.082l0.132,0.081l0.132,0.08l0.134,0.079l0.134,0.079l0.134,0.078l0.135,0.077l0.135,0.076l0.136,0.075l0.136,0.075l0.137,0.074l0.137,0.073l0.138,0.072l0.138,0.071l0.139,0.071l0.139,0.07l0.14,0.069l0.14,0.068l0.141,0.067l0.141,0.067l0.142,0.065l0.142,0.065l0.142,0.064l0.143,0.063l0.144,0.062l0.144,0.062l0.144,0.06l0.145,0.06l0.145,0.059l0.146,0.058l0.146,0.057l0.146,0.056l0.147,0.056l0.147,0.054l0.148,0.054l0.148,0.053l0.149,0.052l0.149,0.051l0.15,0.05l0.149,0.049l0.151,0.048l0.15,0.048l0.151,0.046l0.152,0.046l0.152,0.044l0.152,0.044l0.153,0.043l0.153,0.042l0.153,0.041l0.154,0.04l0.154,0.039l0.154,0.039l0.155,0.037l0.155,0.036l0.156,0.036l0.156,0.034l0.156,0.034l0.157,0.032l0.157,0.032l0.157,0.031l0.158,0.029l0.158,0.029l0.158,0.028l0.159,0.027l0.159,0.026l0.159,0.025l0.159,0.024l0.16,0.022l0.161,0.022l0.16,0.021l0.161,0.02l0.161,0.019l0.162,0.018l0.161,0.017l0.163,0.016l0.162,0.015l0.163,0.014l0.162,0.013l0.164,0.012l0.163,0.011l0.164,0.01l0.164,0.009l0.164,0.007l0.165,0.007l0.165,0.006l0.165,0.005l0.165,0.003l0.166,0.003l0.166,0.001l0.166,0.001l205.613,0l0.166,-0.001l0.166,-0.001l0.165,-0.003l0.166,-0.003l0.165,-0.005l0.165,-0.006l0.164,-0.007l0.165,-0.007l0.164,-0.009l0.163,-0.01l0.164,-0.011l0.163,-0.012l0.163,-0.013l0.163,-0.014l0.162,-0.015l0.162,-0.016l0.162,-0.017l0.161,-0.018l0.162,-0.019l0.16,-0.02l0.161,-0.021l0.16,-0.022l0.16,-0.022l0.16,-0.024l0.159,-0.025l0.159,-0.026l0.159,-0.027l0.158,-0.028l0.158,-0.029l0.158,-0.029l0.157,-0.031l0.157,-0.032l0.157,-0.032l0.156,-0.034l0.156,-0.034l0.155,-0.036l0.155,-0.036l0.155,-0.037l0.155,-0.039l0.154,-0.039l0.154,-0.04l0.153,-0.041l0.153,-0.042l0.153,-0.043l0.152,-0.044l0.152,-0.044l0.151,-0.046l0.151,-0.046l0.151,-0.048l0.15,-0.048l0.15,-0.049l0.149,-0.05l0.149,-0.051l0.149,-0.052l0.148,-0.053l0.148,-0.054l0.148,-0.054l0.146,-0.056l0.147,-0.056l0.146,-0.057l0.146,-0.058l0.145,-0.059l0.145,-0.06l0.144,-0.06l0.144,-0.062l0.143,-0.062l0.143,-0.063l0.143,-0.064l0.142,-0.065l0.142,-0.065l0.141,-0.067l0.14,-0.067l0.141,-0.068l0.139,-0.069l0.14,-0.07l0.138,-0.071l0.139,-0.071l0.137,-0.072l0.138,-0.073l0.137,-0.074l0.136,-0.075l0.136,-0.075l0.135,-0.076l0.135,-0.077l0.134,-0.078l0.134,-0.079l0.133,-0.079l0.133,-0.08l0.132,-0.081l0.132,-0.082l0.131,-0.082l0.131,-0.083l0.13,-0.084l0.129,-0.085l0.129,-0.086l0.129,-0.086l0.128,-0.087l0.127,-0.088l0.127,-0.088l0.126,-0.089l0.126,-0.09l0.125,-0.091l0.124,-0.092l0.124,-0.092l0.124,-0.093l0.123,-0.093l0.122,-0.095l0.122,-0.095l0.121,-0.096l0.12,-0.096l0.12,-0.097l0.12,-0.098l0.118,-0.099l0.118,-0.099l0.118,-0.1l0.117,-0.101l0.116,-0.101l0.116,-0.102l0.115,-0.103l0.114,-0.103l0.114,-0.104l0.113,-0.105l0.113,-0.105l0.112,-0.106l0.111,-0.107l0.111,-0.108l0.11,-0.108l0.109,-0.108l0.109,-0.11l0.108,-0.11l0.107,-0.11l0.107,-0.112l0.106,-0.112l0.106,-0.112l0.104,-0.113l0.104,-0.114l0.104,-0.115l0.102,-0.115l0.103,-0.115l0.101,-0.117l0.101,-0.117l0.1,-0.117l0.099,-0.118l0.098,-0.119l0.098,-0.119l0.098,-0.12l0.096,-0.121l0.096,-0.121l0.095,-0.121l0.094,-0.123l0.094,-0.123l0.093,-0.123l0.092,-0.124l0.091,-0.125l0.091,-0.125l0.09,-0.125l0.089,-0.127l0.089,-0.127l0.088,-0.127l0.087,-0.128l0.086,-0.128l0.085,-0.129l0.085,-0.13l0.084,-0.13l0.083,-0.131l0.083,-0.131l0.081,-0.131l0.081,-0.133l0.081,-0.132l0.079,-0.134l0.078,-0.133l0.078,-0.135l0.077,-0.135l0.076,-0.135l0.076,-0.136l0.075,-0.136l0.073,-0.137l0.073,-0.137l0.073,-0.138l0.071,-0.138l0.071,-0.139l0.069,-0.139l0.069,-0.14l0.068,-0.14l0.068,-0.141l0.066,-0.141l0.066,-0.141l0.065,-0.143l0.064,-0.142l0.063,-0.143l0.062,-0.144l0.061,-0.143l0.061,-0.145l0.06,-0.145l0.059,-0.145l0.058,-0.145l0.057,-0.147l0.056,-0.146l0.055,-0.147l0.055,-0.147l0.054,-0.148l0.052,-0.148l0.052,-0.149l0.051,-0.149l0.05,-0.15l0.049,-0.149l0.049,-0.151l0.047,-0.15l0.047,-0.151l0.045,-0.152l0.045,-0.152l0.044,-0.152l0.043,-0.152l0.042,-0.153l0.041,-0.154l0.04,-0.154l0.039,-0.154l0.038,-0.154l0.037,-0.155l0.037,-0.155l0.035,-0.156l0.035,-0.156l0.033,-0.156l0.033,-0.157l0.032,-0.157l0.03,-0.157l0.03,-0.158l0.029,-0.158l0.028,-0.158l0.026,-0.158l0.026,-0.159l0.025,-0.16l0.024,-0.159l0.023,-0.16l0.022,-0.161l0.021,-0.16l0.02,-0.161l0.019,-0.161l0.018,-0.162l0.017,-0.161l0.016,-0.162l0.015,-0.163l0.014,-0.162l0.012,-0.163l0.012,-0.164l0.011,-0.163l0.01,-0.164l0.009,-0.164l0.008,-0.164l0.007,-0.165l0.005,-0.165l0.005,-0.165l0.004,-0.165l0.002,-0.166l0.002,-0.166l0,-0.166l0,-424.753l0,-0.166l-0.002,-0.166l-0.002,-0.166l-0.004,-0.165l-0.005,-0.165l-0.005,-0.165l-0.007,-0.164l-0.008,-0.165l-0.009,-0.164l-0.01,-0.164l-0.011,-0.163l-0.012,-0.163l-0.012,-0.163l-0.014,-0.163l-0.015,-0.162l-0.016,-0.162l-0.017,-0.162l-0.018,-0.162l-0.019,-0.161l-0.02,-0.161l-0.021,-0.16l-0.022,-0.16l-0.023,-0.16l-0.024,-0.16l-0.025,-0.159l-0.026,-0.159l-0.026,-0.159l-0.028,-0.158l-0.029,-0.158l-0.03,-0.158l-0.03,-0.157l-0.032,-0.157l-0.033,-0.157l-0.033,-0.156l-0.035,-0.156l-0.035,-0.155l-0.037,-0.156l-0.037,-0.154l-0.038,-0.155l-0.039,-0.154l-0.04,-0.154l-0.041,-0.153l-0.042,-0.153l-0.043,-0.153l-0.044,-0.152l-0.045,-0.152l-0.045,-0.151l-0.047,-0.151l-0.047,-0.151l-0.049,-0.15l-0.049,-0.15l-0.05,-0.15l-0.051,-0.149l-0.052,-0.148l-0.052,-0.148l-0.054,-0.148l-0.055,-0.148l-0.055,-0.147l-0.056,-0.146l-0.057,-0.146l-0.058,-0.146l-0.059,-0.145l-0.06,-0.145l-0.061,-0.144l-0.061,-0.144l-0.062,-0.144l-0.063,-0.143l-0.064,-0.142l-0.065,-0.142l-0.066,-0.142l-0.066,-0.141l-0.068,-0.141l-0.068,-0.14l-0.069,-0.14l-0.069,-0.139l-0.071,-0.139l-0.071,-0.138l-0.073,-0.138l-0.073,-0.137l-0.073,-0.137l-0.075,-0.136l-0.076,-0.136l-0.076,-0.135l-0.077,-0.135l-0.078,-0.134l-0.078,-0.134l-0.079,-0.133l-0.081,-0.133l-0.081,-0.132l-0.081,-0.132l-0.083,-0.131l-0.083,-0.131l-0.084,-0.13l-0.085,-0.129l-0.085,-0.129l-0.086,-0.129l-0.087,-0.128l-0.088,-0.127l-0.089,-0.127l-0.089,-0.126l-0.09,-0.126l-0.091,-0.125l-0.091,-0.125l-0.092,-0.124l-0.093,-0.123l-0.094,-0.123l-0.094,-0.122l-0.095,-0.122l-0.096,-0.121l-0.096,-0.12l-0.098,-0.12l-0.098,-0.12l-0.098,-0.118l-0.099,-0.119l-0.1,-0.117l-0.101,-0.117l-0.101,-0.116l-0.103,-0.116l-0.102,-0.115l-0.104,-0.114l-0.104,-0.114l-0.104,-0.113l-0.106,-0.113l-0.106,-0.112l-0.107,-0.111l-0.107,-0.111l-0.108,-0.11l-0.109,-0.109l-0.109,-0.109l-0.11,-0.108l-0.111,-0.107l-0.111,-0.107l-0.112,-0.106l-0.113,-0.106l-0.113,-0.104l-0.114,-0.105l-0.114,-0.103l-0.115,-0.103l-0.116,-0.102l-0.116,-0.101l-0.117,-0.101l-0.118,-0.1l-0.118,-0.099l-0.118,-0.099l-0.12,-0.097l-0.12,-0.098l-0.12,-0.096l-0.121,-0.096l-0.122,-0.095l-0.122,-0.094l-0.123,-0.094l-0.124,-0.093l-0.124,-0.092l-0.124,-0.091l-0.125,-0.091l-0.126,-0.09l-0.126,-0.089l-0.127,-0.089l-0.127,-0.088l-0.128,-0.087l-0.129,-0.086l-0.129,-0.085l-0.129,-0.085l-0.13,-0.084l-0.131,-0.083l-0.131,-0.083l-0.132,-0.082l-0.132,-0.081l-0.133,-0.08l-0.133,-0.079l-0.134,-0.079l-0.134,-0.077l-0.135,-0.077l-0.135,-0.077l-0.136,-0.075l-0.136,-0.075l-0.137,-0.074l-0.138,-0.073l-0.137,-0.072l-0.139,-0.071l-0.138,-0.071l-0.14,-0.07l-0.139,-0.068l-0.141,-0.069l-0.14,-0.067l-0.141,-0.066l-0.142,-0.066l-0.142,-0.065l-0.143,-0.064l-0.143,-0.063l-0.143,-0.062l-0.144,-0.062l-0.144,-0.06l-0.145,-0.06l-0.145,-0.059l-0.146,-0.058l-0.146,-0.057l-0.147,-0.056l-0.146,-0.056l-0.148,-0.054l-0.148,-0.054l-0.148,-0.052l-0.149,-0.052l-0.149,-0.051l-0.149,-0.05l-0.15,-0.05l-0.15,-0.048l-0.151,-0.047l-0.151,-0.047l-0.151,-0.045l-0.152,-0.045l-0.152,-0.044l-0.153,-0.043l-0.153,-0.042l-0.153,-0.041l-0.154,-0.04l-0.154,-0.039l-0.155,-0.038l-0.155,-0.038l-0.155,-0.036l-0.155,-0.035l-0.156,-0.035l-0.156,-0.034l-0.157,-0.032l-0.157,-0.032l-0.157,-0.03l-0.158,-0.03l-0.158,-0.029l-0.158,-0.028l-0.159,-0.027l-0.159,-0.025l-0.159,-0.025l-0.16,-0.024l-0.16,-0.023l-0.16,-0.022l-0.161,-0.021l-0.16,-0.02l-0.162,-0.019l-0.161,-0.018l-0.162,-0.017l-0.162,-0.016l-0.162,-0.015l-0.163,-0.014l-0.163,-0.013l-0.163,-0.012l-0.164,-0.01l-0.163,-0.01l-0.164,-0.009l-0.165,-0.008l-0.164,-0.007l-0.165,-0.006l-0.165,-0.004l-0.166,-0.004l-0.165,-0.003l-0.166,-0.001l-0.166,-0.001l-205.613,0Z" style="fill:#845057;"/></g><path d="M345.993,517.57l0.26,0.029l0.257,0.049l0.253,0.067l0.247,0.087l0.24,0.104l0.232,0.123l0.221,0.139l0.211,0.155l0.198,0.171l0.185,0.185l0.171,0.199l0.156,0.21l0.139,0.222l0.122,0.231l0.105,0.24l0.086,0.247l0.068,0.253l0.049,0.257l0.029,0.26l0.01,0.262l-0.01,0.261l-0.029,0.261l-0.049,0.257l-0.068,0.253l-0.086,0.247l-0.105,0.239l-0.122,0.232l-0.139,0.222l-0.156,0.21l-0.171,0.198l-0.185,0.186l-0.198,0.17l-0.211,0.156l-0.221,0.139l-0.232,0.122l-0.24,0.105l-0.247,0.086l-0.253,0.068l-0.257,0.049l-0.26,0.029l-0.261,0.01l-51.404,0l-0.261,-0.01l-0.26,-0.029l-0.257,-0.049l-0.253,-0.068l-0.247,-0.086l-0.24,-0.105l-0.232,-0.122l-0.221,-0.139l-0.211,-0.156l-0.198,-0.17l-0.185,-0.186l-0.171,-0.198l-0.155,-0.21l-0.14,-0.222l-0.122,-0.232l-0.105,-0.239l-0.086,-0.247l-0.068,-0.253l-0.048,-0.257l-0.03,-0.261l-0.01,-0.261l0.01,-0.262l0.03,-0.26l0.048,-0.257l0.068,-0.253l0.086,-0.247l0.105,-0.24l0.122,-0.231l0.14,-0.222l0.155,-0.21l0.171,-0.199l0.185,-0.185l0.198,-0.171l0.211,-0.155l0.221,-0.139l0.232,-0.123l0.24,-0.104l0.247,-0.087l0.253,-0.067l0.257,-0.049l0.26,-0.029l0.261,-0.01l51.404,0l0.261,0.01Z" style="fill:#845057;"/><path d="M439.056,485.361l1.135,0.759l0.759,1.135l0.266,1.34l-0.266,1.339l-0.759,1.136l-1.135,0.758l-1.34,0.267l-257.016,0l-1.339,-0.267l-1.136,-0.758l-0.758,-1.136l-0.267,-1.339l0.267,-1.34l0.758,-1.135l1.136,-0.759l1.339,-0.266l257.016,0l1.34,0.266Z" style="fill:#845057;"/></g><g id="http:--dallar.org--QR-Code" serif:id="http://dallar.org/ QR Code"><rect id="p" x="263.216" y="169.977" width="9.119" height="9.119" style="fill:#302728;"/><rect id="p1" serif:id="p" x="263.216" y="179.097" width="9.119" height="9.119" style="fill:#302728;"/><rect id="p2" serif:id="p" x="263.216" y="188.216" width="9.119" height="9.119" style="fill:#302728;"/><rect id="p3" serif:id="p" x="263.216" y="197.336" width="9.119" height="9.119" style="fill:#302728;"/><rect id="p4" serif:id="p" x="263.216" y="206.455" width="9.119" height="9.119" style="fill:#302728;"/><rect id="p5" serif:id="p" x="263.216" y="215.575" width="9.119" height="9.119" style="fill:#302728;"/><rect id="p6" serif:id="p" x="263.216" y="224.694" width="9.119" height="9.119" style="fill:#302728;"/><rect id="p7" serif:id="p" x="263.216" y="261.172" width="9.119" height="9.119" style="fill:#302728;"/><rect id="p8" serif:id="p" x="263.216" y="279.411" width="9.119" height="9.119" style="fill:#302728;"/><rect id="p9" serif:id="p" x="263.216" y="288.531" width="9.119" height="9.119" style="fill:#302728;"/><rect id="p10" serif:id="p" x="263.216" y="315.889" width="9.119" height="9.119" style="fill:#302728;"/><rect id="p11" serif:id="p" x="263.216" y="325.009" width="9.119" height="9.119" style="fill:#302728;"/><rect id="p12" serif:id="p" x="263.216" y="343.248" width="9.119" height="9.119" style="fill:#302728;"/><rect id="p13" serif:id="p" x="263.216" y="370.606" width="9.119" height="9.119" style="fill:#302728;"/><rect id="p14" serif:id="p" x="263.216" y="379.725" width="9.119" height="9.119" style="fill:#302728;"/><rect id="p15" serif:id="p" x="263.216" y="388.845" width="9.119" height="9.119" style="fill:#302728;"/><rect id="p16" serif:id="p" x="263.216" y="397.964" width="9.119" height="9.119" style="fill:#302728;"/><rect id="p17" serif:id="p" x="263.216" y="407.084" width="9.119" height="9.119" style="fill:#302728;"/><rect id="p18" serif:id="p" x="263.216" y="416.203" width="9.119" height="9.119" style="fill:#302728;"/><rect id="p19" serif:id="p" x="263.216" y="425.323" width="9.119" height="9.119" style="fill:#302728;"/><rect id="p20" serif:id="p" x="272.335" y="169.977" width="9.119" height="9.119" style="fill:#302728;"/><rect id="p21" serif:id="p" x="272.335" y="224.694" width="9.119" height="9.119" style="fill:#302728;"/><rect id="p22" serif:id="p" x="272.335" y="270.292" width="9.119" height="9.119" style="fill:#302728;"/><rect id="p23" serif:id="p" x="272.335" y="279.411" width="9.119" height="9.119" style="fill:#302728;"/><rect id="p24" serif:id="p" x="272.335" y="306.77" width="9.119" height="9.119" style="fill:#302728;"/><rect id="p25" serif:id="p" x="272.335" y="315.889" width="9.119" height="9.119" style="fill:#302728;"/><rect id="p26" serif:id="p" x="272.335" y="343.248" width="9.119" height="9.119" style="fill:#302728;"/><rect id="p27" serif:id="p" x="272.335" y="370.606" width="9.119" height="9.119" style="fill:#302728;"/><rect id="p28" serif:id="p" x="272.335" y="425.323" width="9.119" height="9.119" style="fill:#302728;"/><rect id="p29" serif:id="p" x="281.455" y="169.977" width="9.119" height="9.119" style="fill:#302728;"/><rect id="p30" serif:id="p" x="281.455" y="188.216" width="9.119" height="9.119" style="fill:#302728;"/><rect id="p31" serif:id="p" x="281.455" y="197.336" width="9.119" height="9.119" style="fill:#302728;"/><rect id="p32" serif:id="p" x="281.455" y="206.455" width="9.119" height="9.119" style="fill:#302728;"/><rect id="p33" serif:id="p" x="281.455" y="224.694" width="9.119" height="9.119" style="fill:#302728;"/><rect id="p34" serif:id="p" x="281.455" y="242.933" width="9.119" height="9.119" style="fill:#302728;"/><rect id="p35" serif:id="p" x="281.455" y="252.053" width="9.119" height="9.119" style="fill:#302728;"/><rect id="p36" serif:id="p" x="281.455" y="279.411" width="9.119" height="9.119" style="fill:#302728;"/><rect id="p37" serif:id="p" x="281.455" y="288.531" width="9.119" height="9.119" style="fill:#302728;"/><rect id="p38" serif:id="p" x="281.455" y="297.65" width="9.119" height="9.119" style="fill:#302728;"/><rect id="p39" serif:id="p" x="281.455" y="315.889" width="9.119" height="9.119" style="fill:#302728;"/><rect id="p40" serif:id="p" x="281.455" y="334.128" width="9.119" height="9.119" style="fill:#302728;"/><rect id="p41" serif:id="p" x="281.455" y="343.248" width="9.119" height="9.119" style="fill:#302728;"/><rect id="p42" serif:id="p" x="281.455" y="352.367" width="9.119" height="9.119" style="fill:#302728;"/><rect id="p43" serif:id="p" x="281.455" y="370.606" width="9.119" height="9.119" style="fill:#302728;"/><rect id="p44" serif:id="p" x="281.455" y="388.845" width="9.119" height="9.119" style="fill:#302728;"/><rect id="p45" serif:id="p" x="281.455" y="397.964" width="9.119" height="9.119" style="fill:#302728;"/><rect id="p46" serif:id="p" x="281.455" y="407.084" width="9.119" height="9.119" style="fill:#302728;"/><rect id="p47" serif:id="p" x="281.455" y="425.323" width="9.119" height="9.119" style="fill:#302728;"/><rect id="p48" serif:id="p" x="290.574" y="169.977" width="9.119" height="9.119" style="fill:#302728;"/><rect id="p49" serif:id="p" x="290.574" y="188.216" width="9.119" height="9.119" style="fill:#302728;"/><rect id="p50" serif:id="p" x="290.574" y="197.336" width="9.119" height="9.119" style="fill:#302728;"/><rect id="p51" serif:id="p" x="290.574" y="206.455" width="9.119" height="9.119" style="fill:#302728;"/><rect id="p52" serif:id="p" x="290.574" y="224.694" width="9.119" height="9.119" style="fill:#302728;"/><rect id="p53" serif:id="p" x="290.574" y="261.172" width="9.119" height="9.119" style="fill:#302728;"/><rect id="p54" serif:id="p" x="290.574" y="270.292" width="9.119" height="9.119" style="fill:#302728;"/><rect id="p55" serif:id="p" x="290.574" y="279.411" width="9.119" height="9.119" style="fill:#302728;"/><rect id="p56" serif:id="p" x="290.574" y="288.531" width="9.119" height="9.119" style="fill:#302728;"/><rect id="p57" serif:id="p" x="290.574" y="306.77" width="9.119" height="9.119" style="fill:#302728;"/><rect id="p58" serif:id="p" x="290.574" y="343.248" width="9.119" height="9.119" style="fill:#302728;"/><rect id="p59" serif:id="p" x="290.574" y="370.606" width="9.119" height="9.119" style="fill:#302728;"/><rect id="p60" serif:id="p" x="290.574" y="388.845" width="9.119" height="9.119" style="fill:#302728;"/><rect id="p61" serif:id="p" x="290.574" y="397.964" width="9.119" height="9.119" style="fill:#302728;"/><rect id="p62" serif:id="p" x="290.574" y="407.084" width="9.119" height="9.119" style="fill:#302728;"/><rect id="p63" serif:id="p" x="290.574" y="425.323" width="9.119" height="9.119" style="fill:#302728;"/><rect id="p64" serif:id="p" x="299.694" y="169.977" width="9.119" height="9.119" style="fill:#302728;"/><rect id="p65" serif:id="p" x="299.694" y="188.216" width="9.119" height="9.119" style="fill:#302728;"/><rect id="p66" serif:id="p" x="299.694" y="197.336" width="9.119" height="9.119" style="fill:#302728;"/><rect id="p67" serif:id="p" x="299.694" y="206.455" width="9.119" height="9.119" style="fill:#302728;"/><rect id="p68" serif:id="p" x="299.694" y="224.694" width="9.119" height="9.119" style="fill:#302728;"/><rect id="p69" serif:id="p" x="299.694" y="252.053" width="9.119" height="9.119" style="fill:#302728;"/><rect id="p70" serif:id="p" x="299.694" y="279.411" width="9.119" height="9.119" style="fill:#302728;"/><rect id="p71" serif:id="p" x="299.694" y="297.65" width="9.119" height="9.119" style="fill:#302728;"/><rect id="p72" serif:id="p" x="299.694" y="315.889" width="9.119" height="9.119" style="fill:#302728;"/><rect id="p73" serif:id="p" x="299.694" y="370.606" width="9.119" height="9.119" style="fill:#302728;"/><rect id="p74" serif:id="p" x="299.694" y="388.845" width="9.119" height="9.119" style="fill:#302728;"/><rect id="p75" serif:id="p" x="299.694" y="397.964" width="9.119" height="9.119" style="fill:#302728;"/><rect id="p76" serif:id="p" x="299.694" y="407.084" width="9.119" height="9.119" style="fill:#302728;"/><rect id="p77" serif:id="p" x="299.694" y="425.323" width="9.119" height="9.119" style="fill:#302728;"/><rect id="p78" serif:id="p" x="308.813" y="169.977" width="9.119" height="9.119" style="fill:#302728;"/><rect id="p79" serif:id="p" x="308.813" y="224.694" width="9.119" height="9.119" style="fill:#302728;"/><rect id="p80" serif:id="p" x="308.813" y="242.933" width="9.119" height="9.119" style="fill:#302728;"/><rect id="p81" serif:id="p" x="308.813" y="261.172" width="9.119" height="9.119" style="fill:#302728;"/><rect id="p82" serif:id="p" x="308.813" y="279.411" width="9.119" height="9.119" style="fill:#302728;"/><rect id="p83" serif:id="p" x="308.813" y="288.531" width="9.119" height="9.119" style="fill:#302728;"/><rect id="p84" serif:id="p" x="308.813" y="315.889" width="9.119" height="9.119" style="fill:#302728;"/><rect id="p85" serif:id="p" x="308.813" y="325.009" width="9.119" height="9.119" style="fill:#302728;"/><rect id="p86" serif:id="p" x="308.813" y="343.248" width="9.119" height="9.119" style="fill:#302728;"/><rect id="p87" serif:id="p" x="308.813" y="370.606" width="9.119" height="9.119" style="fill:#302728;"/><rect id="p88" serif:id="p" x="308.813" y="425.323" width="9.119" height="9.119" style="fill:#302728;"/><rect id="p89" serif:id="p" x="317.933" y="169.977" width="9.119" height="9.119" style="fill:#302728;"/><rect id="p90" serif:id="p" x="317.933" y="179.097" width="9.119" height="9.119" style="fill:#302728;"/><rect id="p91" serif:id="p" x="317.933" y="188.216" width="9.119" height="9.119" style="fill:#302728;"/><rect id="p92" serif:id="p" x="317.933" y="197.336" width="9.119" height="9.119" style="fill:#302728;"/><rect id="p93" serif:id="p" x="317.933" y="206.455" width="9.119" height="9.119" style="fill:#302728;"/><rect id="p94" serif:id="p" x="317.933" y="215.575" width="9.119" height="9.119" style="fill:#302728;"/><rect id="p95" serif:id="p" x="317.933" y="224.694" width="9.119" height="9.119" style="fill:#302728;"/><rect id="p96" serif:id="p" x="317.933" y="242.933" width="9.119" height="9.119" style="fill:#302728;"/><rect id="p97" serif:id="p" x="317.933" y="261.172" width="9.119" height="9.119" style="fill:#302728;"/><rect id="p98" serif:id="p" x="317.933" y="279.411" width="9.119" height="9.119" style="fill:#302728;"/><rect id="p99" serif:id="p" x="317.933" y="297.65" width="9.119" height="9.119" style="fill:#302728;"/><rect id="p100" serif:id="p" x="317.933" y="315.889" width="9.119" height="9.119" style="fill:#302728;"/><rect id="p101" serif:id="p" x="317.933" y="334.128" width="9.119" height="9.119" style="fill:#302728;"/><rect id="p102" serif:id="p" x="317.933" y="352.367" width="9.119" height="9.119" style="fill:#302728;"/><rect id="p103" serif:id="p" x="317.933" y="370.606" width="9.119" height="9.119" style="fill:#302728;"/><rect id="p104" serif:id="p" x="317.933" y="379.725" width="9.119" height="9.119" style="fill:#302728;"/><rect id="p105" serif:id="p" x="317.933" y="388.845" width="9.119" height="9.119" style="fill:#302728;"/><rect id="p106" serif:id="p" x="317.933" y="397.964" width="9.119" height="9.119" style="fill:#302728;"/><rect id="p107" serif:id="p" x="317.933" y="407.084" width="9.119" height="9.119" style="fill:#302728;"/><rect id="p108" serif:id="p" x="317.933" y="416.203" width="9.119" height="9.119" style="fill:#302728;"/><rect id="p109" serif:id="p" x="317.933" y="425.323" width="9.119" height="9.119" style="fill:#302728;"/><rect id="p110" serif:id="p" x="327.052" y="242.933" width="9.119" height="9.119" style="fill:#302728;"/><rect id="p111" serif:id="p" x="327.052" y="279.411" width="9.119" height="9.119" style="fill:#302728;"/><rect id="p112" serif:id="p" x="327.052" y="288.531" width="9.119" height="9.119" style="fill:#302728;"/><rect id="p113" serif:id="p" x="327.052" y="343.248" width="9.119" height="9.119" style="fill:#302728;"/><rect id="p114" serif:id="p" x="327.052" y="352.367" width="9.119" height="9.119" style="fill:#302728;"/><rect id="p115" serif:id="p" x="336.172" y="179.097" width="9.119" height="9.119" style="fill:#302728;"/><rect id="p116" serif:id="p" x="336.172" y="188.216" width="9.119" height="9.119" style="fill:#302728;"/><rect id="p117" serif:id="p" x="336.172" y="197.336" width="9.119" height="9.119" style="fill:#302728;"/><rect id="p118" serif:id="p" x="336.172" y="206.455" width="9.119" height="9.119" style="fill:#302728;"/><rect id="p119" serif:id="p" x="336.172" y="215.575" width="9.119" height="9.119" style="fill:#302728;"/><rect id="p120" serif:id="p" x="336.172" y="224.694" width="9.119" height="9.119" style="fill:#302728;"/><rect id="p121" serif:id="p" x="336.172" y="242.933" width="9.119" height="9.119" style="fill:#302728;"/><rect id="p122" serif:id="p" x="336.172" y="261.172" width="9.119" height="9.119" style="fill:#302728;"/><rect id="p123" serif:id="p" x="336.172" y="270.292" width="9.119" height="9.119" style="fill:#302728;"/><rect id="p124" serif:id="p" x="336.172" y="279.411" width="9.119" height="9.119" style="fill:#302728;"/><rect id="p125" serif:id="p" x="336.172" y="306.77" width="9.119" height="9.119" style="fill:#302728;"/><rect id="p126" serif:id="p" x="336.172" y="325.009" width="9.119" height="9.119" style="fill:#302728;"/><rect id="p127" serif:id="p" x="336.172" y="334.128" width="9.119" height="9.119" style="fill:#302728;"/><rect id="p128" serif:id="p" x="336.172" y="343.248" width="9.119" height="9.119" style="fill:#302728;"/><rect id="p129" serif:id="p" x="336.172" y="352.367" width="9.119" height="9.119" style="fill:#302728;"/><rect id="p130" serif:id="p" x="336.172" y="361.487" width="9.119" height="9.119" style="fill:#302728;"/><rect id="p131" serif:id="p" x="336.172" y="370.606" width="9.119" height="9.119" style="fill:#302728;"/><rect id="p132" serif:id="p" x="336.172" y="379.725" width="9.119" height="9.119" style="fill:#302728;"/><rect id="p133" serif:id="p" x="336.172" y="407.084" width="9.119" height="9.119" style="fill:#302728;"/><rect id="p134" serif:id="p" x="345.291" y="169.977" width="9.119" height="9.119" style="fill:#302728;"/><rect id="p135" serif:id="p" x="345.291" y="179.097" width="9.119" height="9.119" style="fill:#302728;"/><rect id="p136" serif:id="p" x="345.291" y="197.336" width="9.119" height="9.119" style="fill:#302728;"/><rect id="p137" serif:id="p" x="345.291" y="206.455" width="9.119" height="9.119" style="fill:#302728;"/><rect id="p138" serif:id="p" x="345.291" y="233.814" width="9.119" height="9.119" style="fill:#302728;"/><rect id="p139" serif:id="p" x="345.291" y="242.933" width="9.119" height="9.119" style="fill:#302728;"/><rect id="p140" serif:id="p" x="345.291" y="252.053" width="9.119" height="9.119" style="fill:#302728;"/><rect id="p141" serif:id="p" x="345.291" y="261.172" width="9.119" height="9.119" style="fill:#302728;"/><rect id="p142" serif:id="p" x="345.291" y="279.411" width="9.119" height="9.119" style="fill:#302728;"/><rect id="p143" serif:id="p" x="345.291" y="315.889" width="9.119" height="9.119" style="fill:#302728;"/><rect id="p144" serif:id="p" x="345.291" y="352.367" width="9.119" height="9.119" style="fill:#302728;"/><rect id="p145" serif:id="p" x="345.291" y="379.725" width="9.119" height="9.119" style="fill:#302728;"/><rect id="p146" serif:id="p" x="345.291" y="416.203" width="9.119" height="9.119" style="fill:#302728;"/><rect id="p147" serif:id="p" x="354.411" y="169.977" width="9.119" height="9.119" style="fill:#302728;"/><rect id="p148" serif:id="p" x="354.411" y="179.097" width="9.119" height="9.119" style="fill:#302728;"/><rect id="p149" serif:id="p" x="354.411" y="197.336" width="9.119" height="9.119" style="fill:#302728;"/><rect id="p150" serif:id="p" x="354.411" y="215.575" width="9.119" height="9.119" style="fill:#302728;"/><rect id="p151" serif:id="p" x="354.411" y="224.694" width="9.119" height="9.119" style="fill:#302728;"/><rect id="p152" serif:id="p" x="354.411" y="242.933" width="9.119" height="9.119" style="fill:#302728;"/><rect id="p153" serif:id="p" x="354.411" y="261.172" width="9.119" height="9.119" style="fill:#302728;"/><rect id="p154" serif:id="p" x="354.411" y="270.292" width="9.119" height="9.119" style="fill:#302728;"/><rect id="p155" serif:id="p" x="354.411" y="279.411" width="9.119" height="9.119" style="fill:#302728;"/><rect id="p156" serif:id="p" x="354.411" y="297.65" width="9.119" height="9.119" style="fill:#302728;"/><rect id="p157" serif:id="p" x="354.411" y="315.889" width="9.119" height="9.119" style="fill:#302728;"/><rect id="p158" serif:id="p" x="354.411" y="325.009" width="9.119" height="9.119" style="fill:#302728;"/><rect id="p159" serif:id="p" x="354.411" y="334.128" width="9.119" height="9.119" style="fill:#302728;"/><rect id="p160" serif:id="p" x="354.411" y="352.367" width="9.119" height="9.119" style="fill:#302728;"/><rect id="p161" serif:id="p" x="354.411" y="361.487" width="9.119" height="9.119" style="fill:#302728;"/><rect id="p162" serif:id="p" x="354.411" y="397.964" width="9.119" height="9.119" style="fill:#302728;"/><rect id="p163" serif:id="p" x="363.53" y="179.097" width="9.119" height="9.119" style="fill:#302728;"/><rect id="p164" serif:id="p" x="363.53" y="197.336" width="9.119" height="9.119" style="fill:#302728;"/><rect id="p165" serif:id="p" x="363.53" y="252.053" width="9.119" height="9.119" style="fill:#302728;"/><rect id="p166" serif:id="p" x="363.53" y="261.172" width="9.119" height="9.119" style="fill:#302728;"/><rect id="p167" serif:id="p" x="363.53" y="288.531" width="9.119" height="9.119" style="fill:#302728;"/><rect id="p168" serif:id="p" x="363.53" y="297.65" width="9.119" height="9.119" style="fill:#302728;"/><rect id="p169" serif:id="p" x="363.53" y="306.77" width="9.119" height="9.119" style="fill:#302728;"/><rect id="p170" serif:id="p" x="363.53" y="334.128" width="9.119" height="9.119" style="fill:#302728;"/><rect id="p171" serif:id="p" x="363.53" y="343.248" width="9.119" height="9.119" style="fill:#302728;"/><rect id="p172" serif:id="p" x="363.53" y="352.367" width="9.119" height="9.119" style="fill:#302728;"/><rect id="p173" serif:id="p" x="363.53" y="388.845" width="9.119" height="9.119" style="fill:#302728;"/><rect id="p174" serif:id="p" x="363.53" y="397.964" width="9.119" height="9.119" style="fill:#302728;"/><rect id="p175" serif:id="p" x="363.53" y="407.084" width="9.119" height="9.119" style="fill:#302728;"/><rect id="p176" serif:id="p" x="372.65" y="179.097" width="9.119" height="9.119" style="fill:#302728;"/><rect id="p177" serif:id="p" x="372.65" y="188.216" width="9.119" height="9.119" style="fill:#302728;"/><rect id="p178" serif:id="p" x="372.65" y="206.455" width="9.119" height="9.119" style="fill:#302728;"/><rect id="p179" serif:id="p" x="372.65" y="215.575" width="9.119" height="9.119" style="fill:#302728;"/><rect id="p180" serif:id="p" x="372.65" y="224.694" width="9.119" height="9.119" style="fill:#302728;"/><rect id="p181" serif:id="p" x="372.65" y="233.814" width="9.119" height="9.119" style="fill:#302728;"/><rect id="p182" serif:id="p" x="372.65" y="252.053" width="9.119" height="9.119" style="fill:#302728;"/><rect id="p183" serif:id="p" x="372.65" y="261.172" width="9.119" height="9.119" style="fill:#302728;"/><rect id="p184" serif:id="p" x="372.65" y="270.292" width="9.119" height="9.119" style="fill:#302728;"/><rect id="p185" serif:id="p" x="372.65" y="279.411" width="9.119" height="9.119" style="fill:#302728;"/><rect id="p186" serif:id="p" x="372.65" y="306.77" width="9.119" height="9.119" style="fill:#302728;"/><rect id="p187" serif:id="p" x="372.65" y="315.889" width="9.119" height="9.119" style="fill:#302728;"/><rect id="p188" serif:id="p" x="372.65" y="334.128" width="9.119" height="9.119" style="fill:#302728;"/><rect id="p189" serif:id="p" x="372.65" y="352.367" width="9.119" height="9.119" style="fill:#302728;"/><rect id="p190" serif:id="p" x="372.65" y="379.725" width="9.119" height="9.119" style="fill:#302728;"/><rect id="p191" serif:id="p" x="372.65" y="407.084" width="9.119" height="9.119" style="fill:#302728;"/><rect id="p192" serif:id="p" x="372.65" y="416.203" width="9.119" height="9.119" style="fill:#302728;"/><rect id="p193" serif:id="p" x="381.769" y="169.977" width="9.119" height="9.119" style="fill:#302728;"/><rect id="p194" serif:id="p" x="381.769" y="179.097" width="9.119" height="9.119" style="fill:#302728;"/><rect id="p195" serif:id="p" x="381.769" y="188.216" width="9.119" height="9.119" style="fill:#302728;"/><rect id="p196" serif:id="p" x="381.769" y="197.336" width="9.119" height="9.119" style="fill:#302728;"/><rect id="p197" serif:id="p" x="381.769" y="233.814" width="9.119" height="9.119" style="fill:#302728;"/><rect id="p198" serif:id="p" x="381.769" y="261.172" width="9.119" height="9.119" style="fill:#302728;"/><rect id="p199" serif:id="p" x="381.769" y="306.77" width="9.119" height="9.119" style="fill:#302728;"/><rect id="p200" serif:id="p" x="381.769" y="315.889" width="9.119" height="9.119" style="fill:#302728;"/><rect id="p201" serif:id="p" x="381.769" y="334.128" width="9.119" height="9.119" style="fill:#302728;"/><rect id="p202" serif:id="p" x="381.769" y="352.367" width="9.119" height="9.119" style="fill:#302728;"/><rect id="p203" serif:id="p" x="381.769" y="361.487" width="9.119" height="9.119" style="fill:#302728;"/><rect id="p204" serif:id="p" x="381.769" y="370.606" width="9.119" height="9.119" style="fill:#302728;"/><rect id="p205" serif:id="p" x="381.769" y="379.725" width="9.119" height="9.119" style="fill:#302728;"/><rect id="p206" serif:id="p" x="381.769" y="397.964" width="9.119" height="9.119" style="fill:#302728;"/><rect id="p207" serif:id="p" x="381.769" y="407.084" width="9.119" height="9.119" style="fill:#302728;"/><rect id="p208" serif:id="p" x="381.769" y="425.323" width="9.119" height="9.119" style="fill:#302728;"/><rect id="p209" serif:id="p" x="390.889" y="169.977" width="9.119" height="9.119" style="fill:#302728;"/><rect id="p210" serif:id="p" x="390.889" y="206.455" width="9.119" height="9.119" style="fill:#302728;"/><rect id="p211" serif:id="p" x="390.889" y="215.575" width="9.119" height="9.119" style="fill:#302728;"/><rect id="p212" serif:id="p" x="390.889" y="224.694" width="9.119" height="9.119" style="fill:#302728;"/><rect id="p213" serif:id="p" x="390.889" y="252.053" width="9.119" height="9.119" style="fill:#302728;"/><rect id="p214" serif:id="p" x="390.889" y="261.172" width="9.119" height="9.119" style="fill:#302728;"/><rect id="p215" serif:id="p" x="390.889" y="288.531" width="9.119" height="9.119" style="fill:#302728;"/><rect id="p216" serif:id="p" x="390.889" y="306.77" width="9.119" height="9.119" style="fill:#302728;"/><rect id="p217" serif:id="p" x="390.889" y="334.128" width="9.119" height="9.119" style="fill:#302728;"/><rect id="p218" serif:id="p" x="390.889" y="361.487" width="9.119" height="9.119" style="fill:#302728;"/><rect id="p219" serif:id="p" x="390.889" y="370.606" width="9.119" height="9.119" style="fill:#302728;"/><rect id="p220" serif:id="p" x="390.889" y="379.725" width="9.119" height="9.119" style="fill:#302728;"/><rect id="p221" serif:id="p" x="390.889" y="388.845" width="9.119" height="9.119" style="fill:#302728;"/><rect id="p222" serif:id="p" x="390.889" y="397.964" width="9.119" height="9.119" style="fill:#302728;"/><rect id="p223" serif:id="p" x="400.008" y="179.097" width="9.119" height="9.119" style="fill:#302728;"/><rect id="p224" serif:id="p" x="400.008" y="188.216" width="9.119" height="9.119" style="fill:#302728;"/><rect id="p225" serif:id="p" x="400.008" y="197.336" width="9.119" height="9.119" style="fill:#302728;"/><rect id="p226" serif:id="p" x="400.008" y="215.575" width="9.119" height="9.119" style="fill:#302728;"/><rect id="p227" serif:id="p" x="400.008" y="233.814" width="9.119" height="9.119" style="fill:#302728;"/><rect id="p228" serif:id="p" x="400.008" y="306.77" width="9.119" height="9.119" style="fill:#302728;"/><rect id="p229" serif:id="p" x="400.008" y="343.248" width="9.119" height="9.119" style="fill:#302728;"/><rect id="p230" serif:id="p" x="400.008" y="361.487" width="9.119" height="9.119" style="fill:#302728;"/><rect id="p231" serif:id="p" x="400.008" y="379.725" width="9.119" height="9.119" style="fill:#302728;"/><rect id="p232" serif:id="p" x="400.008" y="397.964" width="9.119" height="9.119" style="fill:#302728;"/><rect id="p233" serif:id="p" x="400.008" y="416.203" width="9.119" height="9.119" style="fill:#302728;"/><rect id="p234" serif:id="p" x="409.128" y="188.216" width="9.119" height="9.119" style="fill:#302728;"/><rect id="p235" serif:id="p" x="409.128" y="197.336" width="9.119" height="9.119" style="fill:#302728;"/><rect id="p236" serif:id="p" x="409.128" y="224.694" width="9.119" height="9.119" style="fill:#302728;"/><rect id="p237" serif:id="p" x="409.128" y="233.814" width="9.119" height="9.119" style="fill:#302728;"/><rect id="p238" serif:id="p" x="409.128" y="242.933" width="9.119" height="9.119" style="fill:#302728;"/><rect id="p239" serif:id="p" x="409.128" y="252.053" width="9.119" height="9.119" style="fill:#302728;"/><rect id="p240" serif:id="p" x="409.128" y="270.292" width="9.119" height="9.119" style="fill:#302728;"/><rect id="p241" serif:id="p" x="409.128" y="297.65" width="9.119" height="9.119" style="fill:#302728;"/><rect id="p242" serif:id="p" x="409.128" y="306.77" width="9.119" height="9.119" style="fill:#302728;"/><rect id="p243" serif:id="p" x="409.128" y="315.889" width="9.119" height="9.119" style="fill:#302728;"/><rect id="p244" serif:id="p" x="409.128" y="325.009" width="9.119" height="9.119" style="fill:#302728;"/><rect id="p245" serif:id="p" x="409.128" y="334.128" width="9.119" height="9.119" style="fill:#302728;"/><rect id="p246" serif:id="p" x="409.128" y="352.367" width="9.119" height="9.119" style="fill:#302728;"/><rect id="p247" serif:id="p" x="409.128" y="388.845" width="9.119" height="9.119" style="fill:#302728;"/><rect id="p248" serif:id="p" x="409.128" y="397.964" width="9.119" height="9.119" style="fill:#302728;"/><rect id="p249" serif:id="p" x="409.128" y="425.323" width="9.119" height="9.119" style="fill:#302728;"/><rect id="p250" serif:id="p" x="418.247" y="188.216" width="9.119" height="9.119" style="fill:#302728;"/><rect id="p251" serif:id="p" x="418.247" y="197.336" width="9.119" height="9.119" style="fill:#302728;"/><rect id="p252" serif:id="p" x="418.247" y="206.455" width="9.119" height="9.119" style="fill:#302728;"/><rect id="p253" serif:id="p" x="418.247" y="242.933" width="9.119" height="9.119" style="fill:#302728;"/><rect id="p254" serif:id="p" x="418.247" y="261.172" width="9.119" height="9.119" style="fill:#302728;"/><rect id="p255" serif:id="p" x="418.247" y="297.65" width="9.119" height="9.119" style="fill:#302728;"/><rect id="p256" serif:id="p" x="418.247" y="325.009" width="9.119" height="9.119" style="fill:#302728;"/><rect id="p257" serif:id="p" x="418.247" y="334.128" width="9.119" height="9.119" style="fill:#302728;"/><rect id="p258" serif:id="p" x="418.247" y="343.248" width="9.119" height="9.119" style="fill:#302728;"/><rect id="p259" serif:id="p" x="418.247" y="352.367" width="9.119" height="9.119" style="fill:#302728;"/><rect id="p260" serif:id="p" x="418.247" y="388.845" width="9.119" height="9.119" style="fill:#302728;"/><rect id="p261" serif:id="p" x="418.247" y="407.084" width="9.119" height="9.119" style="fill:#302728;"/><rect id="p262" serif:id="p" x="418.247" y="425.323" width="9.119" height="9.119" style="fill:#302728;"/><rect id="p263" serif:id="p" x="427.367" y="169.977" width="9.119" height="9.119" style="fill:#302728;"/><rect id="p264" serif:id="p" x="427.367" y="179.097" width="9.119" height="9.119" style="fill:#302728;"/><rect id="p265" serif:id="p" x="427.367" y="188.216" width="9.119" height="9.119" style="fill:#302728;"/><rect id="p266" serif:id="p" x="427.367" y="197.336" width="9.119" height="9.119" style="fill:#302728;"/><rect id="p267" serif:id="p" x="427.367" y="206.455" width="9.119" height="9.119" style="fill:#302728;"/><rect id="p268" serif:id="p" x="427.367" y="224.694" width="9.119" height="9.119" style="fill:#302728;"/><rect id="p269" serif:id="p" x="427.367" y="233.814" width="9.119" height="9.119" style="fill:#302728;"/><rect id="p270" serif:id="p" x="427.367" y="242.933" width="9.119" height="9.119" style="fill:#302728;"/><rect id="p271" serif:id="p" x="427.367" y="252.053" width="9.119" height="9.119" style="fill:#302728;"/><rect id="p272" serif:id="p" x="427.367" y="279.411" width="9.119" height="9.119" style="fill:#302728;"/><rect id="p273" serif:id="p" x="427.367" y="288.531" width="9.119" height="9.119" style="fill:#302728;"/><rect id="p274" serif:id="p" x="427.367" y="297.65" width="9.119" height="9.119" style="fill:#302728;"/><rect id="p275" serif:id="p" x="427.367" y="306.77" width="9.119" height="9.119" style="fill:#302728;"/><rect id="p276" serif:id="p" x="427.367" y="361.487" width="9.119" height="9.119" style="fill:#302728;"/><rect id="p277" serif:id="p" x="427.367" y="370.606" width="9.119" height="9.119" style="fill:#302728;"/><rect id="p278" serif:id="p" x="427.367" y="379.725" width="9.119" height="9.119" style="fill:#302728;"/><rect id="p279" serif:id="p" x="427.367" y="388.845" width="9.119" height="9.119" style="fill:#302728;"/><rect id="p280" serif:id="p" x="427.367" y="407.084" width="9.119" height="9.119" style="fill:#302728;"/><rect id="p281" serif:id="p" x="427.367" y="425.323" width="9.119" height="9.119" style="fill:#302728;"/><rect id="p282" serif:id="p" x="436.486" y="169.977" width="9.119" height="9.119" style="fill:#302728;"/><rect id="p283" serif:id="p" x="436.486" y="179.097" width="9.119" height="9.119" style="fill:#302728;"/><rect id="p284" serif:id="p" x="436.486" y="197.336" width="9.119" height="9.119" style="fill:#302728;"/><rect id="p285" serif:id="p" x="436.486" y="261.172" width="9.119" height="9.119" style="fill:#302728;"/><rect id="p286" serif:id="p" x="436.486" y="279.411" width="9.119" height="9.119" style="fill:#302728;"/><rect id="p287" serif:id="p" x="436.486" y="288.531" width="9.119" height="9.119" style="fill:#302728;"/><rect id="p288" serif:id="p" x="436.486" y="297.65" width="9.119" height="9.119" style="fill:#302728;"/><rect id="p289" serif:id="p" x="436.486" y="315.889" width="9.119" height="9.119" style="fill:#302728;"/><rect id="p290" serif:id="p" x="436.486" y="343.248" width="9.119" height="9.119" style="fill:#302728;"/><rect id="p291" serif:id="p" x="436.486" y="379.725" width="9.119" height="9.119" style="fill:#302728;"/><rect id="p292" serif:id="p" x="436.486" y="388.845" width="9.119" height="9.119" style="fill:#302728;"/><rect id="p293" serif:id="p" x="436.486" y="416.203" width="9.119" height="9.119" style="fill:#302728;"/><rect id="p294" serif:id="p" x="436.486" y="425.323" width="9.119" height="9.119" style="fill:#302728;"/><rect id="p295" serif:id="p" x="445.606" y="224.694" width="9.119" height="9.119" style="fill:#302728;"/><rect id="p296" serif:id="p" x="445.606" y="233.814" width="9.119" height="9.119" style="fill:#302728;"/><rect id="p297" serif:id="p" x="445.606" y="279.411" width="9.119" height="9.119" style="fill:#302728;"/><rect id="p298" serif:id="p" x="445.606" y="288.531" width="9.119" height="9.119" style="fill:#302728;"/><rect id="p299" serif:id="p" x="445.606" y="315.889" width="9.119" height="9.119" style="fill:#302728;"/><rect id="p300" serif:id="p" x="445.606" y="325.009" width="9.119" height="9.119" style="fill:#302728;"/><rect id="p301" serif:id="p" x="445.606" y="334.128" width="9.119" height="9.119" style="fill:#302728;"/><rect id="p302" serif:id="p" x="445.606" y="343.248" width="9.119" height="9.119" style="fill:#302728;"/><rect id="p303" serif:id="p" x="445.606" y="352.367" width="9.119" height="9.119" style="fill:#302728;"/><rect id="p304" serif:id="p" x="445.606" y="361.487" width="9.119" height="9.119" style="fill:#302728;"/><rect id="p305" serif:id="p" x="445.606" y="370.606" width="9.119" height="9.119" style="fill:#302728;"/><rect id="p306" serif:id="p" x="445.606" y="379.725" width="9.119" height="9.119" style="fill:#302728;"/><rect id="p307" serif:id="p" x="445.606" y="388.845" width="9.119" height="9.119" style="fill:#302728;"/><rect id="p308" serif:id="p" x="445.606" y="407.084" width="9.119" height="9.119" style="fill:#302728;"/><rect id="p309" serif:id="p" x="445.606" y="425.323" width="9.119" height="9.119" style="fill:#302728;"/><rect id="p310" serif:id="p" x="454.725" y="242.933" width="9.119" height="9.119" style="fill:#302728;"/><rect id="p311" serif:id="p" x="454.725" y="270.292" width="9.119" height="9.119" style="fill:#302728;"/><rect id="p312" serif:id="p" x="454.725" y="279.411" width="9.119" height="9.119" style="fill:#302728;"/><rect id="p313" serif:id="p" x="454.725" y="343.248" width="9.119" height="9.119" style="fill:#302728;"/><rect id="p314" serif:id="p" x="454.725" y="352.367" width="9.119" height="9.119" style="fill:#302728;"/><rect id="p315" serif:id="p" x="454.725" y="388.845" width="9.119" height="9.119" style="fill:#302728;"/><rect id="p316" serif:id="p" x="454.725" y="397.964" width="9.119" height="9.119" style="fill:#302728;"/><rect id="p317" serif:id="p" x="454.725" y="407.084" width="9.119" height="9.119" style="fill:#302728;"/><rect id="p318" serif:id="p" x="463.845" y="169.977" width="9.119" height="9.119" style="fill:#302728;"/><rect id="p319" serif:id="p" x="463.845" y="179.097" width="9.119" height="9.119" style="fill:#302728;"/><rect id="p320" serif:id="p" x="463.845" y="188.216" width="9.119" height="9.119" style="fill:#302728;"/><rect id="p321" serif:id="p" x="463.845" y="197.336" width="9.119" height="9.119" style="fill:#302728;"/><rect id="p322" serif:id="p" x="463.845" y="206.455" width="9.119" height="9.119" style="fill:#302728;"/><rect id="p323" serif:id="p" x="463.845" y="215.575" width="9.119" height="9.119" style="fill:#302728;"/><rect id="p324" serif:id="p" x="463.845" y="224.694" width="9.119" height="9.119" style="fill:#302728;"/><rect id="p325" serif:id="p" x="463.845" y="270.292" width="9.119" height="9.119" style="fill:#302728;"/><rect id="p326" serif:id="p" x="463.845" y="279.411" width="9.119" height="9.119" style="fill:#302728;"/><rect id="p327" serif:id="p" x="463.845" y="288.531" width="9.119" height="9.119" style="fill:#302728;"/><rect id="p328" serif:id="p" x="463.845" y="306.77" width="9.119" height="9.119" style="fill:#302728;"/><rect id="p329" serif:id="p" x="463.845" y="343.248" width="9.119" height="9.119" style="fill:#302728;"/><rect id="p330" serif:id="p" x="463.845" y="352.367" width="9.119" height="9.119" style="fill:#302728;"/><rect id="p331" serif:id="p" x="463.845" y="370.606" width="9.119" height="9.119" style="fill:#302728;"/><rect id="p332" serif:id="p" x="463.845" y="388.845" width="9.119" height="9.119" style="fill:#302728;"/><rect id="p333" serif:id="p" x="463.845" y="425.323" width="9.119" height="9.119" style="fill:#302728;"/><rect id="p334" serif:id="p" x="472.964" y="169.977" width="9.119" height="9.119" style="fill:#302728;"/><rect id="p335" serif:id="p" x="472.964" y="224.694" width="9.119" height="9.119" style="fill:#302728;"/><rect id="p336" serif:id="p" x="472.964" y="242.933" width="9.119" height="9.119" style="fill:#302728;"/><rect id="p337" serif:id="p" x="472.964" y="270.292" width="9.119" height="9.119" style="fill:#302728;"/><rect id="p338" serif:id="p" x="472.964" y="279.411" width="9.119" height="9.119" style="fill:#302728;"/><rect id="p339" serif:id="p" x="472.964" y="297.65" width="9.119" height="9.119" style="fill:#302728;"/><rect id="p340" serif:id="p" x="472.964" y="315.889" width="9.119" height="9.119" style="fill:#302728;"/><rect id="p341" serif:id="p" x="472.964" y="343.248" width="9.119" height="9.119" style="fill:#302728;"/><rect id="p342" serif:id="p" x="472.964" y="352.367" width="9.119" height="9.119" style="fill:#302728;"/><rect id="p343" serif:id="p" x="472.964" y="388.845" width="9.119" height="9.119" style="fill:#302728;"/><rect id="p344" serif:id="p" x="472.964" y="397.964" width="9.119" height="9.119" style="fill:#302728;"/><rect id="p345" serif:id="p" x="472.964" y="407.084" width="9.119" height="9.119" style="fill:#302728;"/><rect id="p346" serif:id="p" x="472.964" y="425.323" width="9.119" height="9.119" style="fill:#302728;"/><rect id="p347" serif:id="p" x="482.084" y="169.977" width="9.119" height="9.119" style="fill:#302728;"/><rect id="p348" serif:id="p" x="482.084" y="188.216" width="9.119" height="9.119" style="fill:#302728;"/><rect id="p349" serif:id="p" x="482.084" y="197.336" width="9.119" height="9.119" style="fill:#302728;"/><rect id="p350" serif:id="p" x="482.084" y="206.455" width="9.119" height="9.119" style="fill:#302728;"/><rect id="p351" serif:id="p" x="482.084" y="224.694" width="9.119" height="9.119" style="fill:#302728;"/><rect id="p352" serif:id="p" x="482.084" y="242.933" width="9.119" height="9.119" style="fill:#302728;"/><rect id="p353" serif:id="p" x="482.084" y="270.292" width="9.119" height="9.119" style="fill:#302728;"/><rect id="p354" serif:id="p" x="482.084" y="306.77" width="9.119" height="9.119" style="fill:#302728;"/><rect id="p355" serif:id="p" x="482.084" y="352.367" width="9.119" height="9.119" style="fill:#302728;"/><rect id="p356" serif:id="p" x="482.084" y="361.487" width="9.119" height="9.119" style="fill:#302728;"/><rect id="p357" serif:id="p" x="482.084" y="370.606" width="9.119" height="9.119" style="fill:#302728;"/><rect id="p358" serif:id="p" x="482.084" y="379.725" width="9.119" height="9.119" style="fill:#302728;"/><rect id="p359" serif:id="p" x="482.084" y="388.845" width="9.119" height="9.119" style="fill:#302728;"/><rect id="p360" serif:id="p" x="482.084" y="397.964" width="9.119" height="9.119" style="fill:#302728;"/><rect id="p361" serif:id="p" x="482.084" y="407.084" width="9.119" height="9.119" style="fill:#302728;"/><rect id="p362" serif:id="p" x="482.084" y="425.323" width="9.119" height="9.119" style="fill:#302728;"/><rect id="p363" serif:id="p" x="491.203" y="169.977" width="9.119" height="9.119" style="fill:#302728;"/><rect id="p364" serif:id="p" x="491.203" y="188.216" width="9.119" height="9.119" style="fill:#302728;"/><rect id="p365" serif:id="p" x="491.203" y="197.336" width="9.119" height="9.119" style="fill:#302728;"/><rect id="p366" serif:id="p" x="491.203" y="206.455" width="9.119" height="9.119" style="fill:#302728;"/><rect id="p367" serif:id="p" x="491.203" y="224.694" width="9.119" height="9.119" style="fill:#302728;"/><rect id="p368" serif:id="p" x="491.203" y="242.933" width="9.119" height="9.119" style="fill:#302728;"/><rect id="p369" serif:id="p" x="491.203" y="252.053" width="9.119" height="9.119" style="fill:#302728;"/><rect id="p370" serif:id="p" x="491.203" y="261.172" width="9.119" height="9.119" style="fill:#302728;"/><rect id="p371" serif:id="p" x="491.203" y="270.292" width="9.119" height="9.119" style="fill:#302728;"/><rect id="p372" serif:id="p" x="491.203" y="279.411" width="9.119" height="9.119" style="fill:#302728;"/><rect id="p373" serif:id="p" x="491.203" y="288.531" width="9.119" height="9.119" style="fill:#302728;"/><rect id="p374" serif:id="p" x="491.203" y="297.65" width="9.119" height="9.119" style="fill:#302728;"/><rect id="p375" serif:id="p" x="491.203" y="306.77" width="9.119" height="9.119" style="fill:#302728;"/><rect id="p376" serif:id="p" x="491.203" y="325.009" width="9.119" height="9.119" style="fill:#302728;"/><rect id="p377" serif:id="p" x="491.203" y="343.248" width="9.119" height="9.119" style="fill:#302728;"/><rect id="p378" serif:id="p" x="491.203" y="361.487" width="9.119" height="9.119" style="fill:#302728;"/><rect id="p379" serif:id="p" x="491.203" y="370.606" width="9.119" height="9.119" style="fill:#302728;"/><rect id="p380" serif:id="p" x="491.203" y="379.725" width="9.119" height="9.119" style="fill:#302728;"/><rect id="p381" serif:id="p" x="491.203" y="407.084" width="9.119" height="9.119" style="fill:#302728;"/><rect id="p382" serif:id="p" x="491.203" y="416.203" width="9.119" height="9.119" style="fill:#302728;"/><rect id="p383" serif:id="p" x="491.203" y="425.323" width="9.119" height="9.119" style="fill:#302728;"/><rect id="p384" serif:id="p" x="500.323" y="169.977" width="9.119" height="9.119" style="fill:#302728;"/><rect id="p385" serif:id="p" x="500.323" y="188.216" width="9.119" height="9.119" style="fill:#302728;"/><rect id="p386" serif:id="p" x="500.323" y="197.336" width="9.119" height="9.119" style="fill:#302728;"/><rect id="p387" serif:id="p" x="500.323" y="206.455" width="9.119" height="9.119" style="fill:#302728;"/><rect id="p388" serif:id="p" x="500.323" y="224.694" width="9.119" height="9.119" style="fill:#302728;"/><rect id="p389" serif:id="p" x="500.323" y="242.933" width="9.119" height="9.119" style="fill:#302728;"/><rect id="p390" serif:id="p" x="500.323" y="252.053" width="9.119" height="9.119" style="fill:#302728;"/><rect id="p391" serif:id="p" x="500.323" y="297.65" width="9.119" height="9.119" style="fill:#302728;"/><rect id="p392" serif:id="p" x="500.323" y="325.009" width="9.119" height="9.119" style="fill:#302728;"/><rect id="p393" serif:id="p" x="500.323" y="370.606" width="9.119" height="9.119" style="fill:#302728;"/><rect id="p394" serif:id="p" x="509.442" y="169.977" width="9.119" height="9.119" style="fill:#302728;"/><rect id="p395" serif:id="p" x="509.442" y="224.694" width="9.119" height="9.119" style="fill:#302728;"/><rect id="p396" serif:id="p" x="509.442" y="242.933" width="9.119" height="9.119" style="fill:#302728;"/><rect id="p397" serif:id="p" x="509.442" y="252.053" width="9.119" height="9.119" style="fill:#302728;"/><rect id="p398" serif:id="p" x="509.442" y="279.411" width="9.119" height="9.119" style="fill:#302728;"/><rect id="p399" serif:id="p" x="509.442" y="297.65" width="9.119" height="9.119" style="fill:#302728;"/><rect id="p400" serif:id="p" x="509.442" y="315.889" width="9.119" height="9.119" style="fill:#302728;"/><rect id="p401" serif:id="p" x="509.442" y="352.367" width="9.119" height="9.119" style="fill:#302728;"/><rect id="p402" serif:id="p" x="509.442" y="361.487" width="9.119" height="9.119" style="fill:#302728;"/><rect id="p403" serif:id="p" x="509.442" y="379.725" width="9.119" height="9.119" style="fill:#302728;"/><rect id="p404" serif:id="p" x="509.442" y="388.845" width="9.119" height="9.119" style="fill:#302728;"/><rect id="p405" serif:id="p" x="509.442" y="397.964" width="9.119" height="9.119" style="fill:#302728;"/><rect id="p406" serif:id="p" x="509.442" y="407.084" width="9.119" height="9.119" style="fill:#302728;"/><rect id="p407" serif:id="p" x="518.562" y="169.977" width="9.119" height="9.119" style="fill:#302728;"/><rect id="p408" serif:id="p" x="518.562" y="179.097" width="9.119" height="9.119" style="fill:#302728;"/><rect id="p409" serif:id="p" x="518.562" y="188.216" width="9.119" height="9.119" style="fill:#302728;"/><rect id="p410" serif:id="p" x="518.562" y="197.336" width="9.119" height="9.119" style="fill:#302728;"/><rect id="p411" serif:id="p" x="518.562" y="206.455" width="9.119" height="9.119" style="fill:#302728;"/><rect id="p412" serif:id="p" x="518.562" y="215.575" width="9.119" height="9.119" style="fill:#302728;"/><rect id="p413" serif:id="p" x="518.562" y="224.694" width="9.119" height="9.119" style="fill:#302728;"/><rect id="p414" serif:id="p" x="518.562" y="252.053" width="9.119" height="9.119" style="fill:#302728;"/><rect id="p415" serif:id="p" x="518.562" y="261.172" width="9.119" height="9.119" style="fill:#302728;"/><rect id="p416" serif:id="p" x="518.562" y="288.531" width="9.119" height="9.119" style="fill:#302728;"/><rect id="p417" serif:id="p" x="518.562" y="297.65" width="9.119" height="9.119" style="fill:#302728;"/><rect id="p418" serif:id="p" x="518.562" y="306.77" width="9.119" height="9.119" style="fill:#302728;"/><rect id="p419" serif:id="p" x="518.562" y="315.889" width="9.119" height="9.119" style="fill:#302728;"/><rect id="p420" serif:id="p" x="518.562" y="325.009" width="9.119" height="9.119" style="fill:#302728;"/><rect id="p421" serif:id="p" x="518.562" y="334.128" width="9.119" height="9.119" style="fill:#302728;"/><rect id="p422" serif:id="p" x="518.562" y="343.248" width="9.119" height="9.119" style="fill:#302728;"/><rect id="p423" serif:id="p" x="518.562" y="352.367" width="9.119" height="9.119" style="fill:#302728;"/><rect id="p424" serif:id="p" x="518.562" y="361.487" width="9.119" height="9.119" style="fill:#302728;"/><rect id="p425" serif:id="p" x="518.562" y="370.606" width="9.119" height="9.119" style="fill:#302728;"/><rect id="p426" serif:id="p" x="518.562" y="388.845" width="9.119" height="9.119" style="fill:#302728;"/><rect id="p427" serif:id="p" x="518.562" y="407.084" width="9.119" height="9.119" style="fill:#302728;"/><rect id="p428" serif:id="p" x="518.562" y="425.323" width="9.119" height="9.119" style="fill:#302728;"/></g></g></svg>