<?xml version="1.0" encoding="utf-8"?>
<!-- Generator: Adobe Illustrator 21.1.0, SVG Export Plug-In . SVG Version: 6.00 Build 0)  -->
<svg version="1.1" id="Layer_1" xmlns="http://www.w3.org/2000/svg" xmlns:xlink="http://www.w3.org/1999/xlink" x="0px" y="0px"
	 viewBox="0 0 212 212" style="enable-background:new 0 0 212 212;" xml:space="preserve">
<style type="text/css">
	.st0{fill:#C31427;}
</style>
<path class="st0" d="M106,9.2C52.6,9.2,9.3,52.6,9.3,106c0,53.4,43.3,96.8,96.7,96.8s96.7-43.4,96.7-96.8
	C202.7,52.6,159.4,9.2,106,9.2z M71.3,73.3l38.3,0.2v8.8l-26.9,0.2l-0.2,13h19.2c0,0,5.8-0.1,12.8-1.6c1.3-0.3,0.4,9,0.4,9
	s-2.6,1.2-8.8,2c-5.6,0.7-12,0.6-13.1,0.6c-0.1,0-0.1,0-0.2,0c0,0-21.8-0.2-21.8-0.2L71.3,73.3z M132,141.9l-54.7,0.2l-0.2-19
	l43.1-0.2v-3.6l-43.3,0.2l-0.2-7.6H131v18.6L88,130.3v4.2l44.3,0.2L132,141.9z M140.7,97.2h-9.4l-0.2,10.2l-10.8-0.2L119.8,70
	l12.2,0.2c-1.1,5.3-1.2,11.2-1.2,17c0,0,7.7,0,9.4,0C141,87.2,140.6,97.2,140.7,97.2z"/>
<g>
</g>
<g>
</g>
<g>
</g>
<g>
</g>
<g>
</g>
<g>
</g>
<g>
</g>
<g>
</g>
<g>
</g>
<g>
</g>
<g>
</g>
<g>
</g>
<g>
</g>
<g>
</g>
<g>
</g>
</svg>
