<?xml version="1.0" encoding="UTF-8"?>
<svg width="642px" height="239px" viewBox="0 0 642 239" version="1.1" xmlns="http://www.w3.org/2000/svg" xmlns:xlink="http://www.w3.org/1999/xlink">
    <!-- Generator: Sketch 48.2 (47327) - http://www.bohemiancoding.com/sketch -->
    <title>logo 2</title>
    <desc>Created with Sketch.</desc>
    <defs></defs>
    <g id="Page-1" stroke="none" stroke-width="1" fill="none" fill-rule="evenodd">
        <g id="logo" fill="#FFFFFF">
            <g id="White-Dallar" transform="translate(259.000000, 42.000000)">
                <path d="M100.568347,94.3391 L81.110904,153.816 L66.326646,153.816 L53.241728,113.541642 L39.731975,153.816 L25.032684,153.816 L5.490274,94.3391 L19.76473,94.3391 L33.189516,136.142864 L47.209071,94.3391 L59.954121,94.3391 L73.548841,136.482732 L87.398462,94.3391 L100.568347,94.3391 Z M145.430923,141.07095 L117.816648,141.07095 L112.548694,153.816 L98.444172,153.816 L124.953876,94.3391 L138.548596,94.3391 L165.143267,153.816 L150.698877,153.816 L145.430923,141.07095 Z M141.097606,130.620009 L131.666269,107.848853 L122.234932,130.620009 L141.097606,130.620009 Z M171.345858,94.3391 L185.110512,94.3391 L185.110512,142.600356 L214.933929,142.600356 L214.933929,153.816 L171.345858,153.816 L171.345858,94.3391 Z M222.665926,94.3391 L236.43058,94.3391 L236.43058,142.600356 L266.253997,142.600356 L266.253997,153.816 L222.665926,153.816 L222.665926,94.3391 Z M320.038108,142.77029 L320.038108,153.816 L273.985994,153.816 L273.985994,94.3391 L318.933537,94.3391 L318.933537,105.38481 L287.665681,105.38481 L287.665681,118.299794 L315.279956,118.299794 L315.279956,129.005636 L287.665681,129.005636 L287.665681,142.77029 L320.038108,142.77029 Z M343.319066,105.554744 L324.286458,105.554744 L324.286458,94.3391 L376.116328,94.3391 L376.116328,105.554744 L357.08372,105.554744 L357.08372,153.816 L343.319066,153.816 L343.319066,105.554744 Z" id="WALLET"></path>
                <path d="M0.86819,0.6965 L27.708105,0.6965 C34.7491769,0.6965 40.9988419,2.14991047 46.4572875,5.056775 C51.9157331,7.96363953 56.1629215,11.9847418 59.19898,17.1202025 C62.2350385,22.2556632 63.753045,28.085454 63.753045,34.60975 C63.753045,41.134046 62.2350385,46.9638368 59.19898,52.0992975 C56.1629215,57.2347582 51.9157331,61.2558605 46.4572875,64.162725 C40.9988419,67.0695895 34.7491769,68.523 27.708105,68.523 L0.86819,68.523 L0.86819,0.6965 Z M27.320525,64.06583 C33.586433,64.06583 39.1093928,62.8223566 43.88957,60.3353725 C48.6697472,57.8483884 52.3517204,54.3763523 54.9356,49.91916 C57.5194796,45.4619677 58.8114,40.3588821 58.8114,34.60975 C58.8114,28.8606179 57.5194796,23.7575323 54.9356,19.30034 C52.3517204,14.8431477 48.6697472,11.3711116 43.88957,8.8841275 C39.1093928,6.3971434 33.586433,5.15367 27.320525,5.15367 L5.809835,5.15367 L5.809835,64.06583 L27.320525,64.06583 Z M121.890045,49.434685 L82.550675,49.434685 L73.92702,68.523 L68.597795,68.523 L99.797985,0.6965 L104.73963,0.6965 L135.93982,68.523 L130.610595,68.523 L121.890045,49.434685 Z M120.04904,45.2682 L102.22036,6.12262 L84.488575,45.2682 L120.04904,45.2682 Z M148.245485,0.6965 L153.18713,0.6965 L153.18713,64.06583 L192.235815,64.06583 L192.235815,68.523 L148.245485,68.523 L148.245485,0.6965 Z M204.92906,0.6965 L209.870705,0.6965 L209.870705,64.06583 L248.91939,64.06583 L248.91939,68.523 L204.92906,68.523 L204.92906,0.6965 Z M303.665065,49.434685 L264.325695,49.434685 L255.70204,68.523 L250.372815,68.523 L281.573005,0.6965 L286.51465,0.6965 L317.71484,68.523 L312.385615,68.523 L303.665065,49.434685 Z M301.82406,45.2682 L283.99538,6.12262 L266.263595,45.2682 L301.82406,45.2682 Z M377.111475,68.523 L360.93001,45.84957 C358.539921,46.1725549 356.343657,46.334045 354.34115,46.334045 L334.96215,46.334045 L334.96215,68.523 L330.020505,68.523 L330.020505,0.6965 L354.34115,0.6965 C362.867953,0.6965 369.553641,2.71512565 374.398415,6.7524375 C379.243189,10.7897494 381.66554,16.3934541 381.66554,23.56372 C381.66554,28.9252701 380.292875,33.4308426 377.547503,37.0805725 C374.80213,40.7303024 370.877922,43.2979942 365.77476,44.783725 L382.731385,68.523 L377.111475,68.523 Z M354.34115,41.97377 C361.576013,41.97377 367.098973,40.3750185 370.910195,37.1774675 C374.721417,33.9799165 376.627,29.4420461 376.627,23.56372 C376.627,17.6853939 374.721417,13.1475235 370.910195,9.9499725 C367.098973,6.75242151 361.576013,5.15367 354.34115,5.15367 L334.96215,5.15367 L334.96215,41.97377 L354.34115,41.97377 Z" id="DALLAR"></path>
            </g>
            <path d="M119.5,0.063 C185.207,0.063 238.552,53.432 238.552,119.167 C238.552,184.903 185.207,238.272 119.5,238.272 C53.793,238.272 0.448,184.903 0.448,119.167 C0.448,53.432 53.793,0.063 119.5,0.063 Z M83.486,126.385 L150.325,126.385 L150.325,149.322 L97.298,149.076 L97.298,154.255 L151.805,154.502 L151.558,163.381 L84.226,163.628 L83.979,140.197 L137.007,139.95 L137.007,135.511 L83.732,135.757 L83.486,126.385 Z M136.513,74.837 L137.007,120.712 L150.325,120.959 L150.572,108.38 L162.164,108.38 C162.124,108.391 162.559,96.028 161.671,96.048 C159.542,96.097 150.079,96.048 150.079,96.048 C150.102,88.881 150.263,81.663 151.558,75.084 L136.513,74.837 Z M114.316,106.284 L90.638,106.284 L90.885,90.252 L123.935,90.006 L123.935,79.153 L76.827,78.907 L76.58,118.369 C76.58,118.369 103.446,118.616 103.464,118.616 C103.531,118.617 103.599,118.618 103.666,118.62 C105.01,118.651 112.798,118.779 119.742,117.876 C127.403,116.88 130.594,115.409 130.594,115.409 C130.594,115.409 131.723,103.963 130.101,104.311 C121.494,106.155 114.358,106.283 114.316,106.284 Z" id="Dallar"></path>
        </g>
    </g>
</svg>