<?xml version="1.0" encoding="UTF-8" standalone="no"?><!DOCTYPE svg PUBLIC "-//W3C//DTD SVG 1.1//EN" "http://www.w3.org/Graphics/SVG/1.1/DTD/svg11.dtd"><svg width="100%" height="100%" viewBox="0 0 640 241" version="1.1" xmlns="http://www.w3.org/2000/svg" xmlns:xlink="http://www.w3.org/1999/xlink" xml:space="preserve" xmlns:serif="http://www.serif.com/" style="fill-rule:evenodd;clip-rule:evenodd;stroke-linejoin:round;stroke-miterlimit:1.41421;"><rect x="0" y="0" width="640" height="241" style="fill:#fff;"/><path id="Dallar" d="M120.5,1.063c65.707,0 119.052,53.369 119.052,119.104c0,65.736 -53.345,119.105 -119.052,119.105c-65.707,0 -119.052,-53.369 -119.052,-119.105c0,-65.735 53.345,-119.104 119.052,-119.104Zm-36.014,126.322l66.839,0l0,22.937l-53.027,-0.246l0,5.179l54.507,0.247l-0.247,8.879l-67.332,0.247l-0.247,-23.431l53.028,-0.247l0,-4.439l-53.275,0.246l-0.246,-9.372Zm53.027,-51.548l0.494,45.875l13.318,0.247l0.247,-12.579l11.592,0c-0.04,0.011 0.395,-12.352 -0.493,-12.332c-2.129,0.049 -11.592,0 -11.592,0c0.023,-7.167 0.184,-14.385 1.479,-20.964l-15.045,-0.247Zm-22.197,31.447l-23.678,0l0.247,-16.032l33.05,-0.246l0,-10.853l-47.108,-0.246l-0.247,39.462c0,0 26.866,0.247 26.884,0.247c0.067,0.001 0.135,0.002 0.202,0.004c1.344,0.031 9.132,0.159 16.076,-0.744c7.661,-0.996 10.852,-2.467 10.852,-2.467c0,0 1.129,-11.446 -0.493,-11.098c-8.607,1.844 -15.743,1.972 -15.785,1.973Z" style="fill:#c31427;"/><g id="Red-Dallar" serif:id="Red Dallar"><text x="258.621px" y="196.816px" style="font-family:'Montserrat-Bold', 'Montserrat';font-weight:700;font-size:84.967px;fill:#c31427;">W<tspan x="354.28px " y="196.816px ">A</tspan>LL<tspan x="522.129px " y="196.816px ">E</tspan>T</text><text x="249.047px" y="111.523px" style="font-family:'Montserrat-Light', 'Montserrat';font-weight:300;font-size:96.895px;fill:#c31427;">D<tspan x="325.841px 392.19px 447.245px 502.394px 568.742px " y="111.523px 111.523px 111.523px 111.523px 111.523px ">ALLAR</tspan></text></g></svg>