<?xml version="1.0" encoding="UTF-8" standalone="no"?><!DOCTYPE svg PUBLIC "-//W3C//DTD SVG 1.1//EN" "http://www.w3.org/Graphics/SVG/1.1/DTD/svg11.dtd"><svg width="100%" height="100%" viewBox="0 0 97 100" version="1.1" xmlns="http://www.w3.org/2000/svg" xmlns:xlink="http://www.w3.org/1999/xlink" xml:space="preserve" xmlns:serif="http://www.serif.com/" style="fill-rule:evenodd;clip-rule:evenodd;stroke-linecap:square;stroke-linejoin:bevel;stroke-miterlimit:3;"><g id="Receive"><g id="receive-selected"><g><rect x="55.045" y="1.305" width="40.516" height="39.824" style="fill:#7a4a50;"/><path d="M97.06,42.629l-43.515,0l0,-42.824l43.515,0l0,42.824Zm-40.515,-39.824l0,36.824l37.515,0l0,-36.824l-37.515,0Z" style="fill:#41282b;"/><rect x="71.497" y="17.2" width="7.612" height="8.035" style="fill:#41282b;"/></g><g><rect x="0" y="1.305" width="40.516" height="39.824" style="fill:#7a4a50;"/><path d="M42.016,42.629l-43.516,0l0,-42.824l43.516,0l0,42.824Zm-40.516,-39.824l0,36.824l37.516,0l0,-36.824l-37.516,0Z" style="fill:#41282b;"/><rect x="16.452" y="17.2" width="7.612" height="8.035" style="fill:#41282b;"/></g><g><rect x="0" y="55.524" width="40.516" height="39.824" style="fill:#7a4a50;"/><path d="M42.016,96.848l-43.516,0l0,-42.824l43.516,0l0,42.824Zm-40.516,-39.824l0,36.824l37.516,0l0,-36.824l-37.516,0Z" style="fill:#41282b;"/><rect x="16.452" y="71.419" width="7.612" height="8.035" style="fill:#41282b;"/></g><g id="rs"><path d="M59.713,79.998l0.423,15.35l32.562,0" style="fill:none;stroke:#41282b;stroke-width:5px;"/><path d="M59.713,55.524l0,13.056l16.493,0l0,-13.056l18.509,0l0,19.912" style="fill:none;stroke:#41282b;stroke-width:5px;"/></g></g></g></svg>