<?xml version="1.0" encoding="UTF-8" standalone="no"?><!DOCTYPE svg PUBLIC "-//W3C//DTD SVG 1.1//EN" "http://www.w3.org/Graphics/SVG/1.1/DTD/svg11.dtd"><svg width="100%" height="100%" viewBox="0 0 97 100" version="1.1" xmlns="http://www.w3.org/2000/svg" xmlns:xlink="http://www.w3.org/1999/xlink" xml:space="preserve" xmlns:serif="http://www.serif.com/" style="fill-rule:evenodd;clip-rule:evenodd;stroke-linejoin:round;stroke-miterlimit:1.41421;"><g id="Settings"><g id="settings-selected"><path d="M61.135,2.385c-8.271,-2.332 -16.999,-2.332 -25.27,0c-0.877,3.527 -1.242,7.109 -1.093,10.747c-3.753,1.485 -7.255,3.569 -10.379,6.177c-2.981,-1.951 -6.173,-3.417 -9.574,-4.397c-6.095,6.218 -10.459,14.01 -12.635,22.561c2.524,2.547 5.351,4.663 8.481,6.349c-0.629,4.093 -0.629,8.263 0,12.356c-3.13,1.686 -5.957,3.802 -8.481,6.349c2.176,8.551 6.54,16.343 12.635,22.561c3.401,-0.98 6.593,-2.446 9.574,-4.397c3.124,2.608 6.626,4.692 10.379,6.177c-0.149,3.638 0.216,7.22 1.093,10.747c8.271,2.332 16.999,2.332 25.27,0c0.877,-3.527 1.242,-7.109 1.093,-10.747c3.753,-1.485 7.255,-3.569 10.379,-6.177c2.981,1.951 6.173,3.417 9.574,4.397c6.095,-6.218 10.459,-14.01 12.635,-22.561c-2.524,-2.547 -5.351,-4.663 -8.481,-6.349c0.629,-4.093 0.629,-8.263 0,-12.356c3.13,-1.686 5.957,-3.802 8.481,-6.349c-2.176,-8.551 -6.54,-16.343 -12.635,-22.561c-3.401,0.98 -6.593,2.446 -9.574,4.397c-3.124,-2.608 -6.626,-4.692 -10.379,-6.177c0.149,-3.638 -0.216,-7.22 -1.093,-10.747Zm-12.635,33.299c7.664,0 13.886,6.415 13.886,14.316c0,7.901 -6.222,14.316 -13.886,14.316c-7.664,0 -13.886,-6.415 -13.886,-14.316c0,-7.901 6.222,-14.316 13.886,-14.316Z" style="fill:#41282b;"/><path d="M55.991,7.078c-4.954,-0.919 -10.028,-0.919 -14.982,0c-0.477,4.435 -1.218,8.822 -2.224,13.162c-3.842,1.333 -7.387,3.443 -10.427,6.206c-4.149,-1.272 -8.205,-2.804 -12.169,-4.595c-3.249,3.963 -5.786,8.493 -7.491,13.376c3.487,2.643 6.802,5.499 9.945,8.567c-0.802,4.096 -0.802,8.316 0,12.412c-3.143,3.068 -6.458,5.924 -9.945,8.567c1.705,4.883 4.242,9.413 7.491,13.376c3.964,-1.791 8.02,-3.323 12.169,-4.595c3.04,2.763 6.585,4.873 10.427,6.206c1.006,4.34 1.747,8.727 2.224,13.162c4.954,0.919 10.028,0.919 14.982,0c0.477,-4.435 1.218,-8.822 2.224,-13.162c3.842,-1.333 7.387,-3.443 10.427,-6.206c4.149,1.272 8.205,2.804 12.169,4.595c3.249,-3.963 5.786,-8.493 7.491,-13.376c-3.487,-2.643 -6.802,-5.499 -9.945,-8.567c0.802,-4.096 0.802,-8.316 0,-12.412c3.143,-3.068 6.458,-5.924 9.945,-8.567c-1.705,-4.883 -4.242,-9.413 -7.491,-13.376c-3.964,1.791 -8.02,3.323 -12.169,4.595c-3.04,-2.763 -6.585,-4.873 -10.427,-6.206c-1.006,-4.34 -1.747,-8.727 -2.224,-13.162Zm-7.491,21.988c11.207,0 20.306,9.38 20.306,20.934c0,11.554 -9.099,20.934 -20.306,20.934c-11.207,0 -20.306,-9.38 -20.306,-20.934c0,-11.554 9.099,-20.934 20.306,-20.934Z" style="fill:#7a4a50;"/></g></g></svg>