<?xml version="1.0" encoding="UTF-8" standalone="no"?><!DOCTYPE svg PUBLIC "-//W3C//DTD SVG 1.1//EN" "http://www.w3.org/Graphics/SVG/1.1/DTD/svg11.dtd"><svg width="100%" height="100%" viewBox="0 0 97 100" version="1.1" xmlns="http://www.w3.org/2000/svg" xmlns:xlink="http://www.w3.org/1999/xlink" xml:space="preserve" xmlns:serif="http://www.serif.com/" style="fill-rule:evenodd;clip-rule:evenodd;stroke-linejoin:round;stroke-miterlimit:1.41421;"><g id="Send"><g id="send"><path d="M95.14,3.617l-0.369,1.068l-21.969,63.852l-9.366,27.257l-2.493,0.453l-22.34,-27.011l-2.127,-2.573l-9.892,9.089l-9.559,8.759l-2.983,-1.678l1.162,-5.815l5.827,-29.085l-5.826,-7.365l-11.511,-14.479l0.162,-0.462l0.531,-1.532l20.126,-4.709l12.272,-2.93l6.065,-1.467l5.934,-1.451l22.631,-5.603l22.533,-5.617l1.192,1.299Zm-23.287,6.101l-22.65,5.525l-5.931,1.465l-6.054,1.511l-12.232,3.093l-18.063,4.653l10.676,12.641l6.285,7.404l0.329,0.387l0.017,-0.014l14.8,17.934l-0.063,0.058l-0.077,0.071l2.221,2.734l20.471,25.212l8.754,-24.716l22.283,-62.989l-20.766,5.031Zm-53.143,67.995l-0.081,0.409l4.386,-4.043l10.945,-10.065l0.056,-0.051l-10.159,-12.5l-5.147,26.25Z" style="fill:#41282b;"/><path d="M95.683,2.309l0.011,0.017l0.208,1.294l-0.775,1.109l-0.009,0.005l-5.415,3.556l-4.147,2.71l-2.776,1.789l-4.213,2.613l-5.32,3.272l-12.502,7.663l-12.549,7.72l-5.378,3.344l-4.295,2.714l-1.116,0.726l-1.131,0.754l-2.267,1.557l-4.257,3.055l-3.329,2.483l-1.646,1.258l-0.086,0.066l-0.008,0.006l-1.257,0.278l-1.112,-0.793l-0.011,-0.017l-0.26,-1.342l0.774,-1.028l0.009,-0.005l0.096,-0.05l1.827,-0.976l3.642,-1.998l4.545,-2.605l2.358,-1.416l1.156,-0.716l1.123,-0.714l4.251,-2.781l5.276,-3.505l12.232,-8.212l12.161,-8.194l5.185,-3.482l4.126,-2.748l2.78,-1.784l4.186,-2.648l5.483,-3.451l0.009,-0.005l1.331,-0.245l1.09,0.726Z" style="fill:#41282b;"/></g><g id="send-selected"><path d="M95.369,2.029l0.014,0.014l0.567,1.24l-0.509,1.184l-0.007,0.007l-0.085,0.076l-1.618,1.453l-3.213,2.95l-3.986,3.793l-2.054,2.031l-1.002,1.018l-0.97,1.007l-3.654,3.888l-4.521,4.88l-10.467,11.397l-10.4,11.361l-4.437,4.832l-3.534,3.823l-2.397,2.508l-3.618,3.739l-4.741,4.881l-0.007,0.007l-1.236,0.552l-1.231,-0.449l-0.015,-0.014l-0.506,-1.209l0.492,-1.26l0.007,-0.007l4.651,-4.967l3.565,-3.791l2.392,-2.512l3.651,-3.712l4.617,-4.66l10.856,-10.925l10.891,-10.994l4.66,-4.747l3.711,-3.833l0.96,-1.017l0.969,-1.049l1.932,-2.147l3.6,-4.161l2.795,-3.349l1.375,-1.685l0.072,-0.088l0.006,-0.008l1.159,-0.564l1.266,0.507Z" style="fill:#41282b;fill-opacity:0.376471;"/><g><path d="M22.879,47.49l-18.2,-22.209l89.507,-21.997l-32.111,92.035l-39.196,-47.829l13.644,16.65l-20.719,19.043l7.075,-35.693Z" style="fill:url(#_Linear1);"/><path d="M95.14,3.617l-0.369,1.068l-21.969,63.852l-9.366,27.257l-2.493,0.453l-22.34,-27.011l-2.127,-2.573l-9.892,9.089l-9.559,8.759l-2.983,-1.678l1.162,-5.815l5.827,-29.085l-5.826,-7.365l-11.511,-14.479l0.162,-0.462l0.531,-1.532l20.126,-4.709l12.272,-2.93l6.065,-1.467l5.934,-1.451l22.631,-5.603l22.533,-5.617l1.192,1.299Zm-23.287,6.101l-22.65,5.525l-5.931,1.465l-6.054,1.511l-12.232,3.093l-18.063,4.653l10.676,12.641l6.285,7.404l0.329,0.387l0.017,-0.014l14.8,17.934l-0.063,0.058l-0.077,0.071l2.221,2.734l20.471,25.212l8.754,-24.716l22.283,-62.989l-20.766,5.031Zm-53.143,67.995l-0.081,0.409l4.386,-4.043l10.945,-10.065l0.056,-0.051l-10.159,-12.5l-5.147,26.25Z" style="fill:#893b3b;"/></g><g><path d="M23.759,48.564l70.427,-45.28" style="fill:#41282b;"/><path d="M95.683,2.309l0.011,0.017l0.208,1.294l-0.775,1.109l-0.009,0.005l-5.415,3.556l-4.147,2.71l-2.776,1.789l-4.213,2.613l-5.32,3.272l-12.502,7.663l-12.549,7.72l-5.378,3.344l-4.295,2.714l-1.116,0.726l-1.131,0.754l-2.267,1.557l-4.257,3.055l-3.329,2.483l-1.646,1.258l-0.086,0.066l-0.008,0.006l-1.257,0.278l-1.112,-0.793l-0.011,-0.017l-0.26,-1.342l0.774,-1.028l0.009,-0.005l0.096,-0.05l1.827,-0.976l3.642,-1.998l4.545,-2.605l2.358,-1.416l1.156,-0.716l1.123,-0.714l4.251,-2.781l5.276,-3.505l12.232,-8.212l12.161,-8.194l5.185,-3.482l4.126,-2.748l2.78,-1.784l4.186,-2.648l5.483,-3.451l0.009,-0.005l1.331,-0.245l1.09,0.726Z" style="fill:#893b3b;"/></g></g></g><defs><linearGradient id="_Linear1" x1="0" y1="0" x2="1" y2="0" gradientUnits="userSpaceOnUse" gradientTransform="matrix(71.3163,17.3096,-17.3096,71.3163,8.20454,25.9237)"><stop offset="0" style="stop-color:#41282b;stop-opacity:0.556863"/><stop offset="1" style="stop-color:#935a61;stop-opacity:0.94902"/></linearGradient></defs></svg>