<?xml version="1.0" encoding="UTF-8" standalone="no"?><!DOCTYPE svg PUBLIC "-//W3C//DTD SVG 1.1//EN" "http://www.w3.org/Graphics/SVG/1.1/DTD/svg11.dtd"><svg width="100%" height="100%" viewBox="0 0 97 100" version="1.1" xmlns="http://www.w3.org/2000/svg" xmlns:xlink="http://www.w3.org/1999/xlink" xml:space="preserve" xmlns:serif="http://www.serif.com/" style="fill-rule:evenodd;clip-rule:evenodd;stroke-linejoin:round;stroke-miterlimit:1.41421;"><g id="Send"><g id="send"><path d="M95.14,3.617l-0.369,1.068l-21.969,63.852l-9.366,27.257l-2.493,0.453l-22.34,-27.011l-2.127,-2.573l-9.892,9.089l-9.559,8.759l-2.983,-1.678l1.162,-5.815l5.827,-29.085l-5.826,-7.365l-11.511,-14.479l0.162,-0.462l0.531,-1.532l20.126,-4.709l12.272,-2.93l6.065,-1.467l5.934,-1.451l22.631,-5.603l22.533,-5.617l1.192,1.299Zm-23.287,6.101l-22.65,5.525l-5.931,1.465l-6.054,1.511l-12.232,3.093l-18.063,4.653l10.676,12.641l6.285,7.404l0.329,0.387l0.017,-0.014l14.8,17.934l-0.063,0.058l-0.077,0.071l2.221,2.734l20.471,25.212l8.754,-24.716l22.283,-62.989l-20.766,5.031Zm-53.143,67.995l-0.081,0.409l4.386,-4.043l10.945,-10.065l0.056,-0.051l-10.159,-12.5l-5.147,26.25Z" style="fill:#41282b;"/><path d="M95.683,2.309l0.011,0.017l0.208,1.294l-0.775,1.109l-0.009,0.005l-5.415,3.556l-4.147,2.71l-2.776,1.789l-4.213,2.613l-5.32,3.272l-12.502,7.663l-12.549,7.72l-5.378,3.344l-4.295,2.714l-1.116,0.726l-1.131,0.754l-2.267,1.557l-4.257,3.055l-3.329,2.483l-1.646,1.258l-0.086,0.066l-0.008,0.006l-1.257,0.278l-1.112,-0.793l-0.011,-0.017l-0.26,-1.342l0.774,-1.028l0.009,-0.005l0.096,-0.05l1.827,-0.976l3.642,-1.998l4.545,-2.605l2.358,-1.416l1.156,-0.716l1.123,-0.714l4.251,-2.781l5.276,-3.505l12.232,-8.212l12.161,-8.194l5.185,-3.482l4.126,-2.748l2.78,-1.784l4.186,-2.648l5.483,-3.451l0.009,-0.005l1.331,-0.245l1.09,0.726Z" style="fill:#41282b;"/></g></g></svg>